<svg width="73" height="32" viewBox="0 0 73 32" fill="none" xmlns="http://www.w3.org/2000/svg">
<path d="M67.3333 29C67.3333 30.4728 68.5272 31.6667 70 31.6667C71.4728 31.6667 72.6667 30.4728 72.6667 29C72.6667 27.5272 71.4728 26.3333 70 26.3333C68.5272 26.3333 67.3333 27.5272 67.3333 29ZM3 29H2.5V29.5H3V29ZM0.333333 3C0.333333 4.47276 1.52724 5.66667 3 5.66667C4.47276 5.66667 5.66667 4.47276 5.66667 3C5.66667 1.52724 4.47276 0.333333 3 0.333333C1.52724 0.333333 0.333333 1.52724 0.333333 3ZM70 28.5H3V29.5H70V28.5ZM3.5 29V3H2.5V29H3.5Z" fill="#00A4FD"/>
</svg>
