<svg width="246" height="197" viewBox="0 0 246 197" fill="none" xmlns="http://www.w3.org/2000/svg">
<g clip-path="url(#clip0_476_19068)">
<path d="M76.024 174.348C77.16 170.952 75.456 167.283 70.9118 164.639C63.664 160.446 51.9402 160.446 44.7377 164.639C39.9891 167.397 38.3987 171.294 39.921 174.827C41.1706 178.245 45.9874 191.487 46.0101 191.692C46.2827 193.219 47.4188 194.7 49.4409 195.862C49.8044 196.067 50.1907 196.273 50.5996 196.455C51.872 197.025 53.3034 197.412 54.7802 197.64C58.62 198.233 62.846 197.686 65.9133 195.999C66.0042 195.954 66.0951 195.908 66.186 195.84C67.2538 195.224 68.049 194.518 68.6171 193.766L75.8195 174.827C75.8876 174.667 75.9558 174.508 76.0012 174.348H76.024ZM45.2149 180.068C45.2149 180.068 45.3058 180.114 45.3285 180.137C45.283 180.137 45.2376 180.091 45.2149 180.068ZM45.6238 180.274C45.6238 180.274 45.7147 180.319 45.7602 180.342C45.7147 180.319 45.6693 180.296 45.6238 180.274ZM46.6235 180.752C46.6235 180.752 46.6463 180.752 46.669 180.752C46.669 180.752 46.669 180.752 46.6463 180.752H46.6235ZM46.0783 180.501C46.0783 180.501 46.1464 180.547 46.1919 180.547C46.1464 180.547 46.1237 180.501 46.0783 180.501ZM50.5769 182.12C50.5769 182.12 50.6224 182.12 50.6451 182.12C50.6451 182.12 50.5996 182.12 50.5769 182.12ZM47.3733 181.071C47.3733 181.071 47.396 181.071 47.4188 181.071C47.4188 181.071 47.396 181.071 47.3733 181.071ZM48.1458 181.368C48.1458 181.368 48.1685 181.368 48.1913 181.368C48.1913 181.368 48.1685 181.368 48.1458 181.368ZM49.759 181.892C49.759 181.892 49.8044 181.892 49.8271 181.892C49.8271 181.892 49.7817 181.892 49.759 181.892ZM53.1443 182.621C53.1443 182.621 53.2352 182.621 53.2807 182.621C53.258 182.621 53.2125 182.621 53.1898 182.621C53.1898 182.621 53.1898 182.621 53.1671 182.621H53.1443ZM51.4176 182.302C51.4176 182.302 51.463 182.302 51.4857 182.302C51.463 182.302 51.4403 182.302 51.4176 182.302ZM52.281 182.484C52.281 182.484 52.3264 182.484 52.3491 182.484C52.3264 182.484 52.3037 182.484 52.281 182.484ZM53.6442 182.712C53.6442 182.712 53.7578 182.712 53.8032 182.712C53.7578 182.712 53.6896 182.712 53.6442 182.712ZM54.2122 182.781C54.2122 182.781 54.3031 182.781 54.3485 182.781C54.3031 182.781 54.2577 182.781 54.2122 182.781ZM57.643 182.986C57.643 182.986 57.7566 182.986 57.8021 182.986C57.7566 182.986 57.6885 182.986 57.643 182.986ZM54.8484 182.849C54.8484 182.849 54.9166 182.849 54.962 182.849C54.9166 182.849 54.8938 182.849 54.8484 182.849ZM55.371 182.895C55.371 182.895 55.4846 182.895 55.53 182.895C55.4846 182.895 55.4164 182.895 55.371 182.895ZM55.9163 182.917C55.9163 182.917 56.0299 182.917 56.0753 182.917C56.0299 182.917 55.9617 182.917 55.9163 182.917ZM56.5979 182.963C56.5979 182.963 56.5979 182.963 56.6206 182.963C56.6206 182.963 56.6206 182.963 56.5979 182.963ZM57.1204 182.986C57.1204 182.986 57.234 182.986 57.2795 182.986C57.234 182.986 57.1659 182.986 57.1204 182.986ZM58.2565 182.986C58.2565 182.986 58.3246 182.986 58.3474 182.986C58.3246 182.986 58.2792 182.986 58.2565 182.986ZM58.8472 182.986C58.8472 182.986 58.9381 182.986 58.9835 182.986C58.9381 182.986 58.8927 182.986 58.8472 182.986ZM59.3925 182.963C59.3925 182.963 59.5061 182.963 59.5515 182.963C59.5061 182.963 59.4379 182.963 59.3925 182.963ZM59.9378 182.917C59.9378 182.917 60.0287 182.917 60.0741 182.917C60.0287 182.917 59.9832 182.917 59.9378 182.917ZM60.5967 182.872C60.5967 182.872 60.6649 182.872 60.6876 182.872C60.6649 182.872 60.6194 182.872 60.5967 182.872ZM61.1193 182.826C61.1193 182.826 61.2329 182.826 61.2783 182.826C61.2329 182.826 61.1647 182.826 61.1193 182.826ZM61.6646 182.758C61.6646 182.758 61.7782 182.758 61.8236 182.758C61.7782 182.758 61.71 182.758 61.6646 182.758ZM62.8233 182.598C62.8233 182.598 62.9369 182.598 62.9824 182.575C62.9369 182.575 62.8688 182.575 62.8233 182.598ZM63.3459 182.507C63.3459 182.507 63.4595 182.507 63.5049 182.484C63.4595 182.484 63.3913 182.484 63.3459 182.507ZM63.9139 182.416C63.9139 182.416 63.9821 182.416 64.0048 182.416C63.9821 182.416 63.9366 182.416 63.9139 182.416ZM64.5046 182.279C64.5046 182.279 64.5955 182.279 64.641 182.256C64.5955 182.256 64.5501 182.256 64.5046 182.279ZM65.0045 182.165C65.0045 182.165 65.1181 182.142 65.1635 182.12C65.1181 182.12 65.0499 182.142 65.0045 182.165ZM65.5271 182.051C65.5271 182.051 65.6179 182.051 65.6634 182.006C65.6179 182.006 65.5725 182.006 65.5271 182.051ZM70.4801 180.114C70.4801 180.114 70.5483 180.068 70.5938 180.046C70.5938 180.046 70.5938 180.046 70.571 180.046C70.5483 180.046 70.5256 180.068 70.4801 180.091V180.114ZM66.1405 181.869C66.1405 181.869 66.2087 181.869 66.2314 181.846C66.2087 181.846 66.1632 181.846 66.1405 181.869ZM66.6176 181.732C66.6176 181.732 66.7085 181.709 66.7767 181.687C66.7313 181.687 66.6858 181.709 66.6176 181.732ZM67.0948 181.573C67.0948 181.573 67.1857 181.55 67.2311 181.527C67.1857 181.527 67.1402 181.55 67.0948 181.573ZM68.1626 181.185C68.1626 181.185 68.2535 181.14 68.299 181.14C68.2535 181.14 68.2081 181.185 68.1626 181.185ZM68.6171 181.003C68.6171 181.003 68.7079 180.957 68.7534 180.935C68.7079 180.935 68.6625 180.98 68.6171 181.003ZM69.0942 180.798C69.0942 180.798 69.1624 180.775 69.1851 180.752C69.1624 180.752 69.1169 180.775 69.0942 180.798ZM69.6168 180.57C69.6168 180.57 69.6849 180.524 69.7304 180.524C69.6849 180.524 69.6622 180.57 69.6168 180.57ZM70.0485 180.342C70.0485 180.342 70.1393 180.296 70.1848 180.274C70.1393 180.296 70.0939 180.319 70.0485 180.342ZM71.2981 179.658C71.2981 179.658 71.0936 179.795 70.98 179.841C71.0936 179.772 71.1845 179.704 71.2981 179.658ZM73.7519 177.767C73.7519 177.767 73.661 177.858 73.5929 177.903C73.6383 177.858 73.6837 177.812 73.7519 177.767ZM73.5247 177.995C73.5247 177.995 73.4338 178.086 73.3884 178.131C73.4338 178.086 73.4793 178.04 73.5247 177.995ZM73.2748 178.222C73.2748 178.222 73.1839 178.314 73.1385 178.336C73.1839 178.291 73.2293 178.245 73.2748 178.222ZM73.0248 178.428C73.0248 178.428 72.934 178.519 72.8885 178.542C72.934 178.496 72.9794 178.473 73.0248 178.428ZM72.7522 178.655C72.7522 178.655 72.6613 178.724 72.5932 178.769C72.6386 178.724 72.7068 178.701 72.7522 178.655ZM72.4796 178.861C72.4796 178.861 72.366 178.929 72.3205 178.975C72.366 178.929 72.4341 178.906 72.4796 178.861ZM72.2069 179.066C72.2069 179.066 72.0933 179.134 72.0479 179.18C72.0933 179.134 72.1615 179.111 72.2069 179.066ZM71.9115 179.248C71.9115 179.248 71.7979 179.339 71.7298 179.362C71.7979 179.316 71.8434 179.294 71.9115 179.248ZM71.6162 179.453C71.6162 179.453 71.4799 179.544 71.4117 179.59C71.4799 179.544 71.548 179.499 71.6162 179.453ZM73.8428 177.698C73.8428 177.698 73.9791 177.562 74.0246 177.516C73.9564 177.584 73.911 177.653 73.8428 177.698ZM74.7971 176.604C74.7971 176.604 74.7516 176.673 74.7289 176.695C74.7516 176.673 74.7743 176.627 74.7971 176.604ZM74.0473 177.47C74.0473 177.47 74.1836 177.311 74.2518 177.242C74.1836 177.311 74.1154 177.402 74.0473 177.47ZM74.3199 177.174C74.3199 177.174 74.4108 177.06 74.4562 177.015C74.4108 177.06 74.3654 177.128 74.3199 177.174ZM74.5244 176.923C74.5244 176.923 74.5926 176.832 74.638 176.787C74.5926 176.832 74.5699 176.878 74.5244 176.923Z" fill="url(#paint0_linear_476_19068)"/>
<path d="M59.3473 179.544L59.2564 210.494C59.2564 210.721 59.1201 210.927 58.8247 211.109C58.2567 211.451 57.3024 211.451 56.7344 211.109C56.4391 210.949 56.3027 210.721 56.3027 210.494L56.3936 179.544C56.3936 179.772 56.5299 180 56.8253 180.159C57.416 180.501 58.3476 180.501 58.9156 180.159C59.211 180 59.3473 179.772 59.3473 179.544Z" fill="#868596"/>
<mask id="mask0_476_19068" style="mask-type:luminance" maskUnits="userSpaceOnUse" x="56" y="179" width="4" height="33">
<path d="M59.3473 179.544L59.2564 210.494C59.2564 210.721 59.1201 210.927 58.8247 211.109C58.2567 211.451 57.3024 211.451 56.7344 211.109C56.4391 210.949 56.3027 210.721 56.3027 210.494L56.3936 179.544C56.3936 179.772 56.5299 180 56.8253 180.159C57.416 180.501 58.3476 180.501 58.9156 180.159C59.211 180 59.3473 179.772 59.3473 179.544Z" fill="white"/>
</mask>
<g mask="url(#mask0_476_19068)">
<path d="M59.3473 179.543L59.2564 210.493C59.2564 210.493 59.2564 210.63 59.2109 210.698L59.3018 179.749C59.3018 179.749 59.3473 179.612 59.3473 179.543Z" fill="#868596"/>
<path d="M59.3018 179.749L59.211 210.699C59.1428 210.835 59.0292 210.995 58.8247 211.109C58.5293 211.291 58.1431 211.36 57.7568 211.36L57.8477 180.41C58.234 180.41 58.6202 180.319 58.9156 180.159C59.1201 180.045 59.2337 179.909 59.3018 179.749Z" fill="#757088"/>
<path d="M57.8477 180.387L57.7568 211.337C57.3933 211.337 57.0071 211.246 56.7344 211.086C56.4391 210.926 56.3027 210.699 56.3027 210.471L56.3936 179.521C56.3936 179.749 56.5299 179.977 56.8253 180.136C57.1207 180.296 57.4842 180.387 57.8477 180.387Z" fill="#868596"/>
</g>
<path d="M58.9152 178.929C59.5059 179.271 59.5059 179.818 58.9152 180.159C58.3472 180.501 57.3929 180.501 56.8249 180.159C56.2342 179.818 56.2342 179.271 56.8249 178.929C57.3929 178.587 58.3472 178.587 58.9152 178.929Z" fill="#8A8AA6"/>
<path d="M41.7613 169.174L41.6705 200.124C41.6705 200.352 41.5341 200.557 41.2388 200.739C40.6708 201.081 39.7165 201.081 39.1485 200.739C38.8531 200.58 38.7168 200.352 38.7168 200.124L38.8077 169.174C38.8077 169.402 38.944 169.63 39.2394 169.79C39.8301 170.132 40.7616 170.132 41.3297 169.79C41.625 169.63 41.7613 169.402 41.7613 169.174Z" fill="#868596"/>
<mask id="mask1_476_19068" style="mask-type:luminance" maskUnits="userSpaceOnUse" x="38" y="169" width="4" height="32">
<path d="M41.7613 169.174L41.6705 200.124C41.6705 200.352 41.5341 200.557 41.2388 200.739C40.6708 201.081 39.7165 201.081 39.1485 200.739C38.8531 200.58 38.7168 200.352 38.7168 200.124L38.8077 169.174C38.8077 169.402 38.944 169.63 39.2394 169.79C39.8301 170.132 40.7616 170.132 41.3297 169.79C41.625 169.63 41.7613 169.402 41.7613 169.174Z" fill="white"/>
</mask>
<g mask="url(#mask1_476_19068)">
<path d="M41.7603 169.174L41.6695 200.124C41.6695 200.124 41.6695 200.261 41.624 200.329L41.7149 169.379C41.7149 169.379 41.7603 169.243 41.7603 169.174Z" fill="#868596"/>
<path d="M41.7149 169.38L41.624 200.33C41.5559 200.466 41.4423 200.626 41.2378 200.74C40.9424 200.922 40.5562 200.99 40.1699 200.99L40.2608 170.041C40.6471 170.041 41.0333 169.95 41.3287 169.79C41.5332 169.676 41.6468 169.539 41.7149 169.38Z" fill="#757088"/>
<path d="M40.2384 170.018L40.1475 200.968C39.7839 200.968 39.3977 200.876 39.125 200.717C38.8297 200.557 38.6934 200.329 38.6934 200.101L38.7842 169.152C38.7842 169.38 38.9206 169.608 39.2159 169.767C39.5113 169.927 39.8748 170.018 40.2384 170.018Z" fill="#868596"/>
</g>
<path d="M41.3068 168.559C41.8975 168.901 41.8975 169.448 41.3068 169.79C40.7388 170.132 39.7845 170.132 39.2165 169.79C38.6258 169.448 38.6258 168.901 39.2165 168.559C39.8072 168.217 40.7388 168.217 41.3068 168.559Z" fill="#8A8AA6"/>
<path d="M77.4782 169.174L77.3873 200.124C77.3873 200.352 77.2509 200.557 76.9556 200.739C76.3876 201.081 75.4333 201.081 74.8653 200.739C74.5699 200.58 74.4336 200.352 74.4336 200.124L74.5245 169.174C74.5245 169.402 74.6608 169.63 74.9562 169.79C75.5469 170.132 76.4784 170.132 77.0465 169.79C77.3418 169.63 77.4782 169.402 77.4782 169.174Z" fill="#868596"/>
<mask id="mask2_476_19068" style="mask-type:luminance" maskUnits="userSpaceOnUse" x="74" y="169" width="4" height="32">
<path d="M77.4782 169.174L77.3873 200.124C77.3873 200.352 77.2509 200.557 76.9556 200.739C76.3876 201.081 75.4333 201.081 74.8653 200.739C74.5699 200.58 74.4336 200.352 74.4336 200.124L74.5245 169.174C74.5245 169.402 74.6608 169.63 74.9562 169.79C75.5469 170.132 76.4784 170.132 77.0465 169.79C77.3418 169.63 77.4782 169.402 77.4782 169.174Z" fill="white"/>
</mask>
<g mask="url(#mask2_476_19068)">
<path d="M77.4781 169.174L77.3872 200.123C77.3872 200.123 77.3872 200.26 77.3418 200.329L77.4327 169.379C77.4327 169.379 77.4781 169.242 77.4781 169.174Z" fill="#868596"/>
<path d="M77.4327 169.379L77.3418 200.329C77.2736 200.466 77.16 200.625 76.9556 200.739C76.6602 200.922 76.2739 200.99 75.8877 200.99L75.9786 170.04C76.3648 170.04 76.7511 169.949 77.0464 169.79C77.2509 169.676 77.3645 169.539 77.4327 169.379Z" fill="#757088"/>
<path d="M75.9786 170.017L75.8877 200.967C75.5242 200.967 75.1379 200.876 74.8653 200.716C74.5699 200.557 74.4336 200.329 74.4336 200.101L74.5245 169.151C74.5245 169.379 74.6608 169.607 74.9562 169.767C75.2288 169.926 75.6151 170.017 75.9786 170.017Z" fill="#868596"/>
</g>
<path d="M77.046 168.559C77.6368 168.901 77.6368 169.448 77.046 169.79C76.478 170.132 75.5238 170.132 74.9557 169.79C74.365 169.448 74.365 168.901 74.9557 168.559C75.5238 168.217 76.478 168.217 77.046 168.559Z" fill="#8A8AA6"/>
<path d="M72.1386 118.237C80.0681 122.841 80.1136 130.271 72.2295 134.875C64.3455 139.478 51.5311 139.478 43.6016 134.875C35.6721 130.271 35.6267 122.841 43.5107 118.237C51.3948 113.634 64.2092 113.634 72.1386 118.237Z" fill="#E3DDFC"/>
<path d="M78.1141 126.602L78.0232 173.892C78.0232 176.878 76.0465 179.863 72.1386 182.165C64.2546 186.769 51.4401 186.769 43.5107 182.165C39.5118 179.863 37.5352 176.809 37.5352 173.778L37.626 126.488C37.626 129.519 39.6027 132.55 43.6016 134.875C51.531 139.478 64.3682 139.478 72.2295 134.875C76.1374 132.596 78.1141 129.61 78.1141 126.602Z" fill="url(#paint1_linear_476_19068)"/>
<path d="M78.0461 125.713C77.6144 114.91 68.7307 106.272 57.8475 106.272C46.9644 106.272 38.1943 114.796 37.6717 125.531C37.5808 126.169 37.5808 126.83 37.6717 127.468C38.0352 130.157 40.0119 132.801 43.579 134.875C51.5085 139.478 64.3456 139.478 72.207 134.875C75.7286 132.824 77.6826 130.203 78.0234 127.513C78.1143 126.921 78.1143 126.328 78.0234 125.736L78.0461 125.713Z" fill="url(#paint2_radial_476_19068)"/>
<path d="M62.7777 107.639V109.827C62.7777 110.557 62.3006 111.286 61.3463 111.833C59.4378 112.95 56.3024 112.95 54.3711 111.833C53.3941 111.263 52.917 110.534 52.917 109.805V107.617C52.917 108.346 53.4168 109.098 54.3711 109.645C56.3024 110.762 59.4151 110.762 61.3463 109.645C62.3006 109.098 62.7777 108.369 62.7777 107.639Z" fill="#7C7B89"/>
<mask id="mask3_476_19068" style="mask-type:luminance" maskUnits="userSpaceOnUse" x="52" y="107" width="11" height="6">
<path d="M62.7777 107.639V109.827C62.7777 110.557 62.3006 111.286 61.3463 111.833C59.4378 112.95 56.3024 112.95 54.3711 111.833C53.3941 111.263 52.917 110.534 52.917 109.805V107.617C52.917 108.346 53.4168 109.098 54.3711 109.645C56.3024 110.762 59.4151 110.762 61.3463 109.645C62.3006 109.098 62.7777 108.369 62.7777 107.639Z" fill="white"/>
</mask>
<g mask="url(#mask3_476_19068)">
<path d="M62.7781 107.64V109.828C62.7781 110.215 62.6418 110.58 62.3691 110.944V108.756C62.6418 108.392 62.7781 108.027 62.7781 107.64Z" fill="#7C7B89"/>
<path d="M62.3925 108.756V110.944C62.1426 111.263 61.8018 111.56 61.3474 111.833C61.2565 111.901 61.1429 111.947 61.0293 111.993V109.805C61.1429 109.759 61.2565 109.691 61.3474 109.645C61.8018 109.372 62.1426 109.075 62.3925 108.756Z" fill="#7C7B89"/>
<path d="M61.052 109.827V112.015C60.0069 112.516 58.7118 112.744 57.4395 112.676V110.488C58.7118 110.556 60.0296 110.329 61.052 109.827Z" fill="#7C7B89"/>
<path d="M57.4163 110.488V112.676C56.6665 112.631 55.9167 112.494 55.2578 112.266V110.078C55.9167 110.306 56.6665 110.466 57.4163 110.488Z" fill="#7C7B89"/>
<path d="M55.2807 110.055V112.243C54.9626 112.129 54.6672 111.992 54.3945 111.833C53.4176 111.263 52.9404 110.534 52.9404 109.805V107.617C52.9404 108.346 53.4403 109.098 54.3945 109.645C54.6672 109.805 54.9626 109.941 55.2807 110.055Z" fill="#7C7B89"/>
</g>
<path d="M61.324 105.611C63.2552 106.728 63.2552 108.551 61.324 109.668C59.4154 110.785 56.28 110.785 54.3488 109.668C52.4175 108.551 52.4175 106.728 54.326 105.611C56.2346 104.495 59.37 104.495 61.3012 105.611H61.324Z" fill="#E3DDFC"/>
<path d="M60.4836 108.962C60.4836 108.962 60.37 109.03 60.3246 109.075C58.9841 109.873 56.7802 109.873 55.417 109.075C55.3261 109.03 55.2352 108.962 55.1443 108.893C54.1446 108.164 54.1446 107.116 55.1443 106.386C55.2125 106.318 55.3034 106.272 55.3942 106.227C56.7575 105.429 58.9386 105.429 60.3019 106.227C60.37 106.272 60.4382 106.295 60.4836 106.341C61.597 107.093 61.597 108.209 60.4836 108.962Z" fill="#868596"/>
<path d="M118.806 146.771C119.942 143.376 118.238 139.706 113.694 137.063C106.446 132.869 94.7224 132.869 87.52 137.063C82.7714 139.82 81.1809 143.717 82.7032 147.25C83.9528 150.669 88.7696 163.91 88.7923 164.115C89.065 165.642 90.201 167.123 92.2231 168.286C92.5866 168.491 92.9729 168.696 93.3819 168.878C94.6542 169.448 96.0856 169.835 97.5624 170.063C101.402 170.656 105.628 170.109 108.696 168.422C108.786 168.377 108.877 168.331 108.968 168.263C110.036 167.648 110.831 166.941 111.399 166.189L118.602 147.25C118.67 147.09 118.738 146.931 118.783 146.771H118.806ZM87.9971 152.515C87.9971 152.515 88.088 152.56 88.1107 152.583C88.0652 152.583 88.0198 152.537 87.9971 152.515ZM88.4061 152.72C88.4061 152.72 88.4969 152.765 88.5424 152.788C88.4969 152.765 88.4515 152.743 88.4061 152.72ZM89.383 153.198C89.383 153.198 89.4058 153.198 89.4285 153.198C89.4285 153.198 89.4285 153.198 89.4058 153.198H89.383ZM88.8605 152.948C88.8605 152.948 88.9286 152.993 88.9741 152.993C88.9286 152.993 88.9059 152.948 88.8605 152.948ZM93.3591 154.543C93.3591 154.543 93.4046 154.543 93.4273 154.543C93.4273 154.543 93.3819 154.543 93.3591 154.543ZM90.1555 153.517C90.1555 153.517 90.1783 153.517 90.201 153.517C90.201 153.517 90.1783 153.517 90.1555 153.517ZM90.928 153.814C90.928 153.814 90.9508 153.814 90.9735 153.814C90.9735 153.814 90.9508 153.814 90.928 153.814ZM92.5412 154.338C92.5412 154.338 92.5866 154.338 92.6094 154.338C92.6094 154.338 92.5639 154.338 92.5412 154.338ZM95.9266 155.067C95.9266 155.067 96.0175 155.067 96.0629 155.067C96.0402 155.067 95.9947 155.067 95.972 155.067C95.972 155.067 95.972 155.067 95.9493 155.067H95.9266ZM94.1998 154.748C94.1998 154.748 94.2453 154.748 94.268 154.748C94.2453 154.748 94.2225 154.748 94.1998 154.748ZM95.0632 154.93C95.0632 154.93 95.1086 154.93 95.1313 154.93C95.1086 154.93 95.0859 154.93 95.0632 154.93ZM96.4264 155.136C96.4264 155.136 96.54 155.136 96.5855 155.136C96.54 155.136 96.4719 155.136 96.4264 155.136ZM96.9944 155.204C96.9944 155.204 97.0853 155.204 97.1308 155.204C97.0853 155.204 97.0399 155.204 96.9944 155.204ZM100.425 155.432C100.425 155.432 100.539 155.432 100.584 155.432C100.539 155.432 100.471 155.432 100.425 155.432ZM97.6306 155.272C97.6306 155.272 97.6988 155.272 97.7442 155.272C97.6988 155.272 97.6761 155.272 97.6306 155.272ZM98.1532 155.318C98.1532 155.318 98.2668 155.318 98.3122 155.318C98.2668 155.318 98.1986 155.318 98.1532 155.318ZM98.6985 155.363C98.6985 155.363 98.8121 155.363 98.8575 155.363C98.8121 155.363 98.7439 155.363 98.6985 155.363ZM99.3574 155.409C99.3574 155.409 99.3574 155.409 99.3801 155.409C99.3801 155.409 99.3801 155.409 99.3574 155.409ZM99.8799 155.409C99.8799 155.409 99.9936 155.409 100.039 155.409C99.9936 155.409 99.9254 155.409 99.8799 155.409ZM101.016 155.432C101.016 155.432 101.084 155.432 101.107 155.432C101.084 155.432 101.039 155.432 101.016 155.432ZM101.629 155.409C101.629 155.409 101.72 155.409 101.766 155.409C101.72 155.409 101.675 155.409 101.629 155.409ZM102.175 155.386C102.175 155.386 102.288 155.386 102.334 155.386C102.288 155.386 102.22 155.386 102.175 155.386ZM102.72 155.363C102.72 155.363 102.811 155.363 102.856 155.363C102.811 155.363 102.765 155.363 102.72 155.363ZM103.379 155.318C103.379 155.318 103.447 155.318 103.47 155.318C103.447 155.318 103.402 155.318 103.379 155.318ZM103.901 155.272C103.901 155.272 104.015 155.272 104.061 155.272C104.015 155.272 103.947 155.272 103.901 155.272ZM104.424 155.204C104.424 155.204 104.538 155.204 104.583 155.204C104.538 155.204 104.47 155.204 104.424 155.204ZM105.606 155.044C105.606 155.044 105.719 155.044 105.765 155.022C105.719 155.022 105.651 155.022 105.606 155.044ZM106.128 154.953C106.128 154.953 106.242 154.953 106.287 154.93C106.242 154.93 106.174 154.93 106.128 154.953ZM106.696 154.862C106.696 154.862 106.764 154.862 106.787 154.862C106.764 154.862 106.719 154.862 106.696 154.862ZM107.287 154.725C107.287 154.725 107.378 154.725 107.423 154.702C107.378 154.702 107.332 154.703 107.287 154.725ZM107.787 154.611C107.787 154.611 107.9 154.589 107.946 154.566C107.9 154.566 107.832 154.589 107.787 154.611ZM108.309 154.475C108.309 154.475 108.4 154.475 108.446 154.452C108.4 154.452 108.355 154.452 108.309 154.475ZM113.262 152.56C113.262 152.56 113.331 152.515 113.376 152.492C113.376 152.492 113.376 152.492 113.353 152.492C113.331 152.492 113.308 152.515 113.262 152.537V152.56ZM108.9 154.315C108.9 154.315 108.968 154.315 108.991 154.292C108.968 154.292 108.923 154.292 108.9 154.315ZM109.377 154.178C109.377 154.178 109.468 154.156 109.536 154.133C109.491 154.133 109.445 154.156 109.377 154.178ZM109.877 154.019C109.877 154.019 109.968 153.996 110.013 153.973C109.968 153.973 109.922 153.996 109.877 154.019ZM110.922 153.631C110.922 153.631 111.013 153.586 111.058 153.586C111.013 153.586 110.968 153.631 110.922 153.631ZM111.377 153.449C111.377 153.449 111.467 153.403 111.513 153.381C111.467 153.381 111.422 153.426 111.377 153.449ZM111.876 153.244C111.876 153.244 111.945 153.221 111.967 153.198C111.945 153.198 111.899 153.221 111.876 153.244ZM112.399 152.993C112.399 152.993 112.467 152.948 112.513 152.948C112.467 152.948 112.444 152.993 112.399 152.993ZM112.831 152.788C112.831 152.788 112.922 152.743 112.967 152.72C112.922 152.743 112.876 152.765 112.831 152.788ZM114.08 152.082C114.08 152.082 113.876 152.218 113.762 152.264C113.876 152.196 113.967 152.127 114.08 152.082ZM116.534 150.213C116.534 150.213 116.443 150.304 116.375 150.35C116.421 150.304 116.466 150.258 116.534 150.213ZM116.284 150.441C116.284 150.441 116.193 150.532 116.148 150.577C116.193 150.532 116.239 150.486 116.284 150.441ZM116.057 150.669C116.057 150.669 115.966 150.76 115.921 150.783C115.966 150.737 116.012 150.691 116.057 150.669ZM115.784 150.874C115.784 150.874 115.693 150.965 115.648 150.988C115.693 150.942 115.739 150.919 115.784 150.874ZM115.534 151.079C115.534 151.079 115.444 151.147 115.375 151.193C115.421 151.147 115.489 151.124 115.534 151.079ZM115.262 151.284C115.262 151.284 115.148 151.352 115.103 151.398C115.148 151.352 115.216 151.329 115.262 151.284ZM114.989 151.489C114.989 151.489 114.876 151.557 114.83 151.603C114.876 151.557 114.944 151.535 114.989 151.489ZM114.694 151.694C114.694 151.694 114.58 151.785 114.512 151.808C114.58 151.763 114.626 151.74 114.694 151.694ZM114.398 151.899C114.398 151.899 114.262 151.99 114.194 152.036C114.262 151.99 114.33 151.945 114.398 151.899ZM116.625 150.122C116.625 150.122 116.761 149.985 116.807 149.939C116.739 150.008 116.67 150.076 116.625 150.122ZM117.579 149.05C117.579 149.05 117.534 149.119 117.511 149.142C117.534 149.119 117.557 149.073 117.579 149.05ZM116.829 149.916C116.829 149.916 116.966 149.757 117.034 149.689C116.966 149.757 116.898 149.848 116.829 149.916ZM117.102 149.62C117.102 149.62 117.193 149.506 117.238 149.461C117.193 149.506 117.148 149.575 117.102 149.62ZM117.307 149.37C117.307 149.37 117.375 149.278 117.42 149.233C117.375 149.278 117.352 149.324 117.307 149.37Z" fill="url(#paint3_linear_476_19068)"/>
<path d="M102.13 151.99L102.039 182.94C102.039 183.168 101.902 183.373 101.607 183.555C101.039 183.897 100.085 183.897 99.5166 183.555C99.2213 183.396 99.085 183.168 99.085 182.94L99.1758 151.99C99.1758 152.218 99.3122 152.446 99.6075 152.606C100.198 152.947 101.13 152.947 101.698 152.606C101.993 152.446 102.13 152.218 102.13 151.99Z" fill="#868596"/>
<mask id="mask4_476_19068" style="mask-type:luminance" maskUnits="userSpaceOnUse" x="99" y="151" width="4" height="33">
<path d="M102.13 151.99L102.039 182.94C102.039 183.168 101.902 183.373 101.607 183.555C101.039 183.897 100.085 183.897 99.5166 183.555C99.2213 183.396 99.085 183.168 99.085 182.94L99.1758 151.99C99.1758 152.218 99.3122 152.446 99.6075 152.606C100.198 152.947 101.13 152.947 101.698 152.606C101.993 152.446 102.13 152.218 102.13 151.99Z" fill="white"/>
</mask>
<g mask="url(#mask4_476_19068)">
<path d="M102.129 151.99L102.038 182.94C102.038 182.94 102.038 183.077 101.992 183.145L102.083 152.195C102.083 152.195 102.129 152.059 102.129 151.99Z" fill="#868596"/>
<path d="M102.083 152.196L101.992 183.145C101.924 183.282 101.81 183.442 101.606 183.556C101.311 183.738 100.924 183.806 100.538 183.806L100.629 152.857C101.015 152.857 101.401 152.766 101.697 152.606C101.901 152.492 102.015 152.355 102.083 152.196Z" fill="#757088"/>
<path d="M100.607 152.834L100.516 183.783C100.152 183.783 99.7659 183.692 99.4932 183.533C99.1979 183.373 99.0615 183.145 99.0615 182.917L99.1524 151.968C99.1524 152.196 99.2887 152.424 99.5841 152.583C99.8795 152.743 100.243 152.834 100.607 152.834Z" fill="#868596"/>
</g>
<path d="M101.675 151.375C102.266 151.717 102.266 152.264 101.675 152.606C101.084 152.948 100.153 152.948 99.5847 152.606C98.9939 152.264 98.9939 151.717 99.5847 151.375C100.153 151.033 101.107 151.033 101.675 151.375Z" fill="#8A8AA6"/>
<path d="M84.5201 141.598L84.4293 172.547C84.4293 172.775 84.2929 172.98 83.9976 173.163C83.4296 173.504 82.4753 173.504 81.9073 173.163C81.6119 173.003 81.4756 172.775 81.4756 172.547L81.5665 141.598C81.5665 141.826 81.7028 142.053 81.9982 142.213C82.5889 142.555 83.5204 142.555 84.0884 142.213C84.3838 142.053 84.5201 141.826 84.5201 141.598Z" fill="#868596"/>
<mask id="mask5_476_19068" style="mask-type:luminance" maskUnits="userSpaceOnUse" x="81" y="141" width="4" height="33">
<path d="M84.5201 141.598L84.4293 172.547C84.4293 172.775 84.2929 172.98 83.9976 173.163C83.4296 173.504 82.4753 173.504 81.9073 173.163C81.6119 173.003 81.4756 172.775 81.4756 172.547L81.5665 141.598C81.5665 141.826 81.7028 142.053 81.9982 142.213C82.5889 142.555 83.5204 142.555 84.0884 142.213C84.3838 142.053 84.5201 141.826 84.5201 141.598Z" fill="white"/>
</mask>
<g mask="url(#mask5_476_19068)">
<path d="M84.5201 141.598L84.4292 172.547C84.4292 172.547 84.4292 172.684 84.3838 172.752L84.4747 141.803C84.4747 141.803 84.5201 141.666 84.5201 141.598Z" fill="#868596"/>
<path d="M84.4971 141.803L84.4063 172.752C84.3381 172.889 84.2245 173.049 84.02 173.163C83.7247 173.345 83.3384 173.413 82.9521 173.413L83.043 142.464C83.4293 142.464 83.8155 142.372 84.1109 142.213C84.3154 142.099 84.429 141.962 84.4971 141.803Z" fill="#757088"/>
<path d="M83.0206 142.464L82.9297 173.413C82.5662 173.413 82.1799 173.322 81.9073 173.163C81.6119 173.003 81.4756 172.775 81.4756 172.547L81.5665 141.598C81.5665 141.826 81.7028 142.053 81.9982 142.213C82.2935 142.373 82.6571 142.464 83.0206 142.464Z" fill="#868596"/>
</g>
<path d="M84.088 140.982C84.6788 141.324 84.6788 141.871 84.088 142.213C83.52 142.555 82.5658 142.555 81.9977 142.213C81.407 141.871 81.407 141.324 81.9977 140.982C82.5658 140.641 83.52 140.641 84.088 140.982Z" fill="#8A8AA6"/>
<path d="M120.26 141.598L120.169 172.547C120.169 172.775 120.033 172.98 119.738 173.163C119.17 173.504 118.216 173.504 117.648 173.163C117.352 173.003 117.216 172.775 117.216 172.547L117.307 141.598C117.307 141.826 117.443 142.053 117.738 142.213C118.329 142.555 119.261 142.555 119.829 142.213C120.124 142.053 120.26 141.826 120.26 141.598Z" fill="#868596"/>
<mask id="mask6_476_19068" style="mask-type:luminance" maskUnits="userSpaceOnUse" x="117" y="141" width="4" height="33">
<path d="M120.26 141.598L120.169 172.547C120.169 172.775 120.033 172.98 119.738 173.163C119.17 173.504 118.216 173.504 117.648 173.163C117.352 173.003 117.216 172.775 117.216 172.547L117.307 141.598C117.307 141.826 117.443 142.053 117.738 142.213C118.329 142.555 119.261 142.555 119.829 142.213C120.124 142.053 120.26 141.826 120.26 141.598Z" fill="white"/>
</mask>
<g mask="url(#mask6_476_19068)">
<path d="M120.26 141.598L120.169 172.547C120.169 172.547 120.169 172.684 120.124 172.752L120.215 141.803C120.215 141.803 120.26 141.666 120.26 141.598Z" fill="#868596"/>
<path d="M120.215 141.803L120.124 172.752C120.056 172.889 119.942 173.049 119.738 173.163C119.442 173.345 119.056 173.413 118.67 173.413L118.761 142.464C119.147 142.464 119.533 142.372 119.829 142.213C120.033 142.099 120.147 141.962 120.215 141.803Z" fill="#757088"/>
<path d="M118.761 142.464L118.67 173.413C118.306 173.413 117.92 173.322 117.648 173.163C117.352 173.003 117.216 172.775 117.216 172.547L117.307 141.598C117.307 141.826 117.443 142.053 117.738 142.213C118.034 142.373 118.397 142.464 118.761 142.464Z" fill="#868596"/>
</g>
<path d="M119.828 140.982C120.419 141.324 120.419 141.871 119.828 142.213C119.26 142.555 118.306 142.555 117.738 142.213C117.147 141.871 117.147 141.324 117.738 140.982C118.306 140.641 119.26 140.641 119.828 140.982Z" fill="#8A8AA6"/>
<path d="M114.898 90.6837C122.828 95.2874 122.873 102.717 114.989 107.321C107.105 111.925 94.2908 111.925 86.3614 107.321C78.4319 102.717 78.3864 95.2874 86.2705 90.6837C94.1545 86.08 106.969 86.08 114.898 90.6837Z" fill="#E3DDFC"/>
<path d="M120.896 99.048L120.805 146.339C120.805 149.324 118.829 152.31 114.921 154.611C107.037 159.215 94.2224 159.215 86.2929 154.611C82.2941 152.31 80.3174 149.256 80.3174 146.225L80.4083 98.9341C80.4083 101.965 82.385 104.996 86.3838 107.321C94.3133 111.925 107.15 111.925 115.012 107.321C118.92 105.042 120.896 102.056 120.896 99.048Z" fill="url(#paint4_linear_476_19068)"/>
<path d="M120.828 98.1591C120.397 87.3564 111.513 78.7188 100.63 78.7188C89.7466 78.7188 80.9765 87.2424 80.4539 97.9768C80.363 98.6149 80.363 99.2759 80.4539 99.914C80.8174 102.603 82.7941 105.247 86.3612 107.321C94.2907 111.925 107.128 111.925 114.989 107.321C118.511 105.27 120.465 102.649 120.806 99.9596C120.897 99.367 120.897 98.7745 120.806 98.1819L120.828 98.1591Z" fill="url(#paint5_radial_476_19068)"/>
<path d="M105.56 80.0863V82.2742C105.56 83.0035 105.083 83.7328 104.129 84.2797C102.22 85.3965 99.0846 85.3965 97.1533 84.2797C96.1763 83.71 95.6992 82.9807 95.6992 82.2514V80.0635C95.6992 80.7928 96.1991 81.5449 97.1533 82.0918C99.0846 83.2086 102.197 83.2086 104.129 82.0918C105.083 81.5449 105.56 80.8156 105.56 80.0863Z" fill="#7C7B89"/>
<mask id="mask7_476_19068" style="mask-type:luminance" maskUnits="userSpaceOnUse" x="95" y="80" width="11" height="6">
<path d="M105.56 80.0863V82.2742C105.56 83.0035 105.083 83.7328 104.129 84.2797C102.22 85.3965 99.0846 85.3965 97.1533 84.2797C96.1763 83.71 95.6992 82.9807 95.6992 82.2514V80.0635C95.6992 80.7928 96.1991 81.5449 97.1533 82.0918C99.0846 83.2086 102.197 83.2086 104.129 82.0918C105.083 81.5449 105.56 80.8156 105.56 80.0863Z" fill="white"/>
</mask>
<g mask="url(#mask7_476_19068)">
<path d="M105.56 80.0864V82.2743C105.56 82.6618 105.424 83.0264 105.151 83.3911V81.2032C105.424 80.8385 105.56 80.4739 105.56 80.0864Z" fill="#7C7B89"/>
<path d="M105.175 81.2031V83.391C104.925 83.7101 104.584 84.0064 104.13 84.2799C104.039 84.3482 103.925 84.3938 103.812 84.4394V82.2515C103.925 82.2059 104.039 82.1375 104.13 82.092C104.584 81.8185 104.925 81.5222 105.175 81.2031Z" fill="#7C7B89"/>
<path d="M103.811 82.2744V84.4623C102.766 84.9637 101.471 85.1916 100.198 85.1232V82.9353C101.471 83.0037 102.788 82.7758 103.811 82.2744Z" fill="#7C7B89"/>
<path d="M100.198 82.9122V85.1001C99.4487 85.0545 98.6989 84.9178 98.04 84.6898V82.502C98.6989 82.7299 99.4487 82.8894 100.198 82.9122Z" fill="#7C7B89"/>
<path d="M98.0629 82.5021V84.69C97.7448 84.576 97.4494 84.4393 97.1768 84.2797C96.1998 83.71 95.7227 82.9807 95.7227 82.2514V80.0635C95.7227 80.7928 96.2225 81.5449 97.1768 82.0918C97.4494 82.2514 97.7448 82.3881 98.0629 82.5021Z" fill="#7C7B89"/>
</g>
<path d="M104.106 78.0578C106.037 79.1745 106.037 80.9978 104.129 82.1145C102.22 83.2312 99.0847 83.2312 97.1534 82.1145C95.2222 80.9978 95.2222 79.1745 97.1307 78.0578C99.0392 76.941 102.175 76.941 104.106 78.0578Z" fill="#E3DDFC"/>
<path d="M103.265 81.3854C103.265 81.3854 103.151 81.4537 103.106 81.4993C101.765 82.297 99.5614 82.297 98.1982 81.4993C98.1073 81.4537 98.0164 81.3854 97.9256 81.317C96.9259 80.5877 96.9259 79.5393 97.9256 78.81C97.9937 78.7417 98.0846 78.6961 98.1755 78.6505C99.516 77.8528 101.72 77.8528 103.083 78.6505C103.151 78.6961 103.219 78.7189 103.265 78.7645C104.378 79.5165 104.378 80.6333 103.265 81.3854Z" fill="#868596"/>
<mask id="mask8_476_19068" style="mask-type:luminance" maskUnits="userSpaceOnUse" x="128" y="48" width="24" height="126">
<path d="M152 48.1563L151.659 166.781C151.659 168.468 150.546 170.132 148.365 171.431C143.934 174.006 136.732 174.006 132.279 171.431C130.029 170.132 128.916 168.422 128.916 166.713L129.257 48.0879C129.257 49.7972 130.37 51.5065 132.619 52.8055C137.073 55.3809 144.275 55.3809 148.706 52.8055C150.91 51.5293 152 49.8428 152 48.1563Z" fill="white"/>
</mask>
<g mask="url(#mask8_476_19068)">
<path d="M152 48.1562L151.659 166.781C151.659 168.468 150.546 170.132 148.365 171.431C147.933 171.681 147.502 171.909 147.024 172.092L147.365 53.4665C147.842 53.2613 148.274 53.0562 148.706 52.8055C150.91 51.5293 152 49.8428 152 48.1562Z" fill="#CACACA"/>
<path d="M147.364 53.4663L147.024 172.091C145.388 172.798 143.479 173.208 141.548 173.322L141.889 54.697C143.82 54.583 145.728 54.1728 147.364 53.4663Z" fill="#D9D9D9"/>
<path d="M135.141 53.8997L134.801 172.525C133.892 172.228 133.051 171.864 132.279 171.408C131.597 171.021 131.006 170.588 130.552 170.109L130.893 51.4839C131.37 51.9397 131.938 52.3727 132.619 52.7829C133.392 53.2388 134.232 53.6034 135.141 53.8997Z" fill="#D9D9D9"/>
<path d="M130.87 51.5065L130.529 170.132C129.438 169.083 128.893 167.898 128.916 166.713L129.257 48.0879C129.257 49.273 129.802 50.4581 130.87 51.5065Z" fill="#CACACA"/>
<path d="M135.072 76.3027L134.8 172.547C136.89 173.231 139.253 173.482 141.548 173.345L141.82 77.1232C139.526 77.2372 137.14 76.9637 135.072 76.3255V76.3027Z" fill="#F2F2F2"/>
<path d="M141.866 61.6026V54.6971C139.571 54.8338 137.208 54.5831 135.141 53.8994V60.8733C137.185 61.4887 139.571 61.7394 141.866 61.5798V61.6026Z" fill="#F2F2F2"/>
<path d="M135.096 65.1807V67.642C137.141 68.2574 139.526 68.5081 141.844 68.3486V65.9783C139.549 66.0923 137.163 65.8188 135.096 65.1807Z" fill="#F2F2F2"/>
<path d="M151.931 70.5818V61.853C151.931 62.8786 151.544 63.9042 150.749 64.8158C148.909 66.9353 145.455 68.1204 141.843 68.3711V77.1227C146.909 76.872 151.658 74.7069 151.931 70.5818Z" fill="#254A9F"/>
<path d="M129.211 61.7852V70.514C129.188 71.5395 129.597 72.5651 130.37 73.4767C131.46 74.753 133.119 75.6874 135.073 76.3028V67.6651C131.846 66.6851 129.393 64.7251 129.211 61.7852Z" fill="#254A9F"/>
<path d="M135.096 67.6419V76.2796C137.141 76.9405 139.526 77.214 141.821 77.0772V68.3256C139.526 68.4852 137.163 68.2573 135.096 67.6191V67.6419Z" fill="#2B65C8"/>
<path d="M129.234 55.0164V59.3694C129.234 60.395 129.621 61.4206 130.416 62.3322C131.506 63.6085 133.165 64.5429 135.119 65.1583V60.8736C131.893 59.8936 129.439 57.9336 129.257 54.9937L129.234 55.0164Z" fill="#254A9F"/>
<path d="M151.977 59.4604V55.1074C151.977 56.133 151.568 57.1586 150.773 58.0702C148.932 60.1897 145.479 61.3748 141.866 61.6255V66.0013C146.956 65.7506 151.682 63.5855 151.977 59.4604Z" fill="#254A9F"/>
<path d="M141.866 65.9783V61.6025C139.571 61.762 137.186 61.5341 135.118 60.896V65.1806C137.186 65.8416 139.549 66.115 141.866 65.9783Z" fill="#2B65C8"/>
</g>
<path d="M148.637 43.4613C153.09 46.0366 153.113 50.2301 148.683 52.8054C144.252 55.3808 137.05 55.3808 132.596 52.8054C128.143 50.2301 128.12 46.0366 132.551 43.4613C136.981 40.886 144.184 40.886 148.637 43.4613Z" fill="#ACB1B7"/>
<mask id="mask9_476_19068" style="mask-type:luminance" maskUnits="userSpaceOnUse" x="123" y="45" width="35" height="14">
<path d="M157.523 45.3527V48.3155C157.523 50.8453 155.864 53.3522 152.569 55.2666C145.935 59.141 135.143 59.141 128.463 55.2666C125.1 53.3294 123.419 50.7541 123.419 48.2015V45.2388C123.419 47.7913 125.1 50.3439 128.463 52.3039C135.143 56.1783 145.935 56.1783 152.569 52.3039C155.864 50.3894 157.523 47.8597 157.523 45.3527Z" fill="white"/>
</mask>
<g mask="url(#mask9_476_19068)">
<path d="M157.523 45.3525V48.3153C157.523 50.8451 155.864 53.352 152.57 55.2664C151.934 55.6311 151.275 55.973 150.57 56.2692V53.3065C151.275 53.0102 151.956 52.6683 152.57 52.3037C155.864 50.3893 157.523 47.8595 157.523 45.3525Z" fill="#CACACA"/>
<path d="M150.571 53.3066V56.2694C148.094 57.3178 145.254 57.9331 142.346 58.1155V55.1527C145.254 54.9704 148.094 54.355 150.571 53.3066Z" fill="#D9D9D9"/>
<path d="M142.345 55.1524V58.1152C138.892 58.3203 135.325 57.9328 132.212 56.9301V53.9673C135.347 54.9701 138.892 55.3803 142.345 55.1524Z" fill="#F2F2F2"/>
<path d="M132.235 53.9676V56.9304C130.872 56.4974 129.6 55.9504 128.441 55.2667C127.419 54.6741 126.555 54.036 125.828 53.3295V50.3667C126.555 51.0504 127.419 51.7113 128.441 52.3039C129.6 52.9648 130.872 53.5346 132.213 53.9676H132.235Z" fill="#D9D9D9"/>
<path d="M125.851 50.3667V53.3294C124.215 51.7569 123.397 49.9792 123.419 48.2015V45.2388C123.419 47.0164 124.237 48.7941 125.851 50.3667Z" fill="#CACACA"/>
</g>
<path d="M152.478 38.2876C159.158 42.162 159.203 48.4295 152.546 52.3039C145.912 56.1783 135.12 56.1783 128.44 52.3039C121.76 48.4295 121.714 42.162 128.349 38.2876C134.983 34.4132 145.776 34.4132 152.455 38.2876H152.478Z" fill="#F5F6F7"/>
<path d="M124.827 37.8549C124.827 37.8549 124.668 37.8549 124.6 37.8093C124.304 37.6953 124.145 37.3307 124.282 37.0344C125.009 35.2567 126.577 33.6386 128.758 32.3623C135.165 28.6247 145.662 28.6247 152.114 32.3623C153.273 33.046 154.273 33.7981 155.045 34.6414C155.273 34.8693 155.25 35.2567 155.023 35.4846C154.796 35.7125 154.409 35.6898 154.182 35.4618C153.478 34.7098 152.592 34.026 151.524 33.4107C145.389 29.8554 135.438 29.8554 129.348 33.4107C127.372 34.5502 126.009 35.986 125.372 37.513C125.281 37.7409 125.054 37.8777 124.827 37.8777V37.8549Z" fill="#3B3B45"/>
<path d="M124.373 46.424C124.055 46.424 123.782 46.1505 123.782 45.8314V39.8831C123.782 39.564 124.055 39.2905 124.373 39.2905C124.691 39.2905 124.964 39.564 124.964 39.8831V45.8314C124.964 46.1505 124.691 46.424 124.373 46.424Z" fill="#3B3B45"/>
<path d="M156.568 46.424C156.25 46.424 155.978 46.1505 155.978 45.8314V39.8831C155.978 39.564 156.25 39.2905 156.568 39.2905C156.886 39.2905 157.159 39.564 157.159 39.8831V45.8314C157.159 46.1505 156.886 46.424 156.568 46.424Z" fill="#3B3B45"/>
<path d="M140.096 36.6696C139.778 36.6696 139.505 36.3961 139.505 36.077V30.1287C139.505 29.8096 139.778 29.5361 140.096 29.5361C140.414 29.5361 140.686 29.8096 140.686 30.1287V36.077C140.686 36.3961 140.414 36.6696 140.096 36.6696Z" fill="#7079A7"/>
<path d="M128.804 39.5412C128.486 39.5412 128.213 39.2677 128.213 38.9486V33.0003C128.213 32.6812 128.486 32.4077 128.804 32.4077C129.122 32.4077 129.394 32.6812 129.394 33.0003V38.9486C129.394 39.2677 129.122 39.5412 128.804 39.5412Z" fill="#3B3B45"/>
<path d="M151.752 39.5412C151.434 39.5412 151.161 39.2677 151.161 38.9486V33.0003C151.161 32.6812 151.434 32.4077 151.752 32.4077C152.07 32.4077 152.343 32.6812 152.343 33.0003V38.9486C152.343 39.2677 152.07 39.5412 151.752 39.5412Z" fill="#7079A7"/>
<mask id="mask10_476_19068" style="mask-type:luminance" maskUnits="userSpaceOnUse" x="129" y="11" width="24" height="40">
<path d="M152.046 11.1442L151.955 43.7803C151.955 45.4668 150.842 47.1306 148.661 48.4296C144.23 51.005 137.028 51.005 132.575 48.4296C130.325 47.1306 129.212 45.4213 129.212 43.712L129.303 11.0986C129.303 12.8079 130.416 14.4944 132.665 15.7935C137.119 18.3688 144.321 18.3688 148.752 15.7935C150.956 14.5172 152.046 12.8307 152.046 11.1442Z" fill="white"/>
</mask>
<g mask="url(#mask10_476_19068)">
<path d="M152.046 11.144L151.955 43.7802C151.955 45.4667 150.842 47.1304 148.661 48.4295C148.229 48.6802 147.797 48.9081 147.32 49.0904L147.411 16.4543C147.888 16.2491 148.32 16.044 148.752 15.7933C150.956 14.5171 152.046 12.8305 152.046 11.144Z" fill="#CACACA"/>
<path d="M147.41 16.4546L147.319 49.0907C145.684 49.7972 143.775 50.2075 141.844 50.3214L141.935 17.6853C143.866 17.5713 145.774 17.1611 147.41 16.4546Z" fill="#D9D9D9"/>
<path d="M141.935 17.6849L141.844 50.321C139.549 50.4578 137.163 50.2071 135.096 49.5233L135.187 16.8872C137.277 17.5481 139.64 17.8216 141.935 17.6849Z" fill="#F2F2F2"/>
<path d="M135.187 16.8873L135.096 49.5234C134.188 49.2272 133.347 48.8625 132.574 48.4295C131.893 48.0421 131.302 47.609 130.848 47.1532L130.939 14.5171C131.416 14.9729 131.984 15.4059 132.665 15.7934C133.438 16.2492 134.278 16.6138 135.187 16.8873Z" fill="#D9D9D9"/>
<path d="M130.916 14.4944L130.825 47.1306C129.734 46.0822 129.189 44.8971 129.212 43.712L129.303 11.0986C129.303 12.2837 129.848 13.4689 130.916 14.5172V14.4944Z" fill="#CACACA"/>
</g>
<path d="M148.684 6.42662C153.137 9.00196 153.16 13.1954 148.729 15.7708C144.299 18.3461 137.096 18.3461 132.643 15.7708C128.19 13.1954 128.167 9.00196 132.598 6.42662C137.028 3.85128 144.231 3.85128 148.684 6.42662Z" fill="#F2F2F2"/>
<path d="M147.32 7.22425C151.023 9.36657 151.046 12.8307 147.365 14.9731C143.685 17.1154 137.709 17.1154 134.006 14.9731C130.302 12.8307 130.28 9.36657 133.96 7.20146C137.641 5.05915 143.617 5.05915 147.32 7.20146V7.22425Z" fill="#35353F"/>
<path d="M140.526 49.4099C136.3 49.4099 132.074 48.4755 128.848 46.6066C124.599 44.1453 122.872 40.476 124.304 37.0346C124.44 36.7383 124.781 36.6016 125.076 36.7155C125.372 36.8295 125.531 37.1941 125.394 37.4904C124.19 40.3848 125.712 43.416 129.439 45.5811C135.573 49.1364 145.525 49.1364 151.614 45.5811C154.113 44.1225 155.658 42.2081 155.954 40.2253C156.204 38.5843 155.59 36.9206 154.204 35.4392C153.977 35.2113 154 34.8239 154.227 34.596C154.454 34.3681 154.84 34.3909 155.067 34.6188C156.703 36.3737 157.408 38.3564 157.112 40.3848C156.772 42.755 155.022 44.9657 152.205 46.6066C149.001 48.4755 144.775 49.4099 140.549 49.4099H140.526Z" fill="#3B3B45"/>
<path d="M140.096 55.3356C139.778 55.3356 139.505 55.0621 139.505 54.7431V48.7947C139.505 48.4756 139.778 48.2021 140.096 48.2021C140.414 48.2021 140.686 48.4756 140.686 48.7947V54.7431C140.686 55.0621 140.414 55.3356 140.096 55.3356Z" fill="#3B3B45"/>
<path d="M128.804 52.5778C128.486 52.5778 128.213 52.3043 128.213 51.9852V46.0369C128.213 45.7178 128.486 45.4443 128.804 45.4443C129.122 45.4443 129.394 45.7178 129.394 46.0369V51.9852C129.394 52.3043 129.122 52.5778 128.804 52.5778Z" fill="#3B3B45"/>
<path d="M151.752 52.7599C151.434 52.7599 151.161 52.4864 151.161 52.1674V46.219C151.161 45.9 151.434 45.6265 151.752 45.6265C152.07 45.6265 152.343 45.9 152.343 46.219V52.1674C152.343 52.4864 152.07 52.7599 151.752 52.7599Z" fill="#3B3B45"/>
<mask id="mask11_476_19068" style="mask-type:luminance" maskUnits="userSpaceOnUse" x="185" y="18" width="13" height="129">
<path d="M196.761 18.1639L197.647 143.261C197.647 144.173 197.033 145.085 195.852 145.791C193.443 147.204 189.513 147.204 187.104 145.791C185.877 145.085 185.264 144.15 185.287 143.239L186.877 18.1411C186.877 18.8932 187.354 19.6225 188.331 20.1923C190.263 21.309 193.398 21.309 195.329 20.1923C196.283 19.6225 196.761 18.8932 196.761 18.1639Z" fill="white"/>
</mask>
<g mask="url(#mask11_476_19068)">
<path d="M196.76 18.1641L197.647 143.262C197.647 144.173 197.033 145.085 195.852 145.791C195.624 145.928 195.374 146.042 195.125 146.156L194.738 20.4887C194.943 20.3975 195.147 20.3064 195.329 20.1924C196.283 19.6227 196.76 18.8934 196.76 18.1641Z" fill="#CACACA"/>
<path d="M194.739 20.4886L195.125 146.156C194.239 146.543 193.194 146.771 192.148 146.817L192.376 21.0128C193.216 20.9672 194.034 20.7849 194.761 20.4658L194.739 20.4886Z" fill="#D9D9D9"/>
<path d="M189.399 20.6711L188.444 146.407C187.945 146.247 187.49 146.042 187.081 145.814C186.718 145.609 186.4 145.358 186.127 145.108L187.536 19.6455C187.74 19.8506 187.99 20.0329 188.285 20.2153C188.626 20.4204 188.99 20.5799 189.376 20.6939L189.399 20.6711Z" fill="#D9D9D9"/>
<path d="M187.558 19.6453L186.15 145.108C185.559 144.538 185.264 143.9 185.264 143.239L186.854 18.1411C186.854 18.6653 187.081 19.1667 187.558 19.6225V19.6453Z" fill="#CACACA"/>
<path d="M189.308 35.0062V37.5359C190.216 37.8322 191.284 37.969 192.329 37.9006V35.348C191.307 35.4164 190.239 35.3025 189.308 34.9834V35.0062Z" fill="#F2F2F2"/>
<path d="M189.24 42.8008L188.444 146.407C189.58 146.771 190.875 146.908 192.125 146.84L192.307 43.1654C191.262 43.2338 190.194 43.1198 189.24 42.8008Z" fill="#F2F2F2"/>
<path d="M192.353 24.8417V21.0357C191.353 21.1041 190.331 20.9901 189.422 20.6938V24.5227C190.308 24.8189 191.353 24.9329 192.353 24.8645V24.8417Z" fill="#F2F2F2"/>
<path d="M195.397 34.5049C196.397 33.9351 196.874 33.183 196.874 32.4082V21.8789C196.897 22.631 196.397 23.3831 195.42 23.9756C194.556 24.477 193.466 24.7505 192.353 24.8189V35.3481C193.466 35.2798 194.534 35.0063 195.397 34.5049Z" fill="#254A9F"/>
<path d="M188.172 23.9755C187.172 23.3829 186.65 22.6308 186.673 21.856V32.3852C186.65 33.1601 187.15 33.9122 188.149 34.5047C188.49 34.7099 188.876 34.8694 189.285 35.0061L189.354 24.4997C188.922 24.3629 188.513 24.2034 188.149 23.9755H188.172Z" fill="#254A9F"/>
<path d="M192.329 35.3711V24.8419C191.33 24.9102 190.307 24.7963 189.376 24.5L189.308 35.0065C190.239 35.3027 191.307 35.4167 192.329 35.3711Z" fill="#2B65C8"/>
<path d="M188.149 37.0575C187.15 36.465 186.627 35.7129 186.627 34.938V40.2026C186.627 40.9775 187.104 41.7296 188.127 42.3221C188.467 42.5273 188.831 42.6868 189.24 42.8007L189.285 37.5361C188.876 37.3994 188.49 37.2398 188.149 37.0347V37.0575Z" fill="#254A9F"/>
<path d="M195.375 42.3218C196.374 41.752 196.851 41 196.874 40.2251V34.9604C196.874 35.7125 196.397 36.4646 195.397 37.0572C194.534 37.5586 193.443 37.8321 192.33 37.9004V43.1651C193.443 43.0967 194.534 42.8004 195.375 42.3218Z" fill="#254A9F"/>
<path d="M189.285 37.5361L189.239 42.8008C190.194 43.1198 191.261 43.2338 192.307 43.1654V37.9008C191.284 37.9692 190.216 37.8552 189.285 37.5361Z" fill="#2B65C8"/>
</g>
<path d="M195.284 16.1354C197.215 17.2521 197.238 19.0754 195.284 20.2149C193.353 21.3317 190.217 21.3317 188.286 20.2149C186.355 19.0982 186.332 17.2749 188.263 16.1354C190.195 15.0187 193.33 15.0187 195.261 16.1354H195.284Z" fill="#ACB1B7"/>
<mask id="mask12_476_19068" style="mask-type:luminance" maskUnits="userSpaceOnUse" x="214" y="6" width="24" height="126">
<path d="M237.272 6.63185L236.931 125.257C236.931 126.943 235.817 128.607 233.636 129.906C229.206 132.481 222.003 132.481 217.55 129.906C215.301 128.607 214.188 126.898 214.188 125.189L214.528 6.56348C214.528 8.27277 215.642 9.98206 217.891 11.2811C222.344 13.8565 229.547 13.8565 233.977 11.2811C236.181 10.0049 237.272 8.31835 237.272 6.63185Z" fill="white"/>
</mask>
<g mask="url(#mask12_476_19068)">
<path d="M237.272 6.63184L236.931 125.257C236.931 126.943 235.818 128.607 233.636 129.906C233.205 130.157 232.773 130.385 232.296 130.567L232.637 11.942C233.114 11.7369 233.546 11.5318 233.977 11.2811C236.181 10.0048 237.272 8.31834 237.272 6.63184Z" fill="#CACACA"/>
<path d="M232.637 11.9424L232.296 130.567C230.66 131.274 228.752 131.684 226.82 131.798L227.161 13.1731C229.092 13.0591 231.001 12.6489 232.637 11.9424Z" fill="#D9D9D9"/>
<path d="M227.161 13.1727L226.82 131.798C224.526 131.934 222.14 131.684 220.072 131L220.413 12.375C222.503 13.0587 224.866 13.3094 227.161 13.1727Z" fill="#F2F2F2"/>
<path d="M220.413 12.3984L220.072 131.023C219.163 130.727 218.323 130.363 217.55 129.907C216.868 129.519 216.278 129.086 215.823 128.63L216.164 10.0054C216.641 10.4612 217.209 10.8942 217.891 11.2816C218.663 11.7375 219.504 12.1021 220.413 12.3984Z" fill="#D9D9D9"/>
<path d="M216.141 10.005L215.8 128.63C214.71 127.582 214.164 126.397 214.187 125.211L214.528 6.58643C214.528 7.77154 215.073 8.95665 216.141 10.005Z" fill="#CACACA"/>
<path d="M214.346 64.3149C214.346 66.0242 215.46 67.7335 217.709 69.0326C222.162 71.6079 229.365 71.6079 233.795 69.0326C235.999 67.7563 237.09 66.0698 237.09 64.3833V76.3712C237.044 78.0577 235.953 79.7214 233.75 81.0204C229.319 83.5958 222.117 83.5958 217.663 81.0204C215.414 79.7214 214.301 78.0121 214.301 76.3028V64.3149H214.324H214.346Z" fill="#254A9F"/>
<path d="M214.415 40.4307C214.415 42.14 215.528 43.8493 217.777 45.1483C222.23 47.7237 229.433 47.7237 233.863 45.1483C236.067 43.872 237.158 42.1855 237.158 40.499V52.4869C237.112 54.1734 236.022 55.8371 233.818 57.1362C229.387 59.7115 222.185 59.7115 217.732 57.1362C215.482 55.8371 214.369 54.1278 214.369 52.4185V40.4307H214.392H214.415Z" fill="#254A9F"/>
<path d="M214.482 16.5459C214.482 18.2552 215.595 19.9645 217.845 21.2636C222.298 23.8389 229.5 23.8389 233.931 21.2636C236.135 19.9873 237.225 18.3008 237.225 16.6143V28.6021C237.18 30.2886 236.089 31.9523 233.885 33.2514C229.455 35.8267 222.252 35.8267 217.799 33.2514C215.55 31.9523 214.437 30.243 214.437 28.5338V16.5459H214.459H214.482Z" fill="#254A9F"/>
<path d="M220.254 70.1265V82.1143C222.299 82.7752 224.662 83.0487 226.979 82.8892V70.9013C224.707 71.0381 222.344 70.7874 220.254 70.1265Z" fill="#2B65C8"/>
<path d="M220.322 46.2422V58.23C222.367 58.891 224.73 59.1645 227.048 59.0049V47.0171C224.775 47.1538 222.413 46.9031 220.322 46.2422Z" fill="#2B65C8"/>
<path d="M227.115 35.1426V23.1548C224.843 23.2915 222.48 23.0408 220.39 22.3799V34.3677C222.435 35.0287 224.797 35.3022 227.115 35.1426Z" fill="#2B65C8"/>
</g>
<path d="M233.932 1.93687C238.385 4.51221 238.408 8.70568 233.977 11.281C229.547 13.8564 222.345 13.8564 217.891 11.281C213.438 8.70568 213.415 4.51221 217.846 1.93687C222.276 -0.638463 229.479 -0.638463 233.932 1.93687Z" fill="#F5F6F7"/>
<path d="M232.387 2.82548C235.999 4.92222 236.022 8.29522 232.432 10.392C228.842 12.4887 223.026 12.4887 219.413 10.392C215.801 8.29522 215.778 4.92222 219.368 2.82548C222.958 0.728746 228.774 0.728746 232.387 2.82548Z" fill="#434851"/>
<path d="M194.829 258.012V152.286L240.929 125.599V126.533V224.236V231.324L194.829 258.012Z" fill="#2B65C8"/>
<path d="M194.83 152.286V258.012L188.718 254.479V156.753V148.754L194.83 152.286Z" fill="#254A9F"/>
<path d="M240.93 125.598L194.83 152.286L188.718 148.754L234.818 122.043L240.93 125.598Z" fill="#4297E2"/>
<path d="M188.717 156.753V254.479L142.095 281.464V183.76L188.717 156.753Z" fill="#A0A6C0"/>
<path d="M188.718 148.754V156.776L142.118 183.76L62.5283 137.655L166.838 77.2368L246.429 123.342L240.93 126.533V125.598L234.818 122.066L188.718 148.754ZM230.729 123.342L166.838 86.3303L131.69 106.682L127.1 104.016L96.4047 121.792V127.103L78.2055 137.632L81.9544 139.797L142.096 174.621L226.957 125.462L230.706 123.297L230.729 123.342Z" fill="#E4E6F0"/>
<path d="M142.095 183.76V281.463L62.5049 235.358V137.655L142.095 183.76Z" fill="#CFD2E0"/>
<path d="M246.428 221.045L240.93 224.236V126.532L246.428 123.342V221.045Z" fill="#A0A6C0"/>
<path d="M166.815 86.3306L230.728 123.342L226.98 125.508L166.815 90.6836V86.3306Z" fill="#CFD2E0"/>
<path d="M131.667 106.705L166.816 86.3306V90.6836L135.416 108.87L131.667 106.705Z" fill="#A0A6C0"/>
<path d="M78.2051 137.655L96.4043 127.125V131.456L81.954 139.82L78.2051 137.655Z" fill="#A0A6C0"/>
<path d="M166.815 90.6831L226.957 125.507L142.095 174.666L81.9541 139.842L96.4044 131.478V136.241L116.535 147.91L147.23 130.134V115.707L135.438 108.87L166.838 90.6831H166.815ZM196.67 139.523L214.006 129.495V124.96L163.748 95.8566L146.412 105.884V110.42L196.67 139.523Z" fill="#CFD2E0"/>
<path d="M116.534 147.888L96.4033 136.242V131.456V127.126V121.815L116.534 133.461V147.888Z" fill="#CFD2E0"/>
<path d="M147.207 130.134L116.534 147.888V133.461L147.207 115.685V130.134Z" fill="#A0A6C0"/>
<path d="M116.534 133.461L96.4033 121.815L127.076 104.039L131.666 106.705L135.415 108.87L147.207 115.685L116.534 133.461Z" fill="#E4E6F0"/>
<path d="M213.983 129.496L196.67 139.523V134.988L213.983 124.938V129.496Z" fill="#A0A6C0"/>
<path d="M196.67 139.524L146.39 110.42V105.862L196.67 134.988V139.524Z" fill="#CFD2E0"/>
<path d="M146.39 105.862L163.725 95.834L213.983 124.938L196.67 134.988L146.39 105.862Z" fill="#E4E6F0"/>
<path d="M268.058 200.442L215.028 169.516L242.157 171.749L295.187 202.676L268.058 200.442Z" fill="#E4E6F0"/>
<path d="M268.104 218.356L215.074 187.406L215.028 169.516L268.058 200.442L268.104 218.356Z" fill="#CFD2E0"/>
<path d="M241.043 234.059L188.036 203.109L187.968 185.196L240.998 216.123L241.043 234.059Z" fill="#CFD2E0"/>
<path d="M240.998 216.123L187.968 185.196L215.073 187.406L268.103 218.356L240.998 216.123Z" fill="#E4E6F0"/>
<path d="M66.4814 158.052L83.1356 167.715V164.798L83.1583 158.212L69.0261 150.03L68.7762 150.167L66.5269 151.488L66.4814 158.052Z" fill="#242A31"/>
<path d="M66.4814 158.052L69.0034 156.594L69.0261 150.03L66.5269 148.64L66.4814 158.052Z" fill="#A4A9C2"/>
<path d="M66.4814 158.052L83.1356 167.716V164.798L69.0034 156.594L66.4814 158.052Z" fill="white"/>
<path d="M92.2695 172.843L108.924 182.483V179.566L108.946 173.002L94.8142 164.798L94.5643 164.957L92.2922 166.279L92.2695 172.843Z" fill="#242A31"/>
<path d="M92.2695 172.843L94.7915 171.384L94.8142 164.798L92.2922 163.408L92.2695 172.843Z" fill="#A4A9C2"/>
<path d="M92.2695 172.843L108.924 182.483V179.566L94.7915 171.384L92.2695 172.843Z" fill="white"/>
<path d="M118.058 187.634L134.712 197.275V194.358L134.735 187.771L120.602 179.589L120.33 179.749L118.08 181.048L118.058 187.634Z" fill="#242A31"/>
<path d="M118.058 187.635L120.557 186.153L120.602 179.589L118.08 178.199L118.058 187.635Z" fill="#A4A9C2"/>
<path d="M118.058 187.635L134.712 197.275V194.358L120.557 186.153L118.058 187.635Z" fill="white"/>
<path d="M66.4814 185.56L83.1356 195.201V192.283L83.1583 185.72L69.0261 177.515L68.7762 177.675L66.5269 178.974L66.4814 185.56Z" fill="#242A31"/>
<path d="M66.4814 185.56L69.0034 184.079L69.0261 177.515L66.5269 176.125L66.4814 185.56Z" fill="#A4A9C2"/>
<path d="M66.4814 185.56L83.1356 195.201V192.284L69.0034 184.079L66.4814 185.56Z" fill="white"/>
<path d="M92.2695 200.328L108.924 209.992V207.074L108.946 200.488L94.8142 192.306L94.5643 192.466L92.2922 193.765L92.2695 200.328Z" fill="#242A31"/>
<path d="M92.2695 200.329L94.7915 198.87L94.8142 192.306L92.2922 190.916L92.2695 200.329Z" fill="#A4A9C2"/>
<mask id="mask13_476_19068" style="mask-type:luminance" maskUnits="userSpaceOnUse" x="138" y="142" width="12" height="26">
<path d="M149.774 142.122L149.706 164.366C149.706 165.163 149.183 165.984 148.115 166.599C146.002 167.83 142.549 167.83 140.413 166.599C139.345 165.984 138.8 165.163 138.8 164.343L138.868 142.099C138.868 142.92 139.413 143.74 140.481 144.355C142.617 145.586 146.07 145.586 148.183 144.355C149.229 143.74 149.774 142.942 149.774 142.122Z" fill="white"/>
</mask>
<g mask="url(#mask13_476_19068)">
<path d="M149.774 142.122L149.706 164.366C149.706 165.163 149.184 165.984 148.116 166.599C147.911 166.713 147.707 166.827 147.479 166.918L147.548 144.675C147.775 144.583 147.979 144.47 148.184 144.356C149.229 143.74 149.774 142.943 149.774 142.122Z" fill="#CACACA"/>
<path d="M147.547 144.674L147.479 166.918C146.684 167.26 145.775 167.442 144.866 167.51L144.934 145.267C145.866 145.199 146.775 145.016 147.547 144.674Z" fill="#D9D9D9"/>
<path d="M141.685 144.88L141.617 167.123C141.185 166.987 140.776 166.804 140.413 166.599C140.095 166.417 139.799 166.212 139.572 165.984L139.64 143.74C139.868 143.968 140.14 144.173 140.481 144.356C140.845 144.561 141.254 144.743 141.685 144.88Z" fill="#D9D9D9"/>
<path d="M139.64 143.74L139.572 165.984C139.05 165.482 138.8 164.913 138.8 164.343L138.868 142.099C138.868 142.669 139.118 143.239 139.64 143.74Z" fill="#CACACA"/>
<path d="M144.912 146.908V145.267C143.821 145.335 142.685 145.198 141.686 144.879V146.52C142.685 146.839 143.821 146.976 144.912 146.908Z" fill="#F2F2F2"/>
<path d="M141.64 159.921V162.588C142.639 162.907 143.753 163.044 144.866 162.975V160.309C143.775 160.377 142.639 160.24 141.64 159.921Z" fill="#F2F2F2"/>
<path d="M141.64 165.277V167.146C142.639 167.465 143.775 167.602 144.866 167.533V165.687C143.775 165.755 142.639 165.619 141.64 165.3V165.277Z" fill="#F2F2F2"/>
<path d="M141.686 149.209V151.876C142.685 152.195 143.799 152.332 144.912 152.263V149.597C143.821 149.665 142.685 149.529 141.686 149.209Z" fill="#F2F2F2"/>
<path d="M141.663 154.565V157.232C142.663 157.551 143.776 157.688 144.889 157.619V154.953C143.799 155.021 142.663 154.884 141.663 154.565Z" fill="#F2F2F2"/>
<path d="M141.64 162.588V165.277C142.639 165.596 143.753 165.733 144.866 165.665V162.975C143.775 163.044 142.639 162.907 141.64 162.588Z" fill="#F2F2F2"/>
<path d="M141.663 157.232V159.921C142.663 160.24 143.776 160.377 144.889 160.309V157.619C143.799 157.688 142.663 157.551 141.663 157.232Z" fill="#F2F2F2"/>
<path d="M141.663 151.876V154.565C142.663 154.884 143.776 155.021 144.889 154.953V152.263C143.799 152.332 142.663 152.195 141.663 151.876Z" fill="#F2F2F2"/>
<path d="M144.912 149.597V146.908C143.821 146.976 142.685 146.84 141.686 146.521V149.21C142.685 149.529 143.799 149.666 144.912 149.597Z" fill="#F2F2F2"/>
</g>
<path d="M148.161 139.865C150.297 141.096 150.297 143.102 148.184 144.332C146.071 145.563 142.617 145.563 140.482 144.332C138.346 143.102 138.346 141.096 140.459 139.865C142.572 138.635 146.025 138.635 148.161 139.865Z" fill="#F5F6F7"/>
<path d="M147.047 140.526C148.569 141.392 148.569 142.828 147.047 143.694C145.547 144.56 143.093 144.56 141.594 143.694C140.072 142.828 140.072 141.392 141.594 140.526C143.093 139.66 145.547 139.66 147.047 140.526Z" fill="#35353F"/>
<mask id="mask14_476_19068" style="mask-type:luminance" maskUnits="userSpaceOnUse" x="158" y="71" width="12" height="39">
<path d="M169.132 71.0384L169.064 106.501C169.064 107.298 168.542 108.119 167.474 108.734C165.361 109.965 161.907 109.965 159.771 108.734C158.703 108.119 158.158 107.298 158.158 106.478L158.226 71.0156C158.226 71.8361 158.772 72.6566 159.84 73.2719C161.975 74.5026 165.429 74.5026 167.542 73.2719C168.587 72.6566 169.132 71.8589 169.132 71.0384Z" fill="white"/>
</mask>
<g mask="url(#mask14_476_19068)">
<path d="M169.133 71.0381L169.065 106.5C169.065 107.298 168.542 108.118 167.474 108.734C167.27 108.848 167.065 108.962 166.838 109.053L166.906 73.5906C167.133 73.4995 167.338 73.3855 167.542 73.2716C168.587 72.6562 169.133 71.8585 169.133 71.0381Z" fill="#CACACA"/>
<path d="M166.906 73.5679L166.837 109.03C166.042 109.372 165.133 109.554 164.225 109.623L164.293 74.1604C165.224 74.0921 166.133 73.9097 166.906 73.5679Z" fill="#D9D9D9"/>
<path d="M161.044 73.7733L160.976 109.235C160.544 109.099 160.135 108.916 159.771 108.711C159.453 108.529 159.158 108.324 158.931 108.096L158.999 72.6338C159.226 72.8617 159.499 73.0668 159.839 73.2491C160.203 73.4542 160.612 73.6366 161.044 73.7733Z" fill="#D9D9D9"/>
<path d="M158.999 72.6336L158.931 108.096C158.408 107.594 158.158 107.025 158.158 106.455L158.226 70.9927C158.226 71.5624 158.476 72.1322 158.999 72.6336Z" fill="#CACACA"/>
<path d="M164.27 75.8013V74.1604C163.18 74.2288 162.044 74.092 161.044 73.7729V75.4139C162.044 75.7329 163.18 75.8697 164.27 75.8013Z" fill="#F2F2F2"/>
<path d="M160.999 102.033V104.7C161.999 105.019 163.112 105.156 164.225 105.087V102.421C163.135 102.489 161.999 102.352 160.999 102.033Z" fill="#F2F2F2"/>
<path d="M160.976 107.389V109.258C161.975 109.577 163.111 109.714 164.202 109.645V107.799C163.111 107.868 161.975 107.731 160.976 107.412V107.389Z" fill="#F2F2F2"/>
<path d="M161.021 91.3447V94.0112C162.021 94.3303 163.134 94.467 164.248 94.3987V91.7322C163.157 91.8005 162.021 91.6638 161.021 91.3447Z" fill="#F2F2F2"/>
<path d="M161.021 96.6777V99.3442C162.021 99.6633 163.134 99.8 164.248 99.7317V97.0652C163.157 97.1336 162.021 96.9968 161.021 96.6777Z" fill="#F2F2F2"/>
<path d="M160.999 104.7V107.389C161.999 107.708 163.112 107.845 164.225 107.776V105.087C163.135 105.156 161.999 105.019 160.999 104.7Z" fill="#F2F2F2"/>
<path d="M160.999 99.3442V102.034C161.999 102.353 163.112 102.489 164.225 102.421V99.7317C163.135 99.8 161.999 99.6633 160.999 99.3442Z" fill="#F2F2F2"/>
<path d="M161.021 94.0112V96.7005C162.021 97.0196 163.134 97.1563 164.248 97.088V94.3987C163.157 94.467 162.021 94.3303 161.021 94.0112Z" fill="#F2F2F2"/>
<path d="M164.27 91.7093V75.8015C163.18 75.8699 162.044 75.7331 161.044 75.4141V91.3219C162.044 91.641 163.157 91.7777 164.27 91.7093Z" fill="#F2F2F2"/>
</g>
<path d="M167.52 68.7819C169.655 70.0126 169.655 72.0182 167.542 73.2489C165.429 74.4796 161.976 74.4796 159.84 73.2489C157.704 72.0182 157.704 70.0126 159.817 68.7819C161.93 67.5512 165.384 67.5512 167.52 68.7819Z" fill="#F5F6F7"/>
<path d="M166.405 69.42C167.927 70.2861 167.927 71.7219 166.405 72.5879C164.906 73.454 162.452 73.454 160.952 72.5879C159.43 71.7219 159.43 70.2861 160.952 69.42C162.452 68.554 164.906 68.554 166.405 69.42Z" fill="#35353F"/>
<path d="M40.8757 183.464C44.8064 185.743 44.8291 189.435 40.9211 191.714C37.0132 193.993 30.6742 193.993 26.7435 191.714C22.8128 189.435 22.7901 185.743 26.6981 183.464C30.606 181.185 36.945 181.185 40.8757 183.464Z" fill="#E3DDFC"/>
<path d="M43.8285 187.612L43.7831 232.646C43.7831 234.128 42.8061 235.609 40.8749 236.748C36.9669 239.028 30.6279 239.028 26.6972 236.748C24.7205 235.609 23.7208 234.105 23.7435 232.601L23.789 187.566C23.789 189.071 24.766 190.575 26.7427 191.714C30.6733 193.993 37.0351 193.993 40.9203 191.714C42.8515 190.575 43.8285 189.093 43.8285 187.612Z" fill="url(#paint6_linear_476_19068)"/>
<path d="M43.8055 187.179C43.5783 181.823 39.1933 177.562 33.8085 177.562C28.4237 177.562 24.0841 181.778 23.8114 187.088C23.766 187.407 23.766 187.726 23.8114 188.045C23.9932 189.39 24.9702 190.689 26.7424 191.714C30.673 193.994 37.0348 193.994 40.92 191.714C42.6695 190.689 43.6238 189.39 43.8055 188.068C43.851 187.772 43.851 187.475 43.8055 187.179Z" fill="url(#paint7_radial_476_19068)"/>
<path d="M36.2394 178.223V179.317C36.2394 179.681 35.9895 180.046 35.5351 180.319C34.5808 180.866 33.0358 180.866 32.0815 180.319C31.6044 180.046 31.3545 179.681 31.3545 179.317V178.223C31.3545 178.587 31.6044 178.952 32.0815 179.225C33.0358 179.772 34.5808 179.772 35.5351 179.225C36.0122 178.952 36.2394 178.587 36.2394 178.223Z" fill="#7C7B89"/>
<mask id="mask15_476_19068" style="mask-type:luminance" maskUnits="userSpaceOnUse" x="31" y="178" width="6" height="3">
<path d="M36.2394 178.223V179.317C36.2394 179.681 35.9895 180.046 35.5351 180.319C34.5808 180.866 33.0358 180.866 32.0815 180.319C31.6044 180.046 31.3545 179.681 31.3545 179.317V178.223C31.3545 178.587 31.6044 178.952 32.0815 179.225C33.0358 179.772 34.5808 179.772 35.5351 179.225C36.0122 178.952 36.2394 178.587 36.2394 178.223Z" fill="white"/>
</mask>
<g mask="url(#mask15_476_19068)">
<path d="M36.2387 178.223V179.317C36.2387 179.499 36.1705 179.705 36.0342 179.864V178.77C36.1705 178.588 36.2387 178.405 36.2387 178.223Z" fill="#7C7B89"/>
<path d="M36.0342 178.77V179.864C35.9206 180.023 35.7388 180.183 35.5116 180.297C35.4661 180.32 35.398 180.343 35.3525 180.388V179.294C35.3525 179.294 35.4661 179.249 35.5116 179.203C35.7388 179.066 35.8978 178.93 36.0342 178.77Z" fill="#7C7B89"/>
<path d="M35.375 179.294V180.388C34.8524 180.639 34.2163 180.753 33.5801 180.707V179.613C34.2163 179.636 34.8524 179.545 35.375 179.294Z" fill="#7C7B89"/>
<path d="M33.5806 179.613V180.707C33.217 180.707 32.8308 180.616 32.5127 180.502V179.408C32.8535 179.522 33.217 179.591 33.5806 179.613Z" fill="#7C7B89"/>
<path d="M32.5125 179.408V180.502C32.3535 180.456 32.1944 180.388 32.0581 180.297C31.581 180.023 31.3311 179.659 31.3311 179.294V178.2C31.3311 178.565 31.581 178.929 32.0581 179.203C32.1944 179.271 32.3308 179.34 32.4898 179.408H32.5125Z" fill="#7C7B89"/>
</g>
<path d="M35.513 177.197C36.4672 177.744 36.4672 178.655 35.513 179.202C34.5587 179.749 33.0137 179.749 32.0594 179.202C31.1052 178.655 31.1052 177.744 32.0594 177.197C33.0137 176.65 34.5587 176.65 35.513 177.197Z" fill="#E3DDFC"/>
<path d="M35.1035 178.86C35.1035 178.86 35.0581 178.906 35.0126 178.906C34.3537 179.294 33.2631 179.294 32.5815 178.906C32.5361 178.883 32.4906 178.838 32.4452 178.815C31.9453 178.45 31.9453 177.926 32.4452 177.561C32.4906 177.539 32.5361 177.516 32.5815 177.47C33.2404 177.083 34.331 177.083 35.0126 177.47C35.0353 177.47 35.0808 177.516 35.1035 177.539C35.6488 177.903 35.6488 178.473 35.1035 178.838V178.86Z" fill="#868596"/>
<path d="M21.404 194.199C25.3347 196.478 25.3574 200.17 21.4495 202.449C17.5415 204.728 11.2025 204.728 7.27182 202.449C3.34116 200.17 3.31844 196.478 7.22638 194.199C11.1343 191.919 17.4734 191.919 21.404 194.199Z" fill="#E3DDFC"/>
<path d="M24.3339 197.891C24.1066 192.535 19.7216 188.273 14.3368 188.273C8.95202 188.273 4.61239 192.489 4.33974 197.799C4.2943 198.118 4.2943 198.438 4.33974 198.757C4.52151 200.101 5.49849 201.4 7.2707 202.426C11.2014 204.705 17.5631 204.705 21.4483 202.426C23.1978 201.4 24.1521 200.101 24.3339 198.779C24.3793 198.483 24.3793 198.187 24.3339 197.891Z" fill="url(#paint8_radial_476_19068)"/>
<path d="M16.7677 188.957V190.051C16.7677 190.416 16.5178 190.78 16.0634 191.054C15.1091 191.601 13.5641 191.601 12.6099 191.054C12.1327 190.78 11.8828 190.416 11.8828 190.051V188.957C11.8828 189.322 12.1327 189.686 12.6099 189.96C13.5641 190.507 15.1091 190.507 16.0634 189.96C16.5405 189.686 16.7677 189.322 16.7677 188.957Z" fill="#7C7B89"/>
<mask id="mask16_476_19068" style="mask-type:luminance" maskUnits="userSpaceOnUse" x="11" y="188" width="6" height="4">
<path d="M16.7677 188.957V190.051C16.7677 190.416 16.5178 190.78 16.0634 191.054C15.1091 191.601 13.5641 191.601 12.6099 191.054C12.1327 190.78 11.8828 190.416 11.8828 190.051V188.957C11.8828 189.322 12.1327 189.686 12.6099 189.96C13.5641 190.507 15.1091 190.507 16.0634 189.96C16.5405 189.686 16.7677 189.322 16.7677 188.957Z" fill="white"/>
</mask>
<g mask="url(#mask16_476_19068)">
<path d="M16.768 188.957V190.05C16.768 190.233 16.6998 190.438 16.5635 190.597V189.504C16.6998 189.321 16.768 189.139 16.768 188.957Z" fill="#7C7B89"/>
<path d="M16.5625 189.504V190.598C16.4489 190.757 16.2671 190.917 16.0399 191.031C15.9945 191.054 15.949 191.076 15.8809 191.122V190.028C15.8809 190.028 15.9945 189.982 16.0399 189.937C16.2671 189.8 16.4262 189.663 16.5625 189.504Z" fill="#7C7B89"/>
<path d="M15.9043 190.028V191.122C15.3817 191.373 14.7456 191.487 14.1094 191.441V190.347C14.7456 190.37 15.3817 190.279 15.9043 190.028Z" fill="#7C7B89"/>
<path d="M14.1089 190.347V191.441C13.7454 191.441 13.3591 191.35 13.041 191.236V190.142C13.3818 190.256 13.7454 190.324 14.1089 190.347Z" fill="#7C7B89"/>
<path d="M13.0416 190.142V191.236C12.8825 191.19 12.7235 191.122 12.6099 191.031C12.1327 190.757 11.8828 190.393 11.8828 190.028V188.934C11.8828 189.299 12.1327 189.663 12.6099 189.937C12.7462 190.005 12.8825 190.074 13.0416 190.142Z" fill="#7C7B89"/>
</g>
<path d="M16.0413 187.931C16.9956 188.478 16.9956 189.39 16.0413 189.937C15.087 190.484 13.542 190.484 12.5878 189.937C11.6335 189.39 11.6335 188.478 12.5878 187.931C13.542 187.384 15.087 187.384 16.0413 187.931Z" fill="#E3DDFC"/>
<path d="M15.6318 189.595C15.6318 189.595 15.5864 189.64 15.5409 189.64C14.8821 190.028 13.7915 190.028 13.1098 189.64C13.0644 189.618 13.019 189.572 12.9735 189.549C12.4737 189.185 12.4737 188.66 12.9735 188.296C13.019 188.273 13.0644 188.25 13.1098 188.205C13.7687 187.817 14.8593 187.817 15.5409 188.205C15.5637 188.205 15.6091 188.25 15.6318 188.273C16.1771 188.638 16.1771 189.207 15.6318 189.572V189.595Z" fill="#868596"/>
<path d="M61.4372 195.771C65.3679 198.05 65.3906 201.742 61.4827 204.021C57.5747 206.301 51.2357 206.301 47.305 204.021C43.3744 201.742 43.3516 198.05 47.2596 195.771C51.1675 193.492 57.5066 193.492 61.4372 195.771Z" fill="#E3DDFC"/>
<path d="M64.3671 199.463C64.1398 194.108 59.7548 189.846 54.37 189.846C48.9852 189.846 44.6456 194.062 44.3729 199.372C44.3275 199.691 44.3275 200.01 44.3729 200.329C44.5547 201.674 45.5317 202.973 47.3039 203.999C51.2346 206.278 57.5963 206.278 61.4815 203.999C63.231 202.973 64.1853 201.674 64.3671 200.352C64.4125 200.056 64.4125 199.76 64.3671 199.463Z" fill="url(#paint9_radial_476_19068)"/>
<path d="M56.8009 190.507V191.601C56.8009 191.965 56.551 192.33 56.0966 192.604C55.1423 193.151 53.5973 193.151 52.6431 192.604C52.1659 192.33 51.916 191.965 51.916 191.601V190.507C51.916 190.871 52.1659 191.236 52.6431 191.51C53.5973 192.057 55.1423 192.057 56.0966 191.51C56.5737 191.236 56.8009 190.871 56.8009 190.507Z" fill="#7C7B89"/>
<mask id="mask17_476_19068" style="mask-type:luminance" maskUnits="userSpaceOnUse" x="51" y="190" width="6" height="4">
<path d="M56.8009 190.507V191.601C56.8009 191.965 56.551 192.33 56.0966 192.604C55.1423 193.151 53.5973 193.151 52.6431 192.604C52.1659 192.33 51.916 191.965 51.916 191.601V190.507C51.916 190.871 52.1659 191.236 52.6431 191.51C53.5973 192.057 55.1423 192.057 56.0966 191.51C56.5737 191.236 56.8009 190.871 56.8009 190.507Z" fill="white"/>
</mask>
<g mask="url(#mask17_476_19068)">
<path d="M56.8012 190.507V191.601C56.8012 191.783 56.733 191.988 56.5967 192.148V191.054C56.733 190.871 56.8012 190.689 56.8012 190.507Z" fill="#7C7B89"/>
<path d="M56.5957 191.077V192.171C56.4821 192.33 56.3003 192.49 56.0731 192.604C56.0277 192.626 55.9595 192.649 55.9141 192.695V191.601C55.9141 191.601 56.0277 191.555 56.0731 191.51C56.3003 191.373 56.4594 191.236 56.5957 191.077Z" fill="#7C7B89"/>
<path d="M55.9375 191.601V192.695C55.4149 192.946 54.7788 193.06 54.1426 193.014V191.92C54.7788 191.943 55.4149 191.852 55.9375 191.601Z" fill="#7C7B89"/>
<path d="M54.1421 191.92V193.014C53.7786 193.014 53.3923 192.923 53.0742 192.809V191.715C53.415 191.829 53.7786 191.897 54.1421 191.92Z" fill="#7C7B89"/>
<path d="M53.0748 191.715V192.809C52.9157 192.763 52.7567 192.695 52.6431 192.604C52.1659 192.33 51.916 191.965 51.916 191.601V190.507C51.916 190.871 52.1659 191.236 52.6431 191.51C52.7794 191.578 52.9157 191.646 53.0748 191.715Z" fill="#7C7B89"/>
</g>
<path d="M56.0745 189.504C57.0288 190.051 57.0288 190.963 56.0745 191.51C55.1202 192.057 53.5752 192.057 52.621 191.51C51.6667 190.963 51.6667 190.051 52.621 189.504C53.5752 188.957 55.1202 188.957 56.0745 189.504Z" fill="#E3DDFC"/>
<path d="M55.665 191.168C55.665 191.168 55.6196 191.213 55.5741 191.213C54.9153 191.601 53.8247 191.601 53.143 191.213C53.0976 191.19 53.0522 191.145 53.0067 191.122C52.5069 190.757 52.5069 190.233 53.0067 189.869C53.0522 189.846 53.0976 189.823 53.143 189.777C53.8019 189.39 54.8925 189.39 55.5741 189.777C55.5969 189.777 55.6423 189.823 55.665 189.846C56.2103 190.21 56.2103 190.78 55.665 191.145V191.168Z" fill="#868596"/>
</g>
<defs>
<linearGradient id="paint0_linear_476_19068" x1="39.353" y1="179.681" x2="76.3648" y2="179.681" gradientUnits="userSpaceOnUse">
<stop offset="0.01" stop-color="#938FA3"/>
<stop offset="0.28" stop-color="#938FA3"/>
<stop offset="0.61" stop-color="#646370"/>
<stop offset="1" stop-color="#646370"/>
</linearGradient>
<linearGradient id="paint1_linear_476_19068" x1="37.5352" y1="156.047" x2="78.1141" y2="156.047" gradientUnits="userSpaceOnUse">
<stop stop-color="#938FA3"/>
<stop offset="0.06" stop-color="#ABA9C0"/>
<stop offset="0.12" stop-color="#C1C0DA"/>
<stop offset="0.18" stop-color="#D0D0ED"/>
<stop offset="0.25" stop-color="#D9DAF8"/>
<stop offset="0.32" stop-color="#DCDDFA"/>
<stop offset="0.56" stop-color="#A8A9BF"/>
<stop offset="0.75" stop-color="#828394"/>
<stop offset="0.91" stop-color="#6B6C79"/>
<stop offset="1" stop-color="#636470"/>
</linearGradient>
<radialGradient id="paint2_radial_476_19068" cx="0" cy="0" r="1" gradientUnits="userSpaceOnUse" gradientTransform="translate(52.7809 118.238) scale(35.2851 35.3938)">
<stop offset="0.05" stop-color="#DDDEFC"/>
<stop offset="0.06" stop-color="#DCDDFA"/>
<stop offset="0.38" stop-color="#A8A9BF"/>
<stop offset="0.66" stop-color="#828394"/>
<stop offset="0.87" stop-color="#6B6C79"/>
<stop offset="1" stop-color="#636470"/>
</radialGradient>
<linearGradient id="paint3_linear_476_19068" x1="82.1352" y1="152.127" x2="119.147" y2="152.127" gradientUnits="userSpaceOnUse">
<stop offset="0.01" stop-color="#938FA3"/>
<stop offset="0.28" stop-color="#938FA3"/>
<stop offset="0.61" stop-color="#646370"/>
<stop offset="1" stop-color="#646370"/>
</linearGradient>
<linearGradient id="paint4_linear_476_19068" x1="80.2947" y1="128.493" x2="120.896" y2="128.493" gradientUnits="userSpaceOnUse">
<stop stop-color="#938FA3"/>
<stop offset="0.06" stop-color="#ABA9C0"/>
<stop offset="0.12" stop-color="#C1C0DA"/>
<stop offset="0.18" stop-color="#D0D0ED"/>
<stop offset="0.25" stop-color="#D9DAF8"/>
<stop offset="0.32" stop-color="#DCDDFA"/>
<stop offset="0.56" stop-color="#A8A9BF"/>
<stop offset="0.75" stop-color="#828394"/>
<stop offset="0.91" stop-color="#6B6C79"/>
<stop offset="1" stop-color="#636470"/>
</linearGradient>
<radialGradient id="paint5_radial_476_19068" cx="0" cy="0" r="1" gradientUnits="userSpaceOnUse" gradientTransform="translate(95.5631 90.661) scale(35.285 35.3938)">
<stop offset="0.05" stop-color="#DDDEFC"/>
<stop offset="0.06" stop-color="#DCDDFA"/>
<stop offset="0.38" stop-color="#A8A9BF"/>
<stop offset="0.66" stop-color="#828394"/>
<stop offset="0.87" stop-color="#6B6C79"/>
<stop offset="1" stop-color="#636470"/>
</radialGradient>
<linearGradient id="paint6_linear_476_19068" x1="23.7208" y1="213.001" x2="43.8285" y2="213.001" gradientUnits="userSpaceOnUse">
<stop stop-color="#938FA3"/>
<stop offset="0.06" stop-color="#ABA9C0"/>
<stop offset="0.12" stop-color="#C1C0DA"/>
<stop offset="0.18" stop-color="#D0D0ED"/>
<stop offset="0.25" stop-color="#D9DAF8"/>
<stop offset="0.32" stop-color="#DCDDFA"/>
<stop offset="0.56" stop-color="#A8A9BF"/>
<stop offset="0.75" stop-color="#828394"/>
<stop offset="0.91" stop-color="#6B6C79"/>
<stop offset="1" stop-color="#636470"/>
</linearGradient>
<radialGradient id="paint7_radial_476_19068" cx="0" cy="0" r="1" gradientUnits="userSpaceOnUse" gradientTransform="translate(31.2865 183.464) scale(17.4721 17.526)">
<stop offset="0.05" stop-color="#DDDEFC"/>
<stop offset="0.06" stop-color="#DCDDFA"/>
<stop offset="0.38" stop-color="#A8A9BF"/>
<stop offset="0.66" stop-color="#828394"/>
<stop offset="0.87" stop-color="#6B6C79"/>
<stop offset="1" stop-color="#636470"/>
</radialGradient>
<radialGradient id="paint8_radial_476_19068" cx="0" cy="0" r="1" gradientUnits="userSpaceOnUse" gradientTransform="translate(11.8148 194.199) scale(17.4721 17.526)">
<stop offset="0.05" stop-color="#DDDEFC"/>
<stop offset="0.06" stop-color="#DCDDFA"/>
<stop offset="0.38" stop-color="#A8A9BF"/>
<stop offset="0.66" stop-color="#828394"/>
<stop offset="0.87" stop-color="#6B6C79"/>
<stop offset="1" stop-color="#636470"/>
</radialGradient>
<radialGradient id="paint9_radial_476_19068" cx="0" cy="0" r="1" gradientUnits="userSpaceOnUse" gradientTransform="translate(51.848 195.771) scale(17.4721 17.526)">
<stop offset="0.05" stop-color="#DDDEFC"/>
<stop offset="0.06" stop-color="#DCDDFA"/>
<stop offset="0.38" stop-color="#A8A9BF"/>
<stop offset="0.66" stop-color="#828394"/>
<stop offset="0.87" stop-color="#6B6C79"/>
<stop offset="1" stop-color="#636470"/>
</radialGradient>
<clipPath id="clip0_476_19068">
<rect width="246" height="197" fill="white"/>
</clipPath>
</defs>
</svg>
