<svg width="196" height="207" viewBox="0 0 196 207" fill="none" xmlns="http://www.w3.org/2000/svg">
<g clip-path="url(#clip0_476_20568)">
<path d="M105.209 94.9169C105 92.9248 106.292 90.5176 107.959 88.4425C109.375 86.6994 111 85.0393 112.542 83.3377C113.417 82.3416 117.292 78.6478 118.167 77.6933C119.084 76.6972 120.042 75.7011 120.959 74.7051L124.334 88.899C122.459 90.5176 120.584 92.0948 118.667 93.6719C115.792 96.0375 112.625 98.1127 109.334 98.0712C109.125 98.0712 108.917 98.0712 108.709 98.0297C106.834 97.7806 105.375 96.6601 105.209 94.9169Z" fill="#323537"/>
<path d="M115.542 86.3677C114.667 85.7037 113.917 85.8282 112.958 85.2887C109.625 83.338 119.542 58.1043 122.25 53.4145C125.417 47.9776 131.042 44.4084 134.625 45.4045C138.875 46.5665 140.875 54.8671 139.125 65.3673C137.833 73.1698 127.583 84.1266 124.625 89.9785C121.5 96.1209 117.042 87.5298 115.542 86.4092V86.3677Z" fill="#E6EBF0"/>
<path d="M123.125 70.8872C122.792 64.4128 121.917 55.6972 124.959 49.8453C128.042 46.5666 131.917 44.699 134.584 45.446C138.834 46.6081 140.834 54.9086 139.084 65.4089C138.042 71.6343 131.292 79.8933 127.084 85.9527C124.667 81.3874 123.292 76.3656 123.084 70.9287L123.125 70.8872Z" fill="#323537"/>
<path fill-rule="evenodd" clip-rule="evenodd" d="M67.9584 102.222L60.8334 104.214C58.8334 104.754 58 102.388 60.0417 101.641L67.8751 98.9017C69.9167 98.1547 69.9584 101.682 67.9584 102.222Z" fill="#D4E1E8"/>
<path fill-rule="evenodd" clip-rule="evenodd" d="M64.2504 99.5243L57.5004 100.686C55.5004 101.018 55.2504 98.5282 57.3337 97.9472L65.3754 95.9135C67.4587 95.3325 66.2921 99.1508 64.2504 99.5658V99.5243Z" fill="#D4E1E8"/>
<path fill-rule="evenodd" clip-rule="evenodd" d="M64.6254 95.706L56.542 96.7436C54.5003 96.9926 54.4587 93.8799 56.8337 93.8384L65.2087 92.5103C67.3337 92.0538 66.7087 95.4155 64.667 95.706H64.6254Z" fill="#D4E1E8"/>
<path fill-rule="evenodd" clip-rule="evenodd" d="M61.0419 92.967L54.2919 92.5935C52.2502 92.552 52.7086 90.1033 54.8752 89.9373L63.3752 89.6053C65.5419 89.4393 63.1252 92.967 61.0419 92.967Z" fill="#D4E1E8"/>
<path fill-rule="evenodd" clip-rule="evenodd" d="M64.9169 90.5181L59.4169 87.9865C57.4585 86.9489 59.0002 84.5832 60.5835 85.1643C62.7919 85.9528 65.8752 86.5339 67.5835 87.8204C70.2502 89.8126 69.0418 91.8047 67.6252 92.0537C66.7085 92.2197 65.4585 90.8086 64.8752 90.5596L64.9169 90.5181Z" fill="#D4E1E8"/>
<path fill-rule="evenodd" clip-rule="evenodd" d="M66.7921 91.7218C67.9587 92.1783 69.2504 91.6388 69.7087 90.5182C70.1671 89.3976 69.5421 88.111 68.3754 87.6545C67.2087 87.198 65.9171 87.7375 65.4587 88.8581C65.0004 89.9787 65.5837 91.2653 66.7921 91.7218Z" fill="#B3C4D5"/>
<path d="M67.3747 96.2455C67.0831 94.5024 68.2497 92.8838 69.9997 92.5933L83.0831 90.3521C84.8331 90.0616 86.4581 91.2237 86.7497 92.9668C87.0414 94.6684 85.8747 96.3285 84.1247 96.619L71.0414 98.8602C69.3331 99.1507 67.6664 97.9886 67.3747 96.2455Z" fill="#323537"/>
<path d="M106.417 98.5281C104.792 98.6941 103.125 98.9016 101.5 99.1092C99.2919 99.3582 97.1252 99.6487 94.9169 99.9807C88.1669 100.894 74.7502 103.176 74.1252 95.2079C73.7086 89.771 81.6252 88.5674 83.7086 88.0279C85.6669 87.5299 87.5419 86.8658 89.4586 86.2433C92.4586 85.2887 95.5002 84.3342 98.5419 83.4626C110.167 80.1009 110.584 80.3499 112.167 83.8776C114.292 88.6919 109.25 89.937 110.25 94.8344C110.875 97.9471 109.75 98.1131 106.459 98.4866L106.417 98.5281Z" fill="#E6EBF0"/>
<path d="M74.1252 95.2079C73.7086 89.771 81.6252 88.5674 83.7086 88.0279C85.6669 87.5299 87.5419 86.8658 89.4586 86.2433C92.4586 85.2887 95.5002 84.3342 98.5419 83.4626C110.167 80.1009 110.584 80.3499 112.167 83.8776C114.167 88.4429 109.75 89.771 110.125 94.1288C98.5002 98.3621 85.4169 100.479 74.2502 95.9134C74.2086 95.6644 74.1669 95.4154 74.1252 95.1249V95.2079Z" fill="#E6EBF0"/>
<path d="M110.125 94.1704C110.125 94.3779 110.167 94.6269 110.208 94.876C110.833 97.9887 109.708 98.1547 106.417 98.5282C104.792 98.6942 103.125 98.9017 101.5 99.1092C99.2917 99.3583 97.125 99.6488 94.9167 99.9808C88.375 100.894 75.6667 103.011 74.25 95.9965C85.4167 100.562 98.5 98.4452 110.125 94.2119V94.1704Z" fill="#D4E1E8"/>
<path d="M81.583 88.5262L88.2913 92.8425L104.208 87.8206L106.625 81.3877C106.25 81.4707 105.875 81.5537 105.5 81.6367C105.333 81.6367 105.208 81.7197 105.041 81.7612C103.375 82.1347 101.291 82.7573 98.583 83.5043C95.5413 84.3759 92.4997 85.3305 89.4997 86.285C87.583 86.8661 85.6663 87.5301 83.7497 88.0696C83.6663 88.0696 83.583 88.1111 83.4997 88.1526C83.333 88.1526 83.1663 88.2357 82.958 88.2772C82.583 88.3602 82.1247 88.4847 81.6247 88.6092L81.583 88.5262Z" fill="#323537"/>
<path d="M82.876 88.2357L87.876 91.5144L103.709 86.4925L105.459 81.6367C105.459 81.6367 105.168 81.7197 105.001 81.7612L103.376 86.202L87.9176 91.0994L83.4176 88.1527C83.4176 88.1527 83.0843 88.2357 82.876 88.2772V88.2357Z" fill="#71FFFF"/>
<path d="M62.7919 103.716C60.9169 102.097 56.9169 96.3284 62.6669 89.3144C62.6669 89.3144 62.6669 89.3144 62.7086 89.3144C63.6669 89.1899 64.6253 89.1899 65.5836 89.1899C66.6669 89.1484 67.5836 89.0654 68.6253 89.3975C70.2086 89.8955 72.5003 91.1406 72.1669 93.1327C72.0419 93.8798 71.5836 94.5023 71.3753 95.2493C71.1253 96.1209 71.2919 97.1585 71.7919 97.9055C72.0419 98.3206 72.4169 98.6526 72.5003 99.1091C72.8753 100.603 69.4586 101.807 68.4586 102.222C66.6253 102.927 64.7086 103.384 62.7503 103.716H62.7919Z" fill="#B3C4D5"/>
<path d="M63.9176 103.508C62.0426 101.89 58.0009 96.2454 63.7926 89.2314C63.7926 89.2314 63.7926 89.2314 63.8342 89.2314C64.7926 89.1069 65.7926 88.9824 66.7509 88.9409C67.8342 88.8994 68.7509 88.8164 69.7926 89.1484C71.3759 89.6465 73.6676 90.8915 73.3342 92.8837C73.2092 93.6307 72.7509 94.2533 72.5426 95.0003C72.2926 95.8719 72.4592 96.9095 72.9592 97.6565C73.2092 98.0715 73.5842 98.4036 73.6676 98.8601C74.0426 100.354 70.6259 101.558 69.6259 101.973C67.7925 102.678 65.8759 103.135 63.9176 103.467V103.508Z" fill="#F1F5F9"/>
<path d="M68.9584 100.396C71.2084 99.4413 72.2917 96.8267 71.3334 94.5855C70.375 92.3444 67.75 91.2653 65.5 92.2198C63.25 93.1744 62.1667 95.7891 63.125 98.0302C64.0834 100.271 66.7084 101.35 68.9584 100.396Z" fill="#323537"/>
<path d="M67.208 100.105C65.708 100.105 64.2913 99.2338 63.6663 97.7812C62.833 95.8306 63.7497 93.5894 65.708 92.8009C67.6663 91.9708 69.9163 92.8839 70.708 94.8345C71.5413 96.7851 70.6247 99.0263 68.6663 99.8148C68.1663 100.022 67.6663 100.105 67.1663 100.105H67.208ZM67.208 92.8839C66.7497 92.8839 66.2913 92.9669 65.8747 93.1744C64.1247 93.9215 63.333 95.9136 64.0413 97.6567C64.7497 99.3998 66.7913 100.188 68.5413 99.4828C69.3747 99.1093 70.0413 98.4453 70.3747 97.6152C70.708 96.7851 70.708 95.8306 70.3747 95.0005C69.833 93.7139 68.5413 92.9254 67.208 92.9254V92.8839Z" fill="#71FFFF"/>
<path d="M150.125 198.218C150.084 198.633 150 199.048 149.917 199.463C149.792 200.334 149.625 201.206 149.459 202.077C149.375 202.451 149.334 202.825 149.25 203.24C149.042 204.319 148.834 205.398 148.584 206.518C147.625 211.291 146.584 216.064 146.125 220.671C145.792 223.659 141.125 225.236 139.25 222.704C138.834 222.165 138.625 221.459 138.167 220.961C137.709 220.422 136.917 220.131 136.375 220.546C136.125 220.754 136 221.044 135.875 221.335C135.75 221.625 135.584 221.916 135.292 222.082C134.459 222.538 134.25 221.127 134.25 220.588C134.459 215.69 133.667 203.572 132.875 199.048C131.875 193.32 131.334 189.461 130.125 183.775C128.917 178.172 129.209 175.308 130.667 174.561C134.875 172.361 140.084 169.871 143.834 172.942C145.75 174.52 147.209 176.263 148.292 178.172C148.584 178.711 148.834 179.251 149.084 179.79C149.209 180.081 149.334 180.33 149.417 180.621C149.625 181.16 149.834 181.741 149.959 182.322C150.042 182.654 150.125 182.945 150.209 183.277C151.25 187.801 150.917 192.905 150.084 198.218H150.125Z" fill="#D4E1E8"/>
<path d="M137.624 179.002C133.666 179.251 130.416 182.571 128.999 176.097C128.124 172.112 126.833 133.307 127.041 125.463C127.041 125.463 136.249 133.432 140.124 127.331C143.791 121.52 143.291 101.018 149.166 103.218C150.708 103.799 151.124 104.255 151.708 105.749C156.583 118.076 149.833 178.296 137.624 179.002Z" fill="#D4E1E8"/>
<path d="M151.708 105.749C151.124 104.255 150.708 103.799 149.166 103.218C143.291 101.018 143.791 121.52 140.124 127.331C136.249 133.432 127.041 124.135 127.041 124.135C127.041 125.131 127.041 127.953 127.041 129.779C127.041 129.945 127.041 130.07 127.041 130.236C127.041 133.307 127.166 137.25 127.291 141.566C131.166 140.363 135.541 142.147 138.541 144.803C142.291 148.539 144.916 152.979 146.458 157.918C146.999 159.371 147.458 160.823 147.833 162.359C149.124 157.628 150.249 152.232 151.124 146.671C151.124 146.464 151.208 146.256 151.208 146.048C151.208 145.882 151.249 145.758 151.291 145.592C152.208 139.616 152.833 133.473 153.124 127.787C153.666 117.951 153.291 109.526 151.749 105.708L151.708 105.749Z" fill="#323537"/>
<path d="M128.875 175.142C128.75 176.761 129.167 178.711 129.625 180.247C130.125 181.865 131 183.401 132.334 184.522C133.625 185.601 135.417 186.223 137.084 185.891C138.5 185.601 139.709 184.729 140.709 183.65C142.542 181.699 143.625 179.209 144.459 176.678C145.25 174.312 145.792 171.863 145.834 169.373C145.834 169.249 145.75 168.875 145.834 168.75C145.834 168.75 144.209 171.697 141.75 173.855C139 176.262 134.084 179.417 130.459 176.927C129.792 176.47 129.292 175.847 128.792 175.142H128.875Z" fill="#292929"/>
<path d="M150.125 198.217C150.083 198.632 150 199.047 149.917 199.462C149.792 200.334 149.625 201.205 149.458 202.077C149.375 202.451 149.333 202.824 149.25 203.239C149.042 204.318 148.833 205.397 148.583 206.518C147.458 204.733 145.875 202.119 144.375 199.338C142 194.98 140.375 192.324 140.792 189.917C141.375 186.472 145.125 182.82 148.333 178.213C148.625 178.752 148.875 179.292 149.125 179.832C149.25 180.122 149.375 180.371 149.458 180.662C149.667 181.201 149.875 181.782 150 182.363C150.083 182.695 150.167 182.986 150.25 183.318C151.292 187.842 150.958 192.946 150.125 198.259V198.217Z" fill="#323537"/>
<path d="M147.499 198.632L146.999 197.678C144.958 193.984 143.624 191.535 143.958 189.419C144.333 187.095 146.249 184.687 148.458 181.824C148.791 181.409 149.124 180.994 149.416 180.537C149.333 180.247 149.208 179.998 149.083 179.707C148.666 180.247 148.249 180.786 147.833 181.326C145.583 184.231 143.624 186.763 143.166 189.253C142.791 191.618 144.166 194.15 146.291 198.01L146.791 198.964C147.583 200.375 148.416 201.828 149.208 203.198C149.291 202.824 149.374 202.409 149.416 202.036C148.749 200.915 148.124 199.753 147.458 198.591L147.499 198.632Z" fill="#71FFFF"/>
<path d="M150.251 183.276C148.501 185.517 147.167 187.551 146.834 189.46C146.501 191.577 147.834 194.026 149.876 197.719L150.167 198.217C150.126 198.632 150.042 199.047 149.959 199.462C149.876 199.296 149.792 199.172 149.709 199.006L149.209 198.051C147.084 194.192 145.709 191.66 146.084 189.294C146.459 187.053 148.084 184.812 150.042 182.28L150.292 183.235L150.251 183.276Z" fill="#71FFFF"/>
<path d="M130.583 169.166C130.917 170.535 131.667 172.237 133.083 172.195C134.417 172.195 135.125 170.701 135.5 169.415C137.5 162.525 137.458 155.096 135.458 148.248C134.917 146.422 133.333 143.641 130.958 144.969C129.25 145.924 129.333 149.12 129.208 150.738C128.667 156.922 129.125 163.148 130.583 169.166Z" fill="#D4E1E8"/>
<path d="M136.624 215.731C136.874 216.769 137.541 218.097 138.624 217.931C139.457 217.765 139.832 216.769 139.999 215.939C141.707 207.721 141.249 199.047 138.749 191.037C138.374 189.834 138.166 188.174 136.666 188.008C135.541 187.883 134.291 188.838 133.707 189.668C132.707 191.079 133.082 192.739 133.207 194.358C133.374 196.557 133.582 198.757 133.874 200.915C134.499 205.895 135.416 210.834 136.624 215.69V215.731Z" fill="#D4E1E8"/>
<path d="M157.416 199.089C156 193.528 156.166 190.664 157.583 189.834C161.666 187.468 166.791 184.771 170.708 187.676C184.375 197.844 176.041 218.014 174.958 235.28C174.75 238.268 170.166 240.011 168.166 237.604C167.75 237.064 167.5 236.4 167.041 235.902C166.583 235.404 165.75 235.114 165.208 235.57C164.958 235.778 164.875 236.11 164.75 236.4C164.625 236.691 164.5 237.023 164.208 237.189C163.375 237.687 163.125 236.276 163.125 235.736C163.125 230.839 161.833 218.762 160.833 214.279C159.583 208.593 158.916 204.775 157.458 199.131L157.416 199.089Z" fill="#F1F5F9"/>
<path d="M177.791 214.404C177.749 214.819 177.666 215.275 177.624 215.69C177.499 216.603 177.374 217.516 177.208 218.388C177.166 218.803 177.083 219.177 176.999 219.592C176.833 220.712 176.624 221.833 176.458 222.953C175.333 221.252 173.458 218.139 171.666 214.86C169.291 210.502 167.666 207.846 168.083 205.439C168.666 201.953 172.541 198.259 175.749 193.486C176.041 194.026 176.291 194.565 176.541 195.146C176.666 195.437 176.791 195.686 176.874 195.977C177.083 196.516 177.249 197.097 177.416 197.678C177.499 198.01 177.583 198.301 177.666 198.633C178.749 203.364 178.458 208.759 177.749 214.362L177.791 214.404Z" fill="#323537"/>
<path d="M174.874 214.238L174.374 213.284C172.333 209.59 170.999 207.141 171.333 205.025C171.708 202.7 173.624 200.293 175.833 197.43C176.208 196.932 176.583 196.475 176.958 195.977C176.874 195.687 176.749 195.396 176.624 195.147C176.166 195.77 175.666 196.392 175.208 196.973C172.958 199.878 170.999 202.41 170.541 204.9C170.166 207.266 171.541 209.797 173.666 213.657L174.166 214.612C175.083 216.313 176.083 218.057 177.041 219.592C177.124 219.177 177.166 218.804 177.249 218.389C176.458 217.06 175.666 215.608 174.874 214.197V214.238Z" fill="#71FFFF"/>
<path d="M177.708 214.238L177.208 213.283C175.167 209.59 173.833 207.141 174.167 205.024C174.5 203.032 175.917 200.998 177.708 198.633C177.625 198.301 177.542 198.01 177.458 197.678C175.417 200.293 173.75 202.576 173.375 204.9C173 207.265 174.375 209.797 176.5 213.657L177 214.611C177.208 214.985 177.417 215.317 177.625 215.69C177.667 215.275 177.75 214.819 177.792 214.404C177.792 214.362 177.708 214.279 177.708 214.238Z" fill="#71FFFF"/>
<path d="M164.749 194.026C160.791 194.441 157.708 197.886 155.999 191.494C154.958 187.552 148.624 139.906 148.458 132.062C148.333 124.799 152.708 131.191 156.333 124.924C159.791 118.989 167.124 115.876 173.124 117.827C174.708 118.325 175.124 118.781 175.791 120.276C181.166 132.394 176.958 192.822 164.791 194.067L164.749 194.026Z" fill="#F1F5F9"/>
<path d="M175.749 120.234C175.082 118.781 174.666 118.325 173.082 117.785C172.541 117.619 172.041 117.495 171.457 117.37C176.291 142.147 173.249 167.962 166.874 193.071C177.374 185.393 180.749 131.564 175.707 120.192L175.749 120.234Z" fill="#D4E1E8"/>
<path d="M178.04 143.683C178.04 143.683 178.04 144.015 178.04 144.14C177.999 146.547 177.874 148.995 177.707 151.486C174.457 144.43 169.749 139.699 161.415 143.268C155.665 145.758 152.582 153.561 151.54 160.533C151.415 159.62 151.332 158.749 151.207 157.836C151.207 157.545 151.124 157.213 151.082 156.922C150.915 155.594 150.749 154.266 150.582 152.938C150.582 152.731 150.54 152.482 150.499 152.274C150.374 151.195 150.249 150.158 150.124 149.078C150.124 148.912 150.082 148.746 150.082 148.58C149.165 140.861 148.54 134.511 148.499 132.062C148.374 124.799 152.749 131.191 156.374 124.924C159.832 118.989 167.165 115.876 173.165 117.827C174.749 118.325 175.165 118.781 175.832 120.276C176.582 121.977 177.165 124.592 177.54 127.871C177.54 128.037 177.54 128.161 177.582 128.327C177.832 130.485 177.957 132.934 178.082 135.549C178.082 135.673 178.082 135.798 178.082 135.922C178.165 138.371 178.165 140.944 178.082 143.642L178.04 143.683Z" fill="#323537"/>
<path d="M155.75 190.457C155.75 190.457 155.833 191.66 156.167 192.822C158.083 199.712 162 204.319 167 198.674C172.167 192.822 172.333 183.899 172.583 183.443C172.583 183.443 171.083 186.473 168.75 188.714C164.625 192.656 159.625 194.732 155.75 190.498V190.457Z" fill="#292929"/>
<path d="M154.542 142.479C147.667 146.09 142.375 144.554 138.042 140.736C137.458 140.238 136.917 139.699 136.375 139.117C132.583 135.009 129.625 129.24 127 124.135C127.167 122.973 127.333 121.852 127.625 120.732C127.667 120.483 127.75 120.275 127.792 120.026C128.417 117.578 129.375 115.336 130.833 113.469C134.625 108.613 143.875 119.985 149.708 122.06C151.25 122.599 152.75 123.305 153.292 124.633C154.75 127.995 155.458 134.262 154.542 142.521V142.479Z" fill="#292929"/>
<path d="M143.458 143.476C143.124 143.725 142.708 143.849 142.291 143.849C141.458 143.849 140.666 143.434 140.124 143.102C138.374 142.023 136.833 140.529 135.749 138.786C135.249 137.997 134.791 137.126 134.416 136.296C133.958 135.383 133.499 134.47 132.916 133.598C131.624 131.647 129.624 129.946 127.041 128.576C127.041 128.41 127.041 128.286 127.041 128.12C127.041 128.12 127.083 128.12 127.124 128.161C129.833 129.614 131.874 131.357 133.249 133.39C133.833 134.262 134.291 135.217 134.749 136.13C135.166 136.96 135.583 137.79 136.083 138.578C137.166 140.28 138.624 141.733 140.333 142.77C140.999 143.185 142.291 143.808 143.208 143.144L143.416 143.476H143.458Z" fill="#71FFFF"/>
<path d="M178.042 134.926C172.75 133.888 164.625 136.586 159.792 140.57C159.125 140.985 154.084 144.43 151.125 145.053C150.667 145.136 150.292 145.177 149.959 145.136C149.125 138.329 148.542 132.726 148.5 130.444C148.417 125.297 150.584 126.999 153.125 126.21C154.167 125.878 155.292 125.131 156.375 123.305C159.834 117.37 167.167 114.258 173.167 116.208C174.75 116.706 175.167 117.163 175.834 118.657C176.792 120.815 177.417 124.384 177.792 128.825C177.792 128.991 177.792 129.116 177.792 129.282C177.917 131.066 178 132.975 178.042 134.967V134.926Z" fill="#292929"/>
<path d="M177.75 129.24C176.5 130.236 175.167 131.025 173.792 131.606C172.125 132.353 170.292 132.809 168.542 133.266C166.125 133.889 163.625 134.511 161.5 135.881C159.917 136.877 158.625 138.288 157.375 139.616C157.042 139.989 156.667 140.363 156.333 140.695C155 142.023 153.292 143.642 151.167 144.389C150.917 144.513 150.625 144.596 150.333 144.638L150.25 144.264C150.583 144.181 150.917 144.057 151.25 143.932C153.167 143.185 154.75 141.733 156.042 140.404C156.375 140.031 156.75 139.699 157.083 139.325C158.375 137.956 159.708 136.545 161.292 135.507C163.458 134.096 166 133.473 168.458 132.851C170.208 132.394 172 131.938 173.625 131.232C175.042 130.61 176.375 129.78 177.667 128.742C177.667 128.908 177.667 129.033 177.667 129.199L177.75 129.24Z" fill="#71FFFF"/>
<path d="M149.417 145.136C136.542 146.63 134.542 128.493 128.167 118.864C128.125 116.374 128.167 114.34 128.167 112.971C136.75 118.989 146.209 125.131 156.667 124.26C160 123.969 167.375 104.919 170.584 106.206C173.959 107.575 174.667 111.809 175.792 118.615C176.75 124.384 172.334 128.285 169.042 129.074C166.084 129.821 163.5 130.236 161.125 132.187C157 135.548 152.709 144.762 149.417 145.136Z" fill="#F1F5F9"/>
<path d="M134.958 103.508C125.917 108.738 125.833 117.163 134.833 122.392C143.833 127.622 158.458 127.622 167.542 122.392C176.583 117.163 176.667 108.738 167.667 103.508C158.667 98.2791 144.042 98.2791 134.958 103.508Z" fill="#D4E1E8"/>
<path d="M177.291 87.0727L128.166 85.2881C128.166 85.2881 131.833 106.039 132.166 111.144C132.166 111.352 132.166 111.601 132.166 111.808C132.416 114.423 134.291 117.038 137.791 119.03C145.291 123.346 157.499 123.346 164.999 119.03C168.291 117.162 170.124 114.755 170.541 112.265C172.874 101.267 177.291 86.9897 177.291 86.9897V87.0727Z" fill="#323537"/>
<path d="M128.124 85.3301C128.124 85.3301 129.374 92.3441 130.457 99.192C140.291 108.696 157.582 106.912 169.166 100.811C169.707 106.331 168.832 112.016 167.166 117.619C169.082 116.042 170.207 114.216 170.499 112.39C172.832 101.392 177.249 87.1147 177.249 87.1147L128.124 85.3301Z" fill="#292929"/>
<path d="M179.374 84.1679C177.79 87.0731 175.832 90.1443 173.582 93.2156C171.082 96.5773 167.624 99.69 163.374 101.06C161.832 101.558 160.249 101.973 158.624 102.346C158.499 102.346 158.374 102.388 158.207 102.429C149.957 104.214 140.957 104.006 134.665 99.8145C134.54 99.7315 134.457 99.69 134.332 99.607C132.499 98.3204 130.957 96.7433 129.707 94.7097C127.582 91.2649 126.957 86.8241 126.707 83.2964C130.124 87.5297 134.29 91.5554 138.999 93.7551C139.124 93.7966 139.249 93.8796 139.374 93.9211C143.124 95.5812 147.207 96.1208 151.54 94.7097C151.999 94.5436 152.415 94.4191 152.874 94.2531C152.999 94.2116 153.124 94.1701 153.249 94.1286C162.082 90.9329 170.54 86.8241 179.374 84.2095V84.1679Z" fill="#D4E1E8"/>
<path d="M186.374 68.355C186.207 71.1772 184.332 76.9876 180.749 83.6695C174.957 85.4542 169.374 87.8613 163.707 90.227C163.166 90.4345 162.624 90.6835 162.082 90.9325C158.874 92.2606 155.624 93.5887 152.374 94.7923C143.749 97.656 136.041 92.8417 129.999 86.2842C129.541 85.8277 129.124 85.3297 128.707 84.8316C128.124 84.1261 127.541 83.4205 126.999 82.715C126.874 80.7644 126.874 79.1042 126.874 78.0252C126.749 72.0073 126.207 56.5682 129.499 51.2559C129.874 50.6333 130.374 50.0523 130.916 49.5127C131.332 49.0977 131.832 48.6827 132.332 48.3092C139.374 43.0798 153.499 43.0798 161.707 45.2794C164.207 45.9435 168.207 47.3546 172.207 48.8072C172.541 48.9317 172.999 49.0977 173.416 49.2637C173.541 49.3052 173.666 49.3467 173.791 49.3882C177.249 50.7163 180.541 52.0444 182.624 52.9575C188.749 55.7382 186.791 62.1711 186.457 68.355H186.374Z" fill="#F1F5F9"/>
<path d="M165.666 89.0237C164.916 89.3142 164.207 89.6462 163.457 89.9783C162.916 90.1858 162.374 90.4348 161.832 90.6423C158.249 92.1364 154.707 93.6305 151.041 94.9171C142.374 97.7808 134.582 92.925 128.499 86.326C128.124 85.911 127.707 85.4545 127.332 85.0394C126.707 84.2924 126.082 83.5453 125.457 82.7568C125.332 80.8061 123.249 55.5724 126.582 50.2601C127.541 48.7245 129.041 47.4794 130.832 46.4833C131.291 46.2343 131.749 46.0268 132.207 45.8193C133.916 45.0722 139.124 43.8686 141.207 43.4951C143.166 48.849 139.707 56.5685 144.957 57.6061C153.457 59.3492 160.624 53.4558 165.874 46.5248C168.207 47.2719 172.957 49.0565 173.416 49.2225C173.416 49.3885 173.374 49.8035 173.416 49.9281C173.416 50.0526 173.416 50.1356 173.416 50.2601C173.957 63.4995 173.291 78.1085 165.666 88.9407V89.0237Z" fill="#F1F5F9"/>
<path d="M145.874 55.4894C156.832 57.523 160.791 54.4933 165.874 46.6078C163.832 45.9022 161.749 45.2797 160.374 44.9062C155.082 43.4951 146.999 42.914 139.916 43.9101C139.249 43.9931 139.332 54.2858 145.916 55.4894H145.874Z" fill="#D4E1E8"/>
<path d="M182.54 52.9989C180.624 52.1274 177.707 50.9653 174.54 49.7202C175.124 63.0426 174.249 78.0666 166.582 89.0234C171.165 87.1143 176.082 85.0806 180.749 83.628C184.29 76.9461 186.207 71.1357 186.374 68.355C186.707 62.1711 188.707 55.7381 182.54 52.9574V52.9989Z" fill="#D4E1E8"/>
<path d="M186.374 68.355C186.708 62.1711 188.708 55.7382 182.541 52.9575C182.166 52.7915 181.791 52.6255 181.374 52.4595C173.374 54.6591 172.124 73.5014 177.958 82.383C178.333 82.964 178.833 83.5451 179.333 84.0846C179.791 83.9186 180.291 83.7941 180.749 83.6281C184.291 76.9461 186.208 71.1357 186.374 68.355Z" fill="#323537"/>
<path d="M162.042 41.2121C162.125 42.1666 162.334 46.0264 162.584 47.0225C162.584 47.147 162.292 48.143 161.375 49.3051C161.209 49.5541 160.959 49.7616 160.75 50.0107C159.625 51.1312 157.875 52.2103 155.334 52.5838C142.959 54.493 142.084 49.0561 142.084 48.8486C142.334 45.1548 142.042 38.3899 142.042 38.3899L163.084 28.1802C163.084 28.1802 161.792 38.6804 162.042 41.1706V41.2121Z" fill="#292929"/>
<path d="M161.417 49.3052C161.251 49.5542 161.001 49.7617 160.792 50.0107C159.376 43.6608 159.251 37.0618 160.417 30.6704L161.167 30.7949C160.042 36.8958 160.126 43.2043 161.417 49.3052Z" fill="#71FFFF"/>
<path d="M153.875 53.7048C153.875 53.7048 153.792 53.7048 153.75 53.7048C153.542 53.6218 153.458 53.4143 153.542 53.2068L161 33.3684C161 33.3684 161.292 33.0779 161.5 33.1609C161.708 33.2439 161.792 33.4514 161.708 33.6589L154.25 53.4973C154.25 53.4973 154.042 53.7463 153.875 53.7463V53.7048Z" fill="#D4E1E8"/>
<path d="M143.168 52.9579C143.168 52.9579 143.084 52.9579 143.043 52.9579C142.834 52.9579 142.668 52.7919 142.626 52.5844L142.126 31.418C142.126 31.2104 142.293 31.0444 142.501 31.0029C142.709 31.0029 142.876 31.1689 142.918 31.3765L143.418 52.5429C143.418 52.5429 143.334 52.8334 143.168 52.9164V52.9579Z" fill="#D4E1E8"/>
<path d="M164.209 27.807C163.459 30.6707 156.75 40.7144 156.542 40.8804C150.709 45.6117 141.542 47.3548 139.625 44.8232C136.875 41.2124 134.125 32.4553 135.5 25.0678C136.042 22.4531 134.334 20.6685 135.375 18.0539C136.417 15.4807 135.667 8.54971 140.75 8.13468C144.084 7.88566 147.709 7.71965 151.125 10.4173C157.167 15.1902 165.125 17.4313 163.75 26.2299C163.625 26.7279 164.292 27.2675 164.167 27.807H164.209Z" fill="#F1F5F9"/>
<path d="M164.209 27.807C164 28.5956 163.292 30.0066 162.417 31.5838C160.167 35.568 156.667 40.7559 156.5 40.8804C155.709 41.5444 154.917 42.084 154.084 42.6235C152.75 43.4536 151.25 44.1591 149.417 44.7817C150.625 43.5366 151.417 42.001 151.959 40.1333C152.625 37.8922 151.084 34.7795 151.75 32.5798C152.417 30.2557 155.042 28.5125 156.709 26.7279C158.584 24.7358 161.125 23.3662 163.834 22.9512C163.959 23.9472 163.959 25.0263 163.792 26.2299C163.667 26.7279 164.334 27.2675 164.209 27.807Z" fill="#D4E1E8"/>
<path d="M164.209 3.94284C160.501 1.12065 154.251 -2.40708 143.917 2.24123C135.709 5.93498 136.334 12.4509 136.084 14.3601C136.084 14.6091 136.251 14.5261 136.251 14.5261C136.251 14.5261 135.959 10.6663 142.376 13.2395C147.542 15.3146 150.292 11.9114 152.876 13.4885C154.709 14.6091 165.251 21.8306 163.042 24.6112C162.126 25.7733 161.542 24.2377 160.834 28.139C160.542 29.6746 158.459 29.5086 160.251 30.0896C161.834 30.6292 163.334 31.7082 164.126 30.8367C166.084 28.7615 167.709 25.8978 168.459 23.0756C171.126 12.8244 167.917 6.68203 164.167 3.85984L164.209 3.94284Z" fill="#F1F5F9"/>
<path d="M163.043 8.13479C167.709 14.5677 167.876 22.2042 165.459 29.4257C165.043 29.9653 164.626 30.4633 164.209 30.9613C163.418 31.7914 161.918 30.7538 160.334 30.2143C158.543 29.6332 160.626 29.7578 160.918 28.2637C161.668 24.3624 162.251 25.8565 163.126 24.7359C165.334 21.9552 154.793 14.7337 152.959 13.6132C150.418 12.0361 147.626 15.3978 142.459 13.3641C136.043 10.791 136.334 14.6507 136.334 14.6507C136.334 14.6507 136.126 14.7337 136.168 14.4847C136.376 12.7001 135.876 7.01422 142.251 3.23746C149.834 2.3244 157.751 1.70186 163.043 8.2593V8.13479Z" fill="#F1F5F9"/>
<path d="M164.209 3.94299C167.959 6.76518 171.168 12.9076 168.501 23.1588C167.918 25.3584 166.834 27.5581 165.459 29.4257C167.876 22.2457 167.709 14.5677 163.043 8.13478C157.709 1.57733 146.459 1.49433 142.251 3.11294C142.793 2.78091 143.334 2.49039 143.959 2.19987C154.293 -2.40694 160.501 1.0793 164.251 3.90149L164.209 3.94299Z" fill="#292929"/>
<path d="M136.917 37.4357C137.042 38.2243 137.125 39.0128 137.084 39.8014C135.459 35.4021 134.584 29.6747 135.5 25.1509C136.417 25.8979 137.042 26.977 137.167 28.1806C137.334 29.7577 136.667 31.2933 136.5 32.8289C136.334 34.3645 136.709 35.9001 136.917 37.4357Z" fill="#D4E1E8"/>
<path d="M149.167 2.2827C148.084 3.56929 146.876 4.77287 145.542 5.85194C144.709 6.55749 143.834 7.22154 143.251 8.1346C142.667 9.04766 142.501 10.3342 143.126 11.2058C143.626 11.9114 144.542 12.2434 145.417 12.2849C146.876 12.4094 148.376 11.9529 149.501 11.0398C150.876 9.91922 151.667 8.25911 152.542 6.682C153.417 5.1464 154.459 3.52779 156.126 2.86374C154.376 2.2827 152.501 1.99218 150.626 2.03369L149.167 2.2412V2.2827Z" fill="#292929"/>
<path d="M169 20.5858L168.292 20.1708C167.292 19.5898 165.959 19.6728 164.417 20.5443L165.125 20.9593C166.625 20.0878 168 20.0048 169 20.5858Z" fill="#292929"/>
<mask id="mask0_476_20568" style="mask-type:luminance" maskUnits="userSpaceOnUse" x="164" y="19" width="5" height="2">
<path d="M169 20.5858L168.292 20.1708C167.292 19.5898 165.959 19.6728 164.417 20.5443L165.125 20.9593C166.625 20.0878 168 20.0048 169 20.5858Z" fill="white"/>
</mask>
<g mask="url(#mask0_476_20568)">
<path d="M169 20.5858L168.292 20.1708C167.292 19.5898 165.959 19.6728 164.417 20.5443L165.125 20.9593C166.625 20.0878 168 20.0048 169 20.5858Z" fill="#292929"/>
</g>
<path d="M160.583 33.3273L161.292 33.7423C160.333 33.1613 159.708 31.9992 159.708 30.2561C159.708 26.8114 162.125 22.6611 165.125 20.918L164.417 20.5029C161.417 22.246 159 26.3963 159 29.8411C159 31.5427 159.625 32.7463 160.583 33.3273Z" fill="#292929"/>
<mask id="mask1_476_20568" style="mask-type:luminance" maskUnits="userSpaceOnUse" x="159" y="20" width="7" height="14">
<path d="M160.583 33.3273L161.292 33.7423C160.333 33.1613 159.708 31.9992 159.708 30.2561C159.708 26.8114 162.125 22.6611 165.125 20.918L164.417 20.5029C161.417 22.246 159 26.3963 159 29.8411C159 31.5427 159.625 32.7463 160.583 33.3273Z" fill="white"/>
</mask>
<g mask="url(#mask1_476_20568)">
<path d="M165.166 20.9595L164.458 20.5444C161.458 22.2876 159.041 26.4378 159.041 29.8826C159.041 31.5842 159.666 32.7878 160.624 33.3688L161.333 33.7838C160.374 33.2028 159.749 32.0407 159.749 30.2976C159.749 26.8529 162.166 22.7026 165.166 20.9595Z" fill="#292929"/>
</g>
<path d="M165.167 20.9593C162.167 22.7024 159.75 26.8527 159.75 30.2975C159.75 33.7422 162.208 35.1118 165.208 33.3687C168.208 31.6256 170.625 27.4753 170.625 24.0305C170.625 20.5858 168.167 19.2162 165.167 20.9178V20.9593Z" fill="#303233"/>
<path d="M168.417 22.7437L167.917 22.4532C167.25 22.0797 166.334 22.1212 165.292 22.7022L165.792 22.9928C166.834 22.4117 167.75 22.3702 168.417 22.7437Z" fill="#D4E1E8"/>
<mask id="mask2_476_20568" style="mask-type:luminance" maskUnits="userSpaceOnUse" x="165" y="22" width="4" height="1">
<path d="M168.417 22.7437L167.917 22.4532C167.25 22.0797 166.334 22.1212 165.292 22.7022L165.792 22.9928C166.834 22.4117 167.75 22.3702 168.417 22.7437Z" fill="white"/>
</mask>
<g mask="url(#mask2_476_20568)">
<path d="M168.417 22.7437L167.917 22.4532C167.25 22.0797 166.334 22.1212 165.292 22.7022L165.792 22.9928C166.834 22.4117 167.75 22.3702 168.417 22.7437Z" fill="#D4E1E8"/>
</g>
<path d="M162.708 31.4177L163.208 31.7083C162.542 31.3347 162.125 30.5047 162.125 29.3426C162.125 27.0184 163.75 24.1547 165.792 22.9927L165.292 22.7021C163.25 23.8642 161.625 26.7279 161.625 29.0521C161.625 30.2142 162.042 31.0442 162.708 31.4177Z" fill="#D4E1E8"/>
<mask id="mask3_476_20568" style="mask-type:luminance" maskUnits="userSpaceOnUse" x="161" y="22" width="5" height="10">
<path d="M162.708 31.4177L163.208 31.7083C162.542 31.3347 162.125 30.5047 162.125 29.3426C162.125 27.0184 163.75 24.1547 165.792 22.9927L165.292 22.7021C163.25 23.8642 161.625 26.7279 161.625 29.0521C161.625 30.2142 162.042 31.0442 162.708 31.4177Z" fill="white"/>
</mask>
<g mask="url(#mask3_476_20568)">
<path d="M165.792 22.9927L165.292 22.7021C163.25 23.8642 161.625 26.7279 161.625 29.0521C161.625 30.2142 162.042 31.0442 162.708 31.4177L163.208 31.7083C162.542 31.3347 162.125 30.5047 162.125 29.3426C162.125 27.0184 163.75 24.1547 165.792 22.9927Z" fill="#D4E1E8"/>
</g>
<path d="M165.792 22.9928C163.75 24.1548 162.125 27.0185 162.125 29.3427C162.125 31.6668 163.792 32.6214 165.833 31.4593C167.875 30.2973 169.5 27.4336 169.5 25.1094C169.5 22.7852 167.833 21.8307 165.792 22.9928Z" fill="#F1F5F9"/>
<path d="M167.916 26.1468C167.916 27.4334 167 29.0105 165.875 29.6746C165.208 30.0481 164.583 30.0481 164.208 29.6746C163.958 29.4255 163.833 29.052 163.833 28.5125C163.833 27.2259 164.75 25.6488 165.875 24.9847C166.333 24.7357 166.75 24.6527 167.083 24.7357C167.583 24.8602 167.958 25.3583 167.958 26.1468H167.916Z" fill="#F1F5F9"/>
<path d="M167.458 25.8978C167.458 27.1844 166.541 28.7615 165.416 29.4255C164.958 29.6746 164.541 29.7576 164.208 29.6746C163.958 29.4255 163.833 29.052 163.833 28.5125C163.833 27.2259 164.75 25.6488 165.875 24.9847C166.333 24.7357 166.75 24.6527 167.083 24.7357C167.333 24.9847 167.458 25.3583 167.458 25.8978Z" fill="#303233"/>
<path d="M166.958 26.2713C166.958 27.1844 166.292 28.3049 165.5 28.803C165.167 28.969 164.875 29.052 164.667 28.969C164.5 28.803 164.375 28.5125 164.375 28.1389C164.375 27.2259 165.042 26.1053 165.833 25.6073C166.167 25.4413 166.458 25.3582 166.708 25.4413C166.875 25.6073 167 25.8978 167 26.2713H166.958Z" fill="#71FFFF"/>
<path fill-rule="evenodd" clip-rule="evenodd" d="M183.958 149.784L183.083 156.757C182.791 158.707 180.416 158.541 180.499 156.466L180.999 148.58C181.083 146.505 184.208 147.792 183.958 149.743V149.784Z" fill="#D4E1E8"/>
<path fill-rule="evenodd" clip-rule="evenodd" d="M180.041 152.689L178.541 158.998C178.083 160.907 175.791 160.16 176.041 158.126L177.25 150.324C177.541 148.29 180.458 150.739 180.041 152.689Z" fill="#D4E1E8"/>
<path fill-rule="evenodd" clip-rule="evenodd" d="M176.583 151.61L174.458 159.081C173.916 160.948 171.166 159.828 172 157.752L173.958 149.95C174.333 147.916 177.083 149.701 176.583 151.61Z" fill="#D4E1E8"/>
<path fill-rule="evenodd" clip-rule="evenodd" d="M173.582 149.493L170.707 155.262C169.874 157.047 167.916 155.719 168.582 153.768L171.457 146.215C172.124 144.264 174.332 147.709 173.541 149.493H173.582Z" fill="#D4E1E8"/>
<path fill-rule="evenodd" clip-rule="evenodd" d="M172.875 145.219L168.583 149.079C166.958 150.407 165.416 148.207 166.541 147.004C168.083 145.385 169.708 142.895 171.5 141.857C174.25 140.239 175.541 142.065 175.25 143.393C175.041 144.264 173.375 144.845 172.916 145.219H172.875Z" fill="#D4E1E8"/>
<path fill-rule="evenodd" clip-rule="evenodd" d="M174.417 149.12C174.958 148.622 174.75 147.502 173.917 146.589C173.083 145.717 172 145.385 171.417 145.883C170.875 146.381 171.083 147.502 171.917 148.415C172.75 149.286 173.833 149.618 174.417 149.12Z" fill="#323537"/>
<path fill-rule="evenodd" clip-rule="evenodd" d="M177.332 150.863C177.665 150.241 177.249 149.369 176.374 148.871C175.499 148.373 174.499 148.497 174.165 149.078C173.832 149.701 174.249 150.656 175.124 151.154C175.999 151.652 176.999 151.444 177.332 150.822V150.863Z" fill="#323537"/>
<path fill-rule="evenodd" clip-rule="evenodd" d="M180.375 151.402C180.458 150.697 179.833 150.074 178.917 149.95C178.042 149.825 177.25 150.323 177.167 150.987C177.083 151.693 177.708 152.315 178.625 152.44C179.5 152.564 180.292 152.066 180.375 151.402Z" fill="#323537"/>
<path fill-rule="evenodd" clip-rule="evenodd" d="M183.874 150.904C183.708 150.24 182.791 149.908 181.916 150.157C181.041 150.406 180.416 151.153 180.624 151.818C180.791 152.482 181.708 152.814 182.583 152.565C183.499 152.316 184.083 151.568 183.874 150.904Z" fill="#323537"/>
<path fill-rule="evenodd" clip-rule="evenodd" d="M174.625 144.016C175.458 143.144 175.5 141.816 174.625 141.027C173.792 140.239 172.458 140.28 171.625 141.11C170.792 141.982 170.75 143.31 171.625 144.099C172.458 144.887 173.792 144.846 174.625 144.016Z" fill="#323537"/>
<path d="M183.958 150.905C181.833 151.942 175.375 153.353 171.333 145.717C171.583 144.804 171.833 143.932 172.166 143.061C172.541 142.106 172.833 141.276 173.5 140.487C174.166 139.699 175 139.076 175.916 138.62C176.458 138.371 177.041 138.163 177.625 138.08C178.541 137.914 179.541 137.914 180.458 138.122C181.125 138.288 181.791 138.537 182.375 138.91C182.458 138.993 182.583 139.035 182.666 139.118C182.791 139.201 182.916 139.325 183.083 139.45C185.583 141.774 184.75 147.584 183.916 150.946L183.958 150.905Z" fill="#F1F5F9"/>
<path d="M184.332 138.786C184.332 136.461 182.415 134.552 180.082 134.552C177.749 134.552 175.832 136.461 175.832 138.786C175.832 141.11 177.749 143.019 180.082 143.019C182.415 143.019 184.332 141.11 184.332 138.786Z" fill="#292929"/>
<path d="M180.083 142.438C178.083 142.438 176.416 140.819 176.416 138.786C176.416 136.752 178.041 135.133 180.083 135.133C182.124 135.133 183.749 136.752 183.749 138.786C183.749 140.819 182.124 142.438 180.083 142.438ZM180.083 135.507C178.291 135.507 176.833 136.959 176.833 138.744C176.833 140.529 178.291 141.981 180.083 141.981C181.874 141.981 183.333 140.529 183.333 138.744C183.333 136.959 181.874 135.507 180.083 135.507Z" fill="#71FFFF"/>
<path d="M188.167 105.874C189.5 106.331 191.083 107.078 192.292 109.443C193.333 111.435 193.042 113.884 192.458 115.876C191.333 119.778 190.125 123.637 188.917 127.497C188.083 130.195 187.25 132.892 186.417 135.59C186.417 135.59 186.417 135.632 186.417 135.673C186.167 136.503 185.917 137.375 185.542 138.205C185.292 138.744 184.958 139.408 184.292 139.491C183.833 139.533 183.375 139.367 183 139.159C182.417 138.827 181.875 138.371 181.458 137.831C181.167 137.458 180.917 137.001 180.5 136.752C180.125 136.545 179.708 136.503 179.292 136.586C178.875 136.669 178.5 136.877 178.167 137.126C177.625 137.499 177.083 138.039 176.458 137.914C176 137.831 175.625 137.375 175.5 136.918C175.292 136.213 175.5 135.632 175.583 134.968C175.875 132.519 176.125 130.07 176.458 127.622C177.125 122.143 177.875 116.665 178.958 111.269C179.875 106.58 183.25 104.255 188.125 105.957L188.167 105.874Z" fill="#D4E1E8"/>
<path d="M192.292 109.402C191.417 107.783 190.417 106.912 189.458 106.414C188.542 117.453 187.042 128.618 182.875 138.993C182.917 138.993 183 139.076 183.042 139.118C183.458 139.325 183.875 139.491 184.333 139.45C185 139.367 185.333 138.703 185.583 138.163C185.917 137.333 186.167 136.503 186.458 135.632C186.458 135.632 186.458 135.59 186.458 135.549C187.292 132.851 188.125 130.153 188.958 127.455C190.167 123.596 191.375 119.736 192.5 115.835C193.083 113.843 193.375 111.394 192.333 109.402H192.292Z" fill="#C5D4DD"/>
<path d="M192.625 108.281C192.625 108.281 192.625 108.364 192.625 108.406C192.625 108.572 192.625 108.696 192.583 108.862C192.166 111.892 189.458 114.133 186.333 114.009C183.208 113.884 180.708 111.352 180.583 108.281C180.583 108.115 180.583 107.908 180.583 107.742C180.583 107.7 180.583 107.659 180.583 107.617C180.791 104.38 183.583 101.89 186.875 102.014C190.208 102.18 192.75 104.961 192.625 108.281Z" fill="#292929"/>
<path d="M192.624 108.406C192.624 108.406 192.624 108.696 192.582 108.862C191.624 109.319 190.499 109.443 189.457 109.194C189.124 109.111 188.791 108.987 188.457 108.862C187.916 108.655 187.416 108.447 186.874 108.447C186.166 108.447 185.499 108.696 184.832 108.945L184.499 109.07C183.999 109.277 183.374 109.485 182.749 109.485C182.457 109.485 182.207 109.443 181.916 109.36C181.374 109.153 180.957 108.779 180.624 108.323C180.624 108.157 180.624 107.949 180.624 107.783C180.624 107.742 180.624 107.7 180.624 107.659C180.957 108.198 181.416 108.779 182.041 108.987C182.791 109.277 183.624 108.987 184.374 108.738L184.666 108.613C185.374 108.323 186.082 108.074 186.874 108.074C187.499 108.074 188.041 108.323 188.582 108.53C188.916 108.655 189.207 108.779 189.541 108.862C190.582 109.111 191.707 108.987 192.624 108.489V108.406Z" fill="#71FFFF"/>
<path d="M190.042 107.534C189.583 107.285 189.125 106.995 188.792 106.829C187.417 106.165 185.792 106.165 184.417 106.829C183.75 107.119 183.167 107.576 182.458 107.783C180.458 108.364 180.25 106.704 179.958 105.252C179.667 103.591 179.375 101.89 179.125 100.188C178.708 97.117 178.375 94.0458 178.208 90.9331C177.875 84.5831 174.917 66.9859 177 60.9265C177.958 58.1043 181.333 53.041 186.667 54.3276C192.667 55.7802 194.167 61.3 194.708 68.314C195.625 79.2708 193.708 101.392 193.125 104.297C192.917 105.21 192.792 106.953 192.125 107.617C191.583 108.198 190.75 107.908 190 107.534H190.042Z" fill="#D4E1E8"/>
<path d="M194.75 68.2726C194.166 61.2586 192.708 55.7387 186.708 54.2861C186.5 54.2446 186.291 54.2031 186.083 54.1616C193.5 70.8457 192.791 89.6465 190.416 107.659C191.041 107.949 191.708 108.032 192.166 107.576C192.833 106.87 193 105.169 193.166 104.256C193.791 101.35 195.666 79.2293 194.75 68.2726Z" fill="#C5D4DD"/>
<path d="M194.958 80.0178C194.958 80.9309 194.917 81.8439 194.875 82.757C194.875 83.5871 194.792 84.4171 194.75 85.2057C194.167 88.6089 188.25 92.0536 183.917 89.4389C175.333 84.2096 178.333 71.0117 176.875 61.5491C176.917 61.3416 177 61.0925 177.083 60.885C178.042 58.0628 181.417 52.9995 186.75 54.2861C192.75 55.7387 194.25 61.2586 194.792 68.2725C195.042 71.4682 195.083 75.66 194.958 80.0178Z" fill="#292929"/>
<path d="M194.958 80.0181C194.958 80.9312 194.917 81.8442 194.875 82.7573C193.833 85.289 192.375 87.1981 190.625 88.1527C189.75 88.6507 188.792 88.8997 187.833 88.8997C186.5 88.8997 185.083 88.4017 183.667 87.4471C179.917 84.9154 179.542 78.7315 179.25 73.2946C179 69.1029 178.792 65.1186 177.125 63.5415L177.667 63.002C179.583 64.8281 179.792 68.9369 180.042 73.2531C180.333 78.524 180.667 84.5004 184.125 86.8246C186.292 88.2772 188.417 88.5262 190.25 87.4886C192.375 86.3265 194 83.6289 194.958 80.0181Z" fill="#71FFFF"/>
<path d="M181.291 68.8949C183.374 73.8337 180.041 79.6026 183.374 84.583C186.291 88.2767 191.666 88.6917 193.749 84.583C194.416 83.2964 195.291 82.0098 195.582 80.5987C196.541 76.0749 195.666 71.5926 195.374 68.1894C194.749 60.6773 193.207 54.7839 186.791 53.2483C181.124 51.8788 177.499 57.2741 176.457 60.3038C176.166 61.1339 175.999 62.1299 175.874 63.3335C177.041 65.8652 179.832 66.7368 181.332 68.9364L181.291 68.8949Z" fill="#F1F5F9"/>
<path d="M195.374 68.148C194.749 60.636 193.208 54.7426 186.791 53.207C186.166 53.041 185.583 52.9995 185.041 52.9995C185.458 53.124 185.833 53.29 186.249 53.539C195.958 59.723 196.333 74.7885 192.083 84.0436C191.541 85.2472 190.791 86.3678 189.916 87.4468C191.499 87.1978 192.916 86.2848 193.791 84.5831C194.458 83.2966 195.333 82.01 195.624 80.5989C196.583 76.0751 195.708 71.5928 195.416 68.1895L195.374 68.148Z" fill="#D4E1E8"/>
<path d="M188.249 57.6482C188.249 59.5573 186.915 61.8815 185.249 62.8361C184.249 63.4171 183.332 63.3756 182.79 62.8361C182.415 62.4625 182.207 61.8815 182.207 61.1344C182.207 59.2253 183.54 56.9011 185.207 55.9466C185.874 55.5731 186.499 55.4485 186.999 55.5731C187.749 55.7806 188.249 56.4861 188.249 57.6482Z" fill="#F1F5F9"/>
<path d="M187.54 57.2747C187.54 59.1838 186.207 61.508 184.54 62.4625C183.874 62.836 183.29 62.9606 182.79 62.8361C182.415 62.4625 182.207 61.8815 182.207 61.1344C182.207 59.2253 183.54 56.9011 185.207 55.9466C185.874 55.5731 186.499 55.4485 186.999 55.5731C187.374 55.9466 187.582 56.5276 187.582 57.2747H187.54Z" fill="#303233"/>
<path d="M186.791 57.8136C186.791 59.1832 185.833 60.8433 184.625 61.5074C184.166 61.7979 183.708 61.8394 183.375 61.7564C183.125 61.5074 182.958 61.0923 182.958 60.5528C182.958 59.1832 183.916 57.5231 185.125 56.8175C185.583 56.527 186.041 56.4855 186.375 56.5685C186.625 56.8175 186.791 57.2326 186.791 57.7721V57.8136Z" fill="#71FFFF"/>
<path d="M136.208 104.421C135.667 104.172 135.083 103.882 134.583 103.55C133.042 102.678 131.792 101.682 130.75 100.645C131.042 102.595 131.333 104.504 131.583 106.206C132.458 106.953 133.458 107.659 134.583 108.323C135.125 108.613 135.667 108.904 136.208 109.194V104.421Z" fill="#71FFFF"/>
<path d="M169.333 103.55C161.833 107.867 150.792 108.821 141.75 106.414V111.187C150.792 113.552 161.875 112.598 169.333 108.323C170.25 107.783 171.083 107.244 171.833 106.621C172.333 104.546 172.875 102.43 173.417 100.396C172.333 101.517 170.958 102.554 169.292 103.509L169.333 103.55Z" fill="#71FFFF"/>
<path d="M148.374 7.96874C149.249 8.46677 149.249 9.29683 148.374 9.83637C147.499 10.3344 146.041 10.3344 145.124 9.83637C144.249 9.33833 144.249 8.50828 145.124 7.96874C145.999 7.47071 147.457 7.47071 148.374 7.96874Z" fill="#71FFFF"/>
<path d="M146.083 49.7207V85.5376L139.416 93.8797L134.666 99.7731C134.666 99.7731 134.458 99.6486 134.333 99.5656L139.041 93.7137L145.708 85.4131V49.7207H146.083Z" fill="#292929"/>
<path d="M158.624 102.305C158.624 102.305 158.374 102.346 158.208 102.388L152.874 94.2118L148.166 86.9488V51.3809H148.541V86.8243L153.249 94.0457L158.624 102.263V102.305Z" fill="#292929"/>
<path d="M30.9997 46.9395L15.1247 10.4585L14.583 197.429L30.4997 233.951L30.9997 46.9395Z" fill="#D9D9D9"/>
<path d="M83.7087 112.431L114.209 94.792L113.667 281.804L83.167 299.442L83.7087 112.431Z" fill="#CACACA"/>
<path d="M0.541992 64.6196L31.0003 46.9395L114.209 94.7922L83.7087 112.431L0.541992 64.6196Z" fill="#F2F2F2"/>
<path d="M83.7083 112.431L83.1667 299.443L0 251.59L0.541667 64.6196L83.7083 112.431Z" fill="#D9D9D9"/>
<path d="M43.3747 113.386L65.2497 165.928L21.458 140.736L43.3747 113.386Z" fill="#FDDA4C"/>
<path d="M43.3743 118.573L60.916 160.616L25.8327 140.445L43.3743 118.573ZM43.3743 116L23.666 140.611L63.0827 163.272L43.3743 116Z" fill="#38373E"/>
<path d="M43.6673 124.384L41.2506 133.722L48.2923 137.79L41.7507 147.086L43.5006 137.748L36.834 133.93L43.6673 124.384Z" fill="#38373E"/>
<path d="M71 199.504L10.25 164.6V143.89L71 178.794V199.504Z" fill="#E4E6F0"/>
</g>
<defs>
<clipPath id="clip0_476_20568">
<rect width="196" height="207" fill="white"/>
</clipPath>
</defs>
</svg>
