<svg width="278" height="212" viewBox="0 0 278 212" fill="none" xmlns="http://www.w3.org/2000/svg">
<g clip-path="url(#clip0_2007_3)">
<g opacity="0.47">
<path d="M136.375 110.011L136.43 115.9L153.4 106.053L159.001 96.8818L136.375 110.011Z" fill="#969696"/>
<path d="M119.461 106.053L136.431 115.9L136.376 110.011L113.75 96.8818L119.461 106.053Z" fill="#757575"/>
<path d="M136.375 73.059V110.011L159.001 96.8819V59.9297L136.375 73.059Z" fill="#FFF595"/>
<path d="M136.375 73.059V110.011L113.749 96.8819V59.9297L136.375 73.059Z" fill="#FFD654"/>
<path d="M136.376 102.939L153.345 93.0921L136.376 83.2461V102.939Z" fill="#FFD654"/>
<path d="M136.448 102.939L119.479 93.0921L136.448 83.2461V102.939Z" fill="#BF7F35"/>
<path d="M113.749 59.9296L136.375 73.0589V62.705L125.062 56.1396L113.749 59.9296Z" fill="#757575"/>
<path d="M159.001 59.9296L136.375 73.0589V62.705L147.688 56.1396L159.001 59.9296Z" fill="#969696"/>
<path d="M125.063 56.1397L136.376 62.705L147.688 56.1397L136.376 49.5757L125.063 56.1397Z" fill="#C9C9C9"/>
<path d="M145.803 83.2459C145.803 88.4795 141.583 92.7208 136.375 92.7208V73.771C141.583 73.771 145.803 78.0137 145.803 83.2459Z" fill="#FFFFE0"/>
<path d="M126.948 83.2459C126.948 88.4795 131.168 92.7208 136.375 92.7208V73.771C131.168 73.771 126.948 78.0137 126.948 83.2459Z" fill="#FFF595"/>
<path d="M138.368 71.8891L157.014 61.1088L158.982 59.9297V96.8608L157.013 98.0399L138.368 108.862L136.357 109.999V73.0682L138.368 71.8891ZM157.014 95.2185V63.9302L138.369 74.7527V105.999L157.014 95.2185Z" fill="#C9C9C9"/>
<path d="M136.375 73.059V109.99L134.364 108.853L115.719 98.0306L113.749 96.8515V59.9204L115.719 61.0995L134.364 71.8799L136.375 73.059ZM134.364 105.99V74.7434L115.719 63.9209V95.2092L134.364 105.99Z" fill="#969696"/>
<path d="M136.375 46.7939L159.001 59.9299L147.688 56.1399L136.375 49.5759V46.7939Z" fill="#3B3B3B"/>
<path d="M136.375 46.7939L113.749 59.9299L125.062 56.1399L136.375 49.5759V46.7939Z" fill="#3B3B3B"/>
<path d="M133.015 56.1147V43.5078H139.734V56.141C139.734 56.6411 139.406 57.1399 138.748 57.5215C137.434 58.2834 135.305 58.2834 133.99 57.5215C133.322 57.1333 133.002 56.6227 133.013 56.1147H133.015Z" fill="#969696"/>
<path d="M133.991 42.1261C132.678 42.8894 132.678 44.1251 133.991 44.887C135.306 45.649 137.435 45.649 138.749 44.887C140.064 44.1238 140.064 42.8881 138.749 42.1261C137.435 41.3642 135.306 41.3642 133.991 42.1261Z" fill="#969696"/>
<path d="M22.6263 175.475L22.6813 181.364L39.6505 171.518L45.252 162.347L22.6263 175.475Z" fill="#969696"/>
<path d="M5.71243 171.518L22.6816 181.364L22.6266 175.475L0.00102806 162.347L5.71243 171.518Z" fill="#757575"/>
<path d="M22.6263 138.523V175.475L45.252 162.347V125.395L22.6263 138.523Z" fill="#FFF595"/>
<path d="M22.626 138.523V175.475L0.000358582 162.347V125.395L22.626 138.523Z" fill="#FFD654"/>
<path d="M22.6265 168.403L39.5957 158.557L22.6265 148.709V168.403Z" fill="#FFD654"/>
<path d="M22.6992 168.403L5.73001 158.557L22.6992 148.709V168.403Z" fill="#BF7F35"/>
<path d="M0.000358582 125.394L22.626 138.522V128.169L11.3132 121.604L0.000358582 125.394Z" fill="#757575"/>
<path d="M45.252 125.394L22.6263 138.522V128.169L33.9391 121.604L45.252 125.394Z" fill="#969696"/>
<path d="M11.3138 121.605L22.6266 128.169L33.9395 121.605L22.6266 115.04L11.3138 121.605Z" fill="#C9C9C9"/>
<path d="M32.0537 148.709C32.0537 153.942 27.8323 158.184 22.6264 158.184V139.234C27.8323 139.234 32.0537 143.477 32.0537 148.709Z" fill="#FFFFE0"/>
<path d="M13.1986 148.709C13.1986 153.942 17.4187 158.184 22.626 158.184V139.234C17.4187 139.234 13.1986 143.477 13.1986 148.709Z" fill="#FFF595"/>
<path d="M24.6189 137.353L43.2641 126.573L45.2334 125.394V162.325L43.2641 163.504L24.6189 174.326L22.6078 175.463V138.532L24.6189 137.353ZM43.2641 160.682V129.394L24.6189 140.217V171.463L43.2641 160.682Z" fill="#C9C9C9"/>
<path d="M22.626 138.523V175.454L20.6148 174.317L1.96962 163.494L0.000358582 162.315V125.384L1.96962 126.563L20.6148 137.344L22.626 138.523ZM20.6148 171.453V140.207L1.96962 129.385V160.673L20.6148 171.453Z" fill="#969696"/>
<path d="M22.6263 112.259L45.252 125.395L33.9391 121.605L22.6263 115.039V112.259Z" fill="#3B3B3B"/>
<path d="M22.626 112.259L0.000358582 125.395L11.3132 121.605L22.626 115.039V112.259Z" fill="#3B3B3B"/>
<path d="M19.2638 121.579V108.972H25.9834V121.605C25.9834 122.105 25.6548 122.604 24.9988 122.985C23.6842 123.747 21.5552 123.747 20.2406 122.985C19.5728 122.597 19.252 122.087 19.2638 121.579Z" fill="#969696"/>
<path d="M20.2402 107.591C18.9257 108.353 18.9257 109.589 20.2402 110.352C21.5548 111.114 23.6838 111.114 24.9984 110.352C26.3117 109.589 26.3117 108.353 24.9984 107.591C23.6838 106.828 21.5548 106.828 20.2402 107.591Z" fill="#969696"/>
<path d="M38.485 58.261L38.4117 58.2768C38.4117 58.2768 79.9994 32.8288 108.571 18.2611L108.562 18.2716C128.55 7.22018 146.022 2.36692 151.125 9.04542C155.117 14.3553 157.153 21.7313 154.656 27.1662C151.079 34.9514 142.994 41.976 136.567 45.6962C122.809 53.892 116.195 41.4838 123.8 30.0692C130.039 20.7785 142.086 20.9088 139.458 28.4729C138.495 31.1259 136.023 33.5262 133.928 33.821C132.252 34.0737 130.969 35.1659 130.492 36.1792C126.845 43.925 141.682 36.3503 146.742 25.9463C151.592 15.9121 141.675 10.1679 113.313 27.5044C93.7633 39.456 88.2418 50.7995 88.2418 71.4127V239.017C88.2418 240.239 87.447 241.46 85.8548 242.428C82.6286 244.365 77.3493 244.408 74.0392 242.555C72.3214 241.586 71.4834 240.323 71.4834 239.06L71.4415 71.4035C71.4415 64.8566 67.1651 54.275 46.5258 66.2476C17.5564 83.0827 7.10378 100.532 11.8751 104.905C16.8074 109.411 34.9302 96.7529 29.3471 94.8829C28.7186 94.6723 27.5873 94.7987 25.9532 96.4831C20.8572 101.705 15.3043 93.742 20.4173 88.6031C36.2827 72.3497 48.7137 96.2831 23.2717 111.432C13.6715 116.99 5.19344 115.199 2.49747 108.747C0.648666 104.32 -0.81781 96.1238 4.28212 88.1741C9.89401 79.4256 20.6268 69.069 38.485 58.2637V58.261Z" fill="#3B3B3B"/>
<path d="M4.28217 88.1715C9.89404 79.423 20.6268 69.0677 38.4851 58.2611L38.4118 58.2769C38.4118 58.2769 79.9981 32.8288 108.571 18.2611L108.562 18.2717C123.107 10.2298 136.319 5.47001 144.403 6.04772C147.427 6.26353 149.734 7.22682 151.125 9.04547C151.635 9.72451 147.711 9.84031 144.409 9.93243C136.321 10.1561 125.015 13.4684 112.753 20.2469L112.762 20.2364C84.1894 34.8054 42.6017 60.2534 42.6017 60.2534L42.675 60.2376C24.8167 71.043 14.084 81.801 8.47209 90.5495C3.37216 98.4992 -0.817764 96.1212 4.28217 88.1715Z" fill="#757575"/>
<path d="M137.623 25.257C137.623 27.4507 131.96 30.8274 129.792 30.8274C127.624 30.8274 125.392 28.5192 128.568 26.0847C131.741 23.6502 137.623 22.2302 137.623 25.257Z" fill="#757575"/>
<path d="M30.4013 86.9437C30.7352 89.1111 25.6523 93.3183 23.5102 93.6525C21.3668 93.9855 18.8109 92.047 21.5776 89.1532C24.3442 86.2594 29.9404 83.9513 30.4013 86.9437Z" fill="#757575"/>
<path d="M66.5395 79.7233L71.6932 94.1251C72.0284 95.0516 72.8244 95.8938 74.0814 96.6097C77.3915 98.4625 82.6708 98.4204 85.897 96.4833C87.0702 95.8096 87.7825 94.9673 88.1177 94.083L93.1875 79.6812C92.6847 81.1129 91.5115 82.4605 89.6261 83.5974C84.3886 86.7557 75.7574 86.84 70.3524 83.7659C68.3412 82.6289 67.0842 81.2392 66.5395 79.7233Z" fill="#969696"/>
<path d="M70.7295 71.8063C70.9652 71.6616 71.227 71.5353 71.4824 71.4023V74.8265C71.4824 76.0898 72.3216 77.3531 74.0395 78.3217C77.3496 80.1745 82.6289 80.1324 85.8551 78.1953C87.4473 77.2268 88.2434 76.0056 88.2434 74.7844V71.4116C90.2336 72.4393 91.9161 73.9027 92.978 75.8898C94.235 78.5427 93.1456 81.4905 89.6261 83.596C84.3886 86.7543 75.7574 86.8386 70.3524 83.7645C66.6652 81.701 65.4502 78.6691 66.749 75.974C67.2937 74.9212 68.2574 73.321 70.7295 71.805V71.8063Z" fill="#C9C9C9"/>
</g>
</g>
<g clip-path="url(#clip1_2007_3)">
<path d="M255.375 110.011L255.43 115.9L272.4 106.053L278.001 96.8818L255.375 110.011Z" fill="#969696"/>
<path d="M238.461 106.053L255.431 115.9L255.376 110.011L232.75 96.8818L238.461 106.053Z" fill="#757575"/>
<path d="M255.375 73.059V110.011L278.001 96.8819V59.9297L255.375 73.059Z" fill="#FFF595"/>
<path d="M255.375 73.059V110.011L232.749 96.8819V59.9297L255.375 73.059Z" fill="#FFD654"/>
<path d="M255.376 102.939L272.345 93.0921L255.376 83.2461V102.939Z" fill="#FFD654"/>
<path d="M255.448 102.939L238.479 93.0921L255.448 83.2461V102.939Z" fill="#BF7F35"/>
<path d="M232.749 59.9296L255.375 73.0589V62.705L244.062 56.1396L232.749 59.9296Z" fill="#757575"/>
<path d="M278.001 59.9296L255.375 73.0589V62.705L266.688 56.1396L278.001 59.9296Z" fill="#969696"/>
<path d="M244.063 56.1397L255.376 62.705L266.688 56.1397L255.376 49.5757L244.063 56.1397Z" fill="#C9C9C9"/>
<path d="M264.803 83.2459C264.803 88.4795 260.583 92.7208 255.375 92.7208V73.771C260.583 73.771 264.803 78.0137 264.803 83.2459Z" fill="#FFFFE0"/>
<path d="M245.948 83.2459C245.948 88.4795 250.168 92.7208 255.375 92.7208V73.771C250.168 73.771 245.948 78.0137 245.948 83.2459Z" fill="#FFF595"/>
<path d="M257.368 71.8891L276.014 61.1088L277.982 59.9297V96.8608L276.013 98.0399L257.368 108.862L255.357 109.999V73.0682L257.368 71.8891ZM276.014 95.2185V63.9302L257.369 74.7527V105.999L276.014 95.2185Z" fill="#C9C9C9"/>
<path d="M255.375 73.059V109.99L253.364 108.853L234.719 98.0306L232.749 96.8515V59.9204L234.719 61.0995L253.364 71.8799L255.375 73.059ZM253.364 105.99V74.7434L234.719 63.9209V95.2092L253.364 105.99Z" fill="#969696"/>
<path d="M255.375 46.7939L278.001 59.9299L266.688 56.1399L255.375 49.5759V46.7939Z" fill="#3B3B3B"/>
<path d="M255.375 46.7939L232.749 59.9299L244.062 56.1399L255.375 49.5759V46.7939Z" fill="#3B3B3B"/>
<path d="M252.015 56.1147V43.5078H258.734V56.141C258.734 56.6411 258.406 57.1399 257.748 57.5215C256.434 58.2834 254.305 58.2834 252.99 57.5215C252.322 57.1333 252.002 56.6227 252.013 56.1147H252.015Z" fill="#969696"/>
<path d="M252.991 42.1261C251.678 42.8894 251.678 44.1251 252.991 44.887C254.306 45.649 256.435 45.649 257.749 44.887C259.064 44.1238 259.064 42.8881 257.749 42.1261C256.435 41.3642 254.306 41.3642 252.991 42.1261Z" fill="#969696"/>
<path d="M141.626 175.475L141.681 181.364L158.651 171.518L164.252 162.347L141.626 175.475Z" fill="#969696"/>
<path d="M124.712 171.518L141.682 181.364L141.627 175.475L119.001 162.347L124.712 171.518Z" fill="#757575"/>
<path d="M141.626 138.523V175.475L164.252 162.347V125.395L141.626 138.523Z" fill="#FFF595"/>
<path d="M141.626 138.523V175.475L119 162.347V125.395L141.626 138.523Z" fill="#FFD654"/>
<path d="M141.626 168.403L158.596 158.557L141.626 148.709V168.403Z" fill="#FFD654"/>
<path d="M141.699 168.403L124.73 158.557L141.699 148.709V168.403Z" fill="#BF7F35"/>
<path d="M119 125.394L141.626 138.522V128.169L130.313 121.604L119 125.394Z" fill="#757575"/>
<path d="M164.252 125.394L141.626 138.522V128.169L152.939 121.604L164.252 125.394Z" fill="#969696"/>
<path d="M130.314 121.605L141.627 128.169L152.939 121.605L141.627 115.04L130.314 121.605Z" fill="#C9C9C9"/>
<path d="M151.054 148.709C151.054 153.942 146.832 158.184 141.626 158.184V139.234C146.832 139.234 151.054 143.477 151.054 148.709Z" fill="#FFFFE0"/>
<path d="M132.199 148.709C132.199 153.942 136.419 158.184 141.626 158.184V139.234C136.419 139.234 132.199 143.477 132.199 148.709Z" fill="#FFF595"/>
<path d="M143.619 137.353L162.264 126.573L164.233 125.394V162.325L162.264 163.504L143.619 174.326L141.608 175.463V138.532L143.619 137.353ZM162.264 160.682V129.394L143.619 140.217V171.463L162.264 160.682Z" fill="#C9C9C9"/>
<path d="M141.626 138.523V175.454L139.615 174.317L120.97 163.494L119 162.315V125.384L120.97 126.563L139.615 137.344L141.626 138.523ZM139.615 171.453V140.207L120.97 129.385V160.673L139.615 171.453Z" fill="#969696"/>
<path d="M141.626 112.259L164.252 125.395L152.939 121.605L141.626 115.039V112.259Z" fill="#3B3B3B"/>
<path d="M141.626 112.259L119 125.395L130.313 121.605L141.626 115.039V112.259Z" fill="#3B3B3B"/>
<path d="M138.264 121.579V108.972H144.983V121.605C144.983 122.105 144.655 122.604 143.999 122.985C142.684 123.747 140.555 123.747 139.241 122.985C138.573 122.597 138.252 122.087 138.264 121.579Z" fill="#969696"/>
<path d="M139.24 107.591C137.926 108.353 137.926 109.589 139.24 110.352C140.555 111.114 142.684 111.114 143.998 110.352C145.312 109.589 145.312 108.353 143.998 107.591C142.684 106.828 140.555 106.828 139.24 107.591Z" fill="#969696"/>
<path d="M157.485 58.261L157.412 58.2768C157.412 58.2768 198.999 32.8288 227.571 18.2611L227.562 18.2716C247.55 7.22018 265.022 2.36692 270.125 9.04542C274.117 14.3553 276.153 21.7313 273.656 27.1662C270.079 34.9514 261.994 41.976 255.567 45.6962C241.809 53.892 235.195 41.4838 242.8 30.0692C249.039 20.7785 261.086 20.9088 258.458 28.4729C257.495 31.1259 255.023 33.5262 252.928 33.821C251.252 34.0737 249.969 35.1659 249.492 36.1792C245.845 43.925 260.682 36.3503 265.742 25.9463C270.592 15.9121 260.675 10.1679 232.313 27.5044C212.763 39.456 207.242 50.7995 207.242 71.4127V239.017C207.242 240.239 206.447 241.46 204.855 242.428C201.629 244.365 196.349 244.408 193.039 242.555C191.321 241.586 190.483 240.323 190.483 239.06L190.441 71.4035C190.441 64.8566 186.165 54.275 165.526 66.2476C136.556 83.0827 126.104 100.532 130.875 104.905C135.807 109.411 153.93 96.7529 148.347 94.8829C147.719 94.6723 146.587 94.7987 144.953 96.4831C139.857 101.705 134.304 93.742 139.417 88.6031C155.283 72.3497 167.714 96.2831 142.272 111.432C132.671 116.99 124.193 115.199 121.497 108.747C119.649 104.32 118.182 96.1238 123.282 88.1741C128.894 79.4256 139.627 69.069 157.485 58.2637V58.261Z" fill="#3B3B3B"/>
<path d="M123.282 88.1715C128.894 79.423 139.627 69.0677 157.485 58.2611L157.412 58.2769C157.412 58.2769 198.998 32.8288 227.571 18.2611L227.562 18.2717C242.107 10.2298 255.319 5.47001 263.403 6.04772C266.427 6.26353 268.734 7.22682 270.125 9.04547C270.635 9.72451 266.711 9.84031 263.409 9.93243C255.321 10.1561 244.015 13.4684 231.753 20.2469L231.762 20.2364C203.189 34.8054 161.602 60.2534 161.602 60.2534L161.675 60.2376C143.817 71.043 133.084 81.801 127.472 90.5495C122.372 98.4992 118.182 96.1212 123.282 88.1715Z" fill="#757575"/>
<path d="M256.623 25.257C256.623 27.4507 250.96 30.8274 248.792 30.8274C246.624 30.8274 244.392 28.5192 247.568 26.0847C250.741 23.6502 256.623 22.2302 256.623 25.257Z" fill="#757575"/>
<path d="M149.401 86.9437C149.735 89.1111 144.652 93.3183 142.51 93.6525C140.367 93.9855 137.811 92.047 140.578 89.1532C143.344 86.2594 148.94 83.9513 149.401 86.9437Z" fill="#757575"/>
<path d="M185.54 79.7233L190.693 94.1251C191.028 95.0516 191.824 95.8938 193.081 96.6097C196.391 98.4625 201.671 98.4204 204.897 96.4833C206.07 95.8096 206.782 94.9673 207.118 94.083L212.188 79.6812C211.685 81.1129 210.512 82.4605 208.626 83.5974C203.389 86.7557 194.757 86.84 189.352 83.7659C187.341 82.6289 186.084 81.2392 185.54 79.7233Z" fill="#969696"/>
<path d="M189.729 71.8063C189.965 71.6616 190.227 71.5353 190.482 71.4023V74.8265C190.482 76.0898 191.322 77.3531 193.04 78.3217C196.35 80.1745 201.629 80.1324 204.855 78.1953C206.447 77.2268 207.243 76.0056 207.243 74.7844V71.4116C209.234 72.4393 210.916 73.9027 211.978 75.8898C213.235 78.5427 212.146 81.4905 208.626 83.596C203.389 86.7543 194.757 86.8386 189.352 83.7645C185.665 81.701 184.45 78.6691 185.749 75.974C186.294 74.9212 187.257 73.321 189.729 71.805V71.8063Z" fill="#C9C9C9"/>
</g>
<defs>
<clipPath id="clip0_2007_3">
<rect width="159" height="212" fill="white"/>
</clipPath>
<clipPath id="clip1_2007_3">
<rect width="159" height="212" fill="white" transform="translate(119)"/>
</clipPath>
</defs>
</svg>
