<svg width="241" height="209" viewBox="0 0 241 209" fill="none" xmlns="http://www.w3.org/2000/svg">
<g opacity="0.7" clip-path="url(#clip0_2007_5)">
<path d="M127.783 108.307L125.391 106.923V99.4165L127.806 100.777L130.175 106.923L127.783 108.307Z" fill="#C7BCA5"/>
<path d="M127.782 108.307L130.174 106.923V99.4165L127.806 100.777L127.782 108.307Z" fill="#968162"/>
<path d="M125.391 99.4167L127.783 98.0327L130.175 99.4167L127.806 100.777L125.391 99.4167Z" fill="#8F7B68"/>
<path d="M135.146 104.038L132.754 102.654V95.1709L135.169 96.5315L137.538 102.654L135.146 104.038Z" fill="#C7BCA5"/>
<path d="M135.146 104.038L137.537 102.654V95.1709L135.169 96.5315L135.146 104.038Z" fill="#968162"/>
<path d="M132.754 95.1711L135.146 93.7871L137.538 95.1711L135.169 96.5317L132.754 95.1711Z" fill="#8F7B68"/>
<path d="M112.914 101.95L110.522 100.59V93.083L112.938 94.4436L115.306 100.59L112.914 101.95Z" fill="#C7BCA5"/>
<path d="M112.914 101.95L115.306 100.59V93.083L112.938 94.4436L112.914 101.95Z" fill="#968162"/>
<path d="M110.522 93.0832L112.914 91.6992L115.306 93.0832L112.938 94.4438L110.522 93.0832Z" fill="#8F7B68"/>
<path d="M120.254 97.704L117.886 96.32V88.8135L120.301 90.1975L122.646 96.32L120.254 97.704Z" fill="#C7BCA5"/>
<path d="M120.254 97.704L122.646 96.32V88.8135L120.301 90.1975L120.254 97.704Z" fill="#968162"/>
<path d="M117.886 88.8137L120.254 87.4531L122.646 88.8137L120.301 90.1977L117.886 88.8137Z" fill="#8F7B68"/>
<path d="M111.109 48.8419L109.421 47.8567V42.5317L111.133 43.4935L112.821 47.8567L111.109 48.8419Z" fill="#C7BCA5"/>
<path d="M111.109 48.8419L112.821 47.8567V42.5317L111.133 43.4935L111.109 48.8419Z" fill="#968162"/>
<path d="M109.421 42.5316L111.109 41.5464L112.821 42.5316L111.133 43.4934L109.421 42.5316Z" fill="#8F7B68"/>
<path d="M116.339 45.7926L114.65 44.8308V39.4824L116.362 40.4676L118.051 44.8308L116.339 45.7926Z" fill="#C7BCA5"/>
<path d="M116.339 45.7926L118.051 44.8308V39.4824L116.362 40.4676L116.339 45.7926Z" fill="#968162"/>
<path d="M114.65 39.4823L116.339 38.5205L118.051 39.4823L116.362 40.4675L114.65 39.4823Z" fill="#8F7B68"/>
<path d="M100.532 44.338L98.8203 43.3528V38.0278L100.556 38.9896L102.221 43.3528L100.532 44.338Z" fill="#C7BCA5"/>
<path d="M100.532 44.338L102.221 43.3528V38.0278L100.556 38.9896L100.532 44.338Z" fill="#968162"/>
<path d="M98.8203 38.0277L100.532 37.0425L102.221 38.0277L100.556 38.9895L98.8203 38.0277Z" fill="#8F7B68"/>
<path d="M105.762 41.2887L104.073 40.3034V34.9785L105.785 35.9637L107.474 40.3034L105.762 41.2887Z" fill="#C7BCA5"/>
<path d="M105.762 41.2887L107.474 40.3034V34.9785L105.785 35.9637L105.762 41.2887Z" fill="#968162"/>
<path d="M104.073 34.9784L105.762 33.9932L107.474 34.9784L105.785 35.9636L104.073 34.9784Z" fill="#8F7B68"/>
<path d="M67.3267 290.551L70 289.003V117.526L67.3032 119.051L64.6768 289.003L67.3267 290.551Z" fill="#95A2C0"/>
<path d="M67.3267 290.551L64.6768 289.003V117.526L67.3032 119.051L67.3267 290.551Z" fill="#94A1BF"/>
<path d="M70 117.526L67.3267 115.978L64.6768 117.526L67.3032 119.051L70 117.526Z" fill="#8491B0"/>
<path d="M82.8741 124.892L80.2007 123.367L79.2158 123.977L81.8423 125.502L82.8741 124.892Z" fill="#8491B0"/>
<path d="M67.6318 169.814L69.0154 169.016L81.538 176.265L80.1779 178.634L67.6318 171.409V169.814Z" fill="#A3AFCE"/>
<path d="M67.6318 169.813V171.409L80.1779 178.634L80.858 177.437L67.6318 169.813Z" fill="#94A1BF"/>
<path d="M67.6318 194.398L69.0154 193.6L81.538 200.825L80.1779 203.218L67.6318 195.969V194.398Z" fill="#A3AFCE"/>
<path d="M78.9813 177.39L79.7786 177.085L70.0231 194.092L68.8271 195.078L77.3866 177.39H78.9813Z" fill="#7683A1"/>
<path d="M78.9819 177.391L78.1377 176.218L67.6318 194.398L68.8278 195.078L78.9819 177.391Z" fill="#94A1BF"/>
<path d="M80.2712 226.136L81.4671 225.456L75.4403 209.903L69.6949 195.5L68.5928 196.063L74.8775 212.554C74.8775 212.554 74.9244 212.46 74.9479 212.413L80.2712 226.136Z" fill="#7683A1"/>
<path d="M67.6318 195.969L69.3437 196.978L80.4124 225.127L79.2164 225.831L67.6318 195.969Z" fill="#94A1BF"/>
<path d="M67.6318 194.397V195.969L80.1779 203.218L80.858 202.021L67.6318 194.397Z" fill="#94A1BF"/>
<path d="M67.6318 120.74L69.0154 119.942L81.538 127.167L80.1779 129.56L67.6318 122.312V120.74Z" fill="#A3AFCE"/>
<path d="M80.2712 152.478L81.4671 151.798L75.4403 136.245L69.6949 121.842L68.5928 122.405L74.8775 138.896C74.8775 138.896 74.9244 138.802 74.9479 138.755L80.2712 152.478Z" fill="#7683A1"/>
<path d="M67.6318 145.3L69.0154 144.503L81.538 151.751L80.1779 154.144L67.6318 146.896V145.3Z" fill="#A3AFCE"/>
<path d="M67.6318 122.312L69.3437 123.32L80.4124 151.47L79.2164 152.173L67.6318 122.312Z" fill="#94A1BF"/>
<path d="M67.6318 120.74V122.311L80.1779 129.56L80.858 128.364L67.6318 120.74Z" fill="#94A1BF"/>
<path d="M78.9813 152.877L79.7786 152.596L70.0231 169.579L68.8271 170.564L77.5977 152.877H78.9813Z" fill="#7683A1"/>
<path d="M67.6318 145.3V146.895L80.1779 154.144L80.858 152.948L67.6318 145.3Z" fill="#94A1BF"/>
<path d="M78.9819 152.877L78.1377 151.704L67.6318 169.884L68.8278 170.564L78.9819 152.877Z" fill="#94A1BF"/>
<path d="M67.6318 119.098L69.0154 118.324L81.538 125.549L80.1779 127.941L67.6318 120.693V119.098Z" fill="#A3AFCE"/>
<path d="M67.6318 119.098V120.693L80.1779 127.942L80.858 126.745L67.6318 119.098Z" fill="#94A1BF"/>
<path d="M81.9361 297.776L82.9444 297.213L82.8741 124.892L81.8423 125.502L79.2627 296.251L81.9361 297.776Z" fill="#929FBE"/>
<path d="M81.9361 297.776L79.2627 296.251L79.1689 123.93L81.8423 125.502L81.9361 297.776Z" fill="#94A1BF"/>
<path d="M65.6148 291.231L62.9414 289.683V118.207L65.6382 119.731L68.2881 289.683L65.6148 291.231Z" fill="#99A6C5"/>
<path d="M65.6152 291.231L68.2886 289.683L68.2652 118.207L65.6387 119.731L65.6152 291.231Z" fill="#93A0BF"/>
<path d="M62.9414 118.206L65.6148 116.658L68.2647 118.206L65.6382 119.731L62.9414 118.206Z" fill="#7E8BAA"/>
<path d="M50.0674 125.572L52.7407 124.047L53.7257 124.657L51.0992 126.182L50.0674 125.572Z" fill="#7E8BAA"/>
<path d="M65.3095 170.494L63.9259 169.696L51.4033 176.945L52.7635 179.314L65.3095 172.089V170.494Z" fill="#A7B3D2"/>
<path d="M65.3101 170.494V172.089L52.7641 179.314L52.084 178.141L65.3101 170.494Z" fill="#93A0BF"/>
<path d="M65.3095 195.078L63.9259 194.28L51.4033 201.505L52.7635 203.898L65.3095 196.673V195.078Z" fill="#A7B3D2"/>
<path d="M53.9594 178.071L53.1621 177.766L62.9176 194.773L64.1135 195.758L55.5541 178.071H53.9594Z" fill="#667291"/>
<path d="M53.96 178.071L54.8042 176.898L65.31 195.078L64.1141 195.758L53.96 178.071Z" fill="#93A0BF"/>
<path d="M52.6696 226.816L51.4736 226.136L57.5004 210.583L63.2458 196.18L64.348 196.743L58.0632 213.234C58.0632 213.234 58.0163 213.14 57.9929 213.093L52.6696 226.816Z" fill="#667291"/>
<path d="M65.3099 196.673L63.598 197.658L52.5293 225.807L53.7253 226.511L65.3099 196.673Z" fill="#93A0BF"/>
<path d="M65.3101 195.078V196.673L52.7641 203.898L52.084 202.701L65.3101 195.078Z" fill="#93A0BF"/>
<path d="M65.3095 121.42L63.9259 120.623L51.4033 127.848L52.7635 130.24L65.3095 122.992V121.42Z" fill="#A7B3D2"/>
<path d="M52.6696 153.159L51.4736 152.479L57.5004 136.926L63.2458 122.523L64.348 123.086L58.0632 139.577C58.0632 139.577 58.0163 139.483 57.9929 139.436L52.6696 153.159Z" fill="#667291"/>
<path d="M65.3095 145.981L63.9259 145.207L51.4033 152.432L52.7635 154.824L65.3095 147.576V145.981Z" fill="#A7B3D2"/>
<path d="M65.3099 122.992L63.598 124L52.5293 152.15L53.7253 152.853L65.3099 122.992Z" fill="#93A0BF"/>
<path d="M65.3101 121.42V122.992L52.7641 130.241L52.084 129.044L65.3101 121.42Z" fill="#93A0BF"/>
<path d="M53.9594 153.557L53.1621 153.276L62.9176 170.259L64.1135 171.245L55.343 153.557H53.9594Z" fill="#667291"/>
<path d="M65.3101 145.98V147.576L52.7641 154.824L52.084 153.628L65.3101 145.98Z" fill="#93A0BF"/>
<path d="M53.96 153.558L54.8042 152.385L65.31 170.565L64.1141 171.245L53.96 153.558Z" fill="#93A0BF"/>
<path d="M65.3095 119.778L63.9259 119.004L51.4033 126.229L52.7635 128.622L65.3095 121.373V119.778Z" fill="#A7B3D2"/>
<path d="M65.3101 119.778V121.373L52.7641 128.622L52.084 127.426L65.3101 119.778Z" fill="#93A0BF"/>
<path d="M51.1924 298.456L53.6782 296.931L53.772 124.61L51.0986 126.182L51.1924 298.456Z" fill="#93A0BF"/>
<path d="M52.482 299.418L55.1553 297.894V126.394L52.4585 127.918L49.8086 297.894L52.482 299.418Z" fill="#C7D3F2"/>
<path d="M52.482 299.418L49.8086 297.894L49.832 126.394L52.4585 127.918L52.482 299.418Z" fill="#C1CEED"/>
<path d="M55.1553 126.393L52.4819 124.869L49.832 126.393L52.4585 127.918L55.1553 126.393Z" fill="#B4C0DF"/>
<path d="M68.0294 133.783L65.356 132.234L64.3711 132.868L66.9976 134.369L68.0294 133.783Z" fill="#B4C0DF"/>
<path d="M52.7871 178.704L54.1472 177.907L66.6933 185.132L65.3332 187.524L52.7871 180.276V178.704Z" fill="#E3EFFF"/>
<path d="M52.7871 178.704V180.276L65.3332 187.524L66.0132 186.328L52.7871 178.704Z" fill="#C1CEED"/>
<path d="M52.7871 203.264L54.1472 202.467L66.6933 209.715L65.3332 212.108L52.7871 204.859V203.264Z" fill="#E3EFFF"/>
<path d="M64.1375 186.281L64.9348 185.976L55.1559 202.983L53.9834 203.968L62.5429 186.281H64.1375Z" fill="#B3C0DF"/>
<path d="M64.1372 186.281L63.2695 185.084L52.7871 203.264L53.9831 203.968L64.1372 186.281Z" fill="#C1CEED"/>
<path d="M65.4274 235.027L66.6234 234.346L60.5966 218.794L54.8512 204.391L53.749 204.954L60.0338 221.444C60.0338 221.444 60.0807 221.351 60.1041 221.304L65.4274 235.027Z" fill="#B3C0DF"/>
<path d="M52.7871 204.859L54.499 205.845L65.5677 234.017L64.3717 234.698L52.7871 204.859Z" fill="#C1CEED"/>
<path d="M52.7871 203.265V204.86L65.3332 212.108L66.0132 210.912L52.7871 203.265Z" fill="#C1CEED"/>
<path d="M52.7871 129.607L54.1472 128.81L66.6933 136.058L65.3332 138.451L52.7871 131.202V129.607Z" fill="#E3EFFF"/>
<path d="M65.4274 161.369L66.6234 160.689L60.5966 145.136L54.8512 130.733L53.749 131.296L60.0338 147.787C60.0338 147.787 60.0807 147.693 60.1041 147.646L65.4274 161.369Z" fill="#B3C0DF"/>
<path d="M52.7871 154.191L54.1472 153.393L66.6933 160.642L65.3332 163.011L52.7871 155.786V154.191Z" fill="#E3EFFF"/>
<path d="M52.7871 131.202L54.499 132.187L65.5677 160.36L64.3717 161.04L52.7871 131.202Z" fill="#C1CEED"/>
<path d="M52.7871 129.607V131.202L65.3332 138.451L66.0132 137.254L52.7871 129.607Z" fill="#C1CEED"/>
<path d="M64.1375 161.768L64.9348 161.463L55.1559 178.47L53.9834 179.455L62.7305 161.768H64.1375Z" fill="#B3C0DF"/>
<path d="M52.7871 154.191V155.786L65.3332 163.011L66.0132 161.815L52.7871 154.191Z" fill="#C1CEED"/>
<path d="M64.1372 161.768L63.2695 160.571L52.7871 178.775L53.9831 179.455L64.1372 161.768Z" fill="#C1CEED"/>
<path d="M52.7871 127.988L54.1472 127.191L66.6933 134.439L65.3332 136.809L52.7871 129.584V127.988Z" fill="#E3EFFF"/>
<path d="M52.7871 127.988V129.583L65.3332 136.808L66.0132 135.612L52.7871 127.988Z" fill="#C1CEED"/>
<path d="M67.0923 306.667L68.1007 306.08L68.0303 133.783L66.9985 134.369L64.4189 305.118L67.0923 306.667Z" fill="#C3D0EF"/>
<path d="M67.0924 306.667L64.419 305.118L64.3252 132.821L66.9986 134.369L67.0924 306.667Z" fill="#C1CEED"/>
<path d="M81.5142 299.418L78.8408 297.894V126.394L81.5376 127.918L84.1641 297.894L81.5142 299.418Z" fill="#CAD6F5"/>
<path d="M81.5146 299.418L84.1646 297.894V126.394L81.5381 127.918L81.5146 299.418Z" fill="#C5D1F0"/>
<path d="M78.8408 126.393L81.5142 124.869L84.1641 126.393L81.5376 127.918L78.8408 126.393Z" fill="#B0BDDB"/>
<path d="M65.9668 133.783L68.6402 132.234L69.6251 132.868L66.9986 134.369L65.9668 133.783Z" fill="#B0BDDB"/>
<path d="M81.2089 178.704L79.8253 177.907L67.3027 185.132L68.6629 187.524L81.2089 180.276V178.704Z" fill="#E6F2FF"/>
<path d="M81.2095 178.704V180.276L68.6635 187.524L67.9834 186.328L81.2095 178.704Z" fill="#C5D1F0"/>
<path d="M81.2089 203.264L79.8253 202.467L67.3027 209.715L68.6629 212.108L81.2089 204.859V203.264Z" fill="#E6F2FF"/>
<path d="M69.8588 186.281L69.0615 185.976L78.817 202.983L80.0129 203.968L71.4535 186.281H69.8588Z" fill="#A2AFCE"/>
<path d="M69.8594 186.281L70.7036 185.084L81.2095 203.264L80.0135 203.968L69.8594 186.281Z" fill="#C5D1F0"/>
<path d="M68.569 235.027L67.373 234.346L73.3998 218.794L79.1452 204.391L80.2474 204.954L73.9627 221.444C73.9627 221.444 73.9158 221.351 73.8923 221.304L68.569 235.027Z" fill="#A2AFCE"/>
<path d="M81.2093 204.859L79.4974 205.845L68.4287 234.017L69.6012 234.698L81.2093 204.859Z" fill="#C5D1F0"/>
<path d="M81.2095 203.265V204.86L68.6635 212.108L67.9834 210.912L81.2095 203.265Z" fill="#C5D1F0"/>
<path d="M81.2089 129.607L79.8253 128.81L67.3027 136.058L68.6629 138.451L81.2089 131.202V129.607Z" fill="#E6F2FF"/>
<path d="M68.569 161.369L67.373 160.689L73.3998 145.136L79.1452 130.733L80.2474 131.296L73.9627 147.787C73.9627 147.787 73.9158 147.693 73.8923 147.646L68.569 161.369Z" fill="#A2AFCE"/>
<path d="M81.2089 154.191L79.8253 153.393L67.3027 160.642L68.6629 163.011L81.2089 155.786V154.191Z" fill="#E6F2FF"/>
<path d="M81.2093 131.202L79.4974 132.187L68.4287 160.36L69.6012 161.04L81.2093 131.202Z" fill="#C5D1F0"/>
<path d="M81.2095 129.607V131.202L68.6635 138.451L67.9834 137.254L81.2095 129.607Z" fill="#C5D1F0"/>
<path d="M69.8588 161.768L69.0615 161.463L78.817 178.47L80.0129 179.455L71.2424 161.768H69.8588Z" fill="#A2AFCE"/>
<path d="M81.2095 154.191V155.786L68.6635 163.011L67.9834 161.815L81.2095 154.191Z" fill="#C5D1F0"/>
<path d="M69.8594 161.768L70.7036 160.571L81.2095 178.775L80.0135 179.455L69.8594 161.768Z" fill="#C5D1F0"/>
<path d="M81.2089 127.988L79.8253 127.191L67.3027 134.439L68.6629 136.809L81.2089 129.584V127.988Z" fill="#E6F2FF"/>
<path d="M81.2095 127.988V129.583L68.6635 136.808L67.9834 135.612L81.2095 127.988Z" fill="#C5D1F0"/>
<path d="M67.0919 306.667L69.5776 305.118L69.648 132.821L66.998 134.369L67.0919 306.667Z" fill="#C5D1F0"/>
<path d="M19.8392 170.963L17.4473 169.579V162.096L19.8627 163.457L22.2077 169.579L19.8392 170.963Z" fill="#C7BCA5"/>
<path d="M19.8389 170.963L22.2074 169.579V162.096L19.8623 163.457L19.8389 170.963Z" fill="#968162"/>
<path d="M27.1791 166.694L24.7871 165.31V157.827L27.226 159.187L29.571 165.31L27.1791 166.694Z" fill="#C7BCA5"/>
<path d="M27.1797 166.694L29.5716 165.31V157.827L27.2266 159.187L27.1797 166.694Z" fill="#968162"/>
<path d="M4.94762 164.629L2.55566 163.245V155.762L4.97107 157.123L7.33958 163.245L4.94762 164.629Z" fill="#C7BCA5"/>
<path d="M4.94824 164.629L7.3402 163.245V155.762L4.97169 157.123L4.94824 164.629Z" fill="#968162"/>
<path d="M12.3119 160.36L9.91992 158.976V151.493L12.3353 152.854L14.7038 158.976L12.3119 160.36Z" fill="#C7BCA5"/>
<path d="M12.3115 160.36L14.7035 158.976V151.493L12.335 152.854L12.3115 160.36Z" fill="#968162"/>
<path d="M127.173 83.9582L123.913 82.0815L0 153.628L3.25963 155.551L126.797 87.9694L127.173 83.9582Z" fill="#E6FAFF"/>
<path d="M127.173 83.958V87.7113L3.25977 159.258V155.551L127.173 83.958Z" fill="#C2CBFF"/>
<path d="M0 153.628V157.381L3.25963 159.258V155.551L0 153.628Z" fill="#B2C3ED"/>
<path d="M3.18941 155.106L1.52441 154.144L13.4608 127.707L14.7271 128.434L4.87785 154.144L3.18941 155.106Z" fill="#EDFBFF"/>
<path d="M29.0556 140.187L27.3906 139.201L27.3672 121.538H30.7441V139.201L29.0556 140.187Z" fill="#CAD7E8"/>
<path d="M29.0557 140.187L30.7441 139.201V121.538H29.0557V140.187Z" fill="#C2CBFF"/>
<path d="M28.9151 122.429L27.4612 121.584L14.7041 137.442L6.66051 147.646L4.26855 153.112L17.8699 136.41C17.8699 136.41 17.7292 136.41 17.6823 136.41L28.9151 122.406V122.429Z" fill="#A5B3D4"/>
<path d="M4.78418 154.214V151.798L27.7658 122.898L29.2197 123.742L4.78418 154.214Z" fill="#C2CBFF"/>
<path d="M31.6347 138.732L29.9463 137.77V120.083H33.2997V137.77L31.6347 138.732Z" fill="#CAD7E8"/>
<path d="M57.5947 123.743L55.9062 122.781V105.094H59.2597L59.2831 122.781L57.5947 123.743Z" fill="#CAD7E8"/>
<path d="M83.4139 90.9954L81.9599 90.1509L69.2028 106.008L57.501 120.857L58.7673 121.678L72.3686 104.976C72.3686 104.976 72.2279 104.976 72.181 104.976L83.4139 90.9719V90.9954Z" fill="#A5B3D4"/>
<path d="M83.5547 108.753L81.8662 107.768V90.104H85.2196L85.2431 107.768L83.5547 108.753Z" fill="#CAD7E8"/>
<path d="M109.515 92.4969L107.85 91.5351L107.826 77.437L111.203 78.6803V91.5351L109.515 92.4969Z" fill="#CAD7E8"/>
<path d="M118.825 81.5419C118.215 81.5419 117.629 81.4246 117.183 81.0962L109.444 90.9016L110.711 91.7226L118.871 81.7061C118.871 81.7061 118.848 81.6123 118.825 81.5653V81.5419Z" fill="#A5B3D4"/>
<path d="M118.825 81.5186C118.637 81.5186 118.449 81.5186 118.285 81.5186L111.227 90.4091V92.8252L119.598 82.3865C119.247 82.1988 118.965 81.9173 118.848 81.542L118.825 81.5186Z" fill="#C2CBFF"/>
<path d="M109.515 93.7401L111.203 92.7783V78.6802H109.515V93.7401Z" fill="#C2CBFF"/>
<path d="M124.03 85.4124L126.118 84.1925L106.161 75.5366V79.2899L124.03 85.4124Z" fill="#C2CBFF"/>
<path d="M84.6333 92.1212L83.8359 91.4644L107.756 91.4175L109.514 92.0743L85.4775 93.5991L84.6333 92.1212Z" fill="#A5B3D4"/>
<path d="M84.6332 92.1216L83.9062 93.7402H109.514V92.0747L84.6332 92.1216Z" fill="#C2CBFF"/>
<path d="M83.5547 108.753L85.2431 107.768L85.2197 90.104H83.5547V108.753Z" fill="#C2CBFF"/>
<path d="M59.2832 122.781V120.365L82.2648 91.4648L83.7187 92.3093L59.2832 122.781Z" fill="#C2CBFF"/>
<path d="M57.5947 123.743L59.2832 122.781L59.2597 105.094H57.5947V123.743Z" fill="#C2CBFF"/>
<path d="M32.7133 122.124L31.916 121.444L55.8356 121.397L57.5944 122.054L33.5576 123.579L32.7133 122.124Z" fill="#A5B3D4"/>
<path d="M31.6348 138.732L33.2998 137.77V120.083H31.6348V138.732Z" fill="#C2CBFF"/>
<path d="M32.7133 122.124L31.9863 123.743H57.5944V122.054L32.7133 122.124Z" fill="#C2CBFF"/>
<path d="M3.18945 155.106L4.87789 154.144L14.7037 132.187L14.7271 128.434L3.18945 155.106Z" fill="#C2CBFF"/>
<path d="M106.161 75.5368L104.942 74.8096L13.4609 127.707L14.7273 128.434L106.161 79.29V75.5368Z" fill="#DBF1FF"/>
<path d="M106.161 75.5366V79.2899L14.7041 132.187L14.7276 128.434L106.161 75.5366Z" fill="#C2CBFF"/>
<path d="M104.941 74.8096L106.161 75.5368L126.117 84.1927L124.03 83.0198L104.941 74.8096Z" fill="#A5B3D4"/>
<path d="M26.6629 138.474L14.7031 131.437V129.185L26.6629 136.245V138.474Z" fill="#B2C3ED"/>
<path d="M26.6629 136.245L14.7031 129.184L16.3681 128.223L28.3514 135.283L26.6629 136.245Z" fill="#DBF1FF"/>
<path d="M46.9012 126.721L34.9414 119.661V117.409L46.9012 124.469V126.721Z" fill="#B2C3ED"/>
<path d="M46.9012 124.469L34.9414 117.409L36.6064 116.447L48.5662 123.508L46.9012 124.469Z" fill="#DBF1FF"/>
<path d="M60.8309 118.652L48.8477 111.591V109.339L60.8309 116.4V118.652Z" fill="#B2C3ED"/>
<path d="M60.8309 116.4L48.8477 109.339L50.5127 108.377L62.4959 115.438L60.8309 116.4Z" fill="#DBF1FF"/>
<path d="M74.7362 110.583L62.7764 103.522V101.293L74.7362 108.331V110.583Z" fill="#B2C3ED"/>
<path d="M74.7362 108.331L62.7764 101.293L64.4414 100.332L76.4012 107.369L74.7362 108.331Z" fill="#DBF1FF"/>
<path d="M88.6659 102.513L76.6826 95.4761V93.2241L88.6659 100.285V102.513Z" fill="#B2C3ED"/>
<path d="M88.6659 100.285L76.6826 93.224L78.3476 92.2622L90.3309 99.323L88.6659 100.285Z" fill="#DBF1FF"/>
<path d="M102.572 94.4436L90.6123 87.4062V85.1543L102.572 92.2151V94.4436Z" fill="#B2C3ED"/>
<path d="M102.572 92.2149L90.6123 85.1542L92.2773 84.1924L104.237 91.2532L102.572 92.2149Z" fill="#DBF1FF"/>
<path d="M116.502 86.3977L104.519 79.3369V77.085L116.502 84.1458V86.3977Z" fill="#B2C3ED"/>
<path d="M116.502 84.1456L104.519 77.0848L106.184 76.123L118.167 83.1838L116.502 84.1456Z" fill="#DBF1FF"/>
<path d="M140 91.3708L136.74 89.4941L12.8271 161.04L16.0868 162.964L140 95.124V91.3708Z" fill="#E6FAFF"/>
<path d="M140 91.3706V95.1239L16.0869 166.67V162.964L140 91.3706Z" fill="#C2CBFF"/>
<path d="M12.8271 161.041V164.794L16.0868 166.67V162.964L12.8271 161.041Z" fill="#B2C3ED"/>
<path d="M16.0166 162.518L14.3516 161.557L26.2879 135.12L27.5542 135.823L17.705 161.557L16.0166 162.518Z" fill="#EDFBFF"/>
<path d="M41.8828 147.599L40.2178 146.614L40.1943 128.95H43.5478L43.5712 146.614L41.8828 147.599Z" fill="#CAD7E8"/>
<path d="M41.8828 147.599L43.5713 146.614L43.5478 128.95H41.8828V147.599Z" fill="#C2CBFF"/>
<path d="M41.7423 129.842L40.2883 128.997L27.5312 144.855L19.4877 155.059L17.0957 160.524L30.697 143.822C30.697 143.822 30.5563 143.822 30.5094 143.822L41.7423 129.818V129.842Z" fill="#A5B3D4"/>
<path d="M17.6113 161.603V159.211L40.5929 130.311L42.0468 131.155L17.6113 161.603Z" fill="#C2CBFF"/>
<path d="M44.4619 146.145L42.7734 145.183V127.496H46.1269V145.183L44.4619 146.145Z" fill="#CAD7E8"/>
<path d="M70.4218 131.155L68.7334 130.17V112.506H72.0868V130.17L70.4218 131.155Z" fill="#CAD7E8"/>
<path d="M96.241 98.408L94.7871 97.5635L82.03 113.421L70.3281 128.27L71.5945 129.091L85.1958 112.389C85.1958 112.389 85.0551 112.389 85.0082 112.389L96.241 98.3845V98.408Z" fill="#A5B3D4"/>
<path d="M96.3818 116.166L94.6934 115.18V97.5166H98.0468L98.0702 115.18L96.3818 116.166Z" fill="#CAD7E8"/>
<path d="M122.342 99.9095L120.677 98.9477L120.653 84.8496L124.03 86.0929V98.9477L122.342 99.9095Z" fill="#CAD7E8"/>
<path d="M131.652 88.9311C131.042 88.9311 130.456 88.8138 130.01 88.4854L122.271 98.2907L123.538 99.1117L131.699 89.0953C131.699 89.0953 131.675 89.0014 131.652 88.9545V88.9311Z" fill="#A5B3D4"/>
<path d="M131.652 88.9312C131.464 88.9312 131.276 88.9312 131.112 88.9312L124.054 97.8217V100.238L132.426 89.7991C132.074 89.6114 131.792 89.3299 131.675 88.9546L131.652 88.9312Z" fill="#C2CBFF"/>
<path d="M122.342 101.153L124.03 100.191V86.0928H122.342V101.153Z" fill="#C2CBFF"/>
<path d="M136.858 92.8015L138.945 91.6051L118.988 82.9492V86.7025L136.858 92.8015Z" fill="#C2CBFF"/>
<path d="M97.4604 99.5338L96.6631 98.877L120.583 98.8301L122.341 99.4869L98.3046 101.012L97.4604 99.5338Z" fill="#A5B3D4"/>
<path d="M97.4604 99.5342L96.7334 101.153H122.341V99.4873L97.4604 99.5342Z" fill="#C2CBFF"/>
<path d="M96.3818 116.166L98.0703 115.18L98.0468 97.5166H96.3818V116.166Z" fill="#C2CBFF"/>
<path d="M72.0869 130.17L72.1104 127.777L95.0919 98.8774L96.5459 99.7219L72.0869 130.17Z" fill="#C2CBFF"/>
<path d="M70.4219 131.155L72.0869 130.17V112.506H70.4219V131.155Z" fill="#C2CBFF"/>
<path d="M45.5405 129.513L44.7432 128.856L68.6628 128.81L70.4216 129.466L46.3847 130.991L45.5405 129.513Z" fill="#A5B3D4"/>
<path d="M44.4619 146.145L46.1269 145.183V127.496H44.4619V146.145Z" fill="#C2CBFF"/>
<path d="M45.5404 129.513L44.8135 131.155H70.4215V129.466L45.5404 129.513Z" fill="#C2CBFF"/>
<path d="M16.0166 162.518L17.705 161.556L27.5308 139.6L27.5543 135.823L16.0166 162.518Z" fill="#C2CBFF"/>
<path d="M118.988 82.9494L117.769 82.2222L26.2881 135.119L27.5544 135.823L118.988 86.7026V82.9494Z" fill="#DBF1FF"/>
<path d="M118.989 82.9492V86.7025L27.5312 139.6L27.5547 135.823L118.989 82.9492Z" fill="#C2CBFF"/>
<path d="M117.769 82.2222L118.988 82.9494L138.944 91.6053L136.857 90.4324L117.769 82.2222Z" fill="#A5B3D4"/>
<path d="M67.2561 99.2995L69.4135 98.0563V55.0347L67.2326 56.2779L65.1221 98.0563L67.2561 99.2995Z" fill="#95A2C0"/>
<path d="M67.2561 99.2995L65.1221 98.0563V55.0347L67.2326 56.2779L67.2561 99.2995Z" fill="#94A1BF"/>
<path d="M69.4135 55.0348L67.2795 53.7915L65.1221 55.0348L67.2326 56.278L69.4135 55.0348Z" fill="#8491B0"/>
<path d="M79.8024 60.9933L77.645 59.75L76.8477 60.2426L78.9582 61.4859L79.8024 60.9933Z" fill="#8491B0"/>
<path d="M67.5137 57.1226L68.6158 56.4658L78.723 62.3068L77.6209 64.2303L67.5137 58.3894V57.1226Z" fill="#A3AFCE"/>
<path d="M77.6918 82.7147L78.6532 82.1517L73.799 69.6253L69.1792 58.0137L68.2881 58.4594L73.3534 71.7599C73.3534 71.7599 73.4003 71.6896 73.4003 71.6427L77.6918 82.6913V82.7147Z" fill="#7683A1"/>
<path d="M67.5137 76.921L68.6158 76.2876L78.723 82.1286L77.6209 84.0521L67.5137 78.2111V76.921Z" fill="#A3AFCE"/>
<path d="M67.5137 58.3892L68.8973 59.1867L77.8085 81.8939L76.847 82.4569L67.5137 58.3892Z" fill="#94A1BF"/>
<path d="M67.5137 57.1226V58.3893L77.6209 64.2303L78.1602 63.2685L67.5137 57.1226Z" fill="#94A1BF"/>
<path d="M67.5137 96.7427L68.6158 96.1094L78.723 101.927L77.6209 103.85L67.5137 98.0329V96.7427Z" fill="#A3AFCE"/>
<path d="M67.5137 96.7427V98.0329L77.6209 103.85L78.1602 102.889L67.5137 96.7427Z" fill="#94A1BF"/>
<path d="M76.6598 83.0432L77.293 82.7852L69.4371 96.508L68.4756 97.3055L75.5342 83.0432H76.6598Z" fill="#7683A1"/>
<path d="M67.5137 76.9209V78.2111L77.6209 84.0521L78.1602 83.0903L67.5137 76.9209Z" fill="#94A1BF"/>
<path d="M76.6594 83.0433L75.9793 82.0815L67.5137 96.7427L68.4751 97.3057L76.6594 83.0433Z" fill="#94A1BF"/>
<path d="M79.0285 105.141L79.8728 104.672L79.8024 60.9932L78.9582 61.4858L76.8945 103.897L79.0285 105.141Z" fill="#929FBE"/>
<path d="M79.0286 105.14L76.8946 103.897L76.8242 60.2188L78.9582 61.4855L79.0286 105.14Z" fill="#94A1BF"/>
<path d="M65.8723 99.8391L63.7383 98.6193L63.7148 55.5977L65.8957 56.8175L68.0298 98.6193L65.8723 99.8391Z" fill="#99A6C5"/>
<path d="M65.8721 99.8391L68.0295 98.6193V55.5977L65.8955 56.8175L65.8721 99.8391Z" fill="#93A0BF"/>
<path d="M63.7148 55.5978L65.8723 54.3545L68.0298 55.5978L65.8957 56.8176L63.7148 55.5978Z" fill="#7E8BAA"/>
<path d="M53.3496 61.5328L55.5071 60.2896L56.3044 60.8056L54.1704 62.0254L53.3496 61.5328Z" fill="#7E8BAA"/>
<path d="M65.6381 57.6622L64.5359 57.0288L54.4287 62.8463L55.5309 64.7699L65.6381 58.9523V57.6622Z" fill="#A7B3D2"/>
<path d="M55.4371 83.2543L54.4756 82.6913L59.3299 70.1648L63.9496 58.5532L64.8407 58.9989L59.7754 72.2995C59.7754 72.2995 59.7285 72.2291 59.7285 72.1822L55.4371 83.2308V83.2543Z" fill="#667291"/>
<path d="M65.6381 77.484L64.5359 76.8271L54.4287 82.6681L55.5309 84.5917L65.6381 78.7507V77.484Z" fill="#A7B3D2"/>
<path d="M65.6376 58.9521L64.254 59.7497L55.3193 82.4569L56.2808 82.9964L65.6376 58.9521Z" fill="#93A0BF"/>
<path d="M65.6378 57.6621V58.9523L55.5306 64.7698L54.9678 63.8081L65.6378 57.6621Z" fill="#93A0BF"/>
<path d="M65.6381 97.2823L64.5359 96.6489L54.4287 102.49L55.5309 104.413L65.6381 98.5725V97.2823Z" fill="#A7B3D2"/>
<path d="M65.6378 97.2822V98.5724L55.5306 104.413L54.9678 103.452L65.6378 97.2822Z" fill="#93A0BF"/>
<path d="M56.4926 83.5827L55.8359 83.3481L63.7153 97.0475L64.6768 97.8451L57.6182 83.5827H56.4926Z" fill="#667291"/>
<path d="M65.6378 77.4839V78.7506L55.5306 84.5916L54.9678 83.6298L65.6378 77.4839Z" fill="#93A0BF"/>
<path d="M56.4922 83.5829L57.1723 82.6211L65.6379 97.2822L64.6764 97.8452L56.4922 83.5829Z" fill="#93A0BF"/>
<path d="M54.2412 105.68L56.258 104.437L56.3284 60.7583L54.1709 62.025L54.2412 105.68Z" fill="#93A0BF"/>
<path d="M55.2961 106.454L57.4301 105.211L57.4536 62.2129L55.2727 63.4327L53.1387 105.211L55.2961 106.454Z" fill="#C7D3F2"/>
<path d="M55.2961 106.454L53.1387 105.211V62.2129L55.2727 63.4327L55.2961 106.454Z" fill="#C1CEED"/>
<path d="M57.4536 62.213L55.2961 60.9697L53.1387 62.213L55.2727 63.4328L57.4536 62.213Z" fill="#B4C0DF"/>
<path d="M67.819 68.148L65.6616 66.9048L64.8643 67.4209L66.9983 68.6407L67.819 68.148Z" fill="#B4C0DF"/>
<path d="M55.5303 64.2769L56.6559 63.6201L66.7631 69.4611L65.6375 71.3847L55.5303 65.5437V64.2769Z" fill="#E3EFFF"/>
<path d="M65.7318 89.8695L66.6933 89.3065L61.839 76.7801L57.2192 65.1685L56.3281 65.6142L61.3935 78.9147C61.3935 78.9147 61.4404 78.8444 61.4404 78.7974L65.7318 89.8461V89.8695Z" fill="#B3C0DF"/>
<path d="M55.5303 84.0757L56.6559 83.4424L66.7631 89.2834L65.6375 91.2069L55.5303 85.3659V84.0757Z" fill="#E3EFFF"/>
<path d="M55.5303 65.5439L56.9139 66.3415L65.8485 89.0487L64.8871 89.6116L55.5303 65.5439Z" fill="#C1CEED"/>
<path d="M55.5303 64.2773V65.5441L65.6375 71.3851L66.2003 70.4233L55.5303 64.2773Z" fill="#C1CEED"/>
<path d="M55.5303 103.898L56.6559 103.264L66.7631 109.105L65.6375 111.029L55.5303 105.188V103.898Z" fill="#E3EFFF"/>
<path d="M55.5303 103.897V105.188L65.6375 111.029L66.2003 110.067L55.5303 103.897Z" fill="#C1CEED"/>
<path d="M64.6764 90.198L65.3331 89.9634L57.4537 103.663L56.4922 104.46L63.5743 90.198H64.6764Z" fill="#B3C0DF"/>
<path d="M55.5303 84.0757V85.3659L65.6375 91.2069L66.2003 90.2451L55.5303 84.0757Z" fill="#C1CEED"/>
<path d="M64.676 90.1981L63.9959 89.2363L55.5303 103.897L56.4917 104.46L64.676 90.1981Z" fill="#C1CEED"/>
<path d="M67.0686 112.295L67.8894 111.826L67.819 68.1475L66.9982 68.6401L64.9111 111.052L67.0686 112.295Z" fill="#C3D0EF"/>
<path d="M67.0686 112.295L64.9112 111.052L64.8408 67.3735L66.9983 68.6403L67.0686 112.295Z" fill="#C1CEED"/>
<path d="M78.6995 106.454L76.542 105.211V62.2129L78.7229 63.4327L80.8335 105.211L78.6995 106.454Z" fill="#CAD6F5"/>
<path d="M78.6992 106.454L80.8332 105.211V62.2129L78.7227 63.4327L78.6992 106.454Z" fill="#C5D1F0"/>
<path d="M76.542 62.213L78.6995 60.9697L80.8335 62.213L78.7229 63.4328L76.542 62.213Z" fill="#B0BDDB"/>
<path d="M66.1768 68.148L68.3108 66.9048L69.1081 67.4209L66.9975 68.6407L66.1768 68.148Z" fill="#B0BDDB"/>
<path d="M78.4652 64.2769L77.3396 63.6201L67.2324 69.4611L68.3346 71.3847L78.4652 65.5437V64.2769Z" fill="#E6F2FF"/>
<path d="M68.2642 89.8695L67.3027 89.3065L72.157 76.7801L76.7768 65.1685L77.6679 65.6142L72.6026 78.9147C72.6026 78.9147 72.5557 78.8444 72.5557 78.7974L68.2642 89.8461V89.8695Z" fill="#A2AFCE"/>
<path d="M78.4652 84.0757L77.3396 83.4424L67.2324 89.2834L68.3346 91.2069L78.4652 85.3659V84.0757Z" fill="#E6F2FF"/>
<path d="M78.4657 65.5439L77.0821 66.3415L68.1475 89.0487L69.1089 89.6116L78.4657 65.5439Z" fill="#C5D1F0"/>
<path d="M78.4649 64.2773V65.5441L68.3343 71.3851L67.7949 70.4233L78.4649 64.2773Z" fill="#C5D1F0"/>
<path d="M78.4652 103.898L77.3396 103.264L67.2324 109.105L68.3346 111.029L78.4652 105.188V103.898Z" fill="#E6F2FF"/>
<path d="M78.4649 103.897V105.188L68.3343 111.029L67.7949 110.067L78.4649 103.897Z" fill="#C5D1F0"/>
<path d="M69.2962 90.198L68.6631 89.9634L76.5425 103.663L77.504 104.46L70.4219 90.198H69.2962Z" fill="#A2AFCE"/>
<path d="M78.4649 84.0757V85.3659L68.3343 91.2069L67.7949 90.2451L78.4649 84.0757Z" fill="#C5D1F0"/>
<path d="M69.2959 90.1981L69.9994 89.2363L78.4651 103.897L77.5036 104.46L69.2959 90.1981Z" fill="#C5D1F0"/>
<path d="M67.0684 112.295L69.0617 111.052L69.132 67.3735L66.998 68.6403L67.0684 112.295Z" fill="#C5D1F0"/>
<path d="M34.332 93.4117L32.6201 92.4265V87.1016L34.3555 88.0633L36.0205 92.4265L34.332 93.4117Z" fill="#C7BCA5"/>
<path d="M34.332 93.4117L36.0205 92.4265V87.1016L34.3555 88.0633L34.332 93.4117Z" fill="#968162"/>
<path d="M32.6201 87.1014L34.332 86.1162L36.0205 87.1014L34.3555 88.0632L32.6201 87.1014Z" fill="#8F7B68"/>
<path d="M39.5615 90.3624L37.873 89.4006V84.0522L39.5849 85.0375L41.2734 89.4006L39.5615 90.3624Z" fill="#C7BCA5"/>
<path d="M39.5615 90.3624L41.2734 89.4006V84.0522L39.585 85.0375L39.5615 90.3624Z" fill="#968162"/>
<path d="M37.873 84.0521L39.5615 83.0903L41.2734 84.0521L39.5849 85.0373L37.873 84.0521Z" fill="#8F7B68"/>
<path d="M23.7558 88.9078L22.0439 87.9226V82.5977L23.7793 83.5594L25.4443 87.9226L23.7558 88.9078Z" fill="#C7BCA5"/>
<path d="M23.7559 88.9078L25.4443 87.9226V82.5977L23.7793 83.5594L23.7559 88.9078Z" fill="#968162"/>
<path d="M22.0439 82.5975L23.7558 81.6123L25.4443 82.5975L23.7793 83.5593L22.0439 82.5975Z" fill="#8F7B68"/>
<path d="M28.9853 85.8585L27.2734 84.8967V79.5483L29.0088 80.5336L30.6738 84.8967L28.9853 85.8585Z" fill="#C7BCA5"/>
<path d="M28.9854 85.8585L30.6738 84.8967V79.5483L29.0088 80.5336L28.9854 85.8585Z" fill="#968162"/>
<path d="M27.2734 79.5482L28.9853 78.5864L30.6738 79.5482L29.0088 80.5334L27.2734 79.5482Z" fill="#8F7B68"/>
<path d="M112.024 30.7322L109.632 29.3481L18.5498 81.9405L20.9183 83.3714L111.766 33.6878L112.024 30.7322Z" fill="#E6FAFF"/>
<path d="M112.023 30.7319V33.5L20.918 86.0923V83.3712L112.023 30.7319Z" fill="#C2CBFF"/>
<path d="M18.5498 81.9404V84.7084L20.9183 86.0925V83.3714L18.5498 81.9404Z" fill="#B2C3ED"/>
<path d="M20.8952 83.0433L19.6523 82.3396L28.4463 62.8931L29.3609 63.4326L22.1147 82.3396L20.8952 83.0433Z" fill="#EDFBFF"/>
<path d="M39.8903 72.0651L38.6709 71.3613V58.3657H41.1332V71.3613L39.8903 72.0651Z" fill="#CAD7E8"/>
<path d="M39.8906 72.0651L41.1335 71.3613V58.3657H39.8906V72.0651Z" fill="#C2CBFF"/>
<path d="M39.7962 59.0225L38.7175 58.4126L29.3373 70.0711L23.4277 77.5776L21.6689 81.5889L31.6589 69.3205C31.6589 69.3205 31.5651 69.3205 31.5182 69.3205L39.7728 59.0225H39.7962Z" fill="#A5B3D4"/>
<path d="M22.0439 82.3632V80.6038L38.9518 59.3511L40.0305 59.9844L22.0439 82.3632Z" fill="#C2CBFF"/>
<path d="M41.7898 71.0094L40.5469 70.2822V57.2866H43.0326V70.2822L41.7898 71.0094Z" fill="#CAD7E8"/>
<path d="M60.8786 59.984L59.6357 59.2568V46.2847H62.0981L62.1215 59.2568L60.8786 59.984Z" fill="#CAD7E8"/>
<path d="M79.8739 35.9165L78.7952 35.3066L69.415 46.9652L60.8086 57.8965L61.7466 58.5064L71.7366 46.2145C71.7366 46.2145 71.6428 46.2145 71.5959 46.2145L79.8505 35.9165H79.8739Z" fill="#A5B3D4"/>
<path d="M79.9675 48.9591L78.7246 48.2319V35.2598H81.1869L81.2104 48.2319L79.9675 48.9591Z" fill="#CAD7E8"/>
<path d="M99.0564 37.0189L97.8135 36.2917V25.9468L100.276 26.8616L100.299 36.2917L99.0564 37.0189Z" fill="#CAD7E8"/>
<path d="M105.903 28.9495C105.458 28.9495 105.036 28.8557 104.684 28.6211L99.0088 35.8461L99.9468 36.456L105.95 29.0902C105.95 29.0902 105.927 29.0199 105.903 28.973V28.9495Z" fill="#A5B3D4"/>
<path d="M105.88 28.9263C105.739 28.9263 105.599 28.9263 105.481 28.9263L100.275 35.4475V37.2303L106.419 29.5596C106.161 29.4189 105.95 29.2078 105.857 28.9497L105.88 28.9263Z" fill="#C2CBFF"/>
<path d="M99.0557 37.9339L100.299 37.2067L100.275 26.8618H99.0557V37.9339Z" fill="#C2CBFF"/>
<path d="M109.726 31.788L111.25 30.8966L96.5938 24.5396V27.3076L109.726 31.788Z" fill="#C2CBFF"/>
<path d="M80.765 36.7378L80.1787 36.2451L97.7666 36.2217L99.0564 36.6908L81.3747 37.8168L80.765 36.7378Z" fill="#A5B3D4"/>
<path d="M80.7649 36.7373L80.2256 37.9337H99.0564V36.6904L80.7649 36.7373Z" fill="#C2CBFF"/>
<path d="M79.9668 48.9591L81.2097 48.2319L81.1862 35.2598H79.9668V48.9591Z" fill="#C2CBFF"/>
<path d="M62.1211 59.2572V57.4979L79.029 36.2451L80.0842 36.8785L62.1211 59.2572Z" fill="#C2CBFF"/>
<path d="M60.8789 59.984L62.1218 59.2568L62.0983 46.2847H60.8789V59.984Z" fill="#C2CBFF"/>
<path d="M42.5872 58.7881L42.001 58.2954L59.5889 58.2485L60.8787 58.7411L43.197 59.8671L42.5872 58.7881Z" fill="#A5B3D4"/>
<path d="M41.79 71.0094L43.0329 70.2822V57.2866H41.79V71.0094Z" fill="#C2CBFF"/>
<path d="M42.5872 58.7881L42.0479 59.9845H60.8787V58.7412L42.5872 58.7881Z" fill="#C2CBFF"/>
<path d="M20.8955 83.0433L22.1149 82.3396L29.3377 66.2006L29.3612 63.4326L20.8955 83.0433Z" fill="#C2CBFF"/>
<path d="M96.5937 24.5395L95.6791 24L28.4463 62.893L29.3609 63.4326L96.5937 27.3075V24.5395Z" fill="#DBF1FF"/>
<path d="M96.5942 24.5396V27.3076L29.3379 66.2006L29.3613 63.4326L96.5942 24.5396Z" fill="#C2CBFF"/>
<path d="M95.6787 24L96.5933 24.5395L111.25 30.8966L109.726 30.0521L95.6787 24Z" fill="#A5B3D4"/>
<path d="M38.1543 70.8218L29.3369 65.6377V63.9722L38.1543 69.1563V70.8218Z" fill="#B2C3ED"/>
<path d="M38.1543 69.1565L29.3369 63.9723L30.5798 63.2686L39.3738 68.4527L38.1543 69.1565Z" fill="#DBF1FF"/>
<path d="M53.0225 62.1661L44.2285 56.9819V55.3164L53.0225 60.524V62.1661Z" fill="#B2C3ED"/>
<path d="M53.0225 60.5242L44.2285 55.3165L45.4479 54.6128L54.2419 59.797L53.0225 60.5242Z" fill="#DBF1FF"/>
<path d="M63.2461 56.231L54.4521 51.0468V49.4048L63.2461 54.589V56.231Z" fill="#B2C3ED"/>
<path d="M63.2461 54.5891L54.4521 49.4049L55.6716 48.7012L64.489 53.8853L63.2461 54.5891Z" fill="#DBF1FF"/>
<path d="M73.4942 50.2964L64.6768 45.1123V43.4702L73.4942 48.6544V50.2964Z" fill="#B2C3ED"/>
<path d="M73.4942 48.6545L64.6768 43.4703L65.9196 42.7666L74.7136 47.9508L73.4942 48.6545Z" fill="#DBF1FF"/>
<path d="M83.7188 44.3848L74.9248 39.2007V37.5352L83.7188 42.7193V44.3848Z" fill="#B2C3ED"/>
<path d="M83.7188 42.7195L74.9248 37.5353L76.1442 36.8315L84.9382 42.0157L83.7188 42.7195Z" fill="#DBF1FF"/>
<path d="M93.9434 38.4498L85.1494 33.2656V31.6235L93.9434 36.8077V38.4498Z" fill="#B2C3ED"/>
<path d="M93.9434 36.8078L85.1494 31.6237L86.3688 30.8965L95.1863 36.1041L93.9434 36.8078Z" fill="#DBF1FF"/>
<path d="M104.191 32.5152L95.374 27.331V25.689L104.191 30.8731V32.5152Z" fill="#B2C3ED"/>
<path d="M104.191 30.8733L95.374 25.6891L96.6169 24.9854L105.411 30.1695L104.191 30.8733Z" fill="#DBF1FF"/>
<path d="M121.451 36.1745L119.082 34.7905L27.9766 87.3829L30.3685 88.8138L121.451 38.9426V36.1745Z" fill="#E6FAFF"/>
<path d="M121.45 36.1743V38.9423L30.3682 91.5347V88.8136L121.45 36.1743Z" fill="#C2CBFF"/>
<path d="M27.9766 87.3828V90.1508L30.3685 91.5348V88.8137L27.9766 87.3828Z" fill="#B2C3ED"/>
<path d="M30.322 88.4857L29.0791 87.782L37.8731 68.3354L38.7876 68.875L31.5414 87.782L30.322 88.4857Z" fill="#EDFBFF"/>
<path d="M49.3405 77.5075L48.0977 76.8037V63.8081H50.56V76.8037L49.3405 77.5075Z" fill="#CAD7E8"/>
<path d="M49.3408 77.5075L50.5603 76.8037V63.8081H49.3174L49.3408 77.5075Z" fill="#C2CBFF"/>
<path d="M49.223 64.4649L48.1443 63.855L38.764 75.5135L32.8545 83.02L31.0957 87.0313L41.0857 74.7394C41.0857 74.7394 40.9918 74.7394 40.9449 74.7394L49.1996 64.4414L49.223 64.4649Z" fill="#A5B3D4"/>
<path d="M31.4707 87.829V86.0462L48.3786 64.8169L49.4573 65.4268L31.4707 87.829Z" fill="#C2CBFF"/>
<path d="M51.2165 76.4518L49.9971 75.7246L49.9736 62.7524H52.4594V75.7246L51.2165 76.4518Z" fill="#CAD7E8"/>
<path d="M70.3054 65.4264L69.0625 64.7227V51.7271H71.5483V64.7227L70.3054 65.4264Z" fill="#CAD7E8"/>
<path d="M89.3007 41.3589L88.2219 40.749L78.8417 52.4075L70.2354 63.3389L71.1734 63.9488L81.1633 51.6569C81.1633 51.6569 81.0695 51.6569 81.0226 51.6569L89.2772 41.3589H89.3007Z" fill="#A5B3D4"/>
<path d="M89.3942 54.4015L88.1514 53.6978V40.7021H90.6371V53.6978L89.3942 54.4015Z" fill="#CAD7E8"/>
<path d="M108.483 42.4612L107.24 41.7575V31.3892L109.703 32.304L109.726 41.7575L108.483 42.4612Z" fill="#CAD7E8"/>
<path d="M115.33 34.3919C114.884 34.3919 114.462 34.2981 114.111 34.0635L108.412 41.2885L109.35 41.8984L115.353 34.5326C115.353 34.5326 115.33 34.4623 115.307 34.4153L115.33 34.3919Z" fill="#A5B3D4"/>
<path d="M115.307 34.3687C115.166 34.3687 115.025 34.3687 114.908 34.3687L109.702 40.8899V42.6727L115.846 35.002C115.588 34.8613 115.377 34.6501 115.283 34.3921L115.307 34.3687Z" fill="#C2CBFF"/>
<path d="M108.482 43.3763L109.725 42.6725L109.702 32.3042H108.482V43.3763Z" fill="#C2CBFF"/>
<path d="M119.153 37.2304L120.701 36.339L106.021 29.9819V32.75L119.153 37.2304Z" fill="#C2CBFF"/>
<path d="M90.1917 42.1801L89.6055 41.6875L107.193 41.6641L108.483 42.1332L90.8249 43.2592L90.1917 42.1801Z" fill="#A5B3D4"/>
<path d="M90.1917 42.1797L89.6523 43.3761H108.483V42.1328L90.1917 42.1797Z" fill="#C2CBFF"/>
<path d="M89.3936 54.4015L90.6364 53.6978V40.7021H89.3936V54.4015Z" fill="#C2CBFF"/>
<path d="M71.5479 64.7231V62.9403L88.4557 41.6875L89.511 42.3209L71.5479 64.7231Z" fill="#C2CBFF"/>
<path d="M70.3057 65.4264L71.5485 64.7227V51.7271H70.3057V65.4264Z" fill="#C2CBFF"/>
<path d="M52.014 64.2304L51.4277 63.7378L69.0157 63.7144L70.3055 64.1835L52.6472 65.3095L52.014 64.2304Z" fill="#A5B3D4"/>
<path d="M51.2168 76.4518L52.4597 75.7246V62.7524H51.2168V76.4518Z" fill="#C2CBFF"/>
<path d="M52.014 64.2305L51.4746 65.4269H70.3054V64.1836L52.014 64.2305Z" fill="#C2CBFF"/>
<path d="M30.3223 88.4857L31.5417 87.782L38.7645 71.643L38.7879 68.875L30.3223 88.4857Z" fill="#C2CBFF"/>
<path d="M106.02 29.9819L105.106 29.4424L37.873 68.3354L38.7876 68.8749L106.02 32.7499V29.9819Z" fill="#DBF1FF"/>
<path d="M106.021 29.9819V32.75L38.7646 71.643L38.7881 68.875L106.021 29.9819Z" fill="#C2CBFF"/>
<path d="M105.105 29.4424L106.02 29.9819L120.7 36.339L119.152 35.4945L105.105 29.4424Z" fill="#A5B3D4"/>
</g>
<g clip-path="url(#clip1_2007_5)">
<path d="M228.783 84.307L226.391 82.923V75.4165L228.806 76.7771L231.175 82.923L228.783 84.307Z" fill="#C7BCA5"/>
<path d="M228.782 84.307L231.174 82.923V75.4165L228.806 76.7771L228.782 84.307Z" fill="#968162"/>
<path d="M226.391 75.4167L228.783 74.0327L231.175 75.4167L228.806 76.7773L226.391 75.4167Z" fill="#8F7B68"/>
<path d="M236.146 80.0379L233.754 78.6539V71.1709L236.169 72.5315L238.538 78.6539L236.146 80.0379Z" fill="#C7BCA5"/>
<path d="M236.146 80.0379L238.537 78.6539V71.1709L236.169 72.5315L236.146 80.0379Z" fill="#968162"/>
<path d="M233.754 71.1711L236.146 69.7871L238.538 71.1711L236.169 72.5317L233.754 71.1711Z" fill="#8F7B68"/>
<path d="M213.914 77.9501L211.522 76.5895V69.083L213.938 70.4436L216.306 76.5895L213.914 77.9501Z" fill="#C7BCA5"/>
<path d="M213.914 77.9501L216.306 76.5895V69.083L213.938 70.4436L213.914 77.9501Z" fill="#968162"/>
<path d="M211.522 69.0832L213.914 67.6992L216.306 69.0832L213.938 70.4438L211.522 69.0832Z" fill="#8F7B68"/>
<path d="M221.254 73.704L218.886 72.32V64.8135L221.301 66.1975L223.646 72.32L221.254 73.704Z" fill="#C7BCA5"/>
<path d="M221.254 73.704L223.646 72.32V64.8135L221.301 66.1975L221.254 73.704Z" fill="#968162"/>
<path d="M218.886 64.8137L221.254 63.4531L223.646 64.8137L221.301 66.1977L218.886 64.8137Z" fill="#8F7B68"/>
<path d="M212.109 24.8419L210.421 23.8567V18.5317L212.133 19.4935L213.821 23.8567L212.109 24.8419Z" fill="#C7BCA5"/>
<path d="M212.109 24.8419L213.821 23.8567V18.5317L212.133 19.4935L212.109 24.8419Z" fill="#968162"/>
<path d="M210.421 18.5316L212.109 17.5464L213.821 18.5316L212.133 19.4934L210.421 18.5316Z" fill="#8F7B68"/>
<path d="M217.339 21.7926L215.65 20.8308V15.4824L217.362 16.4676L219.051 20.8308L217.339 21.7926Z" fill="#C7BCA5"/>
<path d="M217.339 21.7926L219.051 20.8308V15.4824L217.362 16.4676L217.339 21.7926Z" fill="#968162"/>
<path d="M215.65 15.4823L217.339 14.5205L219.051 15.4823L217.362 16.4675L215.65 15.4823Z" fill="#8F7B68"/>
<path d="M201.532 20.338L199.82 19.3528V14.0278L201.556 14.9896L203.221 19.3528L201.532 20.338Z" fill="#C7BCA5"/>
<path d="M201.532 20.338L203.221 19.3528V14.0278L201.556 14.9896L201.532 20.338Z" fill="#968162"/>
<path d="M199.82 14.0277L201.532 13.0425L203.221 14.0277L201.556 14.9895L199.82 14.0277Z" fill="#8F7B68"/>
<path d="M206.762 17.2887L205.073 16.3034V10.9785L206.785 11.9637L208.474 16.3034L206.762 17.2887Z" fill="#C7BCA5"/>
<path d="M206.762 17.2887L208.474 16.3034V10.9785L206.785 11.9637L206.762 17.2887Z" fill="#968162"/>
<path d="M205.073 10.9784L206.762 9.99316L208.474 10.9784L206.785 11.9636L205.073 10.9784Z" fill="#8F7B68"/>
<path d="M168.327 266.551L171 265.003V93.5264L168.303 95.0511L165.677 265.003L168.327 266.551Z" fill="#95A2C0"/>
<path d="M168.327 266.551L165.677 265.003V93.5264L168.303 95.0511L168.327 266.551Z" fill="#94A1BF"/>
<path d="M171 93.5262L168.327 91.978L165.677 93.5262L168.303 95.051L171 93.5262Z" fill="#8491B0"/>
<path d="M183.874 100.892L181.201 99.3672L180.216 99.9771L182.842 101.502L183.874 100.892Z" fill="#8491B0"/>
<path d="M168.632 145.814L170.015 145.016L182.538 152.265L181.178 154.634L168.632 147.409V145.814Z" fill="#A3AFCE"/>
<path d="M168.632 145.813V147.409L181.178 154.634L181.858 153.437L168.632 145.813Z" fill="#94A1BF"/>
<path d="M168.632 170.398L170.015 169.6L182.538 176.825L181.178 179.218L168.632 171.969V170.398Z" fill="#A3AFCE"/>
<path d="M179.981 153.39L180.779 153.085L171.023 170.092L169.827 171.078L178.387 153.39H179.981Z" fill="#7683A1"/>
<path d="M179.982 153.391L179.138 152.218L168.632 170.398L169.828 171.078L179.982 153.391Z" fill="#94A1BF"/>
<path d="M181.271 202.136L182.467 201.456L176.44 185.903L170.695 171.5L169.593 172.063L175.878 188.554C175.878 188.554 175.924 188.46 175.948 188.413L181.271 202.136Z" fill="#7683A1"/>
<path d="M168.632 194.958L170.015 194.184L182.538 201.409L181.178 203.801L168.632 196.553V194.958Z" fill="#A3AFCE"/>
<path d="M168.632 171.969L170.344 172.978L181.412 201.127L180.216 201.831L168.632 171.969Z" fill="#94A1BF"/>
<path d="M168.632 170.397V171.969L181.178 179.218L181.858 178.021L168.632 170.397Z" fill="#94A1BF"/>
<path d="M179.981 202.534L180.779 202.253L171.023 219.236L169.827 220.222L178.598 202.534H179.981Z" fill="#7683A1"/>
<path d="M168.632 194.958V196.553L181.178 203.801L181.858 202.605L168.632 194.958Z" fill="#94A1BF"/>
<path d="M179.982 202.535L179.138 201.362L168.632 219.542L169.828 220.222L179.982 202.535Z" fill="#94A1BF"/>
<path d="M168.632 96.7399L170.015 95.9424L182.538 103.167L181.178 105.56L168.632 98.3116V96.7399Z" fill="#A3AFCE"/>
<path d="M181.271 128.478L182.467 127.798L176.44 112.245L170.695 97.8423L169.593 98.4053L175.878 114.896C175.878 114.896 175.924 114.802 175.948 114.755L181.271 128.478Z" fill="#7683A1"/>
<path d="M168.632 121.3L170.015 120.503L182.538 127.751L181.178 130.144L168.632 122.896V121.3Z" fill="#A3AFCE"/>
<path d="M168.632 98.3115L170.344 99.3202L181.412 127.47L180.216 128.173L168.632 98.3115Z" fill="#94A1BF"/>
<path d="M168.632 96.7397V98.3114L181.178 105.56L181.858 104.364L168.632 96.7397Z" fill="#94A1BF"/>
<path d="M179.981 128.877L180.779 128.596L171.023 145.579L169.827 146.564L178.598 128.877H179.981Z" fill="#7683A1"/>
<path d="M168.632 121.3V122.895L181.178 130.144L181.858 128.948L168.632 121.3Z" fill="#94A1BF"/>
<path d="M179.982 128.877L179.138 127.704L168.632 145.884L169.828 146.564L179.982 128.877Z" fill="#94A1BF"/>
<path d="M168.632 95.0978L170.015 94.3237L182.538 101.549L181.178 103.941L168.632 96.693V95.0978Z" fill="#A3AFCE"/>
<path d="M168.632 95.0981V96.6933L181.178 103.942L181.858 102.745L168.632 95.0981Z" fill="#94A1BF"/>
<path d="M182.936 273.776L183.944 273.213L183.874 100.892L182.842 101.502L180.263 272.251L182.936 273.776Z" fill="#929FBE"/>
<path d="M182.936 273.776L180.263 272.251L180.169 99.9302L182.842 101.502L182.936 273.776Z" fill="#94A1BF"/>
<path d="M166.615 267.231L163.941 265.683V94.2065L166.638 95.7313L169.288 265.683L166.615 267.231Z" fill="#99A6C5"/>
<path d="M166.615 267.231L169.289 265.683L169.265 94.2065L166.639 95.7313L166.615 267.231Z" fill="#93A0BF"/>
<path d="M163.941 94.2064L166.615 92.6582L169.265 94.2064L166.638 95.7312L163.941 94.2064Z" fill="#7E8BAA"/>
<path d="M151.067 101.572L153.741 100.047L154.726 100.657L152.099 102.182L151.067 101.572Z" fill="#7E8BAA"/>
<path d="M166.31 146.494L164.926 145.696L152.403 152.945L153.763 155.314L166.31 148.089V146.494Z" fill="#A7B3D2"/>
<path d="M166.31 146.494V148.089L153.764 155.314L153.084 154.141L166.31 146.494Z" fill="#93A0BF"/>
<path d="M166.31 171.078L164.926 170.28L152.403 177.505L153.763 179.898L166.31 172.673V171.078Z" fill="#A7B3D2"/>
<path d="M154.959 154.071L154.162 153.766L163.918 170.773L165.114 171.758L156.554 154.071H154.959Z" fill="#667291"/>
<path d="M154.96 154.071L155.804 152.898L166.31 171.078L165.114 171.758L154.96 154.071Z" fill="#93A0BF"/>
<path d="M153.67 202.816L152.474 202.136L158.5 186.583L164.246 172.18L165.348 172.743L159.063 189.234C159.063 189.234 159.016 189.14 158.993 189.093L153.67 202.816Z" fill="#667291"/>
<path d="M166.31 195.638L164.926 194.864L152.403 202.089L153.763 204.481L166.31 197.233V195.638Z" fill="#A7B3D2"/>
<path d="M166.31 172.673L164.598 173.658L153.529 201.807L154.725 202.511L166.31 172.673Z" fill="#93A0BF"/>
<path d="M166.31 171.078V172.673L153.764 179.898L153.084 178.701L166.31 171.078Z" fill="#93A0BF"/>
<path d="M154.959 203.215L154.162 202.934L163.918 219.917L165.114 220.902L156.343 203.215H154.959Z" fill="#667291"/>
<path d="M166.31 195.638V197.233L153.764 204.482L153.084 203.285L166.31 195.638Z" fill="#93A0BF"/>
<path d="M154.96 203.215L155.804 202.042L166.31 220.222L165.114 220.902L154.96 203.215Z" fill="#93A0BF"/>
<path d="M166.31 97.4201L164.926 96.6226L152.403 103.848L153.763 106.24L166.31 98.9918V97.4201Z" fill="#A7B3D2"/>
<path d="M153.67 129.159L152.474 128.479L158.5 112.926L164.246 98.5229L165.348 99.0859L159.063 115.577C159.063 115.577 159.016 115.483 158.993 115.436L153.67 129.159Z" fill="#667291"/>
<path d="M166.31 121.981L164.926 121.207L152.403 128.432L153.763 130.824L166.31 123.576V121.981Z" fill="#A7B3D2"/>
<path d="M166.31 98.9917L164.598 100L153.529 128.15L154.725 128.853L166.31 98.9917Z" fill="#93A0BF"/>
<path d="M166.31 97.4204V98.9921L153.764 106.241L153.084 105.044L166.31 97.4204Z" fill="#93A0BF"/>
<path d="M154.959 129.557L154.162 129.276L163.918 146.259L165.114 147.245L156.343 129.557H154.959Z" fill="#667291"/>
<path d="M166.31 121.98V123.576L153.764 130.824L153.084 129.628L166.31 121.98Z" fill="#93A0BF"/>
<path d="M154.96 129.558L155.804 128.385L166.31 146.565L165.114 147.245L154.96 129.558Z" fill="#93A0BF"/>
<path d="M166.31 95.778L164.926 95.0039L152.403 102.229L153.763 104.622L166.31 97.3731V95.778Z" fill="#A7B3D2"/>
<path d="M166.31 95.7783V97.3734L153.764 104.622L153.084 103.426L166.31 95.7783Z" fill="#93A0BF"/>
<path d="M152.192 274.456L154.678 272.931L154.772 100.61L152.099 102.182L152.192 274.456Z" fill="#93A0BF"/>
<path d="M153.482 275.418L156.155 273.894V102.394L153.459 103.918L150.809 273.894L153.482 275.418Z" fill="#C7D3F2"/>
<path d="M153.482 275.418L150.809 273.894L150.832 102.394L153.459 103.918L153.482 275.418Z" fill="#C1CEED"/>
<path d="M156.155 102.393L153.482 100.869L150.832 102.393L153.458 103.918L156.155 102.393Z" fill="#B4C0DF"/>
<path d="M169.029 109.783L166.356 108.234L165.371 108.868L167.998 110.369L169.029 109.783Z" fill="#B4C0DF"/>
<path d="M153.787 154.704L155.147 153.907L167.693 161.132L166.333 163.524L153.787 156.276V154.704Z" fill="#E3EFFF"/>
<path d="M153.787 154.704V156.276L166.333 163.524L167.013 162.328L153.787 154.704Z" fill="#C1CEED"/>
<path d="M153.787 179.264L155.147 178.467L167.693 185.715L166.333 188.108L153.787 180.859V179.264Z" fill="#E3EFFF"/>
<path d="M165.138 162.281L165.935 161.976L156.156 178.983L154.983 179.968L163.543 162.281H165.138Z" fill="#B3C0DF"/>
<path d="M165.137 162.281L164.27 161.084L153.787 179.264L154.983 179.968L165.137 162.281Z" fill="#C1CEED"/>
<path d="M166.427 211.027L167.623 210.346L161.597 194.794L155.851 180.391L154.749 180.954L161.034 197.444C161.034 197.444 161.081 197.351 161.104 197.304L166.427 211.027Z" fill="#B3C0DF"/>
<path d="M153.787 203.848L155.147 203.051L167.693 210.299L166.333 212.668L153.787 205.443V203.848Z" fill="#E3EFFF"/>
<path d="M153.787 180.859L155.499 181.845L166.568 210.017L165.372 210.698L153.787 180.859Z" fill="#C1CEED"/>
<path d="M153.787 179.265V180.86L166.333 188.108L167.013 186.912L153.787 179.265Z" fill="#C1CEED"/>
<path d="M153.787 203.848V205.443L166.333 212.668L167.013 211.472L153.787 203.848Z" fill="#C1CEED"/>
<path d="M153.787 105.607L155.147 104.81L167.693 112.058L166.333 114.451L153.787 107.202V105.607Z" fill="#E3EFFF"/>
<path d="M166.427 137.369L167.623 136.689L161.597 121.136L155.851 106.733L154.749 107.296L161.034 123.787C161.034 123.787 161.081 123.693 161.104 123.646L166.427 137.369Z" fill="#B3C0DF"/>
<path d="M153.787 130.191L155.147 129.393L167.693 136.642L166.333 139.011L153.787 131.786V130.191Z" fill="#E3EFFF"/>
<path d="M153.787 107.202L155.499 108.187L166.568 136.36L165.372 137.04L153.787 107.202Z" fill="#C1CEED"/>
<path d="M153.787 105.607V107.202L166.333 114.451L167.013 113.254L153.787 105.607Z" fill="#C1CEED"/>
<path d="M165.138 137.768L165.935 137.463L156.156 154.47L154.983 155.455L163.73 137.768H165.138Z" fill="#B3C0DF"/>
<path d="M153.787 130.191V131.786L166.333 139.011L167.013 137.815L153.787 130.191Z" fill="#C1CEED"/>
<path d="M165.137 137.768L164.27 136.571L153.787 154.775L154.983 155.455L165.137 137.768Z" fill="#C1CEED"/>
<path d="M153.787 103.988L155.147 103.191L167.693 110.439L166.333 112.809L153.787 105.584V103.988Z" fill="#E3EFFF"/>
<path d="M153.787 103.988V105.583L166.333 112.808L167.013 111.612L153.787 103.988Z" fill="#C1CEED"/>
<path d="M168.092 282.667L169.101 282.08L169.03 109.783L167.999 110.369L165.419 281.118L168.092 282.667Z" fill="#C3D0EF"/>
<path d="M168.092 282.667L165.419 281.118L165.325 108.821L167.999 110.369L168.092 282.667Z" fill="#C1CEED"/>
<path d="M182.514 275.418L179.841 273.894V102.394L182.538 103.918L185.164 273.894L182.514 275.418Z" fill="#CAD6F5"/>
<path d="M182.515 275.418L185.165 273.894V102.394L182.538 103.918L182.515 275.418Z" fill="#C5D1F0"/>
<path d="M179.841 102.393L182.514 100.869L185.164 102.393L182.538 103.918L179.841 102.393Z" fill="#B0BDDB"/>
<path d="M166.967 109.783L169.64 108.234L170.625 108.868L167.999 110.369L166.967 109.783Z" fill="#B0BDDB"/>
<path d="M182.209 154.704L180.825 153.907L168.303 161.132L169.663 163.524L182.209 156.276V154.704Z" fill="#E6F2FF"/>
<path d="M182.21 154.704V156.276L169.663 163.524L168.983 162.328L182.21 154.704Z" fill="#C5D1F0"/>
<path d="M182.209 179.264L180.825 178.467L168.303 185.715L169.663 188.108L182.209 180.859V179.264Z" fill="#E6F2FF"/>
<path d="M170.859 162.281L170.062 161.976L179.817 178.983L181.013 179.968L172.453 162.281H170.859Z" fill="#A2AFCE"/>
<path d="M170.859 162.281L171.704 161.084L182.209 179.264L181.013 179.968L170.859 162.281Z" fill="#C5D1F0"/>
<path d="M169.569 211.027L168.373 210.346L174.4 194.794L180.145 180.391L181.247 180.954L174.963 197.444C174.963 197.444 174.916 197.351 174.892 197.304L169.569 211.027Z" fill="#A2AFCE"/>
<path d="M182.209 203.848L180.825 203.051L168.303 210.299L169.663 212.668L182.209 205.443V203.848Z" fill="#E6F2FF"/>
<path d="M182.209 180.859L180.497 181.845L169.429 210.017L170.601 210.698L182.209 180.859Z" fill="#C5D1F0"/>
<path d="M182.21 179.265V180.86L169.663 188.108L168.983 186.912L182.21 179.265Z" fill="#C5D1F0"/>
<path d="M182.21 203.848V205.443L169.663 212.668L168.983 211.472L182.21 203.848Z" fill="#C5D1F0"/>
<path d="M182.209 105.607L180.825 104.81L168.303 112.058L169.663 114.451L182.209 107.202V105.607Z" fill="#E6F2FF"/>
<path d="M169.569 137.369L168.373 136.689L174.4 121.136L180.145 106.733L181.247 107.296L174.963 123.787C174.963 123.787 174.916 123.693 174.892 123.646L169.569 137.369Z" fill="#A2AFCE"/>
<path d="M182.209 130.191L180.825 129.393L168.303 136.642L169.663 139.011L182.209 131.786V130.191Z" fill="#E6F2FF"/>
<path d="M182.209 107.202L180.497 108.187L169.429 136.36L170.601 137.04L182.209 107.202Z" fill="#C5D1F0"/>
<path d="M182.21 105.607V107.202L169.663 114.451L168.983 113.254L182.21 105.607Z" fill="#C5D1F0"/>
<path d="M170.859 137.768L170.062 137.463L179.817 154.47L181.013 155.455L172.242 137.768H170.859Z" fill="#A2AFCE"/>
<path d="M182.21 130.191V131.786L169.663 139.011L168.983 137.815L182.21 130.191Z" fill="#C5D1F0"/>
<path d="M170.859 137.768L171.704 136.571L182.209 154.775L181.013 155.455L170.859 137.768Z" fill="#C5D1F0"/>
<path d="M182.209 103.988L180.825 103.191L168.303 110.439L169.663 112.809L182.209 105.584V103.988Z" fill="#E6F2FF"/>
<path d="M182.21 103.988V105.583L169.663 112.808L168.983 111.612L182.21 103.988Z" fill="#C5D1F0"/>
<path d="M168.092 282.667L170.578 281.118L170.648 108.821L167.998 110.369L168.092 282.667Z" fill="#C5D1F0"/>
<path d="M120.839 146.963L118.447 145.579V138.096L120.863 139.457L123.208 145.579L120.839 146.963Z" fill="#C7BCA5"/>
<path d="M120.839 146.963L123.207 145.579V138.096L120.862 139.457L120.839 146.963Z" fill="#968162"/>
<path d="M128.179 142.694L125.787 141.31V133.827L128.226 135.187L130.571 141.31L128.179 142.694Z" fill="#C7BCA5"/>
<path d="M128.18 142.694L130.572 141.31V133.827L128.227 135.187L128.18 142.694Z" fill="#968162"/>
<path d="M105.948 140.629L103.556 139.245V131.762L105.971 133.123L108.34 139.245L105.948 140.629Z" fill="#C7BCA5"/>
<path d="M105.948 140.629L108.34 139.245V131.762L105.972 133.123L105.948 140.629Z" fill="#968162"/>
<path d="M113.312 136.36L110.92 134.976V127.493L113.335 128.854L115.704 134.976L113.312 136.36Z" fill="#C7BCA5"/>
<path d="M113.312 136.36L115.703 134.976V127.493L113.335 128.854L113.312 136.36Z" fill="#968162"/>
<path d="M228.173 59.9582L224.913 58.0815L101 129.628L104.26 131.551L227.797 63.9694L228.173 59.9582Z" fill="#E6FAFF"/>
<path d="M228.173 59.958V63.7113L104.26 135.258V131.551L228.173 59.958Z" fill="#C2CBFF"/>
<path d="M101 129.628V133.381L104.26 135.258V131.551L101 129.628Z" fill="#B2C3ED"/>
<path d="M104.189 131.106L102.524 130.144L114.461 103.707L115.727 104.434L105.878 130.144L104.189 131.106Z" fill="#EDFBFF"/>
<path d="M130.056 116.187L128.391 115.201L128.367 97.5376H131.744V115.201L130.056 116.187Z" fill="#CAD7E8"/>
<path d="M130.056 116.187L131.744 115.201V97.5376H130.056V116.187Z" fill="#C2CBFF"/>
<path d="M129.915 98.429L128.461 97.5845L115.704 113.442L107.661 123.646L105.269 129.112L118.87 112.41C118.87 112.41 118.729 112.41 118.682 112.41L129.915 98.4055V98.429Z" fill="#A5B3D4"/>
<path d="M105.784 130.214V127.798L128.766 98.8979L130.22 99.7424L105.784 130.214Z" fill="#C2CBFF"/>
<path d="M132.635 114.732L130.946 113.77V96.083H134.3V113.77L132.635 114.732Z" fill="#CAD7E8"/>
<path d="M158.595 99.7427L156.906 98.7809V81.0938H160.26L160.283 98.7809L158.595 99.7427Z" fill="#CAD7E8"/>
<path d="M184.414 66.9954L182.96 66.1509L170.203 82.0083L158.501 96.8571L159.767 97.6782L173.369 80.9762C173.369 80.9762 173.228 80.9762 173.181 80.9762L184.414 66.9719V66.9954Z" fill="#A5B3D4"/>
<path d="M184.555 84.753L182.866 83.7677V66.104H186.22L186.243 83.7677L184.555 84.753Z" fill="#CAD7E8"/>
<path d="M210.515 68.4969L208.85 67.5351L208.826 53.437L212.203 54.6803V67.5351L210.515 68.4969Z" fill="#CAD7E8"/>
<path d="M219.825 57.5419C219.215 57.5419 218.629 57.4246 218.183 57.0962L210.444 66.9016L211.711 67.7226L219.871 57.7061C219.871 57.7061 219.848 57.6123 219.825 57.5653V57.5419Z" fill="#A5B3D4"/>
<path d="M219.825 57.5186C219.637 57.5186 219.449 57.5186 219.285 57.5186L212.227 66.4091V68.8252L220.598 58.3865C220.247 58.1988 219.965 57.9173 219.848 57.542L219.825 57.5186Z" fill="#C2CBFF"/>
<path d="M210.515 69.7401L212.203 68.7783V54.6802H210.515V69.7401Z" fill="#C2CBFF"/>
<path d="M225.03 61.4124L227.118 60.1925L207.161 51.5366V55.2899L225.03 61.4124Z" fill="#C2CBFF"/>
<path d="M185.633 68.1212L184.836 67.4644L208.756 67.4175L210.514 68.0743L186.477 69.5991L185.633 68.1212Z" fill="#A5B3D4"/>
<path d="M185.633 68.1216L184.906 69.7402H210.514V68.0747L185.633 68.1216Z" fill="#C2CBFF"/>
<path d="M184.555 84.753L186.243 83.7677L186.22 66.104H184.555V84.753Z" fill="#C2CBFF"/>
<path d="M160.283 98.781V96.3649L183.265 67.4648L184.719 68.3093L160.283 98.781Z" fill="#C2CBFF"/>
<path d="M158.595 99.7427L160.283 98.7809L160.26 81.0938H158.595V99.7427Z" fill="#C2CBFF"/>
<path d="M133.713 98.1242L132.916 97.4439L156.836 97.397L158.594 98.0538L134.558 99.5785L133.713 98.1242Z" fill="#A5B3D4"/>
<path d="M132.635 114.732L134.3 113.77V96.083H132.635V114.732Z" fill="#C2CBFF"/>
<path d="M133.713 98.1241L132.986 99.7427H158.594V98.0537L133.713 98.1241Z" fill="#C2CBFF"/>
<path d="M104.189 131.106L105.878 130.144L115.704 108.187L115.727 104.434L104.189 131.106Z" fill="#C2CBFF"/>
<path d="M207.161 51.5368L205.942 50.8096L114.461 103.707L115.727 104.434L207.161 55.29V51.5368Z" fill="#DBF1FF"/>
<path d="M207.161 51.5366V55.2899L115.704 108.187L115.728 104.434L207.161 51.5366Z" fill="#C2CBFF"/>
<path d="M205.941 50.8096L207.161 51.5368L227.117 60.1927L225.03 59.0198L205.941 50.8096Z" fill="#A5B3D4"/>
<path d="M127.663 114.474L115.703 107.437V105.185L127.663 112.245V114.474Z" fill="#B2C3ED"/>
<path d="M127.663 112.245L115.703 105.184L117.368 104.223L129.351 111.283L127.663 112.245Z" fill="#DBF1FF"/>
<path d="M147.901 102.721L135.941 95.6606V93.4087L147.901 100.469V102.721Z" fill="#B2C3ED"/>
<path d="M147.901 100.469L135.941 93.4085L137.606 92.4468L149.566 99.5076L147.901 100.469Z" fill="#DBF1FF"/>
<path d="M161.831 94.6521L149.848 87.5913V85.3394L161.831 92.4001V94.6521Z" fill="#B2C3ED"/>
<path d="M161.831 92.4L149.848 85.3392L151.513 84.3774L163.496 91.4382L161.831 92.4Z" fill="#DBF1FF"/>
<path d="M175.736 86.5827L163.776 79.5219V77.2935L175.736 84.3308V86.5827Z" fill="#B2C3ED"/>
<path d="M175.736 84.3307L163.776 77.2933L165.441 76.3315L177.401 83.3689L175.736 84.3307Z" fill="#DBF1FF"/>
<path d="M189.666 78.5134L177.683 71.4761V69.2241L189.666 76.2849V78.5134Z" fill="#B2C3ED"/>
<path d="M189.666 76.2848L177.683 69.224L179.348 68.2622L191.331 75.323L189.666 76.2848Z" fill="#DBF1FF"/>
<path d="M203.572 70.4436L191.612 63.4062V61.1543L203.572 68.2151V70.4436Z" fill="#B2C3ED"/>
<path d="M203.572 68.2149L191.612 61.1542L193.277 60.1924L205.237 67.2532L203.572 68.2149Z" fill="#DBF1FF"/>
<path d="M217.502 62.3977L205.519 55.3369V53.085L217.502 60.1458V62.3977Z" fill="#B2C3ED"/>
<path d="M217.502 60.1456L205.519 53.0848L207.184 52.123L219.167 59.1838L217.502 60.1456Z" fill="#DBF1FF"/>
<path d="M241 67.3708L237.74 65.4941L113.827 137.04L117.087 138.964L241 71.124V67.3708Z" fill="#E6FAFF"/>
<path d="M241 67.3706V71.1239L117.087 142.67V138.964L241 67.3706Z" fill="#C2CBFF"/>
<path d="M113.827 137.041V140.794L117.087 142.67V138.964L113.827 137.041Z" fill="#B2C3ED"/>
<path d="M117.017 138.518L115.352 137.557L127.288 111.12L128.554 111.823L118.705 137.557L117.017 138.518Z" fill="#EDFBFF"/>
<path d="M142.883 123.599L141.218 122.614L141.194 104.95H144.548L144.571 122.614L142.883 123.599Z" fill="#CAD7E8"/>
<path d="M142.883 123.599L144.571 122.614L144.548 104.95H142.883V123.599Z" fill="#C2CBFF"/>
<path d="M142.742 105.842L141.288 104.997L128.531 120.855L120.488 131.059L118.096 136.524L131.697 119.822C131.697 119.822 131.556 119.822 131.509 119.822L142.742 105.818V105.842Z" fill="#A5B3D4"/>
<path d="M118.611 137.603V135.211L141.593 106.311L143.047 107.155L118.611 137.603Z" fill="#C2CBFF"/>
<path d="M145.462 122.145L143.773 121.183V103.496H147.127V121.183L145.462 122.145Z" fill="#CAD7E8"/>
<path d="M171.422 107.155L169.733 106.17V88.5063H173.087V106.17L171.422 107.155Z" fill="#CAD7E8"/>
<path d="M197.241 74.408L195.787 73.5635L183.03 89.4209L171.328 104.27L172.594 105.091L186.196 88.3888C186.196 88.3888 186.055 88.3888 186.008 88.3888L197.241 74.3845V74.408Z" fill="#A5B3D4"/>
<path d="M197.382 92.1656L195.693 91.1803V73.5166H199.047L199.07 91.1803L197.382 92.1656Z" fill="#CAD7E8"/>
<path d="M223.342 75.9095L221.677 74.9477L221.653 60.8496L225.03 62.0929V74.9477L223.342 75.9095Z" fill="#CAD7E8"/>
<path d="M232.652 64.9311C232.042 64.9311 231.456 64.8138 231.01 64.4854L223.271 74.2907L224.538 75.1117L232.699 65.0953C232.699 65.0953 232.675 65.0014 232.652 64.9545V64.9311Z" fill="#A5B3D4"/>
<path d="M232.652 64.9312C232.464 64.9312 232.276 64.9312 232.112 64.9312L225.054 73.8217V76.2378L233.426 65.7991C233.074 65.6114 232.792 65.3299 232.675 64.9546L232.652 64.9312Z" fill="#C2CBFF"/>
<path d="M223.342 77.1527L225.03 76.1909V62.0928H223.342V77.1527Z" fill="#C2CBFF"/>
<path d="M237.858 68.8015L239.945 67.6051L219.988 58.9492V62.7025L237.858 68.8015Z" fill="#C2CBFF"/>
<path d="M198.46 75.5338L197.663 74.877L221.583 74.8301L223.341 75.4869L199.305 77.0117L198.46 75.5338Z" fill="#A5B3D4"/>
<path d="M198.46 75.5342L197.733 77.1528H223.341V75.4873L198.46 75.5342Z" fill="#C2CBFF"/>
<path d="M197.382 92.1656L199.07 91.1803L199.047 73.5166H197.382V92.1656Z" fill="#C2CBFF"/>
<path d="M173.087 106.17L173.11 103.777L196.092 74.8774L197.546 75.7219L173.087 106.17Z" fill="#C2CBFF"/>
<path d="M171.422 107.155L173.087 106.17V88.5063H171.422V107.155Z" fill="#C2CBFF"/>
<path d="M146.54 105.513L145.743 104.856L169.663 104.81L171.422 105.466L147.385 106.991L146.54 105.513Z" fill="#A5B3D4"/>
<path d="M145.462 122.145L147.127 121.183V103.496H145.462V122.145Z" fill="#C2CBFF"/>
<path d="M146.54 105.513L145.813 107.155H171.422V105.466L146.54 105.513Z" fill="#C2CBFF"/>
<path d="M117.017 138.518L118.705 137.556L128.531 115.6L128.554 111.823L117.017 138.518Z" fill="#C2CBFF"/>
<path d="M219.988 58.9494L218.769 58.2222L127.288 111.119L128.554 111.823L219.988 62.7026V58.9494Z" fill="#DBF1FF"/>
<path d="M219.989 58.9492V62.7025L128.531 115.6L128.555 111.823L219.989 58.9492Z" fill="#C2CBFF"/>
<path d="M218.769 58.2222L219.988 58.9494L239.944 67.6053L237.857 66.4324L218.769 58.2222Z" fill="#A5B3D4"/>
<path d="M168.256 75.2995L170.414 74.0563V31.0347L168.233 32.2779L166.122 74.0563L168.256 75.2995Z" fill="#95A2C0"/>
<path d="M168.256 75.2995L166.122 74.0563V31.0347L168.233 32.2779L168.256 75.2995Z" fill="#94A1BF"/>
<path d="M170.414 31.0348L168.28 29.7915L166.122 31.0348L168.233 32.278L170.414 31.0348Z" fill="#8491B0"/>
<path d="M180.802 36.9933L178.645 35.75L177.848 36.2426L179.958 37.4859L180.802 36.9933Z" fill="#8491B0"/>
<path d="M168.514 33.1226L169.616 32.4658L179.723 38.3068L178.621 40.2303L168.514 34.3894V33.1226Z" fill="#A3AFCE"/>
<path d="M178.692 58.7147L179.653 58.1517L174.799 45.6253L170.179 34.0137L169.288 34.4594L174.353 47.7599C174.353 47.7599 174.4 47.6896 174.4 47.6427L178.692 58.6913V58.7147Z" fill="#7683A1"/>
<path d="M168.514 52.921L169.616 52.2876L179.723 58.1286L178.621 60.0521L168.514 54.2111V52.921Z" fill="#A3AFCE"/>
<path d="M168.514 34.3892L169.897 35.1867L178.808 57.8939L177.847 58.4569L168.514 34.3892Z" fill="#94A1BF"/>
<path d="M168.514 33.1226V34.3893L178.621 40.2303L179.16 39.2685L168.514 33.1226Z" fill="#94A1BF"/>
<path d="M168.514 72.7427L169.616 72.1094L179.723 77.9269L178.621 79.8505L168.514 74.0329V72.7427Z" fill="#A3AFCE"/>
<path d="M168.514 72.7427V74.0329L178.621 79.8504L179.16 78.8886L168.514 72.7427Z" fill="#94A1BF"/>
<path d="M177.66 59.0432L178.293 58.7852L170.437 72.508L169.476 73.3055L176.534 59.0432H177.66Z" fill="#7683A1"/>
<path d="M168.514 52.9209V54.2111L178.621 60.0521L179.16 59.0903L168.514 52.9209Z" fill="#94A1BF"/>
<path d="M177.659 59.0433L176.979 58.0815L168.514 72.7427L169.475 73.3057L177.659 59.0433Z" fill="#94A1BF"/>
<path d="M180.029 81.1407L180.873 80.6716L180.802 36.9932L179.958 37.4858L177.895 79.8975L180.029 81.1407Z" fill="#929FBE"/>
<path d="M180.029 81.1404L177.895 79.8972L177.824 36.2188L179.958 37.4855L180.029 81.1404Z" fill="#94A1BF"/>
<path d="M166.872 75.8391L164.738 74.6193L164.715 31.5977L166.896 32.8175L169.03 74.6193L166.872 75.8391Z" fill="#99A6C5"/>
<path d="M166.872 75.8391L169.03 74.6193V31.5977L166.896 32.8175L166.872 75.8391Z" fill="#93A0BF"/>
<path d="M164.715 31.5978L166.872 30.3545L169.03 31.5978L166.896 32.8176L164.715 31.5978Z" fill="#7E8BAA"/>
<path d="M154.35 37.5328L156.507 36.2896L157.304 36.8056L155.17 38.0254L154.35 37.5328Z" fill="#7E8BAA"/>
<path d="M166.638 33.6622L165.536 33.0288L155.429 38.8463L156.531 40.7699L166.638 34.9523V33.6622Z" fill="#A7B3D2"/>
<path d="M156.437 59.2543L155.476 58.6913L160.33 46.1648L164.95 34.5532L165.841 34.9989L160.775 48.2995C160.775 48.2995 160.729 48.2291 160.729 48.1822L156.437 59.2308V59.2543Z" fill="#667291"/>
<path d="M166.638 53.484L165.536 52.8271L155.429 58.6681L156.531 60.5917L166.638 54.7507V53.484Z" fill="#A7B3D2"/>
<path d="M166.638 34.9521L165.254 35.7497L156.319 58.4569L157.281 58.9964L166.638 34.9521Z" fill="#93A0BF"/>
<path d="M166.638 33.6621V34.9523L156.531 40.7698L155.968 39.8081L166.638 33.6621Z" fill="#93A0BF"/>
<path d="M166.638 73.2823L165.536 72.6489L155.429 78.4899L156.531 80.4135L166.638 74.5725V73.2823Z" fill="#A7B3D2"/>
<path d="M166.638 73.2822V74.5724L156.531 80.4134L155.968 79.4516L166.638 73.2822Z" fill="#93A0BF"/>
<path d="M157.493 59.5827L156.836 59.3481L164.715 73.0475L165.677 73.8451L158.618 59.5827H157.493Z" fill="#667291"/>
<path d="M166.638 53.4839V54.7506L156.531 60.5916L155.968 59.6298L166.638 53.4839Z" fill="#93A0BF"/>
<path d="M157.492 59.5829L158.172 58.6211L166.638 73.2822L165.676 73.8452L157.492 59.5829Z" fill="#93A0BF"/>
<path d="M155.241 81.68L157.258 80.4367L157.328 36.7583L155.171 38.025L155.241 81.68Z" fill="#93A0BF"/>
<path d="M156.296 82.4543L158.43 81.211L158.454 38.2129L156.273 39.4327L154.139 81.211L156.296 82.4543Z" fill="#C7D3F2"/>
<path d="M156.296 82.4543L154.139 81.211V38.2129L156.273 39.4327L156.296 82.4543Z" fill="#C1CEED"/>
<path d="M158.454 38.213L156.296 36.9697L154.139 38.213L156.273 39.4328L158.454 38.213Z" fill="#B4C0DF"/>
<path d="M168.819 44.148L166.662 42.9048L165.864 43.4209L167.998 44.6407L168.819 44.148Z" fill="#B4C0DF"/>
<path d="M156.53 40.2769L157.656 39.6201L167.763 45.4611L166.637 47.3847L156.53 41.5437V40.2769Z" fill="#E3EFFF"/>
<path d="M166.732 65.8695L167.693 65.3065L162.839 52.7801L158.219 41.1685L157.328 41.6142L162.393 54.9147C162.393 54.9147 162.44 54.8444 162.44 54.7974L166.732 65.8461V65.8695Z" fill="#B3C0DF"/>
<path d="M156.53 60.0757L157.656 59.4424L167.763 65.2834L166.637 67.2069L156.53 61.3659V60.0757Z" fill="#E3EFFF"/>
<path d="M156.53 41.5439L157.914 42.3415L166.849 65.0487L165.887 65.6116L156.53 41.5439Z" fill="#C1CEED"/>
<path d="M156.53 40.2773V41.5441L166.637 47.3851L167.2 46.4233L156.53 40.2773Z" fill="#C1CEED"/>
<path d="M156.53 79.8975L157.656 79.2642L167.763 85.1051L166.637 87.0287L156.53 81.1877V79.8975Z" fill="#E3EFFF"/>
<path d="M156.53 79.8975V81.1876L166.637 87.0286L167.2 86.0669L156.53 79.8975Z" fill="#C1CEED"/>
<path d="M165.676 66.198L166.333 65.9634L158.454 79.6627L157.492 80.4603L164.574 66.198H165.676Z" fill="#B3C0DF"/>
<path d="M156.53 60.0757V61.3659L166.637 67.2069L167.2 66.2451L156.53 60.0757Z" fill="#C1CEED"/>
<path d="M165.676 66.1981L164.996 65.2363L156.53 79.8975L157.492 80.4604L165.676 66.1981Z" fill="#C1CEED"/>
<path d="M168.069 88.295L168.889 87.8259L168.819 44.1475L167.998 44.6401L165.911 87.0518L168.069 88.295Z" fill="#C3D0EF"/>
<path d="M168.069 88.2952L165.911 87.052L165.841 43.3735L167.998 44.6403L168.069 88.2952Z" fill="#C1CEED"/>
<path d="M179.699 82.4543L177.542 81.211V38.2129L179.723 39.4327L181.833 81.211L179.699 82.4543Z" fill="#CAD6F5"/>
<path d="M179.699 82.4543L181.833 81.211V38.2129L179.723 39.4327L179.699 82.4543Z" fill="#C5D1F0"/>
<path d="M177.542 38.213L179.699 36.9697L181.833 38.213L179.723 39.4328L177.542 38.213Z" fill="#B0BDDB"/>
<path d="M167.177 44.148L169.311 42.9048L170.108 43.4209L167.998 44.6407L167.177 44.148Z" fill="#B0BDDB"/>
<path d="M179.465 40.2769L178.34 39.6201L168.232 45.4611L169.335 47.3847L179.465 41.5437V40.2769Z" fill="#E6F2FF"/>
<path d="M169.264 65.8695L168.303 65.3065L173.157 52.7801L177.777 41.1685L178.668 41.6142L173.603 54.9147C173.603 54.9147 173.556 54.8444 173.556 54.7974L169.264 65.8461V65.8695Z" fill="#A2AFCE"/>
<path d="M179.465 60.0757L178.34 59.4424L168.232 65.2834L169.335 67.2069L179.465 61.3659V60.0757Z" fill="#E6F2FF"/>
<path d="M179.466 41.5439L178.082 42.3415L169.147 65.0487L170.109 65.6116L179.466 41.5439Z" fill="#C5D1F0"/>
<path d="M179.465 40.2773V41.5441L169.334 47.3851L168.795 46.4233L179.465 40.2773Z" fill="#C5D1F0"/>
<path d="M179.465 79.8975L178.34 79.2642L168.232 85.1051L169.335 87.0287L179.465 81.1877V79.8975Z" fill="#E6F2FF"/>
<path d="M179.465 79.8975V81.1876L169.334 87.0286L168.795 86.0669L179.465 79.8975Z" fill="#C5D1F0"/>
<path d="M170.296 66.198L169.663 65.9634L177.542 79.6627L178.504 80.4603L171.422 66.198H170.296Z" fill="#A2AFCE"/>
<path d="M179.465 60.0757V61.3659L169.334 67.2069L168.795 66.2451L179.465 60.0757Z" fill="#C5D1F0"/>
<path d="M170.296 66.1981L170.999 65.2363L179.465 79.8975L178.504 80.4604L170.296 66.1981Z" fill="#C5D1F0"/>
<path d="M168.068 88.2952L170.062 87.052L170.132 43.3735L167.998 44.6403L168.068 88.2952Z" fill="#C5D1F0"/>
<path d="M135.332 69.4117L133.62 68.4265V63.1016L135.355 64.0633L137.02 68.4265L135.332 69.4117Z" fill="#C7BCA5"/>
<path d="M135.332 69.4117L137.02 68.4265V63.1016L135.355 64.0633L135.332 69.4117Z" fill="#968162"/>
<path d="M133.62 63.1014L135.332 62.1162L137.02 63.1014L135.355 64.0632L133.62 63.1014Z" fill="#8F7B68"/>
<path d="M140.561 66.3624L138.873 65.4006V60.0522L140.585 61.0375L142.273 65.4006L140.561 66.3624Z" fill="#C7BCA5"/>
<path d="M140.562 66.3624L142.273 65.4006V60.0522L140.585 61.0375L140.562 66.3624Z" fill="#968162"/>
<path d="M138.873 60.0521L140.561 59.0903L142.273 60.0521L140.585 61.0373L138.873 60.0521Z" fill="#8F7B68"/>
<path d="M124.756 64.9078L123.044 63.9226V58.5977L124.779 59.5594L126.444 63.9226L124.756 64.9078Z" fill="#C7BCA5"/>
<path d="M124.756 64.9078L126.444 63.9226V58.5977L124.779 59.5594L124.756 64.9078Z" fill="#968162"/>
<path d="M123.044 58.5975L124.756 57.6123L126.444 58.5975L124.779 59.5593L123.044 58.5975Z" fill="#8F7B68"/>
<path d="M129.985 61.8585L128.273 60.8967V55.5483L130.009 56.5336L131.674 60.8967L129.985 61.8585Z" fill="#C7BCA5"/>
<path d="M129.985 61.8585L131.674 60.8967V55.5483L130.009 56.5336L129.985 61.8585Z" fill="#968162"/>
<path d="M128.273 55.5482L129.985 54.5864L131.674 55.5482L130.009 56.5334L128.273 55.5482Z" fill="#8F7B68"/>
<path d="M213.024 6.73215L210.632 5.34814L119.55 57.9405L121.918 59.3714L212.766 9.68784L213.024 6.73215Z" fill="#E6FAFF"/>
<path d="M213.023 6.73193V9.49995L121.918 62.0923V59.3712L213.023 6.73193Z" fill="#C2CBFF"/>
<path d="M119.55 57.9404V60.7084L121.918 62.0925V59.3714L119.55 57.9404Z" fill="#B2C3ED"/>
<path d="M121.895 59.0433L120.652 58.3396L129.446 38.8931L130.361 39.4326L123.115 58.3396L121.895 59.0433Z" fill="#EDFBFF"/>
<path d="M140.89 48.0651L139.671 47.3613V34.3657H142.133V47.3613L140.89 48.0651Z" fill="#CAD7E8"/>
<path d="M140.891 48.0651L142.134 47.3613V34.3657H140.891V48.0651Z" fill="#C2CBFF"/>
<path d="M140.796 35.0225L139.718 34.4126L130.337 46.0711L124.428 53.5776L122.669 57.5889L132.659 45.3205C132.659 45.3205 132.565 45.3205 132.518 45.3205L140.773 35.0225H140.796Z" fill="#A5B3D4"/>
<path d="M123.044 58.3632V56.6038L139.952 35.3511L141.031 35.9844L123.044 58.3632Z" fill="#C2CBFF"/>
<path d="M142.79 47.0094L141.547 46.2822V33.2866H144.033V46.2822L142.79 47.0094Z" fill="#CAD7E8"/>
<path d="M161.879 35.984L160.636 35.2568V22.2847H163.098L163.122 35.2568L161.879 35.984Z" fill="#CAD7E8"/>
<path d="M180.874 11.9165L179.795 11.3066L170.415 22.9652L161.809 33.8965L162.747 34.5064L172.737 22.2145C172.737 22.2145 172.643 22.2145 172.596 22.2145L180.85 11.9165H180.874Z" fill="#A5B3D4"/>
<path d="M180.967 24.9591L179.725 24.2319V11.2598H182.187L182.21 24.2319L180.967 24.9591Z" fill="#CAD7E8"/>
<path d="M200.056 13.0189L198.813 12.2917V1.94678L201.276 2.86163L201.299 12.2917L200.056 13.0189Z" fill="#CAD7E8"/>
<path d="M206.903 4.9495C206.458 4.9495 206.036 4.85567 205.684 4.62109L200.009 11.8461L200.947 12.456L206.95 5.09025C206.95 5.09025 206.927 5.01988 206.903 4.97296V4.9495Z" fill="#A5B3D4"/>
<path d="M206.88 4.92627C206.739 4.92627 206.599 4.92627 206.481 4.92627L201.275 11.4475V13.2303L207.419 5.55963C207.161 5.41888 206.95 5.20776 206.857 4.94973L206.88 4.92627Z" fill="#C2CBFF"/>
<path d="M200.056 13.9339L201.299 13.2067L201.275 2.86182H200.056V13.9339Z" fill="#C2CBFF"/>
<path d="M210.726 7.78801L212.25 6.89661L197.594 0.539551V3.30757L210.726 7.78801Z" fill="#C2CBFF"/>
<path d="M181.765 12.7378L181.179 12.2451L198.767 12.2217L200.056 12.6908L182.375 13.8168L181.765 12.7378Z" fill="#A5B3D4"/>
<path d="M181.765 12.7373L181.226 13.9337H200.056V12.6904L181.765 12.7373Z" fill="#C2CBFF"/>
<path d="M180.967 24.9591L182.21 24.2319L182.186 11.2598H180.967V24.9591Z" fill="#C2CBFF"/>
<path d="M163.121 35.2572V33.4979L180.029 12.2451L181.084 12.8785L163.121 35.2572Z" fill="#C2CBFF"/>
<path d="M161.879 35.984L163.122 35.2568L163.098 22.2847H161.879V35.984Z" fill="#C2CBFF"/>
<path d="M143.587 34.7881L143.001 34.2954L160.589 34.2485L161.879 34.7411L144.197 35.8671L143.587 34.7881Z" fill="#A5B3D4"/>
<path d="M142.79 47.0094L144.033 46.2822V33.2866H142.79V47.0094Z" fill="#C2CBFF"/>
<path d="M143.587 34.7881L143.048 35.9845H161.879V34.7412L143.587 34.7881Z" fill="#C2CBFF"/>
<path d="M121.896 59.0433L123.115 58.3396L130.338 42.2006L130.361 39.4326L121.896 59.0433Z" fill="#C2CBFF"/>
<path d="M197.594 0.539529L196.679 0L129.446 38.893L130.361 39.4326L197.594 3.30755V0.539529Z" fill="#DBF1FF"/>
<path d="M197.594 0.539551V3.30757L130.338 42.2006L130.361 39.4326L197.594 0.539551Z" fill="#C2CBFF"/>
<path d="M196.679 0L197.593 0.539529L212.25 6.89659L210.726 6.05211L196.679 0Z" fill="#A5B3D4"/>
<path d="M139.154 46.8218L130.337 41.6377V39.9722L139.154 45.1563V46.8218Z" fill="#B2C3ED"/>
<path d="M139.154 45.1565L130.337 39.9723L131.58 39.2686L140.374 44.4527L139.154 45.1565Z" fill="#DBF1FF"/>
<path d="M154.022 38.1661L145.229 32.9819V31.3164L154.022 36.524V38.1661Z" fill="#B2C3ED"/>
<path d="M154.022 36.5242L145.229 31.3165L146.448 30.6128L155.242 35.797L154.022 36.5242Z" fill="#DBF1FF"/>
<path d="M164.246 32.231L155.452 27.0468V25.4048L164.246 30.589V32.231Z" fill="#B2C3ED"/>
<path d="M164.246 30.5891L155.452 25.4049L156.672 24.7012L165.489 29.8853L164.246 30.5891Z" fill="#DBF1FF"/>
<path d="M174.494 26.2964L165.677 21.1123V19.4702L174.494 24.6544V26.2964Z" fill="#B2C3ED"/>
<path d="M174.494 24.6545L165.677 19.4703L166.92 18.7666L175.714 23.9508L174.494 24.6545Z" fill="#DBF1FF"/>
<path d="M184.719 20.3848L175.925 15.2007V13.5352L184.719 18.7193V20.3848Z" fill="#B2C3ED"/>
<path d="M184.719 18.7195L175.925 13.5353L177.144 12.8315L185.938 18.0157L184.719 18.7195Z" fill="#DBF1FF"/>
<path d="M194.943 14.4498L186.149 9.26558V7.62354L194.943 12.8077V14.4498Z" fill="#B2C3ED"/>
<path d="M194.943 12.8078L186.149 7.62368L187.369 6.89648L196.186 12.1041L194.943 12.8078Z" fill="#DBF1FF"/>
<path d="M205.191 8.51518L196.374 3.33101V1.68896L205.191 6.87314V8.51518Z" fill="#B2C3ED"/>
<path d="M205.191 6.87326L196.374 1.68909L197.617 0.985352L206.411 6.16952L205.191 6.87326Z" fill="#DBF1FF"/>
<path d="M222.451 12.1745L220.082 10.7905L128.977 63.3829L131.369 64.8138L222.451 14.9426V12.1745Z" fill="#E6FAFF"/>
<path d="M222.45 12.1743V14.9423L131.368 67.5347V64.8136L222.45 12.1743Z" fill="#C2CBFF"/>
<path d="M128.977 63.3828V66.1508L131.369 67.5348V64.8137L128.977 63.3828Z" fill="#B2C3ED"/>
<path d="M131.322 64.4857L130.079 63.782L138.873 44.3354L139.788 44.875L132.541 63.782L131.322 64.4857Z" fill="#EDFBFF"/>
<path d="M150.341 53.5075L149.098 52.8037V39.8081H151.56V52.8037L150.341 53.5075Z" fill="#CAD7E8"/>
<path d="M150.341 53.5075L151.56 52.8037V39.8081H150.317L150.341 53.5075Z" fill="#C2CBFF"/>
<path d="M150.223 40.4649L149.144 39.855L139.764 51.5135L133.854 59.02L132.096 63.0313L142.086 50.7394C142.086 50.7394 141.992 50.7394 141.945 50.7394L150.2 40.4414L150.223 40.4649Z" fill="#A5B3D4"/>
<path d="M132.471 63.829V62.0462L149.379 40.8169L150.457 41.4268L132.471 63.829Z" fill="#C2CBFF"/>
<path d="M152.217 52.4518L150.997 51.7246L150.974 38.7524H153.459V51.7246L152.217 52.4518Z" fill="#CAD7E8"/>
<path d="M171.305 41.4264L170.062 40.7227V27.7271H172.548V40.7227L171.305 41.4264Z" fill="#CAD7E8"/>
<path d="M190.301 17.3589L189.222 16.749L179.842 28.4075L171.235 39.3389L172.173 39.9488L182.163 27.6569C182.163 27.6569 182.07 27.6569 182.023 27.6569L190.277 17.3589H190.301Z" fill="#A5B3D4"/>
<path d="M190.394 30.4015L189.151 29.6978V16.7021H191.637V29.6978L190.394 30.4015Z" fill="#CAD7E8"/>
<path d="M209.483 18.4612L208.24 17.7575V7.38916L210.703 8.30401L210.726 17.7575L209.483 18.4612Z" fill="#CAD7E8"/>
<path d="M216.33 10.3919C215.884 10.3919 215.462 10.2981 215.111 10.0635L209.412 17.2885L210.35 17.8984L216.353 10.5326C216.353 10.5326 216.33 10.4623 216.307 10.4153L216.33 10.3919Z" fill="#A5B3D4"/>
<path d="M216.307 10.3687C216.166 10.3687 216.025 10.3687 215.908 10.3687L210.702 16.8899V18.6727L216.846 11.002C216.588 10.8613 216.377 10.6501 216.283 10.3921L216.307 10.3687Z" fill="#C2CBFF"/>
<path d="M209.482 19.3763L210.725 18.6725L210.702 8.3042H209.482V19.3763Z" fill="#C2CBFF"/>
<path d="M220.153 13.2304L221.701 12.339L207.021 5.98193V8.74995L220.153 13.2304Z" fill="#C2CBFF"/>
<path d="M191.192 18.1801L190.605 17.6875L208.193 17.6641L209.483 18.1332L191.825 19.2592L191.192 18.1801Z" fill="#A5B3D4"/>
<path d="M191.192 18.1797L190.652 19.3761H209.483V18.1328L191.192 18.1797Z" fill="#C2CBFF"/>
<path d="M190.394 30.4015L191.636 29.6978V16.7021H190.394V30.4015Z" fill="#C2CBFF"/>
<path d="M172.548 40.7231V38.9403L189.456 17.6875L190.511 18.3209L172.548 40.7231Z" fill="#C2CBFF"/>
<path d="M171.306 41.4264L172.549 40.7227V27.7271H171.306V41.4264Z" fill="#C2CBFF"/>
<path d="M153.014 40.2304L152.428 39.7378L170.016 39.7144L171.305 40.1835L153.647 41.3095L153.014 40.2304Z" fill="#A5B3D4"/>
<path d="M152.217 52.4518L153.46 51.7246V38.7524H152.217V52.4518Z" fill="#C2CBFF"/>
<path d="M153.014 40.2305L152.475 41.4269H171.305V40.1836L153.014 40.2305Z" fill="#C2CBFF"/>
<path d="M131.322 64.4857L132.542 63.782L139.764 47.643L139.788 44.875L131.322 64.4857Z" fill="#C2CBFF"/>
<path d="M207.02 5.98191L206.106 5.44238L138.873 44.3354L139.788 44.8749L207.02 8.74993V5.98191Z" fill="#DBF1FF"/>
<path d="M207.021 5.98193V8.74995L139.765 47.643L139.788 44.875L207.021 5.98193Z" fill="#C2CBFF"/>
<path d="M206.105 5.44238L207.02 5.98191L221.7 12.339L220.152 11.4945L206.105 5.44238Z" fill="#A5B3D4"/>
</g>
<defs>
<clipPath id="clip0_2007_5">
<rect width="140" height="185" fill="white" transform="translate(0 24)"/>
</clipPath>
<clipPath id="clip1_2007_5">
<rect width="140" height="209" fill="white" transform="translate(101)"/>
</clipPath>
</defs>
</svg>
