<svg width="291" height="201" viewBox="0 0 291 201" fill="none" xmlns="http://www.w3.org/2000/svg">
<g clip-path="url(#clip0_476_20550)">
<path d="M0 149.267L0.0193213 156.425L107.592 220L107.57 212.844L0 149.267Z" fill="#6C8144"/>
<path d="M107.57 212.844L107.592 220L291 123.146L290.979 115.988L107.57 212.844Z" fill="#9BB962"/>
<path d="M0 149.267L107.57 212.844L290.979 115.988L183.408 52.4136L0 149.267Z" fill="#ADCF6D"/>
<path d="M85.2927 75.0718C81.9866 75.0718 78.893 74.6346 75.9841 73.7625C75.4646 73.6075 74.9429 73.4352 74.4363 73.2672C72.8326 72.7375 71.317 72.2379 69.7197 72.1604L69.7691 71.144C71.5037 71.228 73.1546 71.7728 74.7518 72.3004C75.2499 72.464 75.7673 72.6341 76.2718 72.787C84.2687 75.1838 93.7747 74.1824 105.327 69.7249C109.288 68.196 114.373 65.9952 118.598 62.5131C120.18 61.2103 121.651 59.718 123.074 58.2774C124.852 56.4772 126.733 54.7243 128.551 53.0296C130.361 51.3435 132.235 49.597 133.997 47.8119L134.199 47.6073L134.478 47.6762C134.701 47.7322 134.89 47.8356 135.056 47.9282C135.148 47.9798 135.29 48.0574 135.339 48.0617C136.005 48.0617 136.823 48.1629 137.907 48.3782C143.353 48.8089 149.242 49.0479 155.388 47.9131L155.48 47.9045H156.206C165.787 45.7726 174.128 40.893 182.447 32.5486C185.317 29.508 187.431 26.3812 188.898 22.9961L189.829 23.4009C188.314 26.8981 186.137 30.1217 183.174 33.2592C174.688 41.7716 166.174 46.7416 156.371 48.9101L156.318 48.9209H155.528C149.272 50.0708 143.31 49.8253 137.797 49.3882L137.737 49.3796C136.719 49.175 135.936 49.0759 135.339 49.0759C135.034 49.0759 134.785 48.936 134.564 48.8132C134.536 48.7981 134.506 48.7809 134.48 48.7658C132.774 50.4821 130.981 52.1531 129.244 53.7703C127.435 55.4565 125.56 57.2029 123.798 58.988C122.357 60.448 120.865 61.9576 119.244 63.2948C114.908 66.8695 109.723 69.1133 105.692 70.6702C98.0834 73.6053 91.3338 75.0653 85.2884 75.0675L85.2927 75.0718Z" fill="#D6D6D6"/>
<path opacity="0.65" d="M212.747 132.813L192.655 124.092C192.655 124.092 139.588 87.499 145.988 86.8379C149.983 86.4244 203.522 102.573 203.522 102.573L233.964 122.873L212.747 132.815V132.813Z" fill="#95B45D"/>
<path d="M242.899 45.0123C242.515 45.0123 242.163 45.1394 241.875 45.3526L223.617 29.9665L222.073 16.1008L222.391 15.9177L221.998 15.6787C221.992 15.6658 221.989 15.6529 221.983 15.6399L213.872 0.303429C213.748 0.0665546 213.479 -0.049729 213.222 0.0191798C212.964 0.0880886 212.79 0.322809 212.799 0.589831V0.635052L204.924 14.8152L204.257 15.1317L204.761 15.4246L203.825 23.474L190.021 22.2294C189.824 21.4886 189.152 20.9416 188.353 20.9416C187.4 20.9416 186.625 21.719 186.625 22.6751C186.625 23.6312 187.4 24.4086 188.353 24.4086C188.604 24.4086 188.843 24.3526 189.057 24.2557L201.245 44.2651L201.043 44.3706L201.376 44.5644L199.718 58.8329L199.431 58.9901L199.684 59.1365L198.016 73.4954L197.816 73.6073L197.99 73.7085L196.311 88.16L196.2 88.2225L196.296 88.2785L194.607 102.823L194.583 102.838L194.605 102.851L192.196 123.575C192.181 123.7 192.215 123.82 192.293 123.919C192.37 124.018 192.479 124.079 192.604 124.094C192.623 124.096 192.64 124.098 192.66 124.098C192.896 124.098 193.093 123.922 193.121 123.685L195.483 103.361L212.868 113.43L212.75 132.819C212.75 133.134 213.003 133.392 213.316 133.394H213.318C213.63 133.394 213.885 133.14 213.887 132.826L214.001 114.087L214.194 114.199L214.269 114.242L230.789 104.674L232.972 124.285C233.007 124.598 233.288 124.824 233.601 124.789C233.913 124.755 234.138 124.471 234.104 124.158L231.865 104.05L232.146 103.886L231.826 103.701L230.233 89.3918L230.523 89.2238L230.194 89.0321L228.602 74.7336L228.898 74.5613L228.561 74.3632L226.97 60.0732L227.273 59.8988L226.929 59.6964L225.843 49.935L241.36 47.5253C241.646 48.0917 242.229 48.4815 242.901 48.4815C243.855 48.4815 244.63 47.7041 244.63 46.748C244.63 45.7919 243.855 45.0145 242.901 45.0145L242.899 45.0123ZM222.095 30.5609L214.482 34.9689L214.536 26.0646L215.985 26.8936L222.092 30.5609H222.095ZM213.398 25.4831L213.342 34.8138L204.705 29.8115L213.31 25.4745L213.398 25.4831ZM214.385 50.5573L214.405 47.4521L214.452 39.7839L223.623 45.2277L214.43 50.5509L214.385 50.5573ZM213.278 39.0862L213.316 39.1099L213.312 39.9777L213.25 50.2602L203.158 44.4158L213.28 39.0883L213.278 39.0862ZM214.458 38.5973L214.469 36.7368L223.606 40.1823L224.065 44.2996L214.458 38.5973ZM215.087 35.7484L222.629 31.3813L223.466 38.9074L215.087 35.7484ZM213.164 11.9383L213.402 19.3503L206.26 15.2136L213.164 11.9383ZM213.336 35.9401L213.323 37.9233L213.308 37.9147L202.417 43.6471L203.943 30.5027L213.333 35.9401H213.336ZM212.666 80.1752L213.065 80.4078L213.061 81.1485L212.017 80.5434L212.666 80.1752ZM214.196 81.7881L214.201 81.0689L214.819 81.4285L214.196 81.7881ZM213.074 52.7818L213.233 52.8744L213.157 65.3555L212.958 65.2392L212.883 65.1962L212.576 65.3684L201.61 59.0181L213.074 52.784V52.7818ZM212.612 66.6239L213.149 66.9339L213.076 79.0727L212.674 78.8379L210.86 79.8716L200.07 73.6224L212.614 66.6239H212.612ZM210.897 81.1808L213.052 82.4298L212.99 92.7855L212.535 92.5228L212.46 92.4797L209.162 94.3898L198.523 88.2289L210.897 81.183V81.1808ZM212.46 93.8708L212.981 94.1723L212.966 96.5927L210.362 95.0854L212.46 93.8708ZM214.117 94.8313L216.322 96.1082L214.224 97.3227L214.102 97.2517L214.117 94.8313ZM214.126 93.4445L214.188 83.078L215.925 82.0724L228.215 89.2195L217.522 95.4127L214.126 93.4445ZM215.974 80.7588L214.209 79.7338L214.284 67.4206L214.383 67.3646L226.687 74.557L215.974 80.7609V80.7588ZM214.43 66.1006L214.293 66.0209L214.368 53.5441L225.154 59.8902L214.43 66.1006ZM214.542 19.3826L214.308 12.0761L220.566 15.8962L214.544 19.3826H214.542ZM204.117 29.0126L204.62 24.6907L211.468 25.3087L204.117 29.0126ZM224.261 46.0395L224.587 48.9724L217.219 50.1159L224.259 46.0395H224.261ZM224.662 39.3575L223.799 31.6139L239.728 45.036L224.662 39.3575ZM214.542 24.7531L214.568 20.4442L220.993 16.7231L222.387 29.2387L214.54 24.7531H214.542ZM214.272 10.9606L214.016 3.01887L220.098 14.518L214.272 10.9606ZM213.132 10.9218L206.371 14.1283L212.859 2.44822L213.132 10.9197V10.9218ZM213.43 20.4442L213.406 24.3332H213.4L204.753 23.5558L205.639 15.9307L213.43 20.442V20.4442ZM203.207 28.7972L192.056 23.5602L203.692 24.6089L203.205 28.7972H203.207ZM203.067 29.9945L201.597 42.6522L190.208 23.9521L203.067 29.9924V29.9945ZM213.241 51.4359V51.6405L213.168 51.5996L213.095 51.5565L200.717 58.2902L202.252 45.0748L213.241 51.4402V51.4359ZM211.489 65.9735L199.014 72.9333L200.558 59.6425L211.489 65.9735ZM209.738 80.509L197.314 87.5851L198.868 74.2146L209.74 80.5111L209.738 80.509ZM208.007 95.0595L195.609 102.239L197.172 88.7845L208.007 95.0595ZM209.207 95.7551L212.96 97.9278L212.874 112.039L196.981 102.835L209.207 95.7551ZM214.096 98.5846L214.149 98.6169L214.224 98.66L217.477 96.7758L229.748 103.882L214.269 112.847L214.01 112.696L214.096 98.5846ZM229.158 90.0119L230.602 102.986L218.677 96.0802L229.155 90.0119H229.158ZM217.082 81.4026L227.526 75.3537L228.969 88.3151L217.082 81.4005V81.4026ZM215.491 66.7208L225.894 60.6977L227.337 73.6461L215.493 66.7208H215.491ZM214.377 52.3102L214.381 51.7632L214.493 51.6986L224.716 50.1116L225.703 58.975L214.379 52.3102H214.377ZM225.338 45.415L225.648 45.2363L225.295 45.0274L224.806 40.6323L240.411 46.5154L225.716 48.798L225.341 45.4172L225.338 45.415Z" fill="white"/>
<path opacity="0.65" d="M158.182 158.255L138.09 149.534C138.09 149.534 85.0226 112.941 91.4223 112.28C95.4175 111.867 148.957 128.015 148.957 128.015L179.399 148.315L158.182 158.258V158.255Z" fill="#95B45D"/>
<path d="M188.334 70.455C187.95 70.455 187.598 70.5821 187.31 70.7952L169.051 55.4092L167.508 41.5434L167.825 41.3604L167.433 41.1214C167.426 41.1085 167.424 41.0955 167.418 41.0826L159.309 25.7483C159.185 25.5114 158.916 25.3951 158.659 25.464C158.401 25.5329 158.227 25.7676 158.236 26.0347V26.0799L150.361 40.26L149.693 40.5766L150.198 40.8694L149.262 48.9188L135.456 47.6742C135.258 46.9334 134.586 46.3864 133.788 46.3864C132.835 46.3864 132.06 47.1638 132.06 48.1199C132.06 49.076 132.835 49.8534 133.788 49.8534C134.039 49.8534 134.277 49.7974 134.492 49.7005L146.679 69.7099L146.478 69.8154L146.81 70.0092L145.153 84.2777L144.865 84.4349L145.119 84.5813L143.451 98.9402L143.251 99.0522L143.425 99.1534L141.746 113.605L141.634 113.667L141.731 113.723L140.041 128.267L140.018 128.282L140.039 128.295L137.631 149.02C137.616 149.145 137.65 149.265 137.727 149.364C137.804 149.461 137.914 149.524 138.038 149.539C138.058 149.541 138.075 149.543 138.094 149.543C138.33 149.543 138.528 149.366 138.556 149.129L140.917 128.806L158.302 138.875L158.184 158.264C158.184 158.579 158.437 158.837 158.751 158.839H158.753C159.064 158.839 159.32 158.585 159.322 158.271L159.436 139.532L159.629 139.644L159.704 139.687L176.224 130.119L178.407 149.73C178.441 150.043 178.723 150.269 179.036 150.234C179.347 150.2 179.573 149.915 179.538 149.603L177.299 129.495L177.581 129.331L177.261 129.146L175.668 114.837L175.958 114.669L175.629 114.477L174.036 100.178L174.332 100.006L173.995 99.808L172.405 85.518L172.707 85.3436L172.364 85.1412L171.277 75.3798L186.795 72.9702C187.08 73.5365 187.664 73.9263 188.336 73.9263C189.289 73.9263 190.064 73.1489 190.064 72.1928C190.064 71.2367 189.289 70.4593 188.336 70.4593L188.334 70.455ZM167.529 56.0035L159.917 60.4115L159.97 51.5072L161.419 52.3363L167.527 56.0035H167.529ZM158.832 50.9258L158.777 60.2565L150.14 55.2541L158.744 50.9172L158.832 50.9258ZM159.82 76L159.839 72.8948L159.887 65.2265L169.058 70.6703L159.865 75.9935L159.82 76ZM158.712 64.5288L158.751 64.5525L158.747 65.4203L158.684 75.7028L148.592 69.8585L158.714 64.531L158.712 64.5288ZM159.893 64.0422L159.904 62.1816L169.041 65.6249L169.5 69.7422L159.893 64.04V64.0422ZM160.522 61.1911L168.064 56.824L168.901 64.3501L160.522 61.1911ZM158.598 37.3809L158.837 44.7929L151.694 40.6562L158.598 37.3809ZM158.77 61.3827L158.757 63.366L158.742 63.3574L147.851 69.0897L149.378 55.9454L158.768 61.3827H158.77ZM158.1 105.618L158.5 105.85L158.495 106.591L157.452 105.986L158.1 105.618ZM159.631 107.231L159.635 106.512L160.254 106.871L159.631 107.231ZM158.508 78.2266L158.667 78.3192L158.592 90.8003L158.392 90.684L158.317 90.641L158.01 90.8132L147.044 84.4629L158.508 78.2288V78.2266ZM158.047 92.0665L158.583 92.3766L158.51 104.515L158.109 104.281L156.295 105.314L145.505 99.0651L158.049 92.0665H158.047ZM156.331 106.626L158.487 107.875L158.425 118.23L157.969 117.968L157.894 117.925L154.597 119.835L143.957 113.674L156.331 106.628V106.626ZM157.894 119.313L158.416 119.615L158.401 122.035L155.797 120.528L157.894 119.313ZM159.552 120.274L161.756 121.551L159.659 122.765L159.537 122.694L159.552 120.274ZM159.56 118.887L159.622 108.521L161.359 107.515L173.65 114.662L162.956 120.855L159.56 118.887ZM161.409 106.201L159.644 105.176L159.719 92.8633L159.818 92.8073L172.121 99.9996L161.409 106.204V106.201ZM159.865 91.5454L159.728 91.4657L159.803 78.9889L170.588 85.335L159.865 91.5454ZM159.977 44.8252L159.743 37.5187L166.001 41.3389L159.979 44.8252H159.977ZM149.552 54.4574L150.054 50.1355L156.902 50.7535L149.552 54.4574ZM169.695 71.4822L170.022 74.4151L162.654 75.5586L169.693 71.4822H169.695ZM170.097 64.8023L169.234 57.0587L185.163 70.4808L170.097 64.8023ZM159.977 50.1958L160.002 45.8869L166.428 42.1658L167.821 54.6813L159.975 50.1958H159.977ZM159.706 36.4033L159.451 28.4615L165.533 39.9607L159.706 36.4033ZM158.566 36.3645L151.806 39.5709L158.294 27.8909L158.566 36.3624V36.3645ZM158.865 45.8869L158.841 49.7759H158.835L150.187 48.9985L151.074 41.3733L158.865 45.8847V45.8869ZM148.642 54.2399L137.491 49.0028L149.127 50.0515L148.639 54.2399H148.642ZM148.502 55.4372L147.031 68.0949L135.643 49.3947L148.502 55.435V55.4372ZM158.676 76.8807V77.0853L158.603 77.0444L158.53 77.0013L146.151 83.735L147.686 70.5196L158.676 76.8851V76.8807ZM156.924 91.4184L144.449 98.3781L145.992 85.0874L156.924 91.4184ZM155.172 105.954L142.749 113.03L144.303 99.6594L155.174 105.956L155.172 105.954ZM153.442 120.502L141.044 127.682L142.607 114.227L153.442 120.502ZM154.642 121.198L158.394 123.37L158.309 137.482L142.416 128.278L154.642 121.198ZM159.53 124.027L159.584 124.06L159.659 124.103L162.911 122.218L175.183 129.325L159.704 138.289L159.444 138.139L159.53 124.027ZM174.592 115.457L176.037 128.431L164.111 121.525L174.59 115.457H174.592ZM162.516 106.847L172.961 100.799L174.403 113.76L162.516 106.845V106.847ZM160.926 92.1634L171.329 86.1404L172.772 99.0888L160.928 92.1634H160.926ZM159.811 77.7529L159.816 77.2059L159.927 77.1413L170.15 75.5542L171.138 84.4176L159.814 77.7529H159.811ZM170.773 70.8598L171.082 70.6811L170.73 70.4722L170.241 66.0771L185.846 71.9602L171.151 74.2428L170.775 70.862L170.773 70.8598Z" fill="white"/>
<path opacity="0.65" d="M94.0579 182.259L73.9659 173.538C73.9659 173.538 20.8968 136.945 27.2986 136.284C31.2938 135.871 84.8331 152.019 84.8331 152.019L115.275 172.319L94.0579 182.261V182.259Z" fill="#95B45D"/>
<path d="M124.21 94.4589C123.826 94.4589 123.473 94.586 123.186 94.7991L104.927 79.4131L103.384 65.5474L103.701 65.3643L103.309 65.1253C103.302 65.1124 103.3 65.0994 103.293 65.0865L95.185 49.7522C95.0605 49.5153 94.7921 49.399 94.5345 49.4679C94.2769 49.5368 94.103 49.7715 94.1116 50.0386V50.0838L86.2371 64.2639L85.5694 64.5805L86.0739 64.8733L85.1379 72.9228L71.3318 71.6781C71.1343 70.9373 70.4623 70.3904 69.6637 70.3904C68.7105 70.3904 67.9355 71.1677 67.9355 72.1238C67.9355 73.0799 68.7105 73.8573 69.6637 73.8573C69.9149 73.8573 70.1532 73.8013 70.3679 73.7044L82.5553 93.7138L82.3535 93.8193L82.6863 94.0131L81.0289 108.282L80.7413 108.439L80.9946 108.585L79.3265 122.944L79.1269 123.056L79.3008 123.157L77.6219 137.609L77.5103 137.671L77.6069 137.727L75.9174 152.271L75.8938 152.286L75.9152 152.299L73.5065 173.024C73.4915 173.148 73.5258 173.269 73.6031 173.368C73.6804 173.467 73.7899 173.527 73.9144 173.543C73.9337 173.545 73.9509 173.547 73.9702 173.547C74.2064 173.547 74.4039 173.37 74.4318 173.133L76.7933 152.81L94.1781 162.879L94.0601 182.268C94.0601 182.583 94.3134 182.841 94.6268 182.843H94.629C94.9403 182.843 95.1957 182.589 95.1979 182.275L95.3117 163.536L95.5049 163.648L95.58 163.691L112.1 154.123L114.283 173.734C114.317 174.046 114.599 174.273 114.912 174.238C115.223 174.204 115.449 173.919 115.414 173.607L113.175 153.499L113.456 153.335L113.137 153.15L111.544 138.84L111.833 138.673L111.505 138.481L109.912 124.182L110.208 124.01L109.871 123.812L108.281 109.522L108.583 109.348L108.24 109.145L107.153 99.3837L122.671 96.9741C122.956 97.5404 123.54 97.9302 124.212 97.9302C125.165 97.9302 125.94 97.1528 125.94 96.1967C125.94 95.2406 125.165 94.4632 124.212 94.4632L124.21 94.4589ZM103.405 80.0074L95.7925 84.4155L95.8462 75.5111L97.2953 76.3402L103.403 80.0074H103.405ZM94.7084 74.9297L94.6526 84.2604L86.016 79.2581L94.6204 74.9211L94.7084 74.9297ZM95.6959 100.002L95.7153 96.8966L95.7625 89.2283L104.934 94.6721L95.741 99.9953L95.6959 100.002ZM94.5882 88.5327L94.6268 88.5564L94.6225 89.4243L94.5603 99.7067L84.4681 93.8624L94.5903 88.5349L94.5882 88.5327ZM95.7689 88.0439L95.7797 86.1834L104.916 89.6288L105.376 93.7461L95.7689 88.0439ZM96.3979 85.195L103.94 80.8279L104.777 88.354L96.3979 85.195ZM94.4744 61.3848L94.7127 68.7968L87.5703 64.6601L94.4744 61.3848ZM94.6461 85.3866L94.6333 87.3699L94.6182 87.3613L83.7275 93.0937L85.2539 79.9493L94.644 85.3866H94.6461ZM93.9763 129.622L94.3756 129.854L94.3714 130.595L93.328 129.99L93.9763 129.622ZM95.507 131.233L95.5113 130.513L96.1296 130.873L95.507 131.233ZM94.3842 102.228L94.5431 102.321L94.468 114.802L94.2683 114.686L94.1932 114.643L93.8862 114.815L82.9203 108.465L94.3842 102.231V102.228ZM93.9227 116.068L94.4594 116.378L94.3864 128.517L93.9849 128.282L92.1709 129.316L81.381 123.067L93.9248 116.068H93.9227ZM92.2074 130.627L94.3628 131.876L94.3005 142.232L93.8454 141.969L93.7702 141.926L90.4727 143.836L79.8332 137.673L92.2074 130.627ZM93.7702 143.315L94.2919 143.617L94.2769 146.037L91.6728 144.53L93.7702 143.315ZM95.4276 144.276L97.6324 145.553L95.5349 146.767L95.4126 146.696L95.4276 144.276ZM95.4362 142.891L95.4984 132.525L97.2352 131.519L109.526 138.666L98.8324 144.859L95.4362 142.891ZM97.2846 130.205L95.5199 129.18L95.595 116.867L95.6938 116.811L107.997 124.004L97.2846 130.208V130.205ZM95.741 115.547L95.6036 115.467L95.6788 102.991L106.464 109.337L95.741 115.547ZM95.8526 68.8291L95.6186 61.5226L101.877 65.3428L95.8548 68.8291H95.8526ZM85.4277 78.4591L85.9301 74.1373L92.7784 74.7553L85.4277 78.4591ZM105.571 95.4861L105.898 98.419L98.5297 99.5625L105.569 95.4861H105.571ZM105.973 88.8041L105.11 81.0604L121.039 94.4826L105.973 88.8041ZM95.8526 74.1997L95.8784 69.8908L102.304 66.1697L103.697 78.6852L95.8505 74.1997H95.8526ZM95.5822 60.4072L95.3267 52.4654L101.409 63.9646L95.5822 60.4072ZM94.4422 60.3663L87.6819 63.5727L94.1696 51.8926L94.4422 60.3641V60.3663ZM94.7406 69.8886L94.717 73.7776H94.7106L86.0632 73.0003L86.9498 65.3751L94.7406 69.8865V69.8886ZM84.5175 78.2438L73.367 73.0067L85.0027 74.0554L84.5154 78.2438H84.5175ZM84.378 79.4389L82.9074 92.0966L71.5186 73.3965L84.378 79.4368V79.4389ZM94.5517 100.883V101.087L94.4787 101.046L94.4057 101.003L82.0272 107.737L83.5622 94.5214L94.5517 100.887V100.883ZM92.7999 115.42L80.3248 122.38L81.8683 109.089L92.7999 115.42ZM91.0481 129.956L78.6245 137.032L80.1788 123.661L91.0502 129.958L91.0481 129.956ZM89.3178 144.504L76.9199 151.683L78.4828 138.229L89.3178 144.504ZM90.5178 145.199L94.2705 147.372L94.1846 161.484L78.2918 152.28L90.5178 145.199ZM95.4061 148.031L95.4598 148.064L95.5349 148.107L98.7873 146.222L111.059 153.329L95.58 162.293L95.3202 162.142L95.4061 148.031ZM110.468 139.459L111.913 152.433L99.9874 145.527L110.466 139.459H110.468ZM98.3923 130.849L108.837 124.8L110.279 137.762L98.3923 130.847V130.849ZM96.8015 116.167L107.205 110.144L108.648 123.093L96.8037 116.167H96.8015ZM95.6873 101.755L95.6916 101.208L95.8033 101.143L106.026 99.556L107.014 108.419L95.6895 101.755H95.6873ZM106.649 94.8616L106.958 94.6829L106.606 94.474L106.117 90.0789L121.722 95.962L107.027 98.2446L106.651 94.8637L106.649 94.8616Z" fill="white"/>
<path d="M135.921 97.9665C132.651 97.9665 130.747 97.7598 128.115 97.4756C127.415 97.4002 126.657 97.3184 125.803 97.2322L125.904 96.2201C126.76 96.3063 127.52 96.3881 128.222 96.4656C130.916 96.7563 132.705 96.9501 135.916 96.9501H135.979C139.763 96.948 143.677 96.9437 147.447 96.2697C149.785 95.8519 152.251 95.152 155.205 94.0667C163.174 91.1424 171.433 86.6375 180.452 80.2979C182.992 78.5127 186.154 76.2904 187.908 73.6417L188.099 73.3532L188.436 73.4264C190.293 73.8269 192.337 73.6697 194.314 73.519C194.685 73.491 195.052 73.463 195.417 73.4371C202.085 73.0668 207.156 72.298 211.862 70.95C222.038 67.9029 231.162 62.4656 238.972 54.7887C239.257 54.5023 239.515 54.1707 239.785 53.8218C240.056 53.473 240.337 53.1112 240.659 52.7817C242.156 50.7812 243.272 49.2006 244.002 47.1484L244.957 47.4908C244.178 49.6808 242.961 51.3993 241.449 53.4191L241.402 53.473C241.112 53.7637 240.857 54.0932 240.584 54.4442C240.305 54.8038 240.017 55.1742 239.685 55.5101C231.752 63.3076 222.486 68.8289 212.145 71.9255C207.358 73.2972 202.218 74.0767 195.477 74.4514C195.121 74.4751 194.756 74.5031 194.389 74.5311C192.455 74.6797 190.458 74.8326 188.556 74.4859C186.671 77.1647 183.552 79.3568 181.032 81.1291C171.938 87.5204 163.604 92.0641 155.551 95.0207C152.539 96.1275 150.019 96.8403 147.621 97.2688C143.763 97.9579 139.804 97.9622 135.974 97.9644C135.955 97.9644 135.934 97.9644 135.914 97.9644L135.921 97.9665Z" fill="#D6D6D6"/>
</g>
<defs>
<clipPath id="clip0_476_20550">
<rect width="291" height="201" fill="white"/>
</clipPath>
</defs>
</svg>
