<svg width="200" height="226" viewBox="0 0 200 226" fill="none" xmlns="http://www.w3.org/2000/svg">
<g clip-path="url(#clip0_476_16569)">
<mask id="mask0_476_16569" style="mask-type:luminance" maskUnits="userSpaceOnUse" x="139" y="56" width="31" height="162">
<path d="M169.6 56.1627L169.159 208.772C169.159 210.942 167.739 213.092 164.898 214.743C159.179 218.065 149.89 218.065 144.152 214.743C141.254 213.073 139.814 210.884 139.814 208.695L140.256 56.0859C140.256 58.2748 141.695 60.4638 144.593 62.1342C150.332 65.456 159.64 65.456 165.34 62.1342C168.18 60.483 169.6 58.3325 169.6 56.1627Z" fill="white"/>
</mask>
<g mask="url(#mask0_476_16569)">
<path d="M169.6 56.1626L169.159 208.772C169.159 210.941 167.739 213.092 164.898 214.743C164.361 215.05 163.785 215.339 163.171 215.607L163.612 62.9981C164.207 62.7485 164.783 62.4605 165.34 62.1341C168.18 60.4828 169.6 58.3323 169.6 56.1626Z" fill="#CACACA"/>
<path d="M163.612 62.998L163.171 215.607C161.06 216.51 158.603 217.028 156.108 217.182L156.55 64.5725C159.045 64.4189 161.501 63.8813 163.612 62.998Z" fill="#D9D9D9"/>
<path d="M147.836 63.5551L147.395 216.164C146.224 215.78 145.13 215.319 144.132 214.743C143.249 214.225 142.501 213.668 141.887 213.092L142.328 60.4829C142.942 61.0781 143.691 61.635 144.574 62.1342C145.572 62.7102 146.666 63.1902 147.836 63.5551Z" fill="#D9D9D9"/>
<path d="M142.348 60.483L141.906 213.092C140.505 211.748 139.814 210.212 139.814 208.695L140.256 56.0859C140.256 57.6028 140.947 59.1389 142.348 60.483Z" fill="#CACACA"/>
<path d="M147.76 92.3564L147.415 216.164C150.102 217.028 153.153 217.374 156.128 217.182L156.474 93.3933C153.499 93.5469 150.428 93.2013 147.76 92.3564Z" fill="#F2F2F2"/>
<path d="M156.531 73.4627V64.5919C153.575 64.7839 150.524 64.4383 147.837 63.5742V72.5603C150.466 73.3667 153.537 73.6739 156.531 73.4627Z" fill="#F2F2F2"/>
<path d="M147.799 78.0518V81.2391C150.447 82.0456 153.518 82.3528 156.493 82.1416V79.0886C153.537 79.2422 150.467 78.8966 147.799 78.0518Z" fill="#F2F2F2"/>
<path d="M169.524 85.0026L169.562 73.77C169.562 75.0949 169.025 76.4006 168.007 77.5718C165.647 80.2984 161.175 81.8344 156.531 82.1416L156.492 93.3934C163.056 93.067 169.178 90.2828 169.543 84.9834L169.524 85.0026Z" fill="#254A9F"/>
<path d="M140.199 73.6934L140.16 84.9259C140.16 86.2508 140.678 87.5564 141.696 88.7277C143.097 90.3598 145.246 91.5886 147.741 92.3759L147.779 81.2585C143.596 79.9913 140.429 77.4759 140.199 73.7126V73.6934Z" fill="#254A9F"/>
<path d="M147.798 81.2393L147.76 92.3566C150.427 93.2014 153.498 93.5471 156.473 93.3935L156.511 82.1417C153.517 82.3337 150.466 82.0457 147.798 81.2393Z" fill="#2B65C8"/>
<path d="M140.237 64.9951V70.6018C140.218 71.9267 140.755 73.2323 141.753 74.4036C143.154 76.0357 145.304 77.2645 147.799 78.0518V72.5411C143.634 71.2738 140.467 68.7585 140.218 64.9951H140.237Z" fill="#254A9F"/>
<path d="M169.562 70.698V65.0913C169.562 66.4162 169.044 67.7218 168.027 68.8931C165.666 71.6196 161.194 73.1557 156.55 73.4629V79.108C163.113 78.7816 169.217 75.9974 169.581 70.698H169.562Z" fill="#254A9F"/>
<path d="M156.511 79.1076V73.4625C153.537 73.6545 150.466 73.3665 147.817 72.5601V78.0707C150.466 78.9156 153.537 79.2612 156.511 79.1076Z" fill="#2B65C8"/>
</g>
<path d="M165.263 50.1144C171.001 53.4361 171.039 58.8124 165.339 62.1342C159.62 65.4559 150.331 65.4559 144.593 62.1342C138.835 58.8124 138.816 53.4361 144.516 50.1144C150.235 46.7926 159.524 46.7926 165.263 50.1144Z" fill="#ACB1B7"/>
<mask id="mask1_476_16569" style="mask-type:luminance" maskUnits="userSpaceOnUse" x="132" y="52" width="45" height="18">
<path d="M176.701 52.5529V56.3739C176.682 59.6188 174.552 62.8446 170.291 65.3215C161.731 70.2945 147.817 70.2945 139.2 65.3215C134.863 62.8254 132.694 59.5228 132.713 56.2395V52.4185C132.713 55.7018 134.882 58.9852 139.219 61.5005C147.836 66.4736 161.751 66.4736 170.31 61.5005C174.571 59.0236 176.682 55.7978 176.701 52.5529Z" fill="white"/>
</mask>
<g mask="url(#mask1_476_16569)">
<path d="M176.701 52.5527V56.3737C176.681 59.6187 174.551 62.8444 170.29 65.3214C169.484 65.8014 168.621 66.2238 167.719 66.6078V62.7868C168.64 62.4028 169.504 61.9804 170.31 61.5004C174.57 59.0235 176.681 55.7977 176.701 52.5527Z" fill="#CACACA"/>
<path d="M167.739 62.7871V66.6081C164.553 67.9522 160.887 68.7394 157.145 68.989V65.168C160.906 64.9376 164.572 64.1504 167.739 62.7871Z" fill="#D9D9D9"/>
<path d="M157.164 65.1679V68.9889C152.692 69.2577 148.124 68.7585 144.094 67.4528V63.6318C148.124 64.9183 152.711 65.4367 157.164 65.1679Z" fill="#F2F2F2"/>
<path d="M144.093 63.6317V67.4527C142.328 66.8958 140.696 66.1854 139.199 65.3214C137.875 64.5533 136.762 63.7277 135.841 62.8444V59.0234C136.762 59.9067 137.894 60.7515 139.199 61.5004C140.677 62.3644 142.328 63.0748 144.074 63.6317H144.093Z" fill="#D9D9D9"/>
<path d="M135.86 59.0234V62.8444C133.749 60.8283 132.713 58.5434 132.713 56.2585V52.4375C132.713 54.7224 133.768 57.0073 135.86 59.0234Z" fill="#CACACA"/>
</g>
<path d="M170.214 43.49C178.831 48.4631 178.87 56.5275 170.31 61.5197C161.75 66.4928 147.836 66.4928 139.219 61.5197C130.602 56.5467 130.563 48.4823 139.123 43.49C147.683 38.517 161.597 38.517 170.214 43.49Z" fill="#F5F6F7"/>
<path d="M134.536 42.6456C134.536 42.6456 134.402 42.6456 134.345 42.6072C134.095 42.492 133.961 42.204 134.076 41.9544C134.997 39.727 136.955 37.6917 139.738 36.0597C147.932 31.2978 161.329 31.2978 169.6 36.0597C171.078 36.9045 172.326 37.8837 173.324 38.9398C173.515 39.1318 173.496 39.4582 173.304 39.6502C173.112 39.8422 172.786 39.823 172.594 39.631C171.673 38.6518 170.502 37.7301 169.101 36.9429C161.117 32.3347 148.182 32.3347 140.237 36.9429C137.646 38.4406 135.842 40.3223 134.997 42.3576C134.92 42.5496 134.728 42.6648 134.536 42.6648V42.6456Z" fill="#3B3B45"/>
<path d="M133.961 53.6668C133.692 53.6668 133.462 53.4364 133.462 53.1676V45.5256C133.462 45.2568 133.692 45.0264 133.961 45.0264C134.23 45.0264 134.46 45.2568 134.46 45.5256V53.1676C134.46 53.4364 134.23 53.6668 133.961 53.6668Z" fill="#3B3B45"/>
<path d="M175.473 53.6668C175.204 53.6668 174.974 53.4364 174.974 53.1676V45.5256C174.974 45.2568 175.204 45.0264 175.473 45.0264C175.741 45.0264 175.972 45.2568 175.972 45.5256V53.1676C175.972 53.4364 175.741 53.6668 175.473 53.6668Z" fill="#3B3B45"/>
<path d="M154.228 41.1092C153.959 41.1092 153.729 40.8788 153.729 40.61V32.968C153.729 32.6992 153.959 32.4688 154.228 32.4688C154.496 32.4688 154.727 32.6992 154.727 32.968V40.61C154.727 40.8788 154.496 41.1092 154.228 41.1092Z" fill="#7079A7"/>
<path d="M139.68 44.8343C139.411 44.8343 139.181 44.6039 139.181 44.3351V36.6931C139.181 36.4243 139.411 36.1938 139.68 36.1938C139.948 36.1938 140.179 36.4243 140.179 36.6931V44.3351C140.179 44.6039 139.948 44.8343 139.68 44.8343Z" fill="#3B3B45"/>
<path d="M169.273 44.8343C169.005 44.8343 168.774 44.6039 168.774 44.3351V36.6931C168.774 36.4243 169.005 36.1938 169.273 36.1938C169.542 36.1938 169.772 36.4243 169.772 36.6931V44.3351C169.772 44.6039 169.542 44.8343 169.273 44.8343Z" fill="#7079A7"/>
<mask id="mask2_476_16569" style="mask-type:luminance" maskUnits="userSpaceOnUse" x="140" y="8" width="30" height="51">
<path d="M169.658 8.54458L169.543 50.5179C169.543 52.6876 168.123 54.8381 165.282 56.4894C159.563 59.8111 150.274 59.8111 144.536 56.4894C141.638 54.8189 140.198 52.63 140.198 50.4411L140.313 8.46777C140.313 10.6567 141.753 12.8456 144.651 14.5161C150.389 17.8378 159.697 17.8378 165.397 14.5161C168.238 12.8648 169.658 10.7143 169.658 8.54458Z" fill="white"/>
</mask>
<g mask="url(#mask2_476_16569)">
<path d="M169.658 8.54443L169.543 50.5177C169.543 52.6874 168.122 54.8379 165.282 56.4892C164.745 56.7964 164.169 57.0844 163.555 57.3533L163.67 15.38C164.265 15.1304 164.841 14.8423 165.397 14.5159C168.238 12.8646 169.658 10.7141 169.658 8.54443Z" fill="#CACACA"/>
<path d="M163.67 15.3799L163.555 57.3532C161.444 58.2556 158.987 58.774 156.492 58.9468L156.607 16.9736C159.102 16.82 161.559 16.2823 163.67 15.3991V15.3799Z" fill="#D9D9D9"/>
<path d="M156.608 16.9547L156.492 58.928C153.518 59.12 150.466 58.7743 147.779 57.9103L147.894 15.937C150.581 16.8011 153.633 17.1467 156.608 16.9547Z" fill="#F2F2F2"/>
<path d="M147.894 15.9369L147.779 57.9102C146.608 57.5262 145.514 57.0653 144.516 56.4893C143.633 55.9901 142.885 55.4333 142.271 54.838L142.386 12.8647C143 13.46 143.748 14.0168 144.631 14.516C145.629 15.0921 146.723 15.5721 147.894 15.9369Z" fill="#D9D9D9"/>
<path d="M142.405 12.8648L142.29 54.8381C140.889 53.494 140.198 51.9579 140.198 50.4411L140.313 8.46777C140.313 9.98465 141.004 11.5207 142.405 12.8648Z" fill="#CACACA"/>
</g>
<path d="M165.321 2.49621C171.059 5.81797 171.098 11.1942 165.398 14.516C159.678 17.8378 150.389 17.8378 144.651 14.516C138.893 11.1942 138.874 5.81797 144.593 2.49621C150.313 -0.825558 159.602 -0.825558 165.34 2.49621H165.321Z" fill="#F2F2F2"/>
<path d="M163.574 3.51364C168.353 6.27858 168.372 10.7332 163.632 13.4981C158.891 16.2631 151.176 16.2631 146.397 13.4981C141.619 10.7332 141.599 6.27858 146.34 3.51364C151.08 0.748707 158.795 0.748707 163.555 3.51364H163.574Z" fill="#35353F"/>
<path d="M154.784 57.5069C149.371 57.5069 143.959 56.3165 139.833 53.9356C134.498 50.8442 132.29 46.2552 134.075 41.9542C134.171 41.7045 134.478 41.5701 134.728 41.6853C134.977 41.7814 135.112 42.0886 134.997 42.3382C133.384 46.1976 135.38 50.2298 140.332 53.0715C148.316 57.6797 161.251 57.6797 169.178 53.0715C172.479 51.1514 174.513 48.6361 174.897 45.9864C175.223 43.7783 174.417 41.5893 172.575 39.6308C172.383 39.4388 172.402 39.1124 172.594 38.9204C172.786 38.7284 173.112 38.7476 173.304 38.9396C175.357 41.1285 176.24 43.6054 175.876 46.14C175.434 49.0969 173.246 51.8619 169.677 53.9356C165.569 56.3165 160.176 57.5069 154.764 57.5069H154.784Z" fill="#3B3B45"/>
<path d="M154.228 65.1297C153.959 65.1297 153.729 64.8993 153.729 64.6305V56.9885C153.729 56.7197 153.959 56.4893 154.228 56.4893C154.496 56.4893 154.727 56.7197 154.727 56.9885V64.6305C154.727 64.8993 154.496 65.1297 154.228 65.1297Z" fill="#3B3B45"/>
<path d="M139.68 61.5774C139.411 61.5774 139.181 61.347 139.181 61.0782V53.4362C139.181 53.1674 139.411 52.937 139.68 52.937C139.948 52.937 140.179 53.1674 140.179 53.4362V61.0782C140.179 61.347 139.948 61.5774 139.68 61.5774Z" fill="#3B3B45"/>
<path d="M169.273 61.827C169.005 61.827 168.774 61.5965 168.774 61.3277V53.6857C168.774 53.4169 169.005 53.1865 169.273 53.1865C169.542 53.1865 169.772 53.4169 169.772 53.6857V61.3277C169.772 61.5965 169.542 61.827 169.273 61.827Z" fill="#3B3B45"/>
<path d="M117.187 88.6701L118.453 265.991C118.453 267.297 117.59 268.583 115.901 269.581C112.485 271.578 106.9 271.578 103.464 269.581C101.737 268.583 100.854 267.258 100.873 265.952L103.138 88.6509C103.138 89.7069 103.829 90.763 105.211 91.5502C107.974 93.1439 112.427 93.1439 115.171 91.5502C116.534 90.763 117.206 89.7261 117.225 88.6893L117.187 88.6701Z" fill="#2B65C8"/>
<mask id="mask3_476_16569" style="mask-type:luminance" maskUnits="userSpaceOnUse" x="100" y="88" width="19" height="184">
<path d="M117.187 88.6701L118.453 265.991C118.453 267.297 117.59 268.583 115.901 269.581C112.485 271.578 106.9 271.578 103.464 269.581C101.737 268.583 100.854 267.258 100.873 265.952L103.138 88.6509C103.138 89.7069 103.829 90.763 105.211 91.5502C107.974 93.1439 112.427 93.1439 115.171 91.5502C116.534 90.763 117.206 89.7261 117.225 88.6893L117.187 88.6701Z" fill="white"/>
</mask>
<g mask="url(#mask3_476_16569)">
<path d="M117.187 88.6704L118.453 265.991C118.453 267.297 117.59 268.583 115.901 269.582C115.575 269.774 115.229 269.947 114.865 270.1L114.327 91.9538C114.615 91.8386 114.884 91.685 115.152 91.5506C116.515 90.7633 117.187 89.7265 117.206 88.6896L117.187 88.6704Z" fill="#254A9F"/>
<path d="M114.327 91.9346L114.864 270.081C113.598 270.619 112.12 270.945 110.623 271.022L110.93 92.7026C112.139 92.6258 113.31 92.3762 114.327 91.9346Z" fill="#2B65C8"/>
<path d="M106.746 92.2031L105.403 270.407C104.712 270.177 104.04 269.889 103.445 269.562C102.908 269.255 102.466 268.929 102.102 268.564L104.117 90.7246C104.405 91.0126 104.769 91.2814 105.191 91.5118C105.671 91.7807 106.189 92.0111 106.746 92.2031Z" fill="#2B65C8"/>
<path d="M104.117 90.7247L102.102 268.564C101.257 267.758 100.835 266.836 100.854 265.933L103.119 88.6318C103.119 89.3615 103.445 90.0911 104.117 90.7439V90.7247Z" fill="#254A9F"/>
<path d="M106.515 123.366L105.402 270.426C107.014 270.945 108.838 271.156 110.623 271.041L110.872 123.904C109.375 124 107.84 123.827 106.515 123.366Z" fill="#2B65C8"/>
<path d="M110.93 98.2706V92.6831C109.509 92.7792 108.051 92.6063 106.765 92.2031L106.727 97.7714C108.032 98.1938 109.509 98.3666 110.93 98.2706Z" fill="#2B65C8"/>
<path d="M106.592 112.191L106.554 116.147C107.878 116.588 109.394 116.761 110.872 116.665V112.71C109.413 112.806 107.897 112.633 106.592 112.191Z" fill="#2B65C8"/>
</g>
<path d="M115.114 85.7514C117.877 87.3451 117.877 89.918 115.152 91.5117C112.407 93.1054 107.955 93.1054 105.191 91.5117C102.428 89.918 102.408 87.3259 105.153 85.7514C107.897 84.1577 112.35 84.1577 115.114 85.7514Z" fill="#2B65C8"/>
<path d="M114.211 86.2698C116.476 87.5754 116.476 89.6875 114.231 90.9932C111.985 92.2989 108.339 92.2989 106.074 90.9932C103.809 89.6875 103.809 87.5754 106.055 86.2698C108.3 84.9641 111.947 84.9641 114.211 86.2698Z" fill="#254A9F"/>
<mask id="mask4_476_16569" style="mask-type:luminance" maskUnits="userSpaceOnUse" x="178" y="99" width="17" height="167">
<path d="M193.782 99.7293L194.914 260.653C194.914 261.824 194.146 263.014 192.592 263.898C189.483 265.702 184.435 265.702 181.307 263.898C179.733 262.995 178.946 261.785 178.946 260.595L181 99.6909C181 100.651 181.633 101.592 182.881 102.321C185.376 103.762 189.425 103.762 191.92 102.321C193.148 101.611 193.782 100.67 193.782 99.7293Z" fill="white"/>
</mask>
<g mask="url(#mask4_476_16569)">
<path d="M193.782 99.7295L194.914 260.653C194.914 261.824 194.147 263.014 192.592 263.898C192.304 264.07 191.978 264.224 191.652 264.358L191.172 102.706C191.441 102.59 191.69 102.475 191.92 102.341C193.149 101.63 193.782 100.69 193.782 99.7487V99.7295Z" fill="#CACACA"/>
<path d="M191.192 102.706L191.671 264.358C190.52 264.858 189.196 265.126 187.833 265.222L188.121 103.397C189.215 103.32 190.27 103.09 191.192 102.706Z" fill="#D9D9D9"/>
<path d="M184.321 102.955L183.093 264.685C182.459 264.474 181.864 264.224 181.327 263.917C180.847 263.648 180.444 263.341 180.099 263.014L181.922 101.63C182.191 101.88 182.517 102.13 182.901 102.36C183.342 102.61 183.803 102.821 184.321 102.974V102.955Z" fill="#D9D9D9"/>
<path d="M181.921 101.611L180.098 262.995C179.33 262.265 178.966 261.421 178.966 260.595L181.019 99.6909C181.019 100.363 181.326 101.016 181.921 101.611Z" fill="#CACACA"/>
<path d="M184.187 121.388V124.652C185.376 125.036 186.739 125.19 188.083 125.113V121.849C186.758 121.926 185.396 121.772 184.187 121.388Z" fill="#F2F2F2"/>
<path d="M184.11 131.411L183.093 264.665C184.551 265.145 186.221 265.318 187.833 265.222L188.063 131.872C186.72 131.948 185.319 131.795 184.11 131.392V131.411Z" fill="#F2F2F2"/>
<path d="M188.101 108.312V103.397C186.816 103.474 185.491 103.339 184.321 102.955L184.282 107.871C185.472 108.235 186.796 108.389 188.101 108.312Z" fill="#F2F2F2"/>
<path d="M192.036 120.735C193.303 119.986 193.955 119.026 193.955 118.047L193.994 104.51C193.994 105.49 193.36 106.45 192.074 107.198C190.961 107.851 189.56 108.216 188.102 108.293V121.83C189.522 121.734 190.923 121.369 192.036 120.735Z" fill="#254A9F"/>
<path d="M182.747 107.218C181.442 106.469 180.789 105.47 180.789 104.491L180.751 118.028C180.751 119.007 181.403 120.006 182.709 120.754C183.15 121.023 183.649 121.234 184.186 121.388L184.282 107.871C183.726 107.698 183.208 107.487 182.747 107.218Z" fill="#254A9F"/>
<path d="M188.083 121.849V108.312C186.797 108.389 185.472 108.255 184.282 107.871L184.187 121.388C185.396 121.772 186.758 121.926 188.083 121.849Z" fill="#2B65C8"/>
<path d="M182.689 124.019C181.384 123.27 180.732 122.271 180.732 121.292V128.07C180.713 129.049 181.365 130.048 182.67 130.796C183.112 131.046 183.591 131.257 184.11 131.43L184.167 124.671C183.649 124.499 183.15 124.287 182.709 124.038L182.689 124.019Z" fill="#254A9F"/>
<path d="M191.998 130.777C193.284 130.028 193.917 129.068 193.917 128.089V121.311C193.917 122.29 193.303 123.25 192.017 123.999C190.904 124.633 189.503 124.998 188.063 125.094V131.872C189.503 131.776 190.885 131.411 191.998 130.777Z" fill="#254A9F"/>
<path d="M184.148 124.652L184.091 131.411C185.319 131.814 186.701 131.968 188.044 131.891V125.113C186.72 125.19 185.338 125.036 184.129 124.652H184.148Z" fill="#2B65C8"/>
</g>
<path d="M191.901 97.099C194.396 98.5391 194.415 100.882 191.92 102.341C189.425 103.781 185.395 103.781 182.88 102.341C180.385 100.901 180.366 98.5583 182.842 97.099C185.318 95.6397 189.367 95.6589 191.881 97.099H191.901Z" fill="#ACB1B7"/>
<mask id="mask5_476_16569" style="mask-type:luminance" maskUnits="userSpaceOnUse" x="69" y="54" width="31" height="162">
<path d="M99.7216 54.838L99.2801 207.447C99.2801 209.617 97.8599 211.767 95.0195 213.419C89.3003 216.74 80.0114 216.74 74.2729 213.419C71.375 211.748 69.9355 209.559 69.9355 207.37L70.377 54.7612C70.377 56.9501 71.8164 59.139 74.7144 60.8095C80.472 64.1313 89.7609 64.1313 95.4609 60.8095C98.3014 59.1582 99.7216 57.0077 99.7216 54.838Z" fill="white"/>
</mask>
<g mask="url(#mask5_476_16569)">
<path d="M99.7213 54.8379L99.2799 207.447C99.2799 209.617 97.8597 211.767 95.0193 213.419C94.4819 213.726 93.9061 214.014 93.292 214.283L93.7334 61.6734C94.3284 61.4238 94.9041 61.1358 95.4607 60.8094C98.3011 59.1581 99.7213 57.0076 99.7213 54.8379Z" fill="#CACACA"/>
<path d="M93.7531 61.6733L93.3117 214.283C91.2006 215.185 88.744 215.703 86.249 215.857L86.6904 63.2478C89.1854 63.0942 91.642 62.5566 93.7531 61.6733Z" fill="#D9D9D9"/>
<path d="M86.6897 63.2481L86.2483 215.857C83.2736 216.049 80.222 215.704 77.5352 214.84L77.9766 62.2305C80.6635 63.0945 83.715 63.4401 86.6897 63.2481Z" fill="#F2F2F2"/>
<path d="M77.9769 62.2304L77.5355 214.84C76.3647 214.456 75.2708 213.995 74.2728 213.419C73.39 212.919 72.6415 212.363 72.0273 211.767L72.4688 59.1582C73.0829 59.7534 73.8314 60.3103 74.7142 60.8095C75.7122 61.3855 76.8062 61.8655 77.9769 62.2304Z" fill="#D9D9D9"/>
<path d="M72.4689 59.1582L72.0275 211.767C70.6265 210.423 69.9355 208.887 69.9355 207.37L70.377 54.7612C70.377 56.2781 71.0679 57.8142 72.4689 59.1582Z" fill="#CACACA"/>
<path d="M70.0511 159.733C70.0511 161.922 71.4905 164.111 74.3885 165.781C80.1461 169.103 89.435 169.103 95.135 165.781C97.9755 164.13 99.3957 161.979 99.3957 159.81L99.3573 175.228C99.3573 177.398 97.9371 179.548 95.0967 181.2C89.3774 184.521 80.0885 184.521 74.3501 181.2C71.4521 179.529 70.0127 177.34 70.0127 175.151L70.0511 159.733Z" fill="#2B65C8"/>
<path d="M70.1468 129.03C70.1468 131.219 71.5862 133.408 74.4842 135.079C80.2418 138.4 89.5307 138.4 95.2307 135.079C98.0712 133.427 99.4914 131.277 99.4914 129.107L99.453 144.525C99.453 146.695 98.0328 148.846 95.1924 150.497C89.4731 153.819 80.1842 153.819 74.4458 150.497C71.5478 148.826 70.1084 146.638 70.1084 144.449L70.1468 129.03Z" fill="#254A9F"/>
<path d="M70.2435 98.3091C70.2435 100.498 71.6829 102.687 74.5809 104.357C80.3385 107.679 89.6274 107.679 95.3274 104.357C98.1678 102.706 99.588 100.556 99.588 98.3859L99.5497 113.804C99.5497 115.974 98.1295 118.124 95.289 119.776C89.5698 123.098 80.2809 123.098 74.5425 119.776C71.6445 118.105 70.2051 115.916 70.2051 113.727L70.2435 98.3091Z" fill="#254A9F"/>
<path d="M70.3196 67.5874C70.3196 69.7763 71.759 71.9652 74.657 73.6357C80.4146 76.9575 89.7036 76.9575 95.4036 73.6357C98.244 71.9844 99.6642 69.8339 99.6642 67.6642L99.6258 83.0826C99.6258 85.2523 98.2056 87.4028 95.3652 89.0541C89.646 92.3758 80.3571 92.3758 74.6186 89.0541C71.7207 87.3836 70.2812 85.1947 70.2812 83.0058L70.3196 67.5874Z" fill="#254A9F"/>
<path d="M77.7659 136.5L77.7275 151.918C80.4144 152.782 83.466 153.108 86.4407 152.936L86.4791 137.517C83.5043 137.709 80.4528 137.364 77.7659 136.5Z" fill="#2B65C8"/>
<path d="M77.8431 105.797L77.8047 121.216C80.4916 122.08 83.5431 122.406 86.5179 122.233L86.5562 106.815C83.5815 107.007 80.53 106.661 77.8431 105.797Z" fill="#2B65C8"/>
<path d="M86.6136 91.4927L86.652 76.0743C83.6772 76.2663 80.6257 75.9207 77.9388 75.0566L77.9004 90.475C80.5873 91.339 83.6388 91.6655 86.6136 91.4927Z" fill="#2B65C8"/>
</g>
<path d="M95.403 48.7897C101.161 52.1114 101.18 57.4877 95.4797 60.8095C89.7605 64.1312 80.4716 64.1312 74.7332 60.8095C68.9948 57.4877 68.9564 52.1114 74.6564 48.7897C80.3756 45.4679 89.6646 45.4679 95.403 48.7897Z" fill="#F5F6F7"/>
<path d="M93.427 49.9419C98.0715 52.63 98.1098 56.9886 93.4846 59.6768C88.8593 62.3649 81.3552 62.3649 76.6916 59.6768C72.0471 56.9886 72.0087 52.63 76.634 49.9419C81.2593 47.2537 88.7633 47.2537 93.4078 49.9419H93.427Z" fill="#434851"/>
<path d="M118.837 243.564L63.2949 275.649V227.051L118.837 194.966V243.564Z" fill="#848AA8"/>
<path d="M40.5523 198.307L63.2948 211.441V192.086L27.6553 171.503V255.065L63.2948 275.649V227.051L38.3644 212.651V199.575L40.5523 198.307Z" fill="#A6AFC9"/>
<path d="M27.6552 255.065L21.1875 258.79V166.76L27.6552 163.035V164.821V171.503V255.065Z" fill="#254A9F"/>
<path d="M2.93652 156.219V157.236V240.78V248.249L21.1881 258.79V166.76L2.93652 156.219Z" fill="#2B65C8"/>
<path d="M2.93638 240.78L0 239.09V155.527L2.93638 157.236V240.78Z" fill="#A6AFC9"/>
<path d="M2.93638 157.236L0 155.528L7.12024 151.418L9.67278 149.959L13.3001 147.866L24.0284 141.645L26.5809 140.186L30.4577 137.939L39.7467 132.582L42.2992 131.104L46.5215 128.665L55.5417 123.462L118.837 160.021L63.2953 192.086L27.6557 171.503V164.821L63.2953 185.404L104.501 161.614L107.264 160.021L55.5417 130.144L13.1081 154.644L9.3849 152.494L2.93638 156.219V157.236Z" fill="#E4E6F0"/>
<path d="M63.2949 192.086V211.441L118.837 179.375V160.021L63.2949 192.086Z" fill="#848AA8"/>
<path d="M113.866 171.407V170.14L115.075 169.429V172.098L113.866 171.407Z" fill="#A6AFC9"/>
<path d="M113.866 170.14V171.407L107.705 174.959V173.692L113.866 170.14Z" fill="#2E2E37"/>
<path d="M107.705 174.959L113.866 171.407L115.075 172.098L107.705 176.361V174.959Z" fill="#E4E6F0"/>
<path d="M105.729 176.975V172.559L106.938 173.27V177.686L105.729 176.975Z" fill="#A6AFC9"/>
<path d="M105.729 172.559L114.634 167.413L115.843 168.124L106.938 173.269L105.729 172.559Z" fill="#E4E6F0"/>
<path d="M115.843 168.124V172.54L106.938 177.686V173.269L115.843 168.124ZM115.075 172.098V169.429L113.866 170.12L107.686 173.692V176.361L115.075 172.098Z" fill="#585C73"/>
<path d="M52.4513 193.2V191.952L51.2422 191.241V193.91L52.4513 193.2Z" fill="#848AA8"/>
<path d="M52.4512 191.952V193.2L58.631 196.771V195.504L52.4512 191.952Z" fill="#2E2E37"/>
<path d="M58.6311 196.771L52.4513 193.2L51.2422 193.91L58.6311 198.173V196.771Z" fill="#F1F3F9"/>
<path d="M60.589 198.787V194.371L59.3799 195.062V199.498L60.589 198.787Z" fill="#848AA8"/>
<path d="M60.5888 194.371L51.6837 189.225L50.4746 189.936L59.3797 195.062L60.5888 194.371Z" fill="#F1F3F9"/>
<path d="M59.3797 195.062V199.479L50.4746 194.333V189.917L59.3797 195.062ZM58.6312 198.173V195.504L52.4514 191.933L51.2423 191.241V193.91L58.6312 198.173Z" fill="#E4E6F0"/>
<path d="M2.93652 156.219L9.38504 152.494L13.1083 154.644L15.8719 156.238L27.6558 163.035L21.1881 166.76L2.93652 156.219Z" fill="#4297E2"/>
<path d="M55.542 130.144L107.264 160.021L104.501 161.614L55.542 133.331V130.144Z" fill="#A6AFC9"/>
<path d="M13.1084 154.644L55.542 130.144V133.331L53.9298 134.253L53.45 133.965L45.8116 138.381V138.938L15.8721 156.238L13.1084 154.644Z" fill="#585C73"/>
<path d="M55.5413 133.331L104.5 161.614L63.2949 185.423L27.6553 164.84V163.054L15.8906 156.257L45.8302 138.957V142.298L61.8939 151.572L69.5323 147.156V143.258L53.9484 134.253L55.5413 133.331ZM50.9352 175.324L63.5636 182.62L84.8475 170.331V164.283L72.2192 156.987L50.9352 169.275V175.324Z" fill="#C2C6D7"/>
<path d="M61.8944 151.572L45.8115 142.279V138.938V138.381L61.8944 147.655V151.572Z" fill="#848AA8"/>
<path d="M69.5138 147.156L61.8945 151.572V147.655L69.5138 143.258V147.156Z" fill="#A6AFC9"/>
<path d="M61.8944 147.655L45.8115 138.381L53.4499 133.965L53.9297 134.253L69.5137 143.258L61.8944 147.655Z" fill="#E4E6F0"/>
<path d="M7.12012 151.419V148.481L9.67266 149.959L7.12012 151.419Z" fill="#A6AFC9"/>
<path d="M24.0283 141.645V138.708L26.5809 140.186L24.0283 141.645Z" fill="#A6AFC9"/>
<path d="M39.7471 132.582V129.625L42.2996 131.104L39.7471 132.582Z" fill="#A6AFC9"/>
<path d="M46.5219 128.665L42.2996 131.104L39.7471 129.626L43.9693 127.187L46.5219 128.665Z" fill="#C2C6D7"/>
<path d="M30.4576 137.939L26.5809 140.186L24.0283 138.707L27.9051 136.48L30.4576 137.939Z" fill="#C2C6D7"/>
<path d="M13.2999 147.866L9.67266 149.959L7.12012 148.481L10.7474 146.388L13.2999 147.866Z" fill="#C2C6D7"/>
<path d="M40.5531 198.307L63.2957 211.441L65.4836 212.708L63.2957 213.975L38.3652 199.574L40.5531 198.307Z" fill="#4297E2"/>
<path d="M63.2949 211.441L118.837 179.375L121.025 180.642L65.4828 212.708L63.2949 211.441Z" fill="#4297E2"/>
<path d="M38.3652 199.575L63.2957 213.975V227.051L38.3652 212.651V199.575Z" fill="#2B65C8"/>
<path d="M65.4828 212.708L121.025 180.643V193.699L118.837 194.966L63.2949 227.051V213.975L65.4828 212.708Z" fill="#254A9F"/>
<path d="M63.5639 182.62L50.9355 175.324V169.275L63.5639 176.572V182.62Z" fill="#A6AFC9"/>
<path d="M84.8474 170.332L63.5635 182.62V176.572L84.8474 164.283V170.332Z" fill="#848AA8"/>
<path d="M72.2195 156.987L84.8478 164.283L63.5639 176.572L50.9355 169.275L72.2195 156.987Z" fill="#E4E6F0"/>
<path d="M17.5992 221.637L6.08398 214.993L7.83046 213.995L17.5992 219.621V221.637Z" fill="#E4E6F0"/>
<path d="M6.08398 214.993V198.519L7.83046 199.517V213.995L6.08398 214.993Z" fill="#848AA8"/>
<path d="M7.83008 213.995V199.517L17.5988 205.162V219.62L7.83008 213.995Z" fill="#242A31"/>
<path d="M17.5992 193.468L6.08398 186.825L7.83046 185.807L17.5992 191.452V193.468Z" fill="#E4E6F0"/>
<path d="M6.08398 186.825V170.351L7.83046 171.349V185.807L6.08398 186.825Z" fill="#848AA8"/>
<path d="M7.83008 185.807V171.349L17.5988 176.994V191.453L7.83008 185.807Z" fill="#242A31"/>
<path d="M161.981 293.083V244.639L195.951 225.016V225.707V268.257V273.46L161.981 293.083Z" fill="#2B65C8"/>
<path d="M195.951 225.016L161.981 244.639L157.471 242.047L191.441 222.424L195.951 225.016Z" fill="#4297E2"/>
<path d="M157.471 242.047V247.942L123.117 267.777L64.4473 233.887L141.33 189.475L200 223.365L195.951 225.707V225.016L191.441 222.405L157.471 242.028V242.047ZM188.428 223.365L141.33 196.157L115.421 211.115L112.043 209.156L89.4353 222.213V226.111L76.0392 233.849L78.8029 235.442L123.136 261.056L185.683 224.939L188.447 223.346L188.428 223.365Z" fill="#E4E6F0"/>
<path d="M200.001 265.933L195.951 268.257V225.707L200.001 223.365V265.933Z" fill="#848AA8"/>
<path d="M141.33 196.176L188.427 223.365L185.664 224.978L141.33 199.364V196.176Z" fill="#A6AFC9"/>
<path d="M115.421 211.134L141.33 196.176V199.364L118.185 212.727L115.421 211.134Z" fill="#585C73"/>
<path d="M141.331 199.364L185.665 224.978L123.118 261.095L78.7842 235.481L89.4166 229.336V232.85L104.252 241.414L126.86 228.357V217.758L118.166 212.747L141.312 199.383L141.331 199.364ZM163.325 235.27L176.107 227.896V224.555L139.066 203.166L126.284 210.539V213.88L163.325 235.27Z" fill="#C2C6D7"/>
<path d="M104.271 241.414L89.4355 232.85V229.336V226.149V222.251L104.271 230.815V241.414Z" fill="#A6AFC9"/>
<path d="M126.879 228.357L104.271 241.414V230.815L126.879 217.758V228.357Z" fill="#848AA8"/>
<path d="M104.271 230.815L89.4355 222.251L112.044 209.175L115.422 211.134L118.185 212.727L126.879 217.758L104.271 230.815Z" fill="#E4E6F0"/>
<path d="M176.106 227.896L163.324 235.269V231.928L176.106 224.555V227.896Z" fill="#848AA8"/>
<path d="M163.325 235.269L126.284 213.88V210.539L163.325 231.928V235.269Z" fill="#A6AFC9"/>
<path d="M126.284 210.538L139.047 203.146L176.107 224.555L163.325 231.928L126.284 210.538Z" fill="#E4E6F0"/>
<mask id="mask6_476_16569" style="mask-type:luminance" maskUnits="userSpaceOnUse" x="25" y="128" width="15" height="34">
<path d="M39.2474 128.973L39.1706 157.582C39.1706 158.619 38.4797 159.656 37.1363 160.443C34.411 162.037 29.9585 162.037 27.1948 160.443C25.813 159.637 25.1221 158.6 25.1221 157.544L25.1988 128.935C25.1988 129.991 25.8898 131.027 27.2716 131.834C30.016 133.428 34.4686 133.428 37.213 131.834C38.5757 131.047 39.2474 130.01 39.2474 128.973Z" fill="white"/>
</mask>
<g mask="url(#mask6_476_16569)">
<path d="M39.2469 128.973L39.1702 157.583C39.1702 158.619 38.4792 159.656 37.1358 160.444C36.8671 160.597 36.5984 160.732 36.3105 160.847L36.3873 132.237C36.6752 132.122 36.9439 131.988 37.2126 131.834C38.5752 131.047 39.2469 130.01 39.2469 128.973Z" fill="#CACACA"/>
<path d="M36.3882 132.237L36.3114 160.847C35.2942 161.269 34.1235 161.538 32.9336 161.615L33.0104 133.005C34.2003 132.929 35.371 132.679 36.3882 132.256V132.237Z" fill="#D9D9D9"/>
<path d="M28.8262 132.506L28.7494 161.116C28.1929 160.943 27.6747 160.712 27.1949 160.444C26.7726 160.194 26.408 159.925 26.1201 159.656L26.1969 131.047C26.4848 131.335 26.8494 131.604 27.2716 131.834C27.7514 132.103 28.2696 132.333 28.8262 132.506Z" fill="#D9D9D9"/>
<path d="M26.1968 131.028L26.1201 159.637C25.4483 158.984 25.1221 158.255 25.1221 157.525L25.1988 128.916C25.1988 129.645 25.5251 130.375 26.1968 131.028Z" fill="#CACACA"/>
<path d="M32.9908 135.118V133.005C31.5706 133.101 30.112 132.929 28.8262 132.525V134.638C30.112 135.06 31.5706 135.214 32.9908 135.137V135.118Z" fill="#F2F2F2"/>
<path d="M28.7686 151.841V155.278C30.0544 155.701 31.513 155.854 32.9332 155.777V152.341C31.513 152.437 30.0544 152.264 28.7686 151.841Z" fill="#F2F2F2"/>
<path d="M28.749 158.735V161.135C30.0349 161.557 31.4935 161.711 32.9137 161.615V159.234C31.4935 159.33 30.0349 159.157 28.749 158.735Z" fill="#F2F2F2"/>
<path d="M28.8066 138.074V141.511C30.0925 141.934 31.5511 142.087 32.9713 142.01V138.573C31.5511 138.669 30.0925 138.497 28.8066 138.074Z" fill="#F2F2F2"/>
<path d="M28.7881 144.968V148.405C30.074 148.827 31.5325 148.981 32.9528 148.904V145.467C31.5325 145.563 30.074 145.39 28.7881 144.968Z" fill="#F2F2F2"/>
<path d="M27.1948 154.606C25.813 153.8 25.1221 152.763 25.1221 151.707V155.163C25.1221 156.219 25.7938 157.256 27.1948 158.063C27.6746 158.331 28.1928 158.562 28.7494 158.735V155.278C28.1928 155.106 27.6746 154.875 27.1948 154.606Z" fill="#254A9F"/>
<path d="M37.1366 158.063C38.4993 157.275 39.171 156.239 39.171 155.202V151.746C39.171 152.782 38.4993 153.819 37.1366 154.607C35.9659 155.298 34.469 155.682 32.9336 155.778V159.234C34.469 159.138 35.9467 158.754 37.1366 158.063Z" fill="#254A9F"/>
<path d="M28.749 155.278V158.734C30.0349 159.157 31.4935 159.311 32.9137 159.234V155.778C31.4935 155.874 30.0349 155.701 28.749 155.278Z" fill="#2B65C8"/>
<path d="M37.1552 151.17C38.5178 150.382 39.1896 149.346 39.1896 148.309V144.853C39.1896 145.889 38.5178 146.926 37.1552 147.713C35.9845 148.405 34.4875 148.789 32.9521 148.885V152.341C34.4875 152.245 35.9653 151.861 37.1552 151.17Z" fill="#254A9F"/>
<path d="M27.2143 147.713C25.8325 146.907 25.1416 145.87 25.1416 144.814V148.27C25.1416 149.326 25.8133 150.363 27.2143 151.169C27.6941 151.438 28.2123 151.669 28.7689 151.842V148.385C28.2123 148.213 27.6941 147.982 27.2143 147.713Z" fill="#254A9F"/>
<path d="M28.7686 148.385V151.841C30.0544 152.264 31.513 152.417 32.9332 152.341V148.884C31.513 148.98 30.0544 148.808 28.7686 148.385Z" fill="#2B65C8"/>
<path d="M37.1747 144.276C38.5374 143.489 39.2091 142.452 39.2091 141.415V137.959C39.2091 138.996 38.5374 140.033 37.1747 140.82C36.004 141.511 34.507 141.895 32.9717 141.991V145.447C34.507 145.351 35.9848 144.967 37.1747 144.276Z" fill="#254A9F"/>
<path d="M27.2329 140.82C25.8511 140.014 25.1602 138.977 25.1602 137.921V141.377C25.1602 142.433 25.8319 143.47 27.2329 144.276C27.7127 144.545 28.2309 144.776 28.7874 144.948V141.492C28.2309 141.319 27.7127 141.089 27.2329 140.82Z" fill="#254A9F"/>
<path d="M28.8066 141.511V144.967C30.0925 145.39 31.5511 145.543 32.9713 145.467V142.01C31.5511 142.106 30.0925 141.934 28.8066 141.511Z" fill="#2B65C8"/>
<path d="M27.2524 133.946C25.8706 133.14 25.1797 132.103 25.1797 131.047V134.503C25.1797 135.559 25.8514 136.596 27.2524 137.402C27.7322 137.671 28.2504 137.902 28.807 138.074V134.618C28.2504 134.445 27.7322 134.215 27.2524 133.946Z" fill="#254A9F"/>
<path d="M37.1943 137.403C38.5569 136.615 39.2286 135.578 39.2286 134.542V131.085C39.2286 132.122 38.5569 133.159 37.1943 133.946C36.0235 134.638 34.5266 135.022 32.9912 135.118V138.574C34.5266 138.478 36.0044 138.094 37.1943 137.403Z" fill="#254A9F"/>
<path d="M32.9713 138.574V135.117C31.5511 135.213 30.0925 135.041 28.8066 134.618V138.074C30.0925 138.497 31.5511 138.65 32.9713 138.574Z" fill="#2B65C8"/>
</g>
<path d="M37.1746 126.074C39.9191 127.667 39.9383 130.24 37.213 131.834C34.4878 133.428 30.0352 133.428 27.2716 131.834C24.5271 130.24 24.5079 127.667 27.2332 126.074C29.9584 124.48 34.411 124.48 37.1746 126.074Z" fill="#F5F6F7"/>
<path d="M35.7156 126.918C37.6732 128.051 37.6732 129.875 35.7348 130.989C33.7964 132.122 30.6489 132.122 28.6913 130.989C26.7337 129.856 26.7337 128.032 28.6721 126.918C30.6105 125.786 33.758 125.786 35.7156 126.918Z" fill="#35353F"/>
</g>
<defs>
<clipPath id="clip0_476_16569">
<rect width="200" height="226" fill="white"/>
</clipPath>
</defs>
</svg>
