<svg width="246" height="28" viewBox="0 0 246 28" fill="none" xmlns="http://www.w3.org/2000/svg">
<circle cx="14.0008" cy="14.0001" r="7.17073" fill="#004FD6"/>
<circle cx="14" cy="14" r="12.2927" fill="transparent" stroke="#004FD6" stroke-width="3.41463"/>
<path d="M245.854 15.3536C246.049 15.1583 246.049 14.8417 245.854 14.6464L242.672 11.4645C242.476 11.2692 242.16 11.2692 241.964 11.4645C241.769 11.6597 241.769 11.9763 241.964 12.1716L244.793 15L241.964 17.8284C241.769 18.0237 241.769 18.3403 241.964 18.5355C242.16 18.7308 242.476 18.7308 242.672 18.5355L245.854 15.3536ZM27 15.5H27.9932V14.5H27V15.5ZM29.9795 15.5H31.9659V14.5H29.9795V15.5ZM33.9523 15.5H35.9386V14.5H33.9523V15.5ZM37.925 15.5H39.9114V14.5H37.925V15.5ZM41.8977 15.5H43.8841V14.5H41.8977V15.5ZM45.8705 15.5H47.8568V14.5H45.8705V15.5ZM49.8432 15.5H51.8295V14.5H49.8432V15.5ZM53.8159 15.5H55.8023V14.5H53.8159V15.5ZM57.7886 15.5H59.775V14.5H57.7886V15.5ZM61.7614 15.5H63.7477V14.5H61.7614V15.5ZM65.7341 15.5H67.7205V14.5H65.7341V15.5ZM69.7068 15.5H71.6932V14.5H69.7068V15.5ZM73.6795 15.5H75.6659V14.5H73.6795V15.5ZM77.6523 15.5H79.6386V14.5H77.6523V15.5ZM81.625 15.5H83.6114V14.5H81.625V15.5ZM85.5977 15.5H87.5841V14.5H85.5977V15.5ZM89.5704 15.5H91.5568V14.5H89.5704V15.5ZM93.5432 15.5H95.5295V14.5H93.5432V15.5ZM97.5159 15.5H99.5023V14.5H97.5159V15.5ZM101.489 15.5H103.475V14.5H101.489V15.5ZM105.461 15.5H107.448V14.5H105.461V15.5ZM109.434 15.5H111.42V14.5H109.434V15.5ZM113.407 15.5H115.393V14.5H113.407V15.5ZM117.38 15.5H119.366V14.5H117.38V15.5ZM121.352 15.5H123.339V14.5H121.352V15.5ZM125.325 15.5H127.311V14.5H125.325V15.5ZM129.298 15.5H131.284V14.5H129.298V15.5ZM133.271 15.5H135.257V14.5H133.271V15.5ZM137.243 15.5H139.23V14.5H137.243V15.5ZM141.216 15.5H143.202V14.5H141.216V15.5ZM145.189 15.5H147.175V14.5H145.189V15.5ZM149.161 15.5H151.148V14.5H149.161V15.5ZM153.134 15.5H155.121V14.5H153.134V15.5ZM157.107 15.5H159.093V14.5H157.107V15.5ZM161.08 15.5H163.066V14.5H161.08V15.5ZM165.052 15.5H167.039V14.5H165.052V15.5ZM169.025 15.5H171.011V14.5H169.025V15.5ZM172.998 15.5H174.984V14.5H172.998V15.5ZM176.97 15.5H178.957V14.5H176.97V15.5ZM180.943 15.5H182.93V14.5H180.943V15.5ZM184.916 15.5H186.902V14.5H184.916V15.5ZM188.889 15.5H190.875V14.5H188.889V15.5ZM192.861 15.5H194.848V14.5H192.861V15.5ZM196.834 15.5H198.82V14.5H196.834V15.5ZM200.807 15.5H202.793V14.5H200.807V15.5ZM204.779 15.5H206.766V14.5H204.779V15.5ZM208.752 15.5H210.739V14.5H208.752V15.5ZM212.725 15.5H214.711V14.5H212.725V15.5ZM216.698 15.5H218.684V14.5H216.698V15.5ZM220.67 15.5H222.657V14.5H220.67V15.5ZM224.643 15.5H226.629V14.5H224.643V15.5ZM228.616 15.5H230.602V14.5H228.616V15.5ZM232.589 15.5H234.575V14.5H232.589V15.5ZM236.561 15.5H238.548V14.5H236.561V15.5ZM240.534 15.5H242.52V14.5H240.534V15.5ZM244.507 15.5H245.5V14.5H244.507V15.5Z" fill="#004FD6"/>
</svg>
