<svg width="130" height="24" viewBox="0 0 130 24" fill="none" xmlns="http://www.w3.org/2000/svg">
<path d="M10.4238 23.3952C4.24781 23.3952 0 18.2371 0 12.3156C0 5.22943 6.17596 0.00286865 13.0077 0.00286865C14.6324 0.00286865 18.5181 0.208408 18.5181 2.52806C18.4594 3.13489 18.1853 3.70257 17.7547 4.12344C17.324 4.55409 16.7465 4.80857 16.1397 4.8575C14.3682 4.8575 12.5477 1.56888 10.0127 1.56888C5.97042 1.56888 4.04227 6.2767 4.04227 9.71214C4.04227 16.2405 8.49561 20.3904 13.4971 20.3904C15.4056 20.3512 17.2457 19.6563 18.7041 18.4231L19.3109 19.1767C18.2147 20.4687 16.8542 21.516 15.3176 22.2402C13.7809 22.9645 12.1072 23.356 10.414 23.3756" fill="white"/>
<path d="M38.8959 2.74339V2.23444L44.9152 0.00286865L45.4731 0.19862L45.0719 3.89832C47.9592 1.78421 50.7389 0.00286865 53.9688 0.00286865C60.0371 0.00286865 60.3405 5.01411 60.3405 7.99932V17.0137C60.3405 21.1636 60.546 21.5747 64.2849 22.1228V22.8862H52.4908V22.1228C56.2297 21.5649 56.3863 20.9581 56.4352 17.0137V11.1999C56.4352 7.65675 56.582 2.64551 50.4159 2.64551C49.4567 2.63573 48.4975 2.82169 47.6068 3.19362C46.7162 3.56555 45.9136 4.12344 45.2578 4.81836V17.0235C45.2578 21.1734 45.4634 21.5845 49.2022 22.1326V22.896H37.418V22.1326C41.1568 21.5747 41.3134 20.9679 41.3624 17.0235V7.35334C41.3624 5.22943 41.4113 4.57367 38.8861 2.74339" fill="white"/>
<path d="M77.0863 6.0907L67.3672 6.50177C67.9251 3.97658 69.6477 1.1284 72.535 1.1284C75.2071 1.1284 76.636 3.76125 77.0863 6.0907ZM67.0246 9.98615L67.2302 7.46096H81.9018C81.9213 6.45284 81.7256 5.44472 81.3341 4.50511C80.9426 3.57529 80.3651 2.72377 79.631 2.02885C78.897 1.33394 78.0259 0.785831 77.0765 0.443266C76.1271 0.100701 75.1092 -0.0461127 74.1011 0.0126127C67.2693 0.0126127 62.7181 5.63068 62.7181 12.1688C62.6594 13.6076 62.8845 15.0463 63.3837 16.397C63.8828 17.7477 64.656 18.9809 65.6446 20.0282C66.6331 21.0755 67.8272 21.9172 69.1485 22.4947C70.4699 23.0721 71.8891 23.3756 73.3278 23.3951C75.256 23.307 77.1254 22.7198 78.7502 21.6823C80.3847 20.6546 81.7158 19.2158 82.6358 17.5226L81.8822 16.9647C81.2362 17.9532 80.3455 18.7656 79.308 19.3235C78.2608 19.8814 77.096 20.1652 75.9118 20.1554C74.6394 20.1457 73.3768 19.8618 72.2218 19.3333C71.0669 18.8048 70.0294 18.0315 69.1877 17.0724C68.346 16.1132 67.7196 14.9876 67.3476 13.7642C66.9757 12.5407 66.8583 11.2585 67.0149 9.98615" fill="white"/>
<path d="M90.9945 23.3952L83.7125 5.31754C82.8023 3.1447 82.2444 1.42209 79.5137 1.26548V0.511841H90.1919V1.27527C86.4531 1.38293 87.1088 2.99788 88.0191 5.38605L92.8737 17.7869L97.6305 6.55077C96.0645 2.49872 96.0155 1.73529 93.0303 1.28506V0.531416H103.855V1.28506C100.058 1.43187 100.567 2.95873 101.183 4.62262L106.146 17.7869C108.172 13.2748 111.715 5.48393 111.715 3.10555C111.715 1.43187 110.149 1.43187 108.876 1.28506V0.531416H117.421V1.28506C114.534 1.4906 113.78 3.51663 112.723 5.79713L104.824 23.405H104.12L98.1003 8.01891L91.7775 23.405H91.0141L90.9945 23.3952Z" fill="white"/>
<path d="M126.759 6.3942C126.054 4.06476 124.948 1.22636 122.061 1.22636C121.601 1.21657 121.141 1.30466 120.72 1.48084C120.299 1.65702 119.917 1.92128 119.594 2.25406C119.281 2.58683 119.036 2.98813 118.889 3.41878C118.743 3.84943 118.684 4.30945 118.713 4.76946C118.713 9.98624 129.186 9.82964 129.186 16.3579C129.186 20.87 124.889 23.3952 120.788 23.3952C118.586 23.4344 116.433 22.7786 114.622 21.5258L114.221 15.9077L115.385 15.7022C116.1 18.7951 117.813 22.0837 121.405 22.0837C121.933 22.0935 122.452 22.0054 122.932 21.8096C123.421 21.6139 123.861 21.3202 124.224 20.9385C124.586 20.5666 124.87 20.1164 125.056 19.627C125.242 19.1376 125.32 18.6091 125.29 18.0903C125.29 12.3157 114.818 13.4804 114.818 6.2376C114.818 2.29321 118.517 0.00291537 122.109 0.00291537C124.106 -0.0166598 126.064 0.570595 127.728 1.67659L127.874 6.17887L126.768 6.37463L126.759 6.3942Z" fill="white"/>
<path fill-rule="evenodd" clip-rule="evenodd" d="M27.4038 10.7693C29.0285 10.7693 30.3401 9.45774 30.3401 7.833C30.3401 6.20826 29.0285 4.89673 27.4038 4.89673C25.7791 4.89673 24.4675 6.20826 24.4675 7.833C24.4675 9.45774 25.7791 10.7693 27.4038 10.7693ZM28.8719 18.5993C32.924 18.5993 36.2126 15.3107 36.2126 11.2586C36.2126 7.20659 32.924 3.91797 28.8719 3.91797C24.8199 3.91797 21.5312 7.20659 21.5312 11.2586C21.5312 15.3107 24.8199 18.5993 28.8719 18.5993Z" fill="white"/>
</svg>
