<svg xmlns="http://www.w3.org/2000/svg" xmlns:xlink="http://www.w3.org/1999/xlink" x="0px" y="0px"
     viewBox="0 0 266.2 79.5" style="enable-background:new 0 0 266.2 79.5;" xml:space="preserve">
<path fill="#FEFEFE" clip-rule="evenodd" fill-rule="evenodd" d="M222.4,0h6.3c7.4,0,13.7,5.1,15.4,12l-5,6v-2.1c0-5.7-4.7-10.4-10.4-10.4h-6.3c-5.7,0-10.4,4.7-10.4,10.4v18.2
		c0,4,2.4,7.6,5.8,9.3l-3.6,4.3c-4.6-2.8-7.7-7.9-7.7-13.6V15.9C206.5,7.2,213.6,0,222.4,0"/>
    <path fill="#FEFEFE" clip-rule="evenodd" fill-rule="evenodd" d="M176.4,13.7c0.4-2.3,1.3-4.4,3.1-5.9c2-1.7,4.4-2.3,7-2.3c2.6,0,5.2,0.6,7.2,2.5c2,1.9,2.7,4.4,2.7,7
		c0,5.5-4.5,10.1-8.5,13.3l-17.9,14.1v7.6h36v-5.4h-25.3v-3.3l12.2-9.9c5.1-4.1,10-9.7,10-16.6c0-4.2-1.1-8.1-4.4-11
		C195.2,1,191,0,186.7,0c-4.3,0-8.6,1-12,3.8c-3,2.6-4.4,6.1-4.8,9.9L176.4,13.7L176.4,13.7z"/>
    <polygon fill="#FEFEFE" points="71.9,50.5 71.9,23 91.4,23 91.4,28 77.5,28 77.5,50.5 	"/>
    <polygon fill="#FEFEFE" points="98.1,50.5 98.1,22.1 98.9,22.1 111.5,37 124.2,22.1 124.9,22.1 124.9,50.5 119.4,50.5 119.4,35.3
		111.5,44.5 103.7,35.6 103.7,50.5 	"/>
    <path fill="#FEFEFE" d="M147.3,39.6h-6.8l3.4-7.6L147.3,39.6z M152.4,50.5h5.9l-14-28.3h-0.7l-13.8,28.3h5.9l2.9-6.2h11.1L152.4,50.5z
		"/>
    <polygon fill="#FEFEFE" points="40.3,51.6 40.3,23 45.9,23 45.9,39.4 63.3,22.1 63.8,22.1 63.8,50.5 58.2,50.5 58.2,34.3 40.8,51.6
		"/>
    <polygon fill="#FEFEFE" points="0.3,11.8 0,12.4 22.6,37 0,61.6 0.3,62.2 38.6,62.2 38.6,56.8 12.6,56.8 30.2,37 30.2,37 12.6,17.3
		38.6,17.3 38.6,11.8 "/>
    <path fill="#FEFEFE" d="M12.5,47.1c-2.8-2.7-4.2-6-4.2-10.1c0-4.1,1.4-7.5,4.1-10.1c2.8-2.6,6.3-3.9,10.5-3.9c2.7,0,5,0.6,7.2,1.7v5.6
		c-2.1-1.4-4.5-2.1-7.1-2.1c-2.6,0-4.7,0.8-6.5,2.5c-1.7,1.7-2.5,3.7-2.5,6.3c0,2.6,0.9,4.7,2.6,6.4c1.7,1.7,4,2.5,6.6,2.5
		c2.9,0,5.4-0.8,7.4-2.3V49c-2.2,1.3-4.8,2-7.7,2C18.8,51,15.3,49.7,12.5,47.1"/>
    <polygon fill="#FEFEFE" points="248.7,15.6 234.8,43.2 248.8,43.2 221.3,79.5 233.9,51.2 218.7,51.2 "/>
    <path fill="#FEFEFE" d="M242.5,38.3h0.3c0.3,0,0.6-0.1,0.8-0.2c0.2-0.1,0.3-0.4,0.4-0.8s0.1-1.1,0.1-2v-3.7h6.1V40h-1.8v-6.8h-2.7v2.3
		c0,0.8,0,1.4-0.1,2s-0.2,1-0.3,1.3c-0.1,0.3-0.3,0.6-0.6,0.8c-0.2,0.2-0.5,0.3-0.8,0.4c-0.3,0.1-0.7,0.1-1.1,0.1h-0.3V38.3z"/>
    <polygon fill="#FEFEFE" points="253.9,38.5 258.5,38.5 258.5,40 252.2,40 252.2,31.7 258.4,31.7 258.4,33.2 253.9,33.2 253.9,35
		257.4,35 257.4,36.5 253.9,36.5 	"/>
    <polygon fill="#FEFEFE"
             points="266.2,31.7 266.2,33.2 263.5,33.2 263.5,40 261.8,40 261.8,33.2 259.2,33.2 259.2,31.7 "/>
</svg>
