<svg width="123" height="40" viewBox="0 0 123 40" fill="none" xmlns="http://www.w3.org/2000/svg">
<path d="M55.8682 30.1759H60.2005V12.6118H71.0588V8.72702H55.8682V30.1759Z" fill="white"/>
<path d="M86.6542 19.644L76.856 8.05571H76.2471V30.1759H80.5757V18.6096L86.6395 25.4914L92.7583 18.3748V30.1759H97.032V8.05571H96.5551L86.6542 19.644Z" fill="white"/>
<path d="M112.094 8.05571H111.533L100.803 30.1759H105.344L107.56 25.3007H116.18L118.396 30.1759H123L112.09 8.05571H112.094ZM109.189 21.7203L111.87 15.8253L114.486 21.7203H109.189Z" fill="white"/>
<path d="M35.6419 21.5699V8.72703H31.3096V31.093H31.7094L45.2677 17.5311V30.1759H49.5707V8.05572L49.1781 8.05205L35.6419 21.5699Z" fill="white"/>
<path d="M0 0.498896L10.0476 11.4636C9.93391 11.5627 9.82019 11.6617 9.71014 11.7681C7.57516 13.8114 6.48932 16.4306 6.48932 19.6477C6.48932 22.8649 7.57149 25.4511 9.73949 27.5273C9.85687 27.6374 9.97426 27.7438 10.0953 27.8465L0 38.8662L0.220101 39.3651H30.0292V35.0878H9.76516L14.1965 30.0915C15.3374 30.4253 16.5663 30.5941 17.8906 30.5941C20.176 30.5941 22.1642 30.0805 23.8773 29.057V24.6954C22.3146 25.9316 20.3887 26.5296 18.1033 26.5296C17.8576 26.5296 17.6191 26.5185 17.3807 26.5002L23.4335 19.6771L17.311 12.7769C17.5127 12.7622 17.7108 12.7512 17.9199 12.7512C19.9962 12.7512 21.8304 13.2941 23.4555 14.3763V10.0146C21.801 9.14154 19.9669 8.69034 17.8906 8.69034C16.5516 8.69034 15.3007 8.86275 14.1452 9.20391L9.76516 4.2663H30.0255V0H0.220101L0 0.498896ZM17.5824 19.6844L13.019 24.6624C13.0007 24.644 12.9786 24.6293 12.9603 24.611C11.6067 23.3197 10.917 21.6653 10.917 19.6514C10.917 17.6375 11.5773 16.0124 12.9016 14.7174C12.9236 14.6954 12.9493 14.6771 12.9713 14.6551L17.5824 19.6881V19.6844Z" fill="white"/>
</svg>
