<svg width="84" height="103" viewBox="0 0 84 103" fill="none" xmlns="http://www.w3.org/2000/svg">
<path fill-rule="evenodd" clip-rule="evenodd" d="M32.3742 0C17.9091 0 5.65591 10.6596 3.65346 24.9854L0.0588533 50.7017C-0.445599 54.3106 2.35707 57.5323 6.00108 57.5323H33.1529V70.6762C33.1529 75.2647 38.8166 77.43 41.8777 74.0118L56.6354 57.5323H56.6364L63.7234 6.8306C64.2279 3.22168 61.4252 0 57.7812 0H32.3742Z" fill="#00A4FD"/>
<path d="M21.4288 50.7192L19.9433 50.5115L21.4288 50.7192ZM17.8342 76.4355L16.3487 76.2278L17.8342 76.4355ZM50.9283 83.2661H52.4283V81.7661H50.9283V83.2661ZM59.653 99.7456L58.5356 98.7449L59.653 99.7456ZM74.4108 83.2661V81.7661H73.7405L73.2934 82.2654L74.4108 83.2661ZM74.4118 83.2661V84.7661H75.7167L75.8973 83.4737L74.4118 83.2661ZM81.4988 32.5644L82.9844 32.772V32.772L81.4988 32.5644ZM22.9144 50.9268C24.8133 37.342 36.4327 27.2338 50.1496 27.2338V24.2338C34.9363 24.2338 22.0493 35.4447 19.9433 50.5115L22.9144 50.9268ZM19.3198 76.6431L22.9144 50.9268L19.9433 50.5115L16.3487 76.2278L19.3198 76.6431ZM23.7765 81.7661C21.0435 81.7661 18.9415 79.3498 19.3198 76.6431L16.3487 76.2278C15.7181 80.739 19.2215 84.7661 23.7765 84.7661V81.7661ZM50.9283 81.7661H23.7765V84.7661H50.9283V81.7661ZM49.4283 83.2661V96.41H52.4283V83.2661H49.4283ZM49.4283 96.41C49.4283 102.375 56.791 105.19 60.7705 100.746L58.5356 98.7449C56.3929 101.138 52.4283 99.6219 52.4283 96.41H49.4283ZM60.7705 100.746L75.5282 84.2667L73.2934 82.2654L58.5356 98.7449L60.7705 100.746ZM74.4118 81.7661H74.4108V84.7661H74.4118V81.7661ZM80.0132 32.3567L72.9262 83.0584L75.8973 83.4737L82.9844 32.772L80.0132 32.3567ZM75.5566 27.2338C78.2896 27.2338 80.3916 29.65 80.0132 32.3567L82.9844 32.772C83.6149 28.2609 80.1116 24.2338 75.5566 24.2338V27.2338ZM50.1496 27.2338H75.5566V24.2338H50.1496V27.2338Z" fill="#00A4FD"/>
</svg>
