<svg width="83" height="102" viewBox="0 0 83 102" fill="none" xmlns="http://www.w3.org/2000/svg">
<path fill-rule="evenodd" clip-rule="evenodd" d="M32.3742 0C17.9091 0 5.65591 10.6596 3.65346 24.9854L0.0588533 50.7017C-0.445599 54.3106 2.35707 57.5323 6.00108 57.5323H33.1529V70.6762C33.1529 75.2647 38.8166 77.43 41.8777 74.0118L56.6354 57.5323H56.6364L63.7234 6.8306C64.2279 3.22168 61.4252 0 57.7812 0H32.3742Z" fill="#00A4FD"/>
<path d="M21.4288 50.7192L20.9337 50.65L21.4288 50.7192ZM17.8342 76.4355L17.3391 76.3662L17.8342 76.4355ZM50.9283 83.2661H51.4283V82.7661H50.9283V83.2661ZM59.653 99.7456L59.2806 99.412L59.653 99.7456ZM74.4108 83.2661V82.7661H74.1874L74.0383 82.9325L74.4108 83.2661ZM74.4118 83.2661V83.7661H74.8467L74.9069 83.3353L74.4118 83.2661ZM81.4988 32.5644L81.994 32.6336L81.4988 32.5644ZM21.924 50.7884C23.892 36.7096 35.9339 26.2338 50.1496 26.2338V25.2338C35.4351 25.2338 22.9706 36.0771 20.9337 50.65L21.924 50.7884ZM18.3294 76.5047L21.924 50.7884L20.9337 50.65L17.3391 76.3662L18.3294 76.5047ZM23.7765 82.7661C20.4361 82.7661 17.867 79.8129 18.3294 76.5047L17.3391 76.3662C16.7926 80.2759 19.8288 83.7661 23.7765 83.7661V82.7661ZM50.9283 82.7661H23.7765V83.7661H50.9283V82.7661ZM50.4283 83.2661V96.41H51.4283V83.2661H50.4283ZM50.4283 96.41C50.4283 101.457 56.6583 103.839 60.0255 100.079L59.2806 99.412C56.5256 102.488 51.4283 100.54 51.4283 96.41H50.4283ZM60.0255 100.079L74.7833 83.5996L74.0383 82.9325L59.2806 99.412L60.0255 100.079ZM74.4118 82.7661H74.4108V83.7661H74.4118V82.7661ZM81.0036 32.4951L73.9166 83.1968L74.9069 83.3353L81.994 32.6336L81.0036 32.4951ZM75.5566 26.2338C78.8969 26.2338 81.466 29.187 81.0036 32.4951L81.994 32.6336C82.5405 28.7239 79.5043 25.2338 75.5566 25.2338V26.2338ZM50.1496 26.2338H75.5566V25.2338H50.1496V26.2338Z" fill="#00A4FD"/>
</svg>
