<svg width="37" height="38" viewBox="0 0 37 38" fill="none" xmlns="http://www.w3.org/2000/svg">
<path fill-rule="evenodd" clip-rule="evenodd" d="M0.064936 35.4256C-0.072966 35.8805 0.00972803 36.3809 0.303919 36.763C0.588916 37.1452 1.03941 37.3726 1.52667 37.3726L25.8434 37.5C26.3306 37.5 26.7903 37.2725 27.0845 36.8813C27.3787 36.4901 27.4614 35.9897 27.3143 35.5257C24.3908 26.3455 22.7544 20.0041 21.4673 10.2871C21.3662 9.53194 20.7134 8.96784 19.9503 8.96784H7.62194C6.85888 8.96784 6.20612 9.53193 6.10499 10.278C4.70759 20.6773 2.68503 26.755 0.0740823 35.4165M3.57679 34.3611C5.84758 26.8823 7.64032 21.0503 8.9366 12.0067H18.5989C19.7941 20.5044 21.2926 26.5275 23.7565 34.4612L3.56764 34.352L3.57679 34.3611ZM24.8689 17.2563H30.1184C30.8906 22.4788 31.8467 25.6359 33.3728 30.4215L28.6474 30.3943C27.8016 30.3943 27.1121 31.0675 27.1121 31.9046C27.1121 32.7416 27.7832 33.424 28.629 33.424L35.4598 33.4604C35.947 33.4604 36.4067 33.2329 36.7009 32.8417C36.9859 32.4505 37.0778 31.9501 36.9307 31.4861C34.9633 25.2901 33.8509 22.0967 32.9775 15.5459C32.8764 14.7907 32.2236 14.2266 31.4606 14.2266H24.8781C24.0323 14.2266 23.3519 14.909 23.3519 15.737C23.3519 16.5649 24.0323 17.2473 24.8781 17.2473M15.4456 17.684C15.4456 17.4929 15.3169 17.32 15.133 17.2563C14.9491 17.1927 14.7469 17.2564 14.6274 17.411L8.9458 24.9262C8.84467 25.0627 8.82629 25.2446 8.89984 25.3902C8.98258 25.5449 9.13888 25.6359 9.30436 25.6359H12.2554V30.4398C12.2554 30.6308 12.375 30.8037 12.568 30.8674C12.7519 30.9311 12.9541 30.8674 13.0737 30.7127L18.7369 23.243C18.838 23.1066 18.8564 22.9246 18.7736 22.779C18.7001 22.6243 18.5438 22.5334 18.3691 22.5334H15.4364V17.684H15.4456ZM24.6483 10.2507L24.3264 11.8156C24.2345 12.2614 24.4552 12.7163 24.8689 12.9256C25.2826 13.1258 25.7882 13.0257 26.0916 12.689L26.6248 12.0885H26.634C26.9558 12.2432 27.3971 12.3433 27.9946 12.1795C28.3256 12.0885 28.6198 11.9157 28.868 11.6882C29.3829 11.8884 29.9897 11.9521 30.6332 11.9794C31.5617 12.0158 32.2972 11.4789 32.7109 10.6328C33.2073 9.6138 33.1338 8.16719 32.5362 7.34834C31.8375 6.40212 30.5964 5.9563 29.3737 6.34753C28.8128 6.52949 28.3348 6.86614 27.9855 7.29376C27.5534 7.10269 26.919 7.0299 25.9721 7.45752C24.9333 7.92153 24.3173 9.00422 24.6114 10.096C24.6206 10.1415 24.6391 10.1961 24.6575 10.2416M12.283 5.80163L11.9613 7.36653C11.8693 7.81235 12.09 8.26726 12.5037 8.47652C12.9174 8.67668 13.4138 8.57662 13.7264 8.23998L14.6641 7.17547C14.756 7.15728 14.848 7.13907 14.9308 7.11178C15.2066 7.0208 15.4548 6.88434 15.6662 6.70237C16.319 7.04811 17.1004 7.12998 17.8727 6.88432C18.0382 6.82973 18.2036 6.75695 18.3507 6.68416C19.2425 7.5485 20.5663 7.94883 21.8626 7.60309C23.8116 7.08449 24.97 5.10106 24.446 3.18132C23.9219 1.25249 21.9178 0.106106 19.978 0.624708C19.3712 0.779378 18.8472 1.07962 18.4243 1.47995C17.7807 1.15241 17.0085 1.07053 16.2546 1.31619C15.4456 1.58004 14.8112 2.16233 14.4619 2.8902C14.2137 2.8811 13.9562 2.90838 13.6988 2.99026C12.5864 3.3451 11.9245 4.54608 12.2279 5.67426C12.2371 5.71976 12.2554 5.77435 12.2738 5.81984" fill="white"/>
</svg>
