<svg width="37" height="38" viewBox="0 0 37 38" fill="none" xmlns="http://www.w3.org/2000/svg">
<path fill-rule="evenodd" clip-rule="evenodd" d="M25.0838 6.24327H25.0286C21.2651 6.24327 17.9341 7.15449 15.8637 8.47986C14.0878 9.62115 13.1676 11.1214 13.1676 12.64C13.1676 12.6861 13.1676 12.7229 13.1676 12.7597C13.14 12.8886 13.1124 31.2137 13.1124 31.2137C13.1124 31.4254 13.1492 31.6278 13.232 31.8119C13.4805 33.1097 14.4098 34.3522 15.9833 35.3278C18.0629 36.6256 21.3571 37.5 25.0838 37.5C28.8105 37.5 32.1967 36.5796 34.2671 35.107C35.9418 33.9104 36.8804 32.3458 36.9356 30.5786V13.358C36.9816 13.1187 37 12.8794 37 12.64C37 11.1122 36.0798 9.61194 34.2855 8.47065C32.2059 7.13607 28.8657 6.23409 25.0838 6.23409M16.1858 29.4925V31.1953L16.241 31.14C16.2778 31.7751 16.8575 32.2629 17.612 32.7323C19.3235 33.7908 22.038 34.4443 25.093 34.4443C28.148 34.4443 30.8349 33.8092 32.5004 32.6219C33.3009 32.0512 33.8438 31.3609 33.8806 30.5234V29.5109C31.801 30.7351 28.6173 31.545 25.047 31.545C21.4768 31.545 18.2838 30.7259 16.195 29.5017M11.2905 0.5H11.2445C7.70182 0.5 4.56404 1.35598 2.61328 2.60772C0.910964 3.70299 0.0459972 5.1296 0.0459972 6.59303V6.66668C0.0459972 6.66668 0.0459972 6.69427 0.0459972 6.70347C0.0183922 6.82312 0.00921068 6.952 0.00921068 7.07165C0.00921068 7.33857 0 23.9794 0 23.9794C0 24.191 0.0368023 24.3843 0.110416 24.5684C0.34966 25.8017 1.23302 26.9798 2.72369 27.9094C4.68365 29.1244 7.78462 29.9527 11.2905 29.9527C12.137 29.9527 12.818 29.2624 12.818 28.4249C12.818 27.5873 12.1278 26.897 11.2905 26.897C8.45635 26.897 5.92589 26.2987 4.3432 25.3139C3.67148 24.8905 3.13778 24.4672 3.11018 23.9057L3.06415 23.9609V22.5435C5.02411 23.648 7.95947 24.3843 11.2445 24.3843C12.091 24.3843 12.772 23.694 12.772 22.8565C12.772 22.0189 12.091 21.3286 11.2445 21.3286C8.38274 21.3286 5.84306 20.712 4.26957 19.6995C3.61625 19.2761 3.10097 18.8527 3.10097 18.3005C3.10097 18.1716 3.08257 18.0428 3.05497 17.9231V16.6898C5.01493 17.7943 7.95025 18.5306 11.2353 18.5306C12.0818 18.5306 12.7627 17.8403 12.7627 17.0027C12.7627 16.1652 12.0818 15.4657 11.2353 15.4657C8.37353 15.4657 5.83388 14.849 4.26039 13.8366C3.60707 13.4224 3.09176 12.9898 3.09176 12.4376C3.09176 12.3087 3.07336 12.1798 3.04576 12.0602V10.8637C5.00572 11.9682 7.94107 12.7045 11.2261 12.7045C12.0726 12.7045 12.7535 12.0142 12.7535 11.1766C12.7535 10.3391 12.0726 9.64876 11.2261 9.64876C8.36435 9.64876 5.82467 9.0321 4.25118 8.01966C3.65307 7.6423 3.18378 7.25572 3.10097 6.76791C3.10097 6.7495 3.10097 6.72188 3.10097 6.70347C3.10097 6.67586 3.10097 6.64825 3.10097 6.62064C3.10097 6.0592 3.61625 5.63582 4.26957 5.22164C5.84306 4.20921 8.39194 3.60176 11.2629 3.59255C14.6307 3.59255 17.5752 4.4209 18.9187 5.77389C19.5076 6.37215 20.483 6.38133 21.0811 5.78307C21.6424 5.23084 21.6792 4.36568 21.2191 3.75822C21.1363 3.59254 21.0167 3.44527 20.8694 3.31641C19.0383 1.70572 15.4404 0.527611 11.2905 0.527611M16.1858 23.2338V24.7433C16.2226 24.8721 16.241 25.001 16.241 25.139C16.241 25.7649 16.8023 26.2527 17.5292 26.7313C19.2223 27.8174 21.9552 28.4801 25.0378 28.4801C28.1204 28.4801 30.8533 27.8174 32.5464 26.7313C33.2825 26.2619 33.8346 25.7741 33.8346 25.139C33.8346 25.0194 33.8531 24.8998 33.8715 24.7893V23.243C31.7919 24.4671 28.6081 25.2771 25.0378 25.2771C21.4675 25.2771 18.2746 24.458 16.1858 23.2338ZM16.1858 17.0027V18.4754C16.2226 18.6042 16.241 18.7331 16.241 18.8711C16.241 19.497 16.8023 19.9848 17.5292 20.4634C19.2223 21.5495 21.9552 22.2122 25.0378 22.2122C28.1204 22.2122 30.8533 21.5495 32.5464 20.4634C33.2825 19.994 33.8346 19.5062 33.8346 18.8711C33.8346 18.7515 33.8531 18.6318 33.8715 18.5214V17.0119C31.7919 18.2361 28.6081 19.046 25.0378 19.046C21.4675 19.046 18.2746 18.2269 16.1858 17.0027ZM25.0562 9.30821C28.1204 9.30821 30.8533 9.9801 32.5372 11.057C33.2733 11.5264 33.8254 12.0142 33.8254 12.6493C33.8254 13.2843 33.2641 13.7629 32.5372 14.2415C30.8441 15.3276 28.1112 15.9903 25.0286 15.9903C21.946 15.9903 19.2131 15.3276 17.52 14.2415C16.8575 13.8181 16.333 13.3672 16.241 12.8241C16.241 12.8057 16.241 12.7781 16.241 12.7597C16.241 12.7229 16.241 12.6953 16.241 12.6584C16.241 12.0326 16.8023 11.5448 17.5384 11.0754C19.2315 9.98929 21.9828 9.3266 25.0654 9.3174" fill="white"/>
</svg>
