<svg width="36" height="38" viewBox="0 0 36 38" fill="none" xmlns="http://www.w3.org/2000/svg">
<path fill-rule="evenodd" clip-rule="evenodd" d="M13.2736 8.85675H1.73505C0.862786 8.85675 0.16118 9.54701 0.16118 10.3845C0.16118 11.222 0.872267 11.9123 1.73505 11.9123H13.0176L12.828 16.919H1.57387C0.701607 16.919 0 17.6092 0 18.4467C0 19.2842 0.711088 19.9745 1.57387 19.9745H12.7142L12.4962 25.8831L8.47616 35.7584C8.24862 36.3106 8.44772 36.9365 8.95022 37.2678C9.45273 37.6083 10.1259 37.5715 10.581 37.1758L18.0427 30.715L25.5043 37.1758C25.9594 37.5715 26.6326 37.6083 27.1351 37.2678C27.6376 36.9273 27.8272 36.3014 27.6092 35.7584L23.5891 25.8831L23.3426 19.9745H34.2649C35.1372 19.9745 35.8483 19.2934 35.8483 18.4467C35.8483 17.6 35.1372 16.919 34.2649 16.919H23.2099L23.0013 11.9123H34.4261C35.2984 11.9123 36 11.2312 36 10.3845C36 9.53781 35.2889 8.85675 34.4261 8.85675H22.7264L19.3037 1.2639C19.3037 1.2639 19.0192 0.5 18.0711 0.5C17.1988 0.5 16.6015 1.65044 16.7817 1.25469L13.2831 8.85675H13.2736ZM20.7448 21.4195L20.9439 26.2052C20.9439 26.3525 20.9818 26.4906 21.0387 26.6194L23.1056 31.6997L18.9055 28.0644C18.403 27.6318 17.6539 27.6318 17.1514 28.0644L12.9418 31.6997L14.7717 27.1992L20.7448 21.401V21.4195ZM15.3405 19.9837L15.1888 23.9228L19.2468 19.9837H15.3405ZM17.2842 16.919H20.5647L20.4319 13.8634L17.2842 16.919ZM3.271 14.342C3.271 14.0015 2.98657 13.7254 2.63576 13.7254H1.12826C0.777456 13.7254 0.493021 14.0015 0.493021 14.342V15.5753C0.493021 15.9158 0.777456 16.1919 1.12826 16.1919H2.63576C2.98657 16.1919 3.271 15.9158 3.271 15.5753V14.342ZM35.0993 14.342C35.0993 14.0015 34.8148 13.7254 34.464 13.7254H32.9565C32.6057 13.7254 32.3213 14.0015 32.3213 14.342V15.5753C32.3213 15.9158 32.6057 16.1919 32.9565 16.1919H34.464C34.8148 16.1919 35.0993 15.9158 35.0993 15.5753V14.342ZM15.6439 11.9123L15.5017 15.7593L19.4648 11.9123H15.6439ZM16.1559 8.85675H19.8441L18.0237 4.80721L16.1559 8.85675ZM3.271 6.49146C3.271 6.15093 2.98657 5.87481 2.63576 5.87481H1.12826C0.777456 5.87481 0.493021 6.15093 0.493021 6.49146V7.72472C0.493021 8.06524 0.777456 8.34136 1.12826 8.34136H2.63576C2.98657 8.34136 3.271 8.06524 3.271 7.72472V6.49146ZM35.0993 5.93003C35.0993 5.5895 34.8148 5.31342 34.464 5.31342H32.9565C32.6057 5.31342 32.3213 5.5895 32.3213 5.93003V7.16332C32.3213 7.50385 32.6057 7.77993 32.9565 7.77993H34.464C34.8148 7.77993 35.0993 7.50385 35.0993 7.16332V5.93003Z" fill="white"/>
</svg>
