<svg width="44" height="42" viewBox="0 0 44 42" fill="none" xmlns="http://www.w3.org/2000/svg">
<path d="M6.44531 20.456H10.7523C11.3385 20.456 11.906 20.534 12.4462 20.6774C13.5116 18.6381 15.6869 17.2368 18.1934 17.2368H25.8066C28.3131 17.2368 30.4884 18.6381 31.5538 20.6774C32.094 20.534 32.6615 20.456 33.2477 20.456H37.5547C41.1086 20.456 44 23.2713 44 26.7317V33.4356C44 35.5119 42.2652 37.2011 40.1328 37.2011H3.86719C1.73482 37.2011 0 35.5119 0 33.4356V26.7317C0 23.2713 2.89137 20.456 6.44531 20.456ZM32.2519 23.5127V34.6909H40.1328C40.8436 34.6909 41.4219 34.1278 41.4219 33.4357V26.7318C41.4219 24.6555 39.6871 22.9664 37.5547 22.9664H33.2477C32.8977 22.9664 32.5589 23.0126 32.2363 23.0979C32.2456 23.2352 32.2519 23.3733 32.2519 23.5127ZM14.3262 34.6909H29.6738V23.5126C29.6738 21.4363 27.939 19.7472 25.8066 19.7472H18.1934C16.061 19.7472 14.3262 21.4363 14.3262 23.5126V34.6909ZM2.57812 33.4357C2.57812 34.1278 3.1564 34.6909 3.86719 34.6909H11.7481V23.5126C11.7481 23.3731 11.7544 23.235 11.7637 23.0978C11.4411 23.0126 11.1023 22.9663 10.7523 22.9663H6.44531C4.31295 22.9663 2.57812 24.6554 2.57812 26.7317V33.4357Z" fill="white"/>
<path d="M35.4015 10.3813C38.5596 10.3813 41.1289 12.883 41.1289 15.958C41.129 19.033 38.5596 21.5347 35.4015 21.5347C32.2435 21.5347 29.6741 19.033 29.6741 15.958C29.6741 12.883 32.2434 10.3813 35.4015 10.3813ZM35.4016 19.0244C37.1381 19.0244 38.5509 17.6489 38.5509 15.958C38.5509 14.2672 37.1381 12.8916 35.4016 12.8916C33.6651 12.8916 32.2523 14.2672 32.2523 15.958C32.2523 17.6489 33.6651 19.0244 35.4016 19.0244Z" fill="white"/>
<path d="M21.9997 4.14404C26.2189 4.14404 29.6514 7.48623 29.6514 11.5944C29.6514 15.7025 26.2189 19.0447 21.9997 19.0447C17.7805 19.0447 14.348 15.7025 14.348 11.5944C14.348 7.48631 17.7805 4.14404 21.9997 4.14404ZM21.9997 16.5344C24.7973 16.5344 27.0732 14.3184 27.0732 11.5944C27.0732 8.87048 24.7973 6.65432 21.9997 6.65432C19.2021 6.65432 16.9261 8.8704 16.9261 11.5944C16.9261 14.3184 19.2021 16.5344 21.9997 16.5344Z" fill="white"/>
<path d="M8.59878 10.3813C11.7568 10.3813 14.3262 12.883 14.3262 15.958C14.3261 19.033 11.7568 21.5347 8.59878 21.5347C5.44066 21.5347 2.87139 19.033 2.87139 15.958C2.87139 12.883 5.44066 10.3813 8.59878 10.3813ZM8.59878 19.0244C10.3352 19.0244 11.748 17.6489 11.748 15.958C11.748 14.2672 10.3352 12.8916 8.59878 12.8916C6.86224 12.8916 5.44952 14.2672 5.44952 15.958C5.44952 17.6489 6.86224 19.0244 8.59878 19.0244Z" fill="white"/>
</svg>
