<svg width="37" height="38" viewBox="0 0 37 38" fill="none" xmlns="http://www.w3.org/2000/svg">
<mask id="path-1-inside-1_161_412" fill="white">
<path fill-rule="evenodd" clip-rule="evenodd" d="M0.064936 35.4256C-0.072966 35.8805 0.00972803 36.3809 0.303919 36.763C0.588916 37.1452 1.03941 37.3726 1.52667 37.3726L25.8434 37.5C26.3306 37.5 26.7903 37.2725 27.0845 36.8813C27.3787 36.4901 27.4614 35.9897 27.3143 35.5257C24.3908 26.3455 22.7544 20.0041 21.4673 10.2871C21.3662 9.53194 20.7134 8.96784 19.9503 8.96784H7.62194C6.85888 8.96784 6.20612 9.53193 6.10499 10.278C4.70759 20.6773 2.68503 26.755 0.0740823 35.4165M3.57679 34.3611C5.84758 26.8823 7.64032 21.0503 8.9366 12.0067H18.5989C19.7941 20.5044 21.2926 26.5275 23.7565 34.4612L3.56764 34.352L3.57679 34.3611ZM24.8689 17.2563H30.1184C30.8906 22.4788 31.8467 25.6359 33.3728 30.4215L28.6474 30.3943C27.8016 30.3943 27.1121 31.0675 27.1121 31.9046C27.1121 32.7416 27.7832 33.424 28.629 33.424L35.4598 33.4604C35.947 33.4604 36.4067 33.2329 36.7009 32.8417C36.9859 32.4505 37.0778 31.9501 36.9307 31.4861C34.9633 25.2901 33.8509 22.0967 32.9775 15.5459C32.8764 14.7907 32.2236 14.2266 31.4606 14.2266H24.8781C24.0323 14.2266 23.3519 14.909 23.3519 15.737C23.3519 16.5649 24.0323 17.2473 24.8781 17.2473M15.4456 17.684C15.4456 17.4929 15.3169 17.32 15.133 17.2563C14.9491 17.1927 14.7469 17.2564 14.6274 17.411L8.9458 24.9262C8.84467 25.0627 8.82629 25.2446 8.89984 25.3902C8.98258 25.5449 9.13888 25.6359 9.30436 25.6359H12.2554V30.4398C12.2554 30.6308 12.375 30.8037 12.568 30.8674C12.7519 30.9311 12.9541 30.8674 13.0737 30.7127L18.7369 23.243C18.838 23.1066 18.8564 22.9246 18.7736 22.779C18.7001 22.6243 18.5438 22.5334 18.3691 22.5334H15.4364V17.684H15.4456ZM24.6483 10.2507L24.3264 11.8156C24.2345 12.2614 24.4552 12.7163 24.8689 12.9256C25.2826 13.1258 25.7882 13.0257 26.0916 12.689L26.6248 12.0885H26.634C26.9558 12.2432 27.3971 12.3433 27.9946 12.1795C28.3256 12.0885 28.6198 11.9157 28.868 11.6882C29.3829 11.8884 29.9897 11.9521 30.6332 11.9794C31.5617 12.0158 32.2972 11.4789 32.7109 10.6328C33.2073 9.6138 33.1338 8.16719 32.5362 7.34834C31.8375 6.40212 30.5964 5.9563 29.3737 6.34753C28.8128 6.52949 28.3348 6.86614 27.9855 7.29376C27.5534 7.10269 26.919 7.0299 25.9721 7.45752C24.9333 7.92153 24.3173 9.00422 24.6114 10.096C24.6206 10.1415 24.6391 10.1961 24.6575 10.2416M12.283 5.80163L11.9613 7.36653C11.8693 7.81235 12.09 8.26726 12.5037 8.47652C12.9174 8.67668 13.4138 8.57662 13.7264 8.23998L14.6641 7.17547C14.756 7.15728 14.848 7.13907 14.9308 7.11178C15.2066 7.0208 15.4548 6.88434 15.6662 6.70237C16.319 7.04811 17.1004 7.12998 17.8727 6.88432C18.0382 6.82973 18.2036 6.75695 18.3507 6.68416C19.2425 7.5485 20.5663 7.94883 21.8626 7.60309C23.8116 7.08449 24.97 5.10106 24.446 3.18132C23.9219 1.25249 21.9178 0.106106 19.978 0.624708C19.3712 0.779378 18.8472 1.07962 18.4243 1.47995C17.7807 1.15241 17.0085 1.07053 16.2546 1.31619C15.4456 1.58004 14.8112 2.16233 14.4619 2.8902C14.2137 2.8811 13.9562 2.90838 13.6988 2.99026C12.5864 3.3451 11.9245 4.54608 12.2279 5.67426C12.2371 5.71976 12.2554 5.77435 12.2738 5.81984"/>
</mask>
<path fill-rule="evenodd" clip-rule="evenodd" d="M0.064936 35.4256C-0.072966 35.8805 0.00972803 36.3809 0.303919 36.763C0.588916 37.1452 1.03941 37.3726 1.52667 37.3726L25.8434 37.5C26.3306 37.5 26.7903 37.2725 27.0845 36.8813C27.3787 36.4901 27.4614 35.9897 27.3143 35.5257C24.3908 26.3455 22.7544 20.0041 21.4673 10.2871C21.3662 9.53194 20.7134 8.96784 19.9503 8.96784H7.62194C6.85888 8.96784 6.20612 9.53193 6.10499 10.278C4.70759 20.6773 2.68503 26.755 0.0740823 35.4165M3.57679 34.3611C5.84758 26.8823 7.64032 21.0503 8.9366 12.0067H18.5989C19.7941 20.5044 21.2926 26.5275 23.7565 34.4612L3.56764 34.352L3.57679 34.3611ZM24.8689 17.2563H30.1184C30.8906 22.4788 31.8467 25.6359 33.3728 30.4215L28.6474 30.3943C27.8016 30.3943 27.1121 31.0675 27.1121 31.9046C27.1121 32.7416 27.7832 33.424 28.629 33.424L35.4598 33.4604C35.947 33.4604 36.4067 33.2329 36.7009 32.8417C36.9859 32.4505 37.0778 31.9501 36.9307 31.4861C34.9633 25.2901 33.8509 22.0967 32.9775 15.5459C32.8764 14.7907 32.2236 14.2266 31.4606 14.2266H24.8781C24.0323 14.2266 23.3519 14.909 23.3519 15.737C23.3519 16.5649 24.0323 17.2473 24.8781 17.2473M15.4456 17.684C15.4456 17.4929 15.3169 17.32 15.133 17.2563C14.9491 17.1927 14.7469 17.2564 14.6274 17.411L8.9458 24.9262C8.84467 25.0627 8.82629 25.2446 8.89984 25.3902C8.98258 25.5449 9.13888 25.6359 9.30436 25.6359H12.2554V30.4398C12.2554 30.6308 12.375 30.8037 12.568 30.8674C12.7519 30.9311 12.9541 30.8674 13.0737 30.7127L18.7369 23.243C18.838 23.1066 18.8564 22.9246 18.7736 22.779C18.7001 22.6243 18.5438 22.5334 18.3691 22.5334H15.4364V17.684H15.4456ZM24.6483 10.2507L24.3264 11.8156C24.2345 12.2614 24.4552 12.7163 24.8689 12.9256C25.2826 13.1258 25.7882 13.0257 26.0916 12.689L26.6248 12.0885H26.634C26.9558 12.2432 27.3971 12.3433 27.9946 12.1795C28.3256 12.0885 28.6198 11.9157 28.868 11.6882C29.3829 11.8884 29.9897 11.9521 30.6332 11.9794C31.5617 12.0158 32.2972 11.4789 32.7109 10.6328C33.2073 9.6138 33.1338 8.16719 32.5362 7.34834C31.8375 6.40212 30.5964 5.9563 29.3737 6.34753C28.8128 6.52949 28.3348 6.86614 27.9855 7.29376C27.5534 7.10269 26.919 7.0299 25.9721 7.45752C24.9333 7.92153 24.3173 9.00422 24.6114 10.096C24.6206 10.1415 24.6391 10.1961 24.6575 10.2416M12.283 5.80163L11.9613 7.36653C11.8693 7.81235 12.09 8.26726 12.5037 8.47652C12.9174 8.67668 13.4138 8.57662 13.7264 8.23998L14.6641 7.17547C14.756 7.15728 14.848 7.13907 14.9308 7.11178C15.2066 7.0208 15.4548 6.88434 15.6662 6.70237C16.319 7.04811 17.1004 7.12998 17.8727 6.88432C18.0382 6.82973 18.2036 6.75695 18.3507 6.68416C19.2425 7.5485 20.5663 7.94883 21.8626 7.60309C23.8116 7.08449 24.97 5.10106 24.446 3.18132C23.9219 1.25249 21.9178 0.106106 19.978 0.624708C19.3712 0.779378 18.8472 1.07962 18.4243 1.47995C17.7807 1.15241 17.0085 1.07053 16.2546 1.31619C15.4456 1.58004 14.8112 2.16233 14.4619 2.8902C14.2137 2.8811 13.9562 2.90838 13.6988 2.99026C12.5864 3.3451 11.9245 4.54608 12.2279 5.67426C12.2371 5.71976 12.2554 5.77435 12.2738 5.81984" fill="white"/>
<path d="M0.303919 36.763L1.10553 36.1652L1.10096 36.1591L1.0963 36.153L0.303919 36.763ZM1.52667 37.3726L1.5319 36.3726H1.52667V37.3726ZM25.8434 37.5L25.8382 38.5H25.8434V37.5ZM27.3143 35.5257L28.2676 35.2235L28.2672 35.2222L27.3143 35.5257ZM21.4673 10.2871L22.4586 10.1558L22.4584 10.1544L21.4673 10.2871ZM6.10499 10.278L5.11405 10.1437L5.1139 10.1448L6.10499 10.278ZM3.57679 34.3611L2.8712 35.0697L4.05025 36.2437L4.53366 34.6516L3.57679 34.3611ZM8.9366 12.0067V11.0067H8.06971L7.94671 11.8648L8.9366 12.0067ZM18.5989 12.0067L19.5892 11.8674L19.4681 11.0067H18.5989V12.0067ZM23.7565 34.4612L23.751 35.4612L25.1164 35.4686L24.7115 34.1646L23.7565 34.4612ZM3.56764 34.352L3.57305 33.352L1.13285 33.3388L2.86206 35.0606L3.56764 34.352ZM30.1184 17.2563L31.1076 17.1101L30.9814 16.2563H30.1184V17.2563ZM33.3728 30.4215L33.3671 31.4215L34.7439 31.4295L34.3256 30.1177L33.3728 30.4215ZM28.6474 30.3943L28.6532 29.3943H28.6474V30.3943ZM28.629 33.424L28.6343 32.424H28.629V33.424ZM35.4598 33.4604L35.4544 34.4604H35.4598V33.4604ZM36.7009 32.8417L37.5001 33.4427L37.5047 33.4366L37.5091 33.4305L36.7009 32.8417ZM36.9307 31.4861L37.884 31.1839L37.8838 31.1834L36.9307 31.4861ZM32.9775 15.5459L33.9688 15.4137L33.9687 15.4132L32.9775 15.5459ZM15.4456 17.684V18.684H16.4456V17.684H15.4456ZM14.6274 17.411L13.836 16.7996L13.8297 16.808L14.6274 17.411ZM8.9458 24.9262L8.14807 24.3231L8.14234 24.3308L8.9458 24.9262ZM8.89984 25.3902L8.00729 25.8412L8.01257 25.8516L8.01808 25.8619L8.89984 25.3902ZM12.2554 25.6359H13.2554V24.6359H12.2554V25.6359ZM12.568 30.8674L12.8953 29.9225L12.8883 29.92L12.8813 29.9177L12.568 30.8674ZM13.0737 30.7127L13.865 31.3242L13.8705 31.3169L13.0737 30.7127ZM18.7369 23.243L19.5338 23.8472L19.5403 23.8384L18.7369 23.243ZM18.7736 22.779L17.8705 23.2084L17.8862 23.2414L17.9042 23.2731L18.7736 22.779ZM15.4364 22.5334H14.4364V23.5334H15.4364V22.5334ZM15.4364 17.684V16.684H14.4364V17.684H15.4364ZM24.3264 11.8156L25.3058 12.0176L25.306 12.017L24.3264 11.8156ZM24.8689 12.9256L24.4175 13.8179L24.4254 13.8219L24.4334 13.8258L24.8689 12.9256ZM26.0916 12.689L26.8345 13.3585L26.8394 13.353L26.0916 12.689ZM26.6248 12.0885V11.0885H26.1754L25.877 11.4246L26.6248 12.0885ZM26.634 12.0885L27.0672 11.1873L26.8619 11.0885H26.634V12.0885ZM27.9946 12.1795L28.2589 13.144L28.2597 13.1438L27.9946 12.1795ZM28.868 11.6882L29.2304 10.7562L28.6509 10.5309L28.1924 10.9509L28.868 11.6882ZM30.6332 11.9794L30.5908 12.9785L30.594 12.9786L30.6332 11.9794ZM32.7109 10.6328L33.6093 11.0721L33.6099 11.0708L32.7109 10.6328ZM32.5362 7.34834L33.344 6.75884L33.3407 6.75432L32.5362 7.34834ZM29.3737 6.34753L29.0689 5.39509L29.065 5.39635L29.3737 6.34753ZM27.9855 7.29376L27.5811 8.20833L28.2779 8.51645L28.7599 7.92643L27.9855 7.29376ZM25.9721 7.45752L26.3799 8.37059L26.3837 8.3689L25.9721 7.45752ZM24.6114 10.096L25.5916 9.89792L25.5853 9.86665L25.577 9.83584L24.6114 10.096ZM11.9613 7.36653L12.9407 7.5685L12.9408 7.56792L11.9613 7.36653ZM12.5037 8.47652L12.0523 9.36886L12.0602 9.37285L12.0681 9.3767L12.5037 8.47652ZM13.7264 8.23998L14.4592 8.92042L14.4681 8.91082L14.4768 8.90098L13.7264 8.23998ZM14.6641 7.17547L14.4699 6.1945L14.1376 6.26028L13.9137 6.51448L14.6641 7.17547ZM14.9308 7.11178L15.244 8.06144L14.9308 7.11178ZM15.6662 6.70237L16.1343 5.81868L15.5312 5.49925L15.0139 5.9444L15.6662 6.70237ZM17.8727 6.88432L18.1758 7.83733L18.1859 7.83398L17.8727 6.88432ZM18.3507 6.68416L19.0467 5.9661L18.5398 5.47484L17.9072 5.78788L18.3507 6.68416ZM21.8626 7.60309L21.6055 6.63672L21.6049 6.63687L21.8626 7.60309ZM24.446 3.18132L23.4809 3.4435L23.4813 3.44465L24.446 3.18132ZM19.978 0.624708L20.225 1.59379L20.2362 1.59078L19.978 0.624708ZM18.4243 1.47995L17.9707 2.37116L18.5994 2.69115L19.1117 2.20617L18.4243 1.47995ZM16.2546 1.31619L15.9448 0.365392L15.9446 0.365468L16.2546 1.31619ZM14.4619 2.8902L14.4252 3.88953L15.0799 3.91352L15.3634 3.32291L14.4619 2.8902ZM13.6988 2.99026L13.3957 2.03732L13.3949 2.03756L13.6988 2.99026ZM12.2279 5.67426L13.2081 5.47618L13.2018 5.44515L13.1936 5.41458L12.2279 5.67426ZM-0.89206 35.1355C-1.1203 35.8884 -0.986545 36.7261 -0.488458 37.3731L1.0963 36.153C1.006 36.0357 0.974372 35.8726 1.02193 35.7157L-0.89206 35.1355ZM-0.497687 37.3609C-0.0229419 37.9974 0.725396 38.3726 1.52667 38.3726V36.3726C1.35343 36.3726 1.20077 36.2929 1.10553 36.1652L-0.497687 37.3609ZM1.52143 38.3726L25.8382 38.5L25.8486 36.5L1.5319 36.3727L1.52143 38.3726ZM25.8434 38.5C26.6429 38.5 27.3994 38.1264 27.8837 37.4823L26.2852 36.2803C26.1812 36.4187 26.0184 36.5 25.8434 36.5V38.5ZM27.8837 37.4823C28.3741 36.8302 28.5115 35.9928 28.2676 35.2235L26.3611 35.8279C26.4114 35.9866 26.3832 36.15 26.2852 36.2803L27.8837 37.4823ZM28.2672 35.2222C25.356 26.0809 23.7359 19.7987 22.4586 10.1558L20.476 10.4184C21.7728 20.2094 23.4256 26.6102 26.3615 35.8291L28.2672 35.2222ZM22.4584 10.1544C22.2899 8.8957 21.2073 7.96784 19.9503 7.96784V9.96784C20.2195 9.96784 20.4424 10.1682 20.4761 10.4198L22.4584 10.1544ZM19.9503 7.96784H7.62194V9.96784H19.9503V7.96784ZM7.62194 7.96784C6.36839 7.96784 5.28371 8.89203 5.11406 10.1437L7.09593 10.4123C7.12853 10.1718 7.34937 9.96784 7.62194 9.96784V7.96784ZM5.1139 10.1448C3.72884 20.4523 1.73117 26.4545 -0.883364 35.1279L1.03153 35.7051C3.63889 27.0555 5.68633 20.9024 7.09609 10.4112L5.1139 10.1448ZM4.53366 34.6516C6.8053 27.17 8.61842 21.2744 9.92648 12.1485L7.94671 11.8648C6.66221 20.8263 4.88985 26.5946 2.61993 34.0706L4.53366 34.6516ZM8.9366 13.0067H18.5989V11.0067H8.9366V13.0067ZM17.6087 12.1459C18.8129 20.7085 20.3255 26.7851 22.8015 34.7578L24.7115 34.1646C22.2597 26.2699 20.7752 20.3004 19.5892 11.8674L17.6087 12.1459ZM23.7619 33.4612L3.57305 33.352L3.56224 35.352L23.751 35.4612L23.7619 33.4612ZM2.86206 35.0606L2.8712 35.0697L4.28238 33.6525L4.27323 33.6434L2.86206 35.0606ZM24.8689 18.2563H30.1184V16.2563H24.8689V18.2563ZM29.1291 17.4026C29.9134 22.7062 30.8892 25.9245 32.4201 30.7254L34.3256 30.1177C32.8043 25.3472 31.8679 22.2513 31.1076 17.1101L29.1291 17.4026ZM33.3786 29.4216L28.6532 29.3943L28.6416 31.3942L33.3671 31.4215L33.3786 29.4216ZM28.6474 29.3943C27.267 29.3943 26.1121 30.4977 26.1121 31.9046H28.1121C28.1121 31.6374 28.3362 31.3943 28.6474 31.3943V29.3943ZM26.1121 31.9046C26.1121 33.2879 27.225 34.424 28.629 34.424V32.424C28.3414 32.424 28.1121 32.1953 28.1121 31.9046H26.1121ZM28.6237 34.424L35.4544 34.4604L35.4651 32.4604L28.6343 32.424L28.6237 34.424ZM35.4598 34.4604C36.2593 34.4604 37.0158 34.0867 37.5001 33.4427L35.9016 32.2407C35.7975 32.3791 35.6347 32.4604 35.4598 32.4604V34.4604ZM37.5091 33.4305C37.9722 32.7949 38.1318 31.9656 37.884 31.1839L35.9775 31.7882C36.0238 31.9345 35.9995 32.1061 35.8926 32.2529L37.5091 33.4305ZM37.8838 31.1834C35.9149 24.9827 34.8291 21.8666 33.9688 15.4137L31.9863 15.6781C32.8727 22.3267 34.0117 25.5976 35.9776 31.7887L37.8838 31.1834ZM33.9687 15.4132C33.8001 14.1545 32.7176 13.2266 31.4606 13.2266V15.2266C31.7297 15.2266 31.9527 15.427 31.9864 15.6786L33.9687 15.4132ZM31.4606 13.2266H24.8781V15.2266H31.4606V13.2266ZM24.8781 13.2266C23.4859 13.2266 22.3519 14.3508 22.3519 15.737H24.3519C24.3519 15.4672 24.5786 15.2266 24.8781 15.2266V13.2266ZM22.3519 15.737C22.3519 17.1231 23.4859 18.2473 24.8781 18.2473V16.2473C24.5786 16.2473 24.3519 16.0067 24.3519 15.737H22.3519ZM16.4456 17.684C16.4456 17.0423 16.0232 16.5064 15.4603 16.3114L14.8057 18.2013C14.6105 18.1337 14.4456 17.9435 14.4456 17.684H16.4456ZM15.4603 16.3114C14.856 16.1021 14.2086 16.3175 13.8361 16.7996L15.4186 18.0225C15.2852 18.1952 15.0423 18.2832 14.8057 18.2013L15.4603 16.3114ZM13.8297 16.808L8.14811 24.3231L9.74349 25.5293L15.425 18.0141L13.8297 16.808ZM8.14234 24.3308C7.82956 24.753 7.7532 25.3382 8.00729 25.8412L9.79239 24.9393C9.89939 25.151 9.85978 25.3724 9.74925 25.5216L8.14234 24.3308ZM8.01808 25.8619C8.27417 26.3406 8.76865 26.6359 9.30436 26.6359V24.6359C9.5091 24.6359 9.691 24.7491 9.7816 24.9185L8.01808 25.8619ZM9.30436 26.6359H12.2554V24.6359H9.30436V26.6359ZM11.2554 25.6359V30.4398H13.2554V25.6359H11.2554ZM11.2554 30.4398C11.2554 31.0586 11.6483 31.617 12.2548 31.817L12.8813 29.9177C13.1017 29.9904 13.2554 30.203 13.2554 30.4398H11.2554ZM12.2407 31.8123C12.845 32.0216 13.4925 31.8062 13.8649 31.3241L12.2824 30.1013C12.4158 29.9285 12.6588 29.8405 12.8953 29.9225L12.2407 31.8123ZM13.8705 31.3169L19.5337 23.8472L17.94 22.6389L12.2768 30.1085L13.8705 31.3169ZM19.5403 23.8384C19.8533 23.416 19.9404 22.8081 19.643 22.2849L17.9042 23.2731C17.7723 23.041 17.8226 22.7971 17.9334 22.6477L19.5403 23.8384ZM19.6767 22.3496C19.4222 21.8144 18.893 21.5334 18.3691 21.5334V23.5334C18.1946 23.5334 17.9779 23.4343 17.8705 23.2084L19.6767 22.3496ZM18.3691 21.5334H15.4364V23.5334H18.3691V21.5334ZM16.4364 22.5334V17.684H14.4364V22.5334H16.4364ZM15.4364 18.684H15.4456V16.684H15.4364V18.684ZM23.6687 10.0493L23.3469 11.6142L25.306 12.017L25.6278 10.4521L23.6687 10.0493ZM23.3471 11.6136C23.1625 12.5084 23.6072 13.408 24.4175 13.8179L25.3202 12.0332C25.3155 12.0308 25.3127 12.0285 25.311 12.0268C25.3091 12.0248 25.3078 12.0228 25.3069 12.021C25.306 12.0192 25.3058 12.018 25.3058 12.0178C25.3058 12.0178 25.3058 12.0178 25.3058 12.0179C25.3058 12.0181 25.3058 12.018 25.3058 12.0176L23.3471 11.6136ZM24.4334 13.8258C25.246 14.2189 26.2322 14.0267 26.8345 13.3585L25.3488 12.0196C25.3497 12.0185 25.3448 12.0243 25.3304 12.0271C25.3164 12.0298 25.3075 12.0269 25.3044 12.0254L24.4334 13.8258ZM26.8394 13.353L27.3726 12.7525L25.877 11.4246L25.3439 12.0251L26.8394 13.353ZM26.6248 13.0885H26.634V11.0885H26.6248V13.0885ZM26.2008 12.9898C26.7198 13.2393 27.4082 13.3771 28.2589 13.144L27.7303 11.2151C27.5453 11.2658 27.4109 11.269 27.3163 11.259C27.2212 11.2489 27.1409 11.2227 27.0672 11.1873L26.2008 12.9898ZM28.2597 13.1438C28.7593 13.0064 29.1911 12.7485 29.5436 12.4255L28.1924 10.9509C28.0485 11.0828 27.8919 11.1707 27.7296 11.2153L28.2597 13.1438ZM28.5057 12.6202C29.1831 12.8836 29.9298 12.9504 30.5908 12.9785L30.6756 10.9803C30.0495 10.9537 29.5826 10.8931 29.2304 10.7562L28.5057 12.6202ZM30.594 12.9786C31.9971 13.0336 33.059 12.1975 33.6093 11.072L31.8125 10.1936C31.5354 10.7604 31.1264 10.9979 30.6724 10.9801L30.594 12.9786ZM33.6099 11.0708C33.9433 10.3865 34.0709 9.59695 34.0324 8.86312C33.9943 8.13588 33.7871 7.36605 33.344 6.75885L31.7284 7.93784C31.8829 8.14948 32.0113 8.51238 32.0352 8.96791C32.0587 9.41685 31.975 9.86014 31.8119 10.1948L33.6099 11.0708ZM33.3407 6.75432C32.392 5.46965 30.7075 4.8708 29.0689 5.39509L29.6784 7.29996C30.4852 7.04181 31.283 7.3346 31.7318 7.94236L33.3407 6.75432ZM29.065 5.39635C28.3184 5.63862 27.6797 6.08745 27.2111 6.66108L28.7599 7.92643C28.99 7.64483 29.3073 7.42037 29.6823 7.29871L29.065 5.39635ZM28.3899 6.37918C27.6585 6.05576 26.7248 6.02039 25.5605 6.54614L26.3837 8.3689C27.1133 8.03941 27.4483 8.14963 27.5811 8.20833L28.3899 6.37918ZM25.5643 6.54446C24.1494 7.17644 23.2039 8.71596 23.6459 10.3562L25.577 9.83584C25.4306 9.29248 25.7171 8.66662 26.3799 8.37058L25.5643 6.54446ZM23.6313 10.2941C23.6573 10.4231 23.6998 10.5408 23.7303 10.6163L25.5846 9.86685C25.5835 9.86427 25.5828 9.86207 25.5829 9.86234C25.583 9.86277 25.5839 9.86546 25.5852 9.87037C25.5865 9.87502 25.5889 9.88441 25.5916 9.89792L23.6313 10.2941ZM11.3035 5.60024L10.9818 7.16514L12.9408 7.56792L13.2625 6.00302L11.3035 5.60024ZM10.9819 7.16456C10.7974 8.05921 11.2419 8.95894 12.0523 9.36886L12.955 7.58418C12.9503 7.58177 12.9475 7.57948 12.9458 7.57774C12.9439 7.5758 12.9426 7.57379 12.9417 7.57198C12.9408 7.57017 12.9406 7.56902 12.9406 7.56882C12.9406 7.56873 12.9406 7.56878 12.9406 7.56889C12.9406 7.56903 12.9406 7.56894 12.9407 7.5685L10.9819 7.16456ZM12.0681 9.3767C12.8883 9.77352 13.8562 9.56989 14.4592 8.92042L12.9936 7.55955C12.984 7.56988 12.9723 7.57593 12.9608 7.57818C12.95 7.5803 12.9436 7.57847 12.9392 7.57635L12.0681 9.3767ZM14.4768 8.90098L15.4145 7.83647L13.9137 6.51448L12.976 7.57899L14.4768 8.90098ZM14.8583 8.15644C14.9367 8.14092 15.0919 8.11163 15.244 8.06144L14.6175 6.16212C14.6175 6.1621 14.6145 6.16309 14.6076 6.16494C14.6007 6.1668 14.5912 6.16917 14.5782 6.17214C14.55 6.17858 14.5185 6.18489 14.4699 6.1945L14.8583 8.15644ZM15.244 8.06144C15.6338 7.93288 15.9996 7.73476 16.3185 7.46035L15.0139 5.9444C14.9099 6.03392 14.7793 6.10872 14.6175 6.16212L15.244 8.06144ZM15.1982 7.58607C16.0901 8.05852 17.1497 8.16368 18.1758 7.83727L17.5695 5.93137C17.0512 6.09627 16.5478 6.03769 16.1343 5.81868L15.1982 7.58607ZM18.1859 7.83398C18.4101 7.76004 18.6208 7.66626 18.7942 7.58044L17.9072 5.78788C17.7864 5.84764 17.6662 5.89942 17.5594 5.93466L18.1859 7.83398ZM17.6547 7.40222C18.7856 8.49837 20.4674 9.01018 22.1203 8.56932L21.6049 6.63687C20.6653 6.88748 19.6993 6.59863 19.0467 5.9661L17.6547 7.40222ZM22.1197 8.56947C24.5928 7.91142 26.0841 5.38488 25.4107 2.91799L23.4813 3.44465C23.8559 4.81723 23.0304 6.25757 21.6055 6.63672L22.1197 8.56947ZM25.411 2.91914C24.7414 0.454407 22.187 -1.001 19.7197 -0.341364L20.2362 1.59078C21.6485 1.21321 23.1025 2.05057 23.4809 3.4435L25.411 2.91914ZM19.7309 -0.344305C18.9541 -0.146282 18.2797 0.239845 17.7368 0.753723L19.1117 2.20617C19.4147 1.9194 19.7883 1.70504 20.225 1.59372L19.7309 -0.344305ZM18.8778 0.588737C18.0048 0.144404 16.9583 0.0351197 15.9448 0.365392L16.5644 2.26698C17.0586 2.10594 17.5566 2.16042 17.9707 2.37116L18.8778 0.588737ZM15.9446 0.365468C14.8662 0.717157 14.0234 1.49281 13.5603 2.45749L15.3634 3.32291C15.5991 2.83186 16.025 2.44291 16.5647 2.2669L15.9446 0.365468ZM14.4985 1.89087C14.1513 1.87814 13.7772 1.91595 13.3957 2.03732L14.0019 3.94321C14.1352 3.90081 14.276 3.88405 14.4252 3.88953L14.4985 1.89087ZM13.3949 2.03756C11.7776 2.55343 10.8189 4.28544 11.2622 5.93395L13.1936 5.41458C13.0301 4.80672 13.3952 4.13676 14.0027 3.94297L13.3949 2.03756ZM11.2477 5.87235C11.2737 6.00082 11.3159 6.11827 11.3467 6.19457L13.201 5.44511C13.2 5.44284 13.1994 5.4408 13.1994 5.44108C13.1996 5.44152 13.2004 5.44417 13.2017 5.44901C13.203 5.45359 13.2054 5.46285 13.2081 5.47618L11.2477 5.87235Z" fill="white" mask="url(#path-1-inside-1_161_412)"/>
</svg>
