<svg width="48" height="38" viewBox="0 0 48 38" fill="none" xmlns="http://www.w3.org/2000/svg">
<path fill-rule="evenodd" clip-rule="evenodd" d="M19.9248 13.5808C18.7182 14.0246 17.7127 14.6319 16.8728 15.321C15.5361 14.0013 13.6907 13.1954 11.6443 13.1954C7.56316 13.1954 4.25095 16.4656 4.25095 20.5066C4.25095 22.8425 5.36291 24.9214 7.10182 26.2645C0.891426 28.5069 0.0160497 35.0824 0.0160497 35.0824C-0.0549262 35.643 0.110695 36.2036 0.489233 36.6241C0.855942 37.0445 1.40009 37.2898 1.9679 37.2898H21.3325C21.9003 37.2898 22.4444 37.0445 22.8112 36.6241C23.1897 36.2036 23.3553 35.643 23.2843 35.0824C23.2843 35.0824 22.409 28.5069 16.1986 26.2645C16.8019 25.7973 17.3342 25.2367 17.7719 24.6061H30.0862C30.5475 25.3185 31.1272 25.9609 31.8014 26.4747C25.6029 28.7172 24.7157 35.2926 24.7157 35.2926C24.6447 35.8532 24.8103 36.4138 25.177 36.8343C25.5556 37.2547 26.0879 37.5 26.6675 37.5H46.0321C46.5999 37.5 47.1441 37.2547 47.5108 36.8343C47.8893 36.4138 48.0549 35.8532 47.9839 35.2926C47.9839 35.2926 47.1086 28.7172 40.8982 26.4747C42.6253 25.1316 43.7491 23.0527 43.7491 20.7169C43.7491 16.6875 40.4368 13.4056 36.3439 13.4056C34.5813 13.4056 32.9607 14.0129 31.6831 15.0407C30.9261 14.4684 30.027 13.9662 28.9861 13.5808C30.725 12.2377 31.8488 10.1588 31.8488 7.81123C31.8488 3.78188 28.5366 0.5 24.4554 0.5C20.3743 0.5 17.0503 3.7702 17.0503 7.81123C17.0503 10.1588 18.174 12.2377 19.913 13.5808M43.3232 33.6108H29.4001C30.3228 31.8239 32.2865 29.6165 36.3557 29.6165C40.425 29.6165 42.4005 31.8355 43.3232 33.6108ZM18.6236 33.3889H4.70047C5.62316 31.6019 7.58683 29.3946 11.6561 29.3946C15.7254 29.3946 17.7009 31.6136 18.6236 33.3889ZM33.2446 19.2102C33.0199 19.6657 32.8897 20.1679 32.8897 20.7052C32.8897 22.5855 34.4394 24.1272 36.3557 24.1272C38.2721 24.1272 39.8217 22.5972 39.8217 20.7052C39.8217 18.8131 38.2721 17.2831 36.3557 17.2831C35.2911 17.2831 34.3329 17.762 33.6941 18.5211C33.5995 18.7781 33.4457 19.0117 33.2446 19.2102ZM11.6561 17.0729C13.5725 17.0729 15.1221 18.6029 15.1221 20.4949C15.1221 22.387 13.5725 23.917 11.6561 23.917C9.73977 23.917 8.19011 22.387 8.19011 20.4949C8.19011 18.6029 9.73977 17.0729 11.6561 17.0729ZM29.4001 18.2058C28.2645 17.3299 26.6675 16.7108 24.4673 16.7108C21.8293 16.7108 20.0667 17.5985 18.9075 18.7431C18.8838 18.7547 18.872 18.7781 18.8483 18.7898C18.9784 19.3387 19.0494 19.8993 19.0494 20.4949C19.0494 20.565 19.0494 20.6351 19.0494 20.7052H28.9506C28.9506 19.8292 29.1044 18.9883 29.4001 18.2058ZM24.4673 4.38919C26.3718 4.38919 27.9332 5.91919 27.9332 7.81123C27.9332 9.70328 26.3836 11.2333 24.4673 11.2333C22.5509 11.2333 21.0013 9.70328 21.0013 7.81123C21.0013 5.91919 22.5509 4.38919 24.4673 4.38919Z" fill="white"/>
</svg>
